<?xml version="1.0" encoding="utf-8"?>
<!-- Generator: Adobe Illustrator 25.4.1, SVG Export Plug-In . SVG Version: 6.00 Build 0)  -->
<svg version="1.1" id="图层_1" xmlns="http://www.w3.org/2000/svg" xmlns:xlink="http://www.w3.org/1999/xlink" x="0px" y="0px"
	 viewBox="0 0 161.36 200" style="enable-background:new 0 0 161.36 200;" xml:space="preserve">
<style type="text/css">
	.st0{fill:#D96A87;}
	.st1{fill:#CED5ED;}
	.st2{fill:#003E4E;}
	.st3{fill:#D9DEF2;}
	.st4{fill:#D6DBF0;}
	.st5{fill:#CCD4ED;}
	.st6{fill:#EE9A99;}
	.st7{fill:#DCE0F2;}
	.st8{fill:#FFFFFF;}
</style>
<g>
	<path class="st0" d="M126.19,154.23c-2.5-3.66-5.54-6.38-7.97-8.5l-1.42-0.09c1.25,1.58,2.35,3.29,3.22,5.07
		c2.04,1.36,4.02,2.91,5.53,4.15C125.96,155.2,127.63,156.34,126.19,154.23z"/>
	<path class="st0" d="M126.48,158.72c-1.69-1.59-3.92-3.53-6.13-4.94c-0.17-1.59-0.55-3.19-1.11-4.78c2.27,2.19,6.16,5.55,8.1,8.97
		C128.58,160.15,126.98,159.2,126.48,158.72z"/>
	<path class="st0" d="M120.55,152.84c2.46,2.48,5.79,5.81,7.57,8.9c1.77,3.07-0.46,1.33-0.98,0.77c-1.97-2.09-4.71-4.75-7.07-6.16
		C120.3,155.2,120.46,154.03,120.55,152.84z"/>
	<path class="st0" d="M52.27,154.23c2.5-3.66,5.54-6.38,7.97-8.5l1.42-0.09c-1.25,1.58-2.35,3.29-3.22,5.07
		c-2.04,1.36-4.02,2.91-5.54,4.15C52.5,155.2,50.83,156.34,52.27,154.23z"/>
	<path class="st0" d="M51.99,158.72c1.69-1.59,3.92-3.53,6.13-4.94c0.17-1.59,0.55-3.19,1.11-4.78c-2.27,2.19-6.16,5.55-8.1,8.97
		C49.89,160.15,51.48,159.2,51.99,158.72z"/>
	<path class="st0" d="M57.92,152.84c-2.46,2.48-5.79,5.81-7.57,8.9c-1.77,3.07,0.46,1.33,0.98,0.77c1.97-2.09,4.71-4.75,7.06-6.16
		C58.17,155.2,58.01,154.03,57.92,152.84z"/>
	<path class="st0" d="M60.05,140.37c-0.82,0.64-1.63,1.33-2.42,2.09c-1.85,1.76,0.02,0.99,0.5,0.75c1.1-0.57,2.42-1.23,3.82-1.86
		C61.3,141.05,60.66,140.73,60.05,140.37z"/>
	<path class="st0" d="M61.61,141.19c-2.11,1.35-4.33,2.94-5.88,4.69c-1.66,1.87,0.1,1.27,0.69,0.91c1.98-1.21,4.57-2.64,7.02-3.57
		c0.12-0.37,0.25-0.74,0.4-1.1C63.07,141.85,62.33,141.54,61.61,141.19z"/>
	<path class="st0" d="M63.44,142.27c-2.92,1.91-6.87,4.48-9.25,7.14c-2.36,2.64,0.17,1.39,0.8,0.96c2.36-1.64,5.59-3.67,8.19-4.56
		C63.19,144.63,63.28,143.45,63.44,142.27z"/>
	<path class="st0" d="M48.31,169.08c1.66-4.11,4.03-7.42,5.95-10.02l1.37-0.4c-0.88,1.81-1.58,3.72-2.05,5.64
		c-1.7,1.77-3.3,3.71-4.51,5.25C48.74,169.98,47.36,171.45,48.31,169.08z"/>
	<path class="st0" d="M49,173.53c1.31-1.92,3.07-4.29,4.92-6.15c-0.17-1.59-0.15-3.24,0.05-4.9c-1.75,2.63-4.82,6.75-5.98,10.51
		C47.26,175.37,48.61,174.1,49,173.53z"/>
	<path class="st0" d="M53.52,166.5c-1.87,2.95-4.4,6.92-5.47,10.32c-1.06,3.38,0.73,1.2,1.12,0.54c1.48-2.47,3.57-5.66,5.57-7.54
		C54.27,168.75,53.87,167.64,53.52,166.5z"/>
	<path class="st0" d="M48.51,181.85c0.68-4.38,2.25-8.14,3.53-11.1l1.25-0.7c-0.44,1.96-0.7,3.98-0.72,5.96
		c-1.25,2.11-2.38,4.36-3.21,6.13C49.14,182.62,48.12,184.37,48.51,181.85z"/>
	<path class="st0" d="M50.19,186.02c0.84-2.17,2.02-4.87,3.4-7.1c-0.53-1.51-0.88-3.12-1.06-4.79c-1.11,2.95-3.17,7.66-3.45,11.59
		C48.91,188.21,49.94,186.67,50.19,186.02z"/>
	<path class="st0" d="M53.01,178.16c-1.15,3.29-2.72,7.73-3,11.29c-0.27,3.53,0.98,1,1.22,0.27c0.88-2.74,2.2-6.32,3.72-8.6
		C54.25,180.18,53.6,179.19,53.01,178.16z"/>
	<path class="st0" d="M52.38,192.78c-1.09-4.3-1.12-8.37-1.1-11.6l0.87-1.13c0.36,1.98,0.91,3.94,1.67,5.77
		c-0.33,2.43-0.48,4.94-0.55,6.9C53.26,193.25,53.01,195.26,52.38,192.78z"/>
	<path class="st0" d="M55.56,195.97c-0.08-2.32-0.05-5.27,0.35-7.87c-1.08-1.18-2.03-2.53-2.85-3.99c0.14,3.15,0.09,8.29,1.37,12.01
		C55.24,198.49,55.58,196.66,55.56,195.97z"/>
	<path class="st0" d="M118.5,146.61c0.14-0.08,0.29-0.17,0.44-0.24c-0.24-0.21-0.49-0.43-0.72-0.63l-1.42-0.09
		c0.33,0.42,0.64,0.84,0.95,1.28C118,146.81,118.25,146.71,118.5,146.61z"/>
	<path class="st0" d="M60.75,146.9c0.3-0.42,0.6-0.85,0.92-1.26l-1.42,0.09c-0.19,0.17-0.38,0.34-0.58,0.51
		C60.03,146.45,60.39,146.67,60.75,146.9z"/>
	<path class="st0" d="M57.63,142.46c3.21-3.06,6.74-5.1,9.56-6.66l1.41,0.2c-1.55,1.29-2.98,2.73-4.2,4.29
		c-2.28,0.91-4.54,2.01-6.27,2.91C57.65,143.46,55.78,144.23,57.63,142.46z"/>
	<path class="st0" d="M58.46,145.61c1.57-0.87,3.3-1.74,4.98-2.38c0.5-1.52,1.2-3.01,2.07-4.44c-2.35,1.46-6.09,3.55-8.74,6.03
		c0.17,0.08,0.34,0.17,0.51,0.26C57.68,145.24,58.08,145.42,58.46,145.61z"/>
	<path class="st0" d="M60.71,146.88c0.85-0.43,1.69-0.81,2.47-1.08c0.02-1.17,0.11-2.35,0.26-3.53c-1.49,0.98-3.24,2.12-4.92,3.36
		C59.27,146.01,60,146.42,60.71,146.88z"/>
	<path class="st0" d="M130.43,43.05c-11.81,10.01-31.35,18.79-33.69,14.36c-2.49-4.72,8.04-14.35,19.23-25.01
		c16.39-15.61,23.47-14.84,25.66-12.27C143.81,22.71,142.23,33.04,130.43,43.05z"/>
	<path class="st0" d="M48.04,43.05c11.81,10.01,31.36,18.79,33.69,14.36c2.49-4.72-8.04-14.35-19.23-25.01
		C46.11,16.79,39.03,17.56,36.84,20.13C34.66,22.71,36.23,33.04,48.04,43.05z"/>
	<path class="st0" d="M43.54,89.6c1.47-1.78,3.43-4.04,5.49-6.08c1.12-4.18,3.17-8.27,5.73-11.67c-2.34,2.36-7.87,8.48-12.11,17.16
		C41.4,91.56,43.13,90.09,43.54,89.6z"/>
	<path class="st0" d="M41.96,95.51c1.81-2.07,4.22-4.6,6.67-6.52c0.02-1.89,0.29-3.83,0.76-5.75c-2.43,2.84-6.35,7.38-8.53,11.49
		C38.99,98.23,41.42,96.13,41.96,95.51z"/>
	<path class="st0" d="M48.39,88.97c-2.79,3.05-6.76,7.06-8.5,10.91c-1.69,3.73,0.61,1.55,1.2,0.86c2.23-2.58,5.33-5.86,8.04-7.65
		C48.81,91.75,48.56,90.37,48.39,88.97z"/>
	<path class="st0" d="M125.46,119.25c0,2.24-3.44,4.06-7.7,4.06c-4.25,0-7.7-1.82-7.7-4.06c0-2.24,3.44-4.05,7.7-4.05
		C122.02,115.2,125.46,117.01,125.46,119.25z"/>
	<path class="st0" d="M68.39,119.25c0,2.24-3.45,4.06-7.7,4.06c-4.25,0-7.69-1.82-7.69-4.06c0-2.24,3.45-4.05,7.69-4.05
		C64.95,115.2,68.39,117.01,68.39,119.25z"/>
	<path class="st0" d="M89.56,118.69c0.13,1.13-0.29,2.35-1.13,3.21c-0.82,0.88-2.04,1.38-3.26,1.35c-1.22-0.02-2.42-0.57-3.21-1.48
		c-0.8-0.89-1.18-2.13-1-3.26c0.03-0.18,0.2-0.31,0.38-0.28c0.15,0.02,0.26,0.14,0.28,0.29l0,0.01c0.13,0.95,0.57,1.8,1.21,2.39
		c0.65,0.6,1.49,0.94,2.35,0.95c0.86,0.03,1.72-0.29,2.39-0.86c0.67-0.57,1.14-1.4,1.31-2.35l0,0c0.03-0.18,0.21-0.3,0.39-0.27
		C89.44,118.43,89.55,118.55,89.56,118.69z"/>
	<path class="st0" d="M97.49,118.69c0.13,1.13-0.29,2.35-1.13,3.21c-0.82,0.88-2.04,1.38-3.26,1.35c-1.22-0.02-2.42-0.57-3.21-1.48
		c-0.8-0.89-1.18-2.13-1-3.26c0.03-0.18,0.2-0.31,0.38-0.28c0.15,0.02,0.26,0.14,0.28,0.29l0,0.01c0.13,0.95,0.57,1.8,1.22,2.39
		c0.65,0.6,1.49,0.94,2.35,0.95c0.86,0.03,1.72-0.29,2.39-0.86c0.67-0.57,1.14-1.4,1.31-2.35l0,0c0.03-0.18,0.21-0.3,0.39-0.27
		C97.37,118.43,97.48,118.55,97.49,118.69z"/>
	<path class="st0" d="M85.19,114.46c-0.03-1.36,2.08-2.79,4-2.83c1.91-0.04,4.07,1.34,4.09,2.7c0.03,1.36-2.12,4.41-4.04,4.45
		C87.33,118.81,85.21,115.82,85.19,114.46z"/>
	<path class="st0" d="M75.04,107.95c0,3.43-2.78,6.21-6.21,6.21c-3.43,0-6.21-2.78-6.21-6.21c0-3.43,2.78-6.21,6.21-6.21
		C72.26,101.74,75.04,104.52,75.04,107.95z"/>
	<path class="st0" d="M62.19,154.19c0.24,1.22,0.69,2.37,1.14,3.52c0.46,1.14,0.96,2.28,1.51,3.38c1.1,2.2,2.49,4.26,4.2,6
		c1.71,1.73,3.72,3.2,5.97,4.1c1.12,0.44,2.31,0.73,3.49,0.76c1.18,0.02,2.38-0.23,3.34-0.85c0.97-0.61,1.71-1.59,2.07-2.69
		c0.36-1.11,0.31-2.31-0.18-3.38c-0.97-2.22-2.4-4.26-3.93-6.17c-3.11-3.8-7.05-6.93-11.44-9.22c2.27,1.01,4.41,2.28,6.42,3.76
		c1.99,1.49,3.82,3.21,5.46,5.1c1.63,1.89,3.07,3.96,4.12,6.27c0.55,1.18,0.64,2.61,0.23,3.86c-0.39,1.26-1.22,2.38-2.34,3.1
		c-1.14,0.71-2.47,0.96-3.76,0.93c-1.29-0.04-2.55-0.36-3.73-0.84c-2.34-0.97-4.43-2.48-6.13-4.33c-1.71-1.84-3.07-3.98-4.12-6.24
		c-0.51-1.14-0.95-2.3-1.37-3.47C62.74,156.61,62.35,155.42,62.19,154.19z"/>
	<path class="st0" d="M84.32,168.58c-0.59,0.03-1.07-0.08-1.57-0.22c-0.49-0.15-0.95-0.36-1.38-0.61c-0.43-0.25-0.83-0.55-1.21-0.87
		c-0.19-0.16-0.36-0.34-0.54-0.5l-0.5-0.54l0.56,0.47c0.2,0.14,0.39,0.3,0.59,0.42c0.4,0.27,0.82,0.5,1.26,0.69
		c0.44,0.18,0.89,0.32,1.35,0.4c0.45,0.08,0.94,0.1,1.33,0.03l0.03-0.01c0.2-0.04,0.4,0.1,0.43,0.3c0.04,0.2-0.1,0.4-0.3,0.43
		L84.32,168.58z"/>
	<path class="st0" d="M82.58,171.3c-0.59,0.03-1.07-0.08-1.57-0.22c-0.49-0.15-0.95-0.36-1.38-0.61c-0.43-0.25-0.83-0.55-1.21-0.87
		c-0.19-0.16-0.36-0.34-0.54-0.5l-0.5-0.54l0.56,0.47c0.2,0.14,0.39,0.3,0.59,0.42c0.4,0.27,0.82,0.5,1.26,0.69
		c0.44,0.18,0.89,0.32,1.35,0.4c0.45,0.08,0.94,0.1,1.33,0.03l0.03-0.01c0.2-0.04,0.4,0.1,0.43,0.3c0.04,0.2-0.1,0.4-0.3,0.43
		L82.58,171.3z"/>
	<path class="st0" d="M116.28,154.19c-0.16,1.23-0.55,2.42-0.95,3.59c-0.41,1.17-0.86,2.33-1.37,3.47
		c-1.05,2.26-2.41,4.39-4.12,6.24c-1.7,1.85-3.79,3.36-6.13,4.33c-1.18,0.48-2.43,0.8-3.72,0.84c-1.29,0.03-2.62-0.22-3.76-0.93
		c-1.12-0.72-1.95-1.84-2.34-3.1c-0.41-1.25-0.32-2.68,0.23-3.86c1.05-2.31,2.49-4.37,4.12-6.27c1.63-1.89,3.46-3.6,5.46-5.1
		c2-1.48,4.15-2.75,6.42-3.76c-4.39,2.29-8.33,5.41-11.44,9.22c-1.53,1.91-2.96,3.95-3.93,6.17c-0.49,1.07-0.54,2.28-0.18,3.38
		c0.35,1.1,1.1,2.08,2.07,2.69c0.96,0.62,2.17,0.87,3.34,0.85c1.19-0.02,2.37-0.31,3.49-0.76c2.25-0.9,4.26-2.36,5.97-4.1
		c1.71-1.75,3.1-3.8,4.2-6c0.55-1.1,1.05-2.24,1.51-3.38C115.59,156.56,116.04,155.41,116.28,154.19z"/>
	<path class="st0" d="M94.26,167.85c0.38,0.07,0.88,0.05,1.33-0.03c0.46-0.08,0.91-0.22,1.35-0.4c0.44-0.19,0.86-0.42,1.26-0.69
		c0.2-0.13,0.39-0.28,0.59-0.42l0.56-0.47l-0.5,0.54c-0.18,0.17-0.35,0.35-0.54,0.5c-0.37,0.32-0.78,0.62-1.21,0.87
		c-0.43,0.25-0.9,0.46-1.38,0.61c-0.5,0.14-0.98,0.25-1.57,0.22c-0.21-0.01-0.36-0.19-0.35-0.39c0.01-0.21,0.18-0.36,0.39-0.35
		l0.05,0.01L94.26,167.85z"/>
	<path class="st0" d="M96,170.57c0.38,0.07,0.88,0.05,1.33-0.03c0.46-0.08,0.91-0.22,1.35-0.4c0.44-0.19,0.86-0.42,1.26-0.69
		c0.2-0.13,0.39-0.28,0.59-0.42l0.56-0.47l-0.5,0.54c-0.18,0.17-0.35,0.35-0.54,0.5c-0.37,0.32-0.77,0.62-1.21,0.87
		c-0.43,0.25-0.9,0.46-1.38,0.61c-0.5,0.14-0.98,0.25-1.57,0.22c-0.2-0.01-0.36-0.19-0.35-0.39c0.01-0.21,0.18-0.36,0.39-0.35
		l0.05,0.01L96,170.57z"/>
	<path class="st0" d="M113.44,103.29c-0.78,0.58-1.58,1.12-2.37,1.69c-0.8,0.55-1.6,1.09-2.4,1.63c-1.61,1.07-3.24,2.11-4.88,3.14
		l-0.22-1.26c1.85,0.42,3.69,0.84,5.53,1.31c0.92,0.23,1.83,0.47,2.75,0.72c0.91,0.26,1.83,0.5,2.73,0.79
		c0.17,0.05,0.27,0.24,0.22,0.42c-0.05,0.16-0.2,0.25-0.36,0.23c-0.94-0.13-1.87-0.3-2.81-0.44c-0.93-0.16-1.87-0.33-2.79-0.51
		c-1.86-0.35-3.71-0.75-5.56-1.15c-0.37-0.08-0.61-0.45-0.53-0.82c0.04-0.19,0.16-0.34,0.31-0.44c1.64-1.02,3.29-2.03,4.96-3.01
		c0.83-0.49,1.67-0.97,2.51-1.45c0.85-0.46,1.69-0.95,2.55-1.39c0.16-0.08,0.36-0.02,0.45,0.14
		C113.61,103.02,113.57,103.2,113.44,103.29z"/>
	<path class="st1" d="M105.97,155.26c2.57-5.57,5.98-11.26,11.55-13.82c-0.83,1.75-1.26,3.7-1.24,5.64
		c0.45,0.26,0.16-9.22,10.61-9.88c-2.27,1.57-4.15,4.81-4.34,6.18c2.54-4.92,8-8.19,13.53-8.11c1.53,5.06,0.72,13.99-1.03,18.53
		c-2.87,7.47-7.31,12.56-13.7,17.38c-3.5,2.64-8.68,2.45-12.78,3.99c-2.18,0.82-5.47,2.32-7.85,1.68c-2.54-0.69-1.25-3.5-0.74-5.32
		C101.54,165.96,103.55,160.51,105.97,155.26z"/>
	<path class="st2" d="M135.63,152.22c-0.52,2.28-1.41,4.49-2.51,6.57c-0.28,0.51-0.55,1.04-0.86,1.54l-0.94,1.5l-1.03,1.44
		c-0.34,0.48-0.73,0.92-1.1,1.39l-0.57,0.68l-0.6,0.65c-0.41,0.42-0.79,0.88-1.22,1.28c-0.87,0.79-1.72,1.62-2.68,2.31
		c-0.47,0.35-0.91,0.75-1.41,1.06l-1.48,0.96c-0.49,0.33-1.02,0.58-1.54,0.86c-0.52,0.28-1.04,0.54-1.56,0.8
		c1.92-1.34,3.82-2.67,5.53-4.23c1.75-1.51,3.35-3.18,4.82-4.96c1.49-1.76,2.81-3.66,4.01-5.63
		C133.68,156.45,134.77,154.4,135.63,152.22z"/>
	<path class="st2" d="M132.19,135.76c-0.99,0.36-1.94,0.82-2.86,1.31c-0.91,0.5-1.79,1.06-2.6,1.7c-0.83,0.62-1.59,1.33-2.28,2.1
		c-0.71,0.76-1.3,1.62-1.89,2.5c0.4-0.98,0.87-1.95,1.55-2.79c0.3-0.45,0.7-0.81,1.05-1.22c0.4-0.36,0.79-0.73,1.22-1.05
		C128.08,137.02,130.08,136.08,132.19,135.76z"/>
	<path class="st3" d="M118.83,146.87c-2.5-3.66-5.54-6.38-7.97-8.5l-1.42-0.09c1.25,1.58,2.35,3.29,3.22,5.07
		c2.04,1.36,4.02,2.91,5.54,4.15C118.6,147.84,120.27,148.98,118.83,146.87z"/>
	<path class="st3" d="M119.11,151.36c-1.69-1.6-3.92-3.53-6.13-4.94c-0.17-1.59-0.55-3.19-1.1-4.78c2.27,2.19,6.16,5.55,8.1,8.97
		C121.21,152.79,119.62,151.84,119.11,151.36z"/>
	<path class="st3" d="M113.18,145.47c2.46,2.48,5.79,5.81,7.57,8.9c1.77,3.07-0.46,1.33-0.98,0.77c-1.97-2.09-4.71-4.75-7.07-6.16
		C112.93,147.84,113.09,146.66,113.18,145.47z"/>
	<path class="st3" d="M113.47,135.1c-0.97-0.92-1.97-1.75-2.97-2.5c-0.6,0.41-1.23,0.79-1.87,1.15c1.59,0.71,3.1,1.45,4.34,2.09
		C113.45,136.09,115.32,136.86,113.47,135.1z"/>
	<path class="st3" d="M109.02,133.53c-0.6,0.35-1.22,0.69-1.86,1.01c0.18,0.44,0.35,0.88,0.5,1.33c2.45,0.93,5.04,2.36,7.02,3.57
		c0.59,0.36,2.35,0.96,0.69-0.91C113.71,136.64,111.27,134.94,109.02,133.53z"/>
	<path class="st3" d="M107.66,134.9c2.92,1.91,6.87,4.48,9.25,7.14c2.36,2.64-0.17,1.39-0.8,0.96c-2.36-1.64-5.59-3.67-8.19-4.56
		C107.91,137.26,107.82,136.08,107.66,134.9z"/>
	<path class="st3" d="M122.79,161.72c-1.66-4.11-4.03-7.43-5.95-10.02l-1.37-0.4c0.88,1.81,1.58,3.72,2.05,5.64
		c1.7,1.77,3.3,3.71,4.51,5.25C122.36,162.61,123.74,164.09,122.79,161.72z"/>
	<path class="st3" d="M122.1,166.16c-1.31-1.92-3.07-4.29-4.92-6.15c0.17-1.59,0.15-3.24-0.05-4.9c1.75,2.63,4.82,6.75,5.98,10.51
		C123.84,168.01,122.49,166.74,122.1,166.16z"/>
	<path class="st3" d="M117.58,159.14c1.87,2.95,4.4,6.92,5.47,10.32c1.06,3.38-0.73,1.2-1.12,0.54c-1.48-2.47-3.57-5.66-5.57-7.54
		C116.83,161.39,117.23,160.28,117.58,159.14z"/>
	<path class="st3" d="M122.59,174.48c-0.68-4.38-2.25-8.14-3.53-11.1l-1.25-0.7c0.44,1.96,0.7,3.98,0.72,5.96
		c1.25,2.11,2.38,4.36,3.21,6.13C121.96,175.25,122.98,177.01,122.59,174.48z"/>
	<path class="st3" d="M120.91,178.66c-0.84-2.17-2.02-4.87-3.4-7.1c0.53-1.51,0.88-3.12,1.06-4.79c1.11,2.96,3.17,7.67,3.44,11.59
		C122.19,180.85,121.16,179.3,120.91,178.66z"/>
	<path class="st3" d="M118.09,170.79c1.15,3.29,2.72,7.73,2.99,11.29c0.27,3.53-0.98,1-1.22,0.27c-0.88-2.74-2.2-6.32-3.72-8.6
		C116.85,172.81,117.5,171.82,118.09,170.79z"/>
	<path class="st3" d="M118.72,185.42c1.09-4.3,1.12-8.37,1.1-11.6l-0.87-1.13c-0.36,1.98-0.91,3.94-1.67,5.77
		c0.33,2.43,0.48,4.94,0.55,6.9C117.84,185.89,118.09,187.9,118.72,185.42z"/>
	<path class="st3" d="M115.54,188.6c0.08-2.32,0.05-5.28-0.35-7.87c1.08-1.18,2.03-2.52,2.85-3.99c-0.14,3.15-0.09,8.29-1.37,12.01
		C115.86,191.12,115.52,189.3,115.54,188.6z"/>
	<path class="st3" d="M116.03,180.26c-0.23,3.48-0.53,8.18-1.67,11.56c-1.13,3.35-1.3,0.53-1.23-0.22c0.27-2.86,0.45-6.68-0.05-9.37
		C114.1,181.64,115.08,180.98,116.03,180.26z"/>
	<path class="st4" d="M44.91,146.87c2.5-3.66,5.54-6.38,7.97-8.5l1.42-0.09c-1.25,1.58-2.35,3.29-3.22,5.07
		c-2.04,1.36-4.02,2.91-5.54,4.15C45.14,147.84,43.47,148.98,44.91,146.87z"/>
	<path class="st4" d="M44.62,151.36c1.69-1.6,3.92-3.53,6.13-4.94c0.17-1.59,0.55-3.19,1.1-4.78c-2.27,2.19-6.16,5.55-8.1,8.97
		C42.52,152.79,44.12,151.84,44.62,151.36z"/>
	<path class="st4" d="M50.55,145.47c-2.46,2.48-5.79,5.81-7.57,8.9c-1.77,3.07,0.46,1.33,0.98,0.77c1.97-2.09,4.71-4.75,7.07-6.16
		C50.8,147.84,50.65,146.66,50.55,145.47z"/>
	<path class="st4" d="M52.68,133.01c-0.82,0.64-1.63,1.33-2.42,2.09c-1.85,1.76,0.02,0.99,0.5,0.75c1.1-0.57,2.42-1.23,3.82-1.86
		C53.93,133.68,53.3,133.36,52.68,133.01z"/>
	<path class="st4" d="M54.24,133.83c-2.11,1.35-4.33,2.94-5.88,4.69c-1.66,1.87,0.1,1.28,0.69,0.91c1.98-1.21,4.57-2.64,7.02-3.57
		c0.12-0.37,0.25-0.73,0.4-1.1C55.71,134.49,54.97,134.18,54.24,133.83z"/>
	<path class="st4" d="M56.07,134.9c-2.92,1.91-6.87,4.48-9.25,7.14c-2.36,2.64,0.17,1.39,0.8,0.96c2.36-1.64,5.59-3.67,8.19-4.56
		C55.83,137.26,55.92,136.08,56.07,134.9z"/>
	<path class="st4" d="M40.95,161.72c1.66-4.11,4.03-7.43,5.95-10.02l1.37-0.4c-0.88,1.81-1.58,3.72-2.05,5.64
		c-1.7,1.77-3.3,3.71-4.51,5.25C41.38,162.61,39.99,164.09,40.95,161.72z"/>
	<path class="st4" d="M41.64,166.16c1.31-1.92,3.07-4.29,4.92-6.15c-0.17-1.59-0.15-3.24,0.05-4.9c-1.75,2.63-4.82,6.75-5.98,10.51
		C39.89,168.01,41.24,166.74,41.64,166.16z"/>
	<path class="st4" d="M46.16,159.14c-1.87,2.95-4.4,6.92-5.47,10.32c-1.06,3.38,0.73,1.2,1.12,0.54c1.48-2.47,3.57-5.66,5.57-7.54
		C46.91,161.39,46.5,160.28,46.16,159.14z"/>
	<path class="st4" d="M41.15,174.48c0.68-4.38,2.25-8.14,3.53-11.1l1.25-0.7c-0.44,1.96-0.7,3.98-0.72,5.96
		c-1.25,2.11-2.38,4.36-3.21,6.13C41.77,175.25,40.75,177.01,41.15,174.48z"/>
	<path class="st4" d="M42.83,178.66c0.84-2.17,2.02-4.87,3.4-7.1c-0.53-1.51-0.88-3.12-1.06-4.79c-1.11,2.96-3.17,7.67-3.45,11.59
		C41.54,180.85,42.58,179.3,42.83,178.66z"/>
	<path class="st4" d="M45.64,170.79c-1.15,3.29-2.72,7.73-2.99,11.29c-0.27,3.53,0.98,1,1.22,0.27c0.88-2.74,2.2-6.32,3.72-8.6
		C46.88,172.81,46.24,171.82,45.64,170.79z"/>
	<path class="st4" d="M45.02,185.42c-1.09-4.3-1.12-8.37-1.1-11.6l0.87-1.13c0.36,1.98,0.91,3.94,1.67,5.77
		c-0.33,2.43-0.48,4.94-0.55,6.9C45.89,185.89,45.64,187.9,45.02,185.42z"/>
	<path class="st4" d="M48.2,188.6c-0.08-2.32-0.05-5.28,0.35-7.87c-1.08-1.18-2.03-2.52-2.85-3.99c0.14,3.15,0.09,8.29,1.37,12.01
		C47.88,191.12,48.22,189.3,48.2,188.6z"/>
	<path class="st4" d="M47.7,180.26c0.23,3.48,0.53,8.18,1.67,11.56c1.13,3.35,1.3,0.53,1.23-0.22c-0.27-2.86-0.45-6.68,0.05-9.37
		C49.64,181.64,48.65,180.98,47.7,180.26z"/>
	<path class="st5" d="M111.14,139.24c0.15-0.08,0.29-0.16,0.44-0.24c-0.24-0.21-0.49-0.43-0.72-0.63l-1.42-0.09
		c0.33,0.42,0.64,0.84,0.95,1.28C110.63,139.44,110.88,139.35,111.14,139.24z"/>
	<path class="st5" d="M113.47,135.1c-3.21-3.06-6.74-5.09-9.56-6.66l-1.41,0.2c1.55,1.29,2.98,2.73,4.2,4.29
		c2.28,0.91,4.54,2.01,6.27,2.91C113.45,136.09,115.32,136.86,113.47,135.1z"/>
	<path class="st5" d="M112.85,138.36c0.55-0.26,1.12-0.49,1.69-0.7c-2.65-2.57-6.54-4.73-8.95-6.24c0.87,1.43,1.57,2.93,2.07,4.45
		C109.42,136.53,111.23,137.45,112.85,138.36z"/>
	<path class="st5" d="M110.43,139.53c0.23-0.1,0.47-0.19,0.71-0.29c0.53-0.3,1.07-0.58,1.62-0.84c-1.73-1.29-3.56-2.49-5.1-3.5
		c0.16,1.18,0.25,2.36,0.26,3.53C108.72,138.71,109.57,139.09,110.43,139.53z"/>
	<path class="st5" d="M53.38,139.53c0.3-0.42,0.6-0.85,0.92-1.26l-1.42,0.09c-0.19,0.16-0.38,0.33-0.58,0.51
		C52.67,139.09,53.03,139.31,53.38,139.53z"/>
	<path class="st5" d="M50.26,135.1c3.21-3.06,6.74-5.09,9.56-6.66l1.41,0.2c-1.55,1.29-2.98,2.73-4.2,4.29
		c-2.28,0.91-4.54,2.01-6.27,2.91C50.29,136.09,48.41,136.86,50.26,135.1z"/>
	<path class="st5" d="M51.1,138.24c1.57-0.87,3.3-1.74,4.98-2.38c0.5-1.52,1.2-3.01,2.07-4.45c-2.35,1.47-6.1,3.56-8.74,6.03
		c0.17,0.08,0.34,0.17,0.51,0.26C50.32,137.88,50.71,138.05,51.1,138.24z"/>
	<path class="st5" d="M53.35,139.51c0.85-0.43,1.69-0.81,2.47-1.08c0.02-1.17,0.11-2.35,0.26-3.53c-1.49,0.98-3.24,2.12-4.92,3.36
		C51.91,138.64,52.64,139.06,53.35,139.51z"/>
	<path class="st3" d="M108.5,133.83c-1.65,0.92-3.42,1.72-5.31,2.47c-7.26,2.88-15.2,2.37-22.77,1.65
		c-2.92-0.28-5.83-0.89-8.77-0.94c-4.45-0.07-9.32,0.05-13.47-1.69c-1.1-0.31-2.15-0.69-3.17-1.14
		c-8.85,13.57-17.19,32.24-10.06,47.72c4.75,10.31,16.02,15.1,28.88,10.31c2.59-0.97,5.27-1.3,8.04-1.2c2.77-0.1,5.44,0.23,8.04,1.2
		c12.86,4.79,24.13,0,28.88-10.31C125.98,166.29,117.43,147.43,108.5,133.83z"/>
	<path class="st4" d="M98.52,184.84c-9.32-2.74-19.18-8.22-30.14-4.93c-19.56,6.52-19.73-17.04-20.01-34.02
		c-5.54,11.54-8.65,24.64-3.41,36.01c4.75,10.31,16.02,15.1,28.88,10.31c2.59-0.97,5.27-1.3,8.04-1.2c2.77-0.1,5.44,0.23,8.04,1.2
		c12.86,4.79,24.13,0,28.88-10.31c1.63-3.53,2.45-7.24,2.64-11.01C117.4,181.02,110.7,188.41,98.52,184.84z"/>
	<path class="st5" d="M111.66,138.92c-2.62-4.48-5.45-8.57-8.05-12.03H81.87H60.13c-2.59,3.45-5.41,7.52-8.02,11.98
		C69.94,147.82,93.04,146.8,111.66,138.92z"/>
	<path class="st3" d="M130.44,44.43c-9.34,7-20.24,12.4-31.44,15.66c-4.36,1.27-8.98,2.31-13.55,2.18c-2.71-0.08-6.18-0.6-7.67-3.19
		c-5.37-9.33,10.68-23.91,27.66-40.17C130.3-4.9,142.75-1.46,147.11,3.87c1.51,1.84,2.11,4.51,2.24,6.83
		c0.08,1.55,1.44,2.82,1.58,4.88c0.24,3.64-2.11,7.05-4.5,9.37c-0.24,0.24-0.51,0.47-0.66,0.78c-0.68,1.32,0.01,2.5-0.83,4.55
		c-0.92,2.25-2.65,3.62-4.33,4.88c-0.73,0.54-1.65,0.97-1.96,1.89c-0.58,1.72-1.19,4.01-3,5.34
		C133.45,44.01,131.28,43.8,130.44,44.43z"/>
	<path class="st5" d="M150.92,15.58c-0.13-2.06-1.5-3.33-1.58-4.88c-0.12-2.33-0.73-4.99-2.24-6.83c-1.38-1.68-3.57-3.18-6.7-3.68
		c0.11,0.82,0.18,1.65,0.22,2.49c0.62,13.01-6.24,25.44-15.16,34.44c-7.46,7.53-16.54,11.92-26.23,15.78
		c-6.84,2.72-14,4.81-21.29,6.48c1.58,2.34,4.87,2.84,7.48,2.91c4.57,0.13,9.18-0.92,13.55-2.18c11.21-3.26,22.11-8.66,31.44-15.66
		c0.84-0.63,3.01-0.42,5.21-2.04c1.81-1.33,2.41-3.63,3-5.34c0.31-0.93,1.23-1.35,1.96-1.89c1.69-1.25,3.42-2.62,4.33-4.88
		c0.83-2.05,0.15-3.23,0.83-4.55c0.16-0.3,0.42-0.54,0.66-0.78C148.81,22.63,151.16,19.22,150.92,15.58z"/>
	<path class="st2" d="M123.06,35.69c-11.81,10.01-31.35,18.8-33.69,14.36c-2.49-4.72,8.04-14.35,19.23-25.01
		c16.39-15.61,23.47-14.84,25.66-12.27C136.44,15.34,134.87,25.68,123.06,35.69z"/>
	<path class="st3" d="M33.3,44.43c9.34,7,20.24,12.4,31.44,15.66c4.36,1.27,8.98,2.31,13.55,2.18c2.71-0.08,6.18-0.6,7.67-3.19
		c5.37-9.33-10.68-23.91-27.66-40.17C33.43-4.9,20.99-1.46,16.63,3.87c-1.51,1.84-2.11,4.51-2.24,6.83
		c-0.08,1.55-1.44,2.82-1.58,4.88c-0.24,3.64,2.11,7.05,4.5,9.37c0.25,0.24,0.51,0.47,0.66,0.78c0.68,1.32-0.01,2.5,0.83,4.55
		c0.92,2.25,2.65,3.62,4.33,4.88c0.73,0.54,1.65,0.97,1.96,1.89c0.58,1.72,1.19,4.01,3,5.34C30.29,44.01,32.46,43.8,33.3,44.43z"/>
	<path class="st5" d="M58.08,49.83c-7.88-3.66-15.12-8.62-21.6-14.43c-9.14-8.2-13.53-20.61-11.98-32.74c0-0.89,0.06-1.77,0.16-2.64
		c-3.86,0.25-6.47,1.92-8.04,3.84c-1.51,1.84-2.11,4.51-2.24,6.83c-0.08,1.55-1.44,2.82-1.58,4.88c-0.24,3.64,2.11,7.05,4.5,9.37
		c0.25,0.24,0.51,0.47,0.66,0.78c0.68,1.32-0.01,2.5,0.83,4.55c0.92,2.25,2.65,3.62,4.33,4.88c0.73,0.54,1.65,0.97,1.96,1.89
		c0.58,1.72,1.19,4.01,3,5.34c2.2,1.62,4.37,1.41,5.21,2.04c9.34,7,20.24,12.4,31.44,15.66c4.36,1.27,8.98,2.31,13.55,2.18
		c2.31-0.07,5.15-0.46,6.87-2.17C76.03,56.97,66.88,53.92,58.08,49.83z"/>
	<path class="st2" d="M40.67,35.69c11.81,10.01,31.35,18.8,33.69,14.36c2.49-4.72-8.04-14.35-19.23-25.01
		C38.74,9.42,31.66,10.19,29.48,12.77C27.29,15.34,28.87,25.68,40.67,35.69z"/>
	<path class="st3" d="M117.54,63.51c-2.03-1.1-4.69-2.45-7.37-3.58c-2.6-3.45-6.04-6.48-9.69-8.67c3.05,1.32,12,3.55,17.66,11.37
		C119.09,63.94,118.1,63.81,117.54,63.51z"/>
	<path class="st3" d="M119.49,67.79c-2.32-1.47-5.35-3.22-8.24-4.37c-0.56-1.81-1.36-3.59-2.36-5.31c3.13,2.03,8.32,5.14,11.43,8.61
		C121.53,68.06,120.19,68.24,119.49,67.79z"/>
	<path class="st3" d="M111.28,62.29c3.42,2.32,8.08,5.41,10.8,8.64c1.77,2.11-0.23,1.64-0.96,1.12c-2.76-1.99-6.54-4.46-9.6-5.57
		C111.52,65.09,111.44,63.69,111.28,62.29z"/>
	<path class="st3" d="M129.83,104.22c0,24.88-21.47,35.98-47.96,35.98s-47.96-11.1-47.96-35.98s17.85-59.24,47.96-59.24
		C109.8,44.99,129.83,79.34,129.83,104.22z"/>
	<path class="st3" d="M36.17,82.23c1.47-1.78,3.43-4.03,5.49-6.08c1.12-4.18,3.17-8.27,5.73-11.67c-2.34,2.36-7.87,8.48-12.11,17.16
		C34.04,84.19,35.77,82.72,36.17,82.23z"/>
	<path class="st3" d="M34.6,88.14c1.81-2.07,4.22-4.6,6.67-6.52c0.02-1.89,0.29-3.83,0.76-5.75c-2.43,2.84-6.35,7.38-8.53,11.49
		C31.62,90.87,34.06,88.76,34.6,88.14z"/>
	<path class="st3" d="M41.03,81.61c-2.79,3.05-6.76,7.06-8.5,10.91c-1.69,3.73,0.61,1.54,1.2,0.86c2.23-2.58,5.33-5.86,8.04-7.64
		C41.44,84.39,41.2,83.01,41.03,81.61z"/>
	<path class="st6" d="M118.1,111.89c0,2.24-3.44,4.05-7.7,4.05c-4.25,0-7.7-1.82-7.7-4.05c0-2.24,3.45-4.05,7.7-4.05
		C114.65,107.83,118.1,109.65,118.1,111.89z"/>
	<ellipse class="st6" cx="53.33" cy="111.89" rx="7.7" ry="4.05"/>
	<path class="st2" d="M82.2,111.33c0.13,1.13-0.29,2.35-1.13,3.21c-0.82,0.88-2.04,1.38-3.26,1.36c-1.22-0.02-2.42-0.57-3.21-1.48
		c-0.8-0.89-1.18-2.13-1-3.26c0.03-0.18,0.2-0.31,0.38-0.28c0.15,0.02,0.26,0.14,0.28,0.28l0,0.01c0.13,0.96,0.57,1.8,1.22,2.4
		c0.65,0.6,1.49,0.94,2.35,0.95c0.86,0.02,1.72-0.29,2.39-0.86c0.67-0.57,1.14-1.4,1.31-2.35l0-0.01c0.03-0.18,0.21-0.3,0.39-0.27
		C82.07,111.06,82.18,111.18,82.2,111.33z"/>
	<path class="st2" d="M90.13,111.33c0.13,1.13-0.29,2.35-1.13,3.21c-0.82,0.88-2.04,1.38-3.26,1.36c-1.22-0.02-2.42-0.57-3.21-1.48
		c-0.8-0.89-1.18-2.13-1-3.26c0.03-0.18,0.2-0.31,0.38-0.28c0.15,0.02,0.26,0.14,0.28,0.28l0,0.01c0.13,0.96,0.57,1.8,1.22,2.4
		c0.65,0.6,1.49,0.94,2.35,0.95c0.86,0.02,1.72-0.29,2.39-0.86c0.67-0.57,1.14-1.4,1.31-2.35l0-0.01c0.03-0.18,0.21-0.3,0.39-0.27
		C90,111.06,90.11,111.18,90.13,111.33z"/>
	<path class="st2" d="M77.82,107.09c-0.03-1.36,2.08-2.79,4-2.83c1.92-0.04,4.07,1.34,4.09,2.7c0.03,1.36-2.12,4.41-4.04,4.45
		C79.96,111.44,77.85,108.45,77.82,107.09z"/>
	<path class="st2" d="M67.68,100.59c0,3.43-2.78,6.21-6.21,6.21c-3.43,0-6.21-2.78-6.21-6.21c0-3.43,2.78-6.21,6.21-6.21
		C64.9,94.38,67.68,97.16,67.68,100.59z"/>
	<path class="st2" d="M111.75,107.52c2.53-1.42,5.19-2.6,7.89-3.66c2.7-1.05,5.46-1.98,8.28-2.71c2.82-0.7,5.68-1.31,8.59-1.57
		c2.9-0.25,5.85-0.26,8.7,0.29c-2.9-0.08-5.76,0.17-8.59,0.59c-0.71,0.13-1.41,0.25-2.12,0.36c-0.7,0.13-1.4,0.29-2.11,0.43
		c-0.7,0.14-1.4,0.3-2.1,0.47c-0.7,0.18-1.4,0.32-2.09,0.52l-2.08,0.55l-2.07,0.61c-1.38,0.4-2.75,0.84-4.12,1.28
		C117.2,105.59,114.48,106.53,111.75,107.52z"/>
	<path class="st2" d="M112.81,111.71c2.26-0.65,4.58-1.03,6.92-1.29c2.34-0.26,4.69-0.34,7.05-0.28c2.36,0.11,4.71,0.36,7.02,0.87
		c2.3,0.54,4.56,1.33,6.59,2.5c-2.23-0.74-4.48-1.26-6.76-1.63c-1.15-0.13-2.28-0.33-3.44-0.39c-1.15-0.13-2.3-0.16-3.46-0.22
		c-2.31-0.08-4.63-0.05-6.95,0.03C117.47,111.39,115.15,111.52,112.81,111.71z"/>
	<path class="st2" d="M111.24,116.05c2.64,0.22,5.24,0.82,7.77,1.59c2.54,0.78,5.01,1.8,7.38,3c0.58,0.32,1.18,0.62,1.76,0.95
		l1.71,1.04c0.57,0.34,1.09,0.76,1.64,1.14c0.54,0.39,1.09,0.77,1.59,1.21l1.52,1.29c0.48,0.46,0.94,0.94,1.41,1.41l0.69,0.72
		l0.63,0.77c0.42,0.52,0.82,1.04,1.22,1.56c-0.49-0.44-0.98-0.89-1.45-1.34l-0.71-0.68l-0.76-0.62c-0.51-0.42-1-0.84-1.51-1.25
		l-1.58-1.16c-2.13-1.49-4.34-2.88-6.67-4.04c-2.31-1.2-4.7-2.24-7.14-3.18C116.28,117.55,113.79,116.74,111.24,116.05z"/>
	<path class="st2" d="M51.98,107.52c-2.72-0.99-5.45-1.93-8.19-2.83c-1.37-0.44-2.74-0.88-4.12-1.28l-2.07-0.61l-2.08-0.55
		c-0.69-0.2-1.39-0.35-2.09-0.52c-0.7-0.17-1.39-0.33-2.1-0.47c-0.7-0.14-1.4-0.31-2.11-0.43c-0.71-0.11-1.41-0.23-2.12-0.36
		c-2.84-0.41-5.69-0.66-8.59-0.59c2.85-0.55,5.8-0.55,8.7-0.29c2.91,0.26,5.77,0.86,8.59,1.57c2.82,0.73,5.58,1.65,8.28,2.71
		C46.79,104.92,49.45,106.1,51.98,107.52z"/>
	<path class="st2" d="M50.92,111.71c-2.34-0.18-4.66-0.32-6.98-0.41c-2.32-0.07-4.64-0.11-6.95-0.03c-1.15,0.06-2.31,0.09-3.46,0.22
		c-1.16,0.06-2.29,0.26-3.44,0.39c-2.28,0.37-4.53,0.89-6.76,1.63c2.04-1.17,4.29-1.96,6.59-2.5c2.31-0.51,4.67-0.76,7.02-0.87
		c2.36-0.06,4.71,0.02,7.05,0.28C46.34,110.67,48.66,111.06,50.92,111.71z"/>
	<path class="st2" d="M52.5,116.05c-2.55,0.69-5.04,1.51-7.49,2.42c-2.44,0.93-4.83,1.98-7.14,3.18c-2.33,1.16-4.54,2.55-6.67,4.04
		l-1.58,1.16c-0.51,0.4-1,0.83-1.51,1.25l-0.76,0.62l-0.71,0.68c-0.48,0.45-0.96,0.9-1.45,1.34c0.4-0.52,0.81-1.04,1.22-1.56
		l0.63-0.77l0.69-0.72c0.47-0.47,0.93-0.95,1.41-1.41l1.52-1.29c0.5-0.45,1.04-0.83,1.59-1.21c0.55-0.38,1.07-0.8,1.64-1.14
		l1.71-1.04c0.58-0.33,1.17-0.64,1.76-0.95c2.37-1.2,4.84-2.23,7.38-3C47.26,116.86,49.86,116.27,52.5,116.05z"/>
	<path class="st7" d="M47.47,192.28c0-3.9,5.38-9.51,10.69-9.51c5.32,0,10.7,5.6,10.7,9.51c0,3.9-3.49,4.93-10.7,4.93
		C50.96,197.22,47.47,196.19,47.47,192.28z"/>
	<path class="st5" d="M59.87,194.75c-7.2,0-10.69-1.03-10.69-4.93c0-0.89,0.29-1.88,0.79-2.86c-1.52,1.71-2.49,3.67-2.49,5.33
		c0,3.9,3.49,4.93,10.69,4.93c6.52,0,9.99-0.85,10.59-3.91C67.04,194.39,64.1,194.75,59.87,194.75z"/>
	<path class="st7" d="M94.88,192.28c0-3.9,5.38-9.51,10.7-9.51c5.32,0,10.69,5.6,10.69,9.51c0,3.9-3.49,4.93-10.69,4.93
		C98.37,197.22,94.88,196.19,94.88,192.28z"/>
	<path class="st5" d="M112.49,185.69c1.1,1.48,1.77,3.07,1.77,4.45c0,3.9-3.49,4.93-10.69,4.93c-3.88,0-6.68-0.3-8.44-1.19
		c0.91,2.59,4.34,3.34,10.44,3.34c7.2,0,10.69-1.03,10.69-4.93C116.27,190.2,114.73,187.63,112.49,185.69z"/>
	<path class="st2" d="M47.47,192.28c-0.04-1.3,0.45-2.57,1.08-3.71c0.66-1.13,1.51-2.14,2.48-3.03c0.96-0.89,2.07-1.63,3.27-2.2
		c1.2-0.55,2.52-0.9,3.87-0.91c2.72,0.03,5.22,1.35,7.14,3.11c0.96,0.89,1.82,1.9,2.48,3.03c0.63,1.13,1.12,2.41,1.08,3.71
		c-0.11-1.29-0.65-2.48-1.36-3.53c-0.7-1.06-1.57-2-2.54-2.81c-0.98-0.8-2.04-1.5-3.19-2c-1.14-0.5-2.37-0.82-3.61-0.82
		c-1.24,0-2.46,0.31-3.61,0.82c-1.15,0.5-2.21,1.2-3.19,2c-0.97,0.81-1.84,1.75-2.54,2.81C48.12,189.8,47.58,190.99,47.47,192.28z"
		/>
	<path class="st2" d="M94.88,192.28c-0.04-1.3,0.45-2.57,1.08-3.71c0.66-1.13,1.51-2.14,2.48-3.03c0.96-0.89,2.07-1.63,3.27-2.2
		c1.2-0.55,2.52-0.9,3.87-0.91c2.72,0.03,5.22,1.35,7.14,3.11c0.96,0.89,1.82,1.9,2.48,3.03c0.63,1.13,1.12,2.41,1.08,3.71
		c-0.11-1.29-0.65-2.48-1.36-3.53c-0.7-1.06-1.57-2-2.54-2.81c-0.98-0.8-2.04-1.5-3.19-2c-1.14-0.5-2.37-0.82-3.61-0.82
		c-1.24,0-2.46,0.31-3.61,0.82c-1.15,0.5-2.21,1.2-3.19,2c-0.97,0.81-1.84,1.75-2.54,2.81C95.53,189.8,94.99,190.99,94.88,192.28z"
		/>
	<path class="st2" d="M54.82,146.82c0.24,1.22,0.69,2.37,1.14,3.52c0.46,1.14,0.96,2.28,1.51,3.38c1.1,2.2,2.49,4.26,4.2,6
		c1.71,1.73,3.72,3.2,5.97,4.1c1.12,0.44,2.31,0.73,3.49,0.75c1.18,0.03,2.38-0.23,3.34-0.85c0.97-0.61,1.71-1.59,2.07-2.69
		c0.36-1.11,0.31-2.31-0.18-3.38c-0.98-2.22-2.4-4.26-3.93-6.17c-3.11-3.8-7.05-6.93-11.44-9.22c2.26,1,4.41,2.28,6.42,3.76
		c1.99,1.49,3.82,3.21,5.46,5.1c1.63,1.89,3.07,3.96,4.12,6.27c0.55,1.18,0.64,2.61,0.23,3.86c-0.39,1.26-1.22,2.38-2.34,3.1
		c-1.14,0.71-2.47,0.96-3.76,0.93c-1.29-0.04-2.55-0.36-3.72-0.84c-2.34-0.98-4.43-2.48-6.13-4.33c-1.71-1.84-3.07-3.98-4.12-6.24
		c-0.51-1.14-0.95-2.3-1.37-3.47C55.37,149.24,54.98,148.05,54.82,146.82z"/>
	<path class="st2" d="M76.95,161.22c-0.59,0.03-1.07-0.08-1.57-0.22c-0.49-0.15-0.95-0.36-1.38-0.61c-0.43-0.25-0.83-0.55-1.21-0.87
		c-0.19-0.16-0.36-0.34-0.54-0.5l-0.5-0.54l0.56,0.47c0.2,0.14,0.39,0.29,0.59,0.42c0.4,0.27,0.82,0.5,1.26,0.69
		c0.44,0.18,0.89,0.32,1.35,0.4c0.45,0.08,0.94,0.1,1.33,0.03l0.03-0.01c0.2-0.04,0.4,0.1,0.43,0.3c0.04,0.2-0.1,0.4-0.3,0.43
		L76.95,161.22z"/>
	<path class="st2" d="M75.22,163.94c-0.59,0.03-1.07-0.08-1.57-0.22c-0.49-0.15-0.95-0.36-1.38-0.61c-0.43-0.25-0.83-0.55-1.21-0.87
		c-0.19-0.16-0.36-0.34-0.54-0.5l-0.5-0.54l0.56,0.47c0.2,0.14,0.38,0.29,0.59,0.42c0.4,0.27,0.82,0.5,1.26,0.69
		c0.44,0.18,0.89,0.32,1.35,0.4c0.45,0.08,0.94,0.1,1.33,0.03l0.03-0.01c0.2-0.04,0.4,0.1,0.43,0.3c0.04,0.2-0.1,0.4-0.3,0.43
		L75.22,163.94z"/>
	<path class="st2" d="M108.91,146.82c-0.16,1.23-0.55,2.42-0.95,3.59c-0.41,1.17-0.85,2.33-1.37,3.47
		c-1.05,2.26-2.41,4.39-4.12,6.24c-1.7,1.85-3.79,3.36-6.13,4.33c-1.17,0.47-2.43,0.8-3.72,0.84c-1.29,0.03-2.62-0.22-3.76-0.93
		c-1.12-0.72-1.95-1.84-2.34-3.1c-0.41-1.25-0.32-2.68,0.23-3.86c1.05-2.31,2.49-4.37,4.12-6.27c1.63-1.89,3.46-3.6,5.46-5.1
		c2-1.48,4.15-2.75,6.42-3.76c-4.39,2.29-8.33,5.41-11.44,9.22c-1.53,1.91-2.96,3.95-3.93,6.17c-0.49,1.07-0.54,2.28-0.18,3.38
		c0.35,1.1,1.1,2.08,2.07,2.69c0.96,0.62,2.17,0.87,3.34,0.85c1.19-0.02,2.37-0.31,3.49-0.75c2.25-0.9,4.26-2.36,5.97-4.1
		c1.71-1.75,3.1-3.8,4.2-6c0.55-1.1,1.05-2.24,1.51-3.38C108.22,149.2,108.67,148.04,108.91,146.82z"/>
	<path class="st2" d="M86.9,160.48c0.38,0.07,0.88,0.05,1.33-0.03c0.46-0.08,0.91-0.22,1.35-0.4c0.44-0.19,0.86-0.42,1.26-0.69
		c0.2-0.13,0.39-0.28,0.59-0.42l0.56-0.47l-0.5,0.54c-0.18,0.17-0.35,0.35-0.54,0.5c-0.37,0.32-0.77,0.62-1.21,0.87
		c-0.43,0.25-0.89,0.46-1.38,0.61c-0.5,0.14-0.98,0.25-1.57,0.22c-0.2-0.01-0.36-0.19-0.35-0.39c0.01-0.2,0.18-0.36,0.39-0.35
		l0.05,0L86.9,160.48z"/>
	<path class="st2" d="M88.63,163.21c0.38,0.07,0.88,0.05,1.33-0.03c0.46-0.08,0.91-0.22,1.35-0.4c0.44-0.19,0.86-0.42,1.26-0.69
		c0.2-0.13,0.39-0.28,0.59-0.42l0.56-0.47l-0.5,0.54c-0.18,0.17-0.35,0.35-0.54,0.5c-0.37,0.32-0.78,0.62-1.21,0.87
		c-0.43,0.25-0.89,0.46-1.38,0.61c-0.5,0.14-0.98,0.25-1.57,0.22c-0.21-0.01-0.36-0.19-0.35-0.39c0.01-0.2,0.18-0.36,0.39-0.35
		l0.05,0.01L88.63,163.21z"/>
	<path class="st2" d="M106.08,95.93c-0.78,0.58-1.58,1.12-2.37,1.69c-0.8,0.55-1.6,1.09-2.4,1.63c-1.61,1.07-3.24,2.11-4.88,3.14
		l-0.22-1.26c1.85,0.42,3.69,0.84,5.53,1.31c0.92,0.23,1.83,0.47,2.75,0.72c0.91,0.26,1.83,0.5,2.73,0.79
		c0.18,0.06,0.27,0.24,0.22,0.42c-0.05,0.16-0.2,0.25-0.36,0.23c-0.94-0.13-1.87-0.3-2.81-0.44c-0.93-0.16-1.86-0.33-2.79-0.51
		c-1.86-0.36-3.71-0.75-5.56-1.15c-0.37-0.08-0.61-0.45-0.53-0.82c0.04-0.19,0.16-0.34,0.31-0.44c1.64-1.02,3.29-2.03,4.96-3.01
		c0.83-0.49,1.67-0.97,2.51-1.45c0.85-0.46,1.69-0.95,2.55-1.39c0.16-0.08,0.36-0.02,0.45,0.14
		C106.25,95.65,106.2,95.83,106.08,95.93z"/>
	<path class="st8" d="M153.11,166.68c0,0-1.28,9.31-8.14,10.06c6.86,0.75,8.14,9.75,8.14,9.75s1.39-9,8.25-9.75
		C154.5,175.99,153.11,166.68,153.11,166.68z"/>
	<path class="st8" d="M138.88,188.52c0,0-0.74,5.39-4.71,5.83c3.97,0.43,4.71,5.65,4.71,5.65s0.8-5.21,4.78-5.65
		C139.68,193.92,138.88,188.52,138.88,188.52z"/>
	<path class="st8" d="M18.95,44.62c0,0-1.28,9.32-8.14,10.07c6.86,0.75,8.14,9.75,8.14,9.75s1.39-9,8.25-9.75
		C20.34,53.93,18.95,44.62,18.95,44.62z"/>
	<path class="st8" d="M4.72,66.46c0,0-0.74,5.39-4.72,5.83c3.97,0.43,4.72,5.65,4.72,5.65s0.8-5.21,4.78-5.65
		C5.52,71.86,4.72,66.46,4.72,66.46z"/>
</g>
<g>
</g>
<g>
</g>
<g>
</g>
<g>
</g>
<g>
</g>
<g>
</g>
</svg>
