<?xml version="1.0" encoding="utf-8"?>
<!-- Generator: Adobe Illustrator 25.4.1, SVG Export Plug-In . SVG Version: 6.00 Build 0)  -->
<svg version="1.1" id="图层_1" xmlns="http://www.w3.org/2000/svg" xmlns:xlink="http://www.w3.org/1999/xlink" x="0px" y="0px"
	 viewBox="0 0 16 12.2" style="enable-background:new 0 0 16 12.2;" xml:space="preserve">
<style type="text/css">
	.st0{fill:#E53935;}
</style>
<path class="st0" d="M13.5,1c-1-0.5-2.1-0.8-3.3-1c0,0,0,0-0.1,0c-0.1,0.2-0.3,0.6-0.4,0.8c-1.2-0.2-2.4-0.2-3.7,0
	C6.1,0.6,5.9,0.3,5.8,0c0,0,0,0-0.1,0C4.6,0.2,3.5,0.5,2.5,1c0,0,0,0,0,0c-2.1,3.1-2.6,6.1-2.4,9.1c0,0,0,0,0,0c1.2,0.9,2.6,1.6,4,2
	c0,0,0,0,0.1,0c0.3-0.4,0.6-0.9,0.8-1.3c0,0,0,0,0-0.1l0,0c-0.4-0.2-0.8-0.4-1.2-0.6c0,0,0,0,0-0.1l0,0C3.8,10,3.8,10,3.9,9.9
	c0,0,0,0,0.1,0c2.6,1.2,5.5,1.2,8,0c0,0,0,0,0.1,0c0.1,0.1,0.2,0.1,0.2,0.2c0,0,0,0,0,0.1c0,0,0,0,0,0c-0.4,0.2-0.8,0.4-1.2,0.6
	c0,0,0,0,0,0c0,0,0,0,0,0c0.2,0.5,0.5,0.9,0.8,1.3c0,0,0,0,0.1,0c1.4-0.4,2.8-1.1,4-2c0,0,0,0,0,0C16.3,6.7,15.4,3.7,13.5,1
	C13.6,1,13.6,1,13.5,1 M5.3,8.3c-0.8,0-1.4-0.7-1.4-1.6s0.6-1.6,1.4-1.6c0.8,0,1.4,0.7,1.4,1.6C6.8,7.6,6.1,8.3,5.3,8.3 M10.7,8.3
	c-0.8,0-1.4-0.7-1.4-1.6s0.6-1.6,1.4-1.6c0.8,0,1.5,0.7,1.4,1.6C12.1,7.6,11.5,8.3,10.7,8.3"/>
</svg>
