<?xml version="1.0" encoding="utf-8"?>
<svg version="1.1" id="图层_1" xmlns="http://www.w3.org/2000/svg" xmlns:xlink="http://www.w3.org/1999/xlink" x="0px" y="0px"
	 viewBox="0 0 86.4 162" style="enable-background:new 0 0 86.4 162;" xml:space="preserve">
<style type="text/css">
	.st0{fill:#E53935;}
</style>
<g>
	<g>
		<path class="st0" d="M10.58,120.24l-0.81,22.94l-3.2,0.06l-0.65-22.72L10.58,120.24z"/>
		<path class="st0" d="M17.73,128.04l-0.16,2.88c0.29-0.52,0.62-1,1.01-1.45c0.39-0.45,0.82-0.83,1.3-1.14
			c0.48-0.31,1-0.54,1.57-0.69c0.57-0.15,1.16-0.18,1.8-0.1c1,0.15,1.85,0.45,2.55,0.92c0.7,0.46,1.26,1.06,1.69,1.77
			c0.43,0.72,0.74,1.55,0.93,2.5c0.19,0.95,0.29,1.99,0.29,3.11c0,0.62-0.05,1.28-0.16,1.96c-0.11,0.69-0.25,1.37-0.43,2.05
			c-0.18,0.68-0.38,1.35-0.61,2c-0.23,0.66-0.46,1.27-0.69,1.84l-3.91-0.4c0.02-0.01,0.09-0.14,0.21-0.38
			c0.12-0.24,0.25-0.57,0.41-0.98c0.16-0.41,0.32-0.9,0.5-1.45c0.17-0.55,0.34-1.15,0.49-1.8c0.15-0.64,0.28-1.32,0.38-2.04
			s0.15-1.43,0.15-2.15c0-0.79-0.07-1.49-0.21-2.11c-0.14-0.61-0.35-1.13-0.64-1.55c-0.29-0.42-0.66-0.74-1.12-0.97
			c-0.45-0.22-1-0.33-1.65-0.33c-0.56,0-1.06,0.15-1.49,0.45c-0.43,0.3-0.81,0.69-1.14,1.16c-0.33,0.48-0.61,1.01-0.84,1.61
			c-0.23,0.6-0.43,1.2-0.59,1.8l-0.41,8.54L14,143.38l-0.62-14.99L17.73,128.04z"/>
		<path class="st0" d="M41.87,143.03l0.4-1.66c-0.37,0.33-0.78,0.62-1.23,0.89c-0.45,0.26-0.91,0.49-1.39,0.67s-0.95,0.33-1.42,0.43
			c-0.47,0.1-0.9,0.15-1.29,0.15c-0.69,0-1.39-0.1-2.12-0.3c-0.73-0.2-1.39-0.5-1.98-0.9c-0.59-0.4-1.08-0.9-1.46-1.51
			c-0.38-0.6-0.57-1.3-0.57-2.09c0-1.03,0.18-1.93,0.54-2.69c0.36-0.76,0.85-1.39,1.47-1.89c0.62-0.5,1.34-0.86,2.18-1.1
			c0.83-0.24,1.73-0.36,2.69-0.36c0.45,0,0.92,0.04,1.39,0.11c0.48,0.07,0.94,0.18,1.39,0.33c0.45,0.15,0.89,0.34,1.3,0.59
			c0.41,0.24,0.78,0.53,1.11,0.86c-0.03-0.57-0.11-1.17-0.23-1.81c-0.12-0.63-0.31-1.21-0.57-1.74c-0.26-0.52-0.6-0.96-1.04-1.3
			c-0.43-0.34-0.98-0.52-1.65-0.52c-0.97,0-1.79,0.25-2.46,0.75c-0.67,0.5-1.13,1.23-1.39,2.18l-4.12-0.43
			c0.25-0.66,0.61-1.23,1.08-1.74c0.46-0.5,0.99-0.92,1.58-1.26c0.59-0.34,1.21-0.59,1.88-0.77c0.67-0.17,1.34-0.26,2.01-0.26
			c1.04,0,1.96,0.15,2.78,0.44c0.82,0.3,1.54,0.7,2.16,1.22c0.62,0.52,1.15,1.13,1.58,1.83c0.43,0.7,0.79,1.46,1.06,2.27
			c0.27,0.81,0.48,1.65,0.6,2.54s0.19,1.76,0.19,2.64c0,0.78-0.04,1.56-0.13,2.32c-0.08,0.77-0.21,1.53-0.36,2.29L41.87,143.03z
			 M42.71,138.54c0.03-0.24,0.06-0.48,0.07-0.71c0.02-0.23,0.03-0.47,0.06-0.71c-0.05-0.5-0.23-0.94-0.52-1.32
			c-0.3-0.39-0.66-0.71-1.08-0.98s-0.88-0.47-1.38-0.61c-0.5-0.14-0.98-0.21-1.46-0.21c-0.55,0-1.06,0.09-1.54,0.28
			c-0.48,0.18-0.89,0.45-1.24,0.78c-0.35,0.34-0.62,0.74-0.82,1.2c-0.2,0.47-0.3,0.98-0.3,1.54c0,0.57,0.09,1.09,0.26,1.56
			c0.17,0.47,0.42,0.88,0.74,1.22s0.7,0.61,1.16,0.8c0.46,0.19,0.97,0.29,1.54,0.29c0.51,0,1-0.07,1.49-0.22
			c0.49-0.15,0.93-0.36,1.34-0.63c0.41-0.27,0.76-0.6,1.05-0.98C42.37,139.45,42.58,139.02,42.71,138.54z"/>
		<path class="st0" d="M63.61,128.51c0.03,0.38,0.06,0.8,0.09,1.25c0.03,0.45,0.05,0.91,0.06,1.37c0.02,0.46,0.03,0.91,0.04,1.36
			c0.01,0.45,0.02,0.86,0.02,1.24c0,0.7-0.02,1.48-0.05,2.34c-0.03,0.86-0.09,1.76-0.19,2.71c-0.1,0.95-0.23,1.9-0.41,2.88
			c-0.18,0.97-0.41,1.91-0.71,2.82c-0.29,0.91-0.65,1.76-1.07,2.57c-0.42,0.8-0.92,1.5-1.51,2.1c-0.58,0.6-1.25,1.07-2.02,1.41
			c-0.77,0.34-1.64,0.51-2.62,0.51c-0.74,0-1.44-0.12-2.12-0.35c-0.67-0.23-1.28-0.56-1.84-0.97c-0.55-0.42-1.04-0.92-1.46-1.5
			c-0.42-0.58-0.74-1.22-0.97-1.92l4.93-1.27c-0.02,0.13-0.03,0.26-0.03,0.4c0,0.14,0,0.29,0,0.44c0,0.34,0.03,0.72,0.08,1.16
			c0.05,0.43,0.16,0.84,0.32,1.22c0.16,0.38,0.39,0.7,0.68,0.97c0.3,0.26,0.68,0.4,1.16,0.4c0.5,0,0.93-0.18,1.32-0.54
			c0.38-0.36,0.71-0.82,0.99-1.39c0.28-0.57,0.51-1.21,0.7-1.93c0.18-0.72,0.34-1.44,0.46-2.16c0.12-0.72,0.21-1.42,0.26-2.08
			c0.05-0.66,0.09-1.22,0.11-1.67c-0.25,0.57-0.56,1.1-0.93,1.58c-0.36,0.49-0.78,0.91-1.25,1.26c-0.47,0.35-0.99,0.63-1.56,0.82
			c-0.57,0.2-1.19,0.29-1.87,0.29c-1.06,0-1.95-0.24-2.69-0.71c-0.74-0.48-1.34-1.1-1.8-1.88c-0.46-0.78-0.79-1.66-1.01-2.66
			c-0.21-1-0.32-2.01-0.32-3.05c0-1.18,0.1-2.25,0.29-3.21c0.19-0.96,0.41-1.78,0.65-2.48c0.27-0.81,0.59-1.54,0.95-2.17l4.21,1.05
			c-0.88,1.55-1.5,2.99-1.88,4.3c-0.38,1.32-0.56,2.6-0.56,3.84c0,0.52,0.07,1.07,0.2,1.65c0.13,0.58,0.34,1.12,0.63,1.61
			c0.29,0.49,0.66,0.9,1.12,1.22c0.45,0.32,1.01,0.48,1.66,0.48c0.57,0,1.07-0.16,1.51-0.48c0.44-0.32,0.82-0.74,1.16-1.25
			c0.33-0.51,0.62-1.08,0.85-1.71c0.23-0.63,0.42-1.25,0.57-1.88c0-0.6,0-1.24-0.01-1.93c-0.01-0.68-0.02-1.37-0.04-2.06
			c-0.02-0.69-0.06-1.37-0.12-2.03c-0.06-0.66-0.13-1.26-0.23-1.81L63.61,128.51z"/>
		<path class="st0" d="M77.22,143.03l0.4-1.66c-0.37,0.33-0.78,0.62-1.23,0.89c-0.45,0.26-0.91,0.49-1.39,0.67s-0.95,0.33-1.42,0.43
			c-0.47,0.1-0.9,0.15-1.29,0.15c-0.69,0-1.39-0.1-2.12-0.3s-1.39-0.5-1.98-0.9c-0.59-0.4-1.08-0.9-1.46-1.51
			c-0.38-0.6-0.57-1.3-0.57-2.09c0-1.03,0.18-1.93,0.54-2.69c0.36-0.76,0.85-1.39,1.47-1.89c0.62-0.5,1.34-0.86,2.18-1.1
			c0.83-0.24,1.73-0.36,2.69-0.36c0.45,0,0.92,0.04,1.39,0.11c0.48,0.07,0.94,0.18,1.39,0.33c0.45,0.15,0.89,0.34,1.3,0.59
			c0.41,0.24,0.78,0.53,1.11,0.86c-0.03-0.57-0.11-1.17-0.23-1.81c-0.12-0.63-0.31-1.21-0.57-1.74c-0.26-0.52-0.6-0.96-1.04-1.3
			c-0.43-0.34-0.98-0.52-1.65-0.52c-0.97,0-1.79,0.25-2.46,0.75c-0.67,0.5-1.13,1.23-1.39,2.18l-4.12-0.43
			c0.25-0.66,0.61-1.23,1.08-1.74c0.46-0.5,0.99-0.92,1.58-1.26c0.59-0.34,1.21-0.59,1.88-0.77c0.67-0.17,1.34-0.26,2.01-0.26
			c1.04,0,1.96,0.15,2.78,0.44c0.82,0.3,1.54,0.7,2.16,1.22c0.62,0.52,1.15,1.13,1.58,1.83c0.43,0.7,0.79,1.46,1.06,2.27
			c0.27,0.81,0.48,1.65,0.6,2.54c0.13,0.88,0.19,1.76,0.19,2.64c0,0.78-0.04,1.56-0.13,2.32c-0.08,0.77-0.21,1.53-0.36,2.29
			L77.22,143.03z M78.06,138.54c0.03-0.24,0.06-0.48,0.07-0.71c0.02-0.23,0.03-0.47,0.06-0.71c-0.05-0.5-0.23-0.94-0.52-1.32
			c-0.3-0.39-0.66-0.71-1.08-0.98c-0.42-0.27-0.88-0.47-1.38-0.61c-0.5-0.14-0.98-0.21-1.46-0.21c-0.55,0-1.06,0.09-1.54,0.28
			c-0.48,0.18-0.89,0.45-1.24,0.78c-0.35,0.34-0.62,0.74-0.82,1.2c-0.2,0.47-0.3,0.98-0.3,1.54c0,0.57,0.09,1.09,0.26,1.56
			c0.17,0.47,0.42,0.88,0.74,1.22s0.7,0.61,1.16,0.8c0.46,0.19,0.97,0.29,1.54,0.29c0.51,0,1-0.07,1.49-0.22
			c0.49-0.15,0.93-0.36,1.34-0.63c0.41-0.27,0.76-0.6,1.05-0.98C77.72,139.45,77.93,139.02,78.06,138.54z"/>
	</g>
	<g>
		<path class="st0" d="M83.42,38.31c-5.36,0.39-10.53,1.4-15.88,0.95c-3.52-0.23-7.09-0.74-10.6-1.29
			c-1.18-0.19-2.48-0.38-3.67-0.45c-1.45-0.08-2.89-0.06-4.32,0.06l0.73-1.32c2.78-5.02,6.6-9.46,11.32-12.74
			c4.06-2.86,8.78-4.95,13.68-5.89c-1.43,2.76-2.71,5.58-3.81,8.5c-0.99,2.77-1.98,5.66-1.94,8.66c0.04,1.02,0.25,2.11,0.97,2.89
			c0.08,0.08,0.21,0.1,0.3,0.03c0.1-0.08,0.12-0.22,0.04-0.33c-1.04-1.55-0.45-3.65-0.03-5.34c1.94-6.16,5.42-11.8,8.89-17.21
			c-7.06-0.09-14.01,2.14-19.95,5.91c-4.55,2.88-8.41,6.77-11.47,11.19c-1.57-2.97-1.04-7.95-0.33-10.81
			c1.12-4.7,3.49-9.12,6.74-12.69L61.73,0L51.31,4.65C39.66,9.85,28.57,16.71,19.5,25.77C5.71,39.23-2.91,59.17,0.9,78.53
			c3.65,19.14,18.38,35.51,37.93,38.7l1.82,0.36l-1.18-1.51c-1.32-1.52-2.44-3.22-3.25-5.06c-4.34-9.58,0.71-20.66,8.33-27.01
			c1.55-1.32,3.22-2.48,4.98-3.48c1.52-0.87,3.94-1.95,5.54-2.73c7.54-3.73,15.34-7.23,21.4-13.33c4.75-4.79,6.73-11.26,7.06-17.87
			C83.7,43.83,83.74,41.03,83.42,38.31z M74.86,62.92c-2.73,2.98-6.16,5.29-9.63,7.38c-5.28,3.22-11.1,5.76-16.54,8.75
			c-9.04,5.38-16.28,15.38-15.33,26.28c0.32,3.67,1.74,7.2,3.89,10.18C19.65,111.91,6.68,95.34,4.07,77.97
			C3.16,72,3.43,65.86,4.69,59.96c3.83-18.07,17.2-32.48,32.42-42.16c2.69-1.72,5.46-3.33,8.28-4.85
			c-2.34,4.86-3.48,10.28-2.92,15.71c0.39,3.1,1.52,6.62,4.45,8.34l1.16,0.67c-7.97,0.9-15.51,4.8-21.58,9.96
			c-0.09,0.08-0.1,0.22-0.03,0.31c0.08,0.1,0.23,0.11,0.33,0.03c1.86-1.47,3.89-2.75,5.98-3.89c6.92-3.74,15.07-5.87,22.86-4.14
			c3.85,0.84,7.68,1.65,11.62,2.15c4.21,0.62,8.63,0.33,12.88,0.14C80.96,49.6,80.19,57.35,74.86,62.92z"/>
		<path class="st0" d="M43.57,57.32c3.09-4.07,6.96-6.1,13.82-5.75c4.7,0.25,7.88-0.77,7.88-0.77s-1.81,4.22-6.85,5.08
			C53.21,56.77,47.88,54.06,43.57,57.32z"/>
		<path class="st0" d="M83.08,67.19c0,0-0.35,14.53-22.21,21.48c-20.11,6.4-17.31,27.86,0.79,27.86
			C84.91,116.53,91.06,96.71,83.08,67.19z"/>
	</g>
	<g>
		<path class="st0" d="M9.53,156.43c-0.3,0-0.57,0.05-0.8,0.16c-0.24,0.11-0.43,0.27-0.6,0.47c-0.16,0.2-0.29,0.45-0.37,0.74
			c-0.09,0.29-0.13,0.62-0.13,0.98c0,0.49,0.07,0.9,0.21,1.25c0.14,0.35,0.35,0.62,0.63,0.81c0.28,0.19,0.63,0.28,1.06,0.28
			c0.27,0,0.52-0.03,0.78-0.08c0.25-0.05,0.51-0.12,0.78-0.21v0.87c-0.25,0.1-0.51,0.17-0.77,0.22c-0.26,0.05-0.56,0.07-0.9,0.07
			c-0.64,0-1.17-0.13-1.59-0.4c-0.42-0.27-0.74-0.64-0.94-1.12c-0.21-0.48-0.31-1.05-0.31-1.7c0-0.47,0.06-0.91,0.2-1.3
			c0.13-0.39,0.32-0.73,0.57-1.02c0.25-0.29,0.56-0.51,0.93-0.66c0.37-0.16,0.79-0.23,1.27-0.23c0.31,0,0.62,0.04,0.93,0.11
			c0.3,0.07,0.59,0.17,0.85,0.3l-0.36,0.85c-0.22-0.1-0.44-0.19-0.68-0.27C10.04,156.47,9.79,156.43,9.53,156.43z"/>
		<path class="st0" d="M14.28,155.65c0.54,0,0.99,0.07,1.34,0.2c0.35,0.13,0.62,0.33,0.79,0.6c0.17,0.27,0.26,0.61,0.26,1.02
			c0,0.31-0.06,0.57-0.17,0.79c-0.11,0.22-0.26,0.4-0.45,0.54c-0.19,0.14-0.38,0.26-0.59,0.34l1.78,2.77h-1.16l-1.51-2.51h-1.01
			v2.51h-1.03v-6.26H14.28z M14.21,156.51h-0.66v2.05h0.71c0.48,0,0.82-0.09,1.04-0.27c0.22-0.18,0.32-0.44,0.32-0.78
			c0-0.36-0.12-0.62-0.35-0.77C15.04,156.58,14.69,156.51,14.21,156.51z"/>
		<path class="st0" d="M21.76,161.91h-3.55v-6.26h3.55v0.87h-2.52v1.7h2.36v0.86h-2.36v1.97h2.52V161.91z"/>
		<path class="st0" d="M27.43,161.91l-0.61-1.74h-2.39l-0.61,1.74h-1.08l2.33-6.29h1.14l2.33,6.29H27.43z M26.55,159.29l-0.6-1.71
			c-0.02-0.07-0.06-0.18-0.1-0.31c-0.04-0.14-0.09-0.27-0.13-0.42c-0.04-0.14-0.08-0.26-0.11-0.36c-0.03,0.12-0.06,0.25-0.11,0.39
			c-0.04,0.14-0.08,0.28-0.12,0.4c-0.04,0.13-0.07,0.22-0.09,0.29l-0.6,1.71H26.55z"/>
		<path class="st0" d="M31.6,161.91h-1.03v-5.39h-1.83v-0.87h4.69v0.87H31.6V161.91z"/>
		<path class="st0" d="M34.65,161.91v-6.26h1.03v6.26H34.65z"/>
		<path class="st0" d="M42.06,155.65l-2.19,6.26h-1.09l-2.19-6.26h1.05l1.32,3.92c0.04,0.11,0.08,0.25,0.13,0.42
			c0.05,0.16,0.09,0.33,0.13,0.49c0.04,0.17,0.07,0.31,0.1,0.44c0.02-0.13,0.05-0.28,0.1-0.44c0.04-0.17,0.09-0.33,0.13-0.49
			c0.04-0.16,0.09-0.3,0.13-0.42l1.32-3.92H42.06z"/>
		<path class="st0" d="M46.52,161.91h-3.55v-6.26h3.55v0.87H44v1.7h2.36v0.86H44v1.97h2.52V161.91z"/>
		<path class="st0" d="M53.94,160.21c0,0.37-0.09,0.69-0.27,0.96c-0.18,0.27-0.44,0.47-0.78,0.62c-0.34,0.14-0.74,0.21-1.21,0.21
			c-0.23,0-0.45-0.01-0.66-0.04c-0.21-0.03-0.4-0.06-0.59-0.11c-0.18-0.05-0.35-0.11-0.5-0.18v-0.97c0.26,0.11,0.54,0.21,0.85,0.3
			c0.31,0.09,0.63,0.13,0.96,0.13c0.27,0,0.49-0.04,0.66-0.1c0.18-0.07,0.31-0.17,0.39-0.3c0.09-0.13,0.13-0.28,0.13-0.46
			c0-0.19-0.05-0.34-0.15-0.47c-0.1-0.13-0.25-0.25-0.45-0.35c-0.2-0.11-0.45-0.22-0.76-0.34c-0.2-0.08-0.4-0.18-0.59-0.28
			c-0.19-0.11-0.35-0.23-0.5-0.37c-0.14-0.14-0.26-0.31-0.34-0.51c-0.09-0.2-0.13-0.43-0.13-0.69c0-0.35,0.09-0.66,0.26-0.91
			c0.17-0.25,0.41-0.44,0.72-0.58c0.31-0.13,0.67-0.2,1.09-0.2c0.33,0,0.64,0.03,0.93,0.1c0.29,0.07,0.58,0.17,0.85,0.29l-0.33,0.83
			c-0.26-0.11-0.51-0.19-0.75-0.25c-0.24-0.06-0.49-0.09-0.74-0.09c-0.22,0-0.4,0.03-0.55,0.1c-0.15,0.07-0.27,0.16-0.35,0.28
			s-0.12,0.26-0.12,0.42c0,0.18,0.04,0.34,0.14,0.46c0.09,0.12,0.23,0.24,0.42,0.34c0.19,0.1,0.43,0.22,0.74,0.34
			c0.35,0.14,0.64,0.29,0.88,0.45c0.24,0.16,0.43,0.35,0.56,0.56C53.88,159.61,53.94,159.88,53.94,160.21z"/>
		<path class="st0" d="M57.76,161.91h-1.03v-5.39H54.9v-0.87h4.69v0.87h-1.83V161.91z"/>
		<path class="st0" d="M65.64,155.65v4.05c0,0.44-0.09,0.83-0.28,1.17c-0.18,0.35-0.46,0.62-0.83,0.82c-0.37,0.2-0.84,0.3-1.4,0.3
			c-0.8,0-1.41-0.21-1.83-0.63c-0.42-0.42-0.63-0.98-0.63-1.68v-4.04h1.03v3.95c0,0.52,0.12,0.91,0.37,1.16
			c0.25,0.25,0.61,0.37,1.1,0.37c0.34,0,0.61-0.06,0.82-0.18c0.21-0.12,0.37-0.29,0.47-0.52c0.1-0.23,0.15-0.51,0.15-0.83v-3.94
			H65.64z"/>
		<path class="st0" d="M71.97,158.72c0,0.71-0.13,1.29-0.39,1.77c-0.26,0.47-0.64,0.83-1.14,1.07c-0.5,0.24-1.1,0.36-1.81,0.36
			h-1.74v-6.26h1.93c0.65,0,1.21,0.12,1.68,0.35c0.47,0.23,0.84,0.58,1.09,1.03C71.84,157.49,71.97,158.05,71.97,158.72z
			 M70.9,158.75c0-0.51-0.08-0.94-0.24-1.27c-0.16-0.33-0.4-0.58-0.71-0.74s-0.7-0.24-1.15-0.24h-0.88v4.55h0.73
			c0.76,0,1.32-0.19,1.7-0.58C70.72,160.09,70.9,159.51,70.9,158.75z"/>
		<path class="st0" d="M73.14,161.91v-6.26h1.03v6.26H73.14z"/>
		<path class="st0" d="M81.21,158.77c0,0.48-0.06,0.92-0.18,1.32c-0.12,0.4-0.3,0.74-0.55,1.02c-0.24,0.28-0.55,0.5-0.91,0.66
			c-0.36,0.15-0.79,0.23-1.28,0.23c-0.5,0-0.93-0.08-1.3-0.23c-0.37-0.15-0.67-0.37-0.91-0.66c-0.24-0.29-0.42-0.63-0.54-1.02
			c-0.12-0.4-0.18-0.84-0.18-1.32c0-0.65,0.11-1.21,0.32-1.69c0.21-0.48,0.54-0.86,0.97-1.12c0.43-0.27,0.99-0.4,1.65-0.4
			c0.65,0,1.19,0.13,1.62,0.4c0.43,0.27,0.75,0.64,0.97,1.12C81.1,157.55,81.21,158.12,81.21,158.77z M76.42,158.77
			c0,0.48,0.07,0.9,0.2,1.25c0.13,0.35,0.33,0.62,0.61,0.81c0.27,0.19,0.62,0.28,1.05,0.28c0.43,0,0.78-0.09,1.05-0.28
			c0.27-0.19,0.47-0.46,0.6-0.81c0.13-0.35,0.19-0.77,0.19-1.25c0-0.73-0.15-1.31-0.44-1.72c-0.29-0.42-0.76-0.62-1.4-0.62
			c-0.43,0-0.78,0.09-1.06,0.28c-0.27,0.19-0.48,0.46-0.61,0.81C76.49,157.87,76.42,158.28,76.42,158.77z"/>
	</g>
</g>
<g>
</g>
<g>
</g>
<g>
</g>
<g>
</g>
<g>
</g>
<g>
</g>
</svg>
