<?xml version="1.0" encoding="utf-8"?>
<!-- Generator: Adobe Illustrator 25.4.1, SVG Export Plug-In . SVG Version: 6.00 Build 0)  -->
<svg version="1.1" id="图层_1" xmlns="http://www.w3.org/2000/svg" xmlns:xlink="http://www.w3.org/1999/xlink" x="0px" y="0px"
	 viewBox="0 0 108 43.2" style="enable-background:new 0 0 108 43.2;" xml:space="preserve">
<g>
	<g>
		<path d="M42.09,5.6l-0.75,21.26l-2.97,0.06l-0.6-21.06L42.09,5.6z"/>
		<path d="M48.71,12.83l-0.15,2.67c0.26-0.48,0.57-0.93,0.93-1.34c0.36-0.42,0.76-0.77,1.2-1.06c0.45-0.29,0.93-0.5,1.45-0.64
			c0.52-0.14,1.08-0.17,1.67-0.09c0.93,0.14,1.72,0.42,2.36,0.85c0.65,0.43,1.17,0.98,1.56,1.64c0.4,0.67,0.68,1.44,0.86,2.32
			c0.18,0.88,0.26,1.84,0.26,2.88c0,0.58-0.05,1.18-0.15,1.82c-0.1,0.64-0.23,1.27-0.4,1.9c-0.17,0.63-0.35,1.25-0.57,1.86
			c-0.21,0.61-0.42,1.17-0.64,1.7l-3.63-0.37c0.02-0.01,0.08-0.13,0.19-0.35c0.11-0.23,0.24-0.53,0.38-0.91
			c0.15-0.38,0.3-0.83,0.46-1.34c0.16-0.51,0.31-1.07,0.45-1.67c0.14-0.6,0.26-1.23,0.35-1.89c0.09-0.66,0.14-1.32,0.14-1.99
			c0-0.73-0.06-1.39-0.19-1.95c-0.13-0.57-0.33-1.05-0.59-1.44c-0.27-0.39-0.61-0.69-1.04-0.9c-0.42-0.21-0.93-0.31-1.53-0.31
			c-0.52,0-0.98,0.14-1.38,0.42c-0.4,0.28-0.75,0.64-1.06,1.08s-0.56,0.94-0.78,1.49c-0.22,0.55-0.4,1.11-0.54,1.67l-0.38,7.91
			l-2.73,0.24l-0.57-13.89L48.71,12.83z"/>
		<path d="M71.08,26.72l0.37-1.54c-0.34,0.3-0.72,0.58-1.14,0.82c-0.42,0.24-0.84,0.45-1.28,0.62c-0.44,0.17-0.88,0.3-1.31,0.4
			c-0.44,0.09-0.83,0.14-1.2,0.14c-0.64,0-1.29-0.09-1.97-0.28c-0.68-0.19-1.29-0.47-1.84-0.84c-0.55-0.37-1-0.84-1.35-1.4
			c-0.35-0.56-0.53-1.2-0.53-1.94c0-0.96,0.17-1.79,0.5-2.5c0.33-0.7,0.79-1.29,1.36-1.75c0.57-0.46,1.25-0.8,2.02-1.02
			c0.77-0.22,1.61-0.33,2.5-0.33c0.42,0,0.85,0.03,1.29,0.1c0.44,0.07,0.87,0.17,1.29,0.31c0.42,0.14,0.82,0.32,1.2,0.54
			c0.38,0.23,0.72,0.49,1.03,0.79c-0.03-0.53-0.1-1.09-0.21-1.67c-0.11-0.59-0.29-1.12-0.53-1.61c-0.24-0.48-0.56-0.89-0.96-1.2
			c-0.4-0.32-0.91-0.48-1.53-0.48c-0.9,0-1.66,0.23-2.28,0.7c-0.62,0.47-1.05,1.14-1.28,2.02l-3.82-0.4c0.24-0.61,0.57-1.14,1-1.61
			c0.43-0.46,0.92-0.85,1.46-1.17c0.54-0.31,1.12-0.55,1.74-0.71c0.62-0.16,1.24-0.24,1.87-0.24c0.96,0,1.82,0.14,2.58,0.41
			c0.76,0.27,1.43,0.65,2,1.13c0.58,0.48,1.07,1.05,1.47,1.7c0.4,0.65,0.73,1.35,0.98,2.1c0.25,0.75,0.44,1.53,0.56,2.35
			c0.12,0.82,0.18,1.63,0.18,2.44c0,0.72-0.04,1.44-0.12,2.15c-0.08,0.71-0.19,1.42-0.34,2.12L71.08,26.72z M71.86,22.56
			c0.03-0.23,0.05-0.45,0.07-0.66c0.01-0.22,0.03-0.44,0.05-0.66c-0.05-0.46-0.21-0.87-0.48-1.23c-0.27-0.36-0.61-0.66-1-0.91
			c-0.39-0.25-0.82-0.44-1.28-0.57c-0.46-0.13-0.91-0.19-1.35-0.19c-0.51,0-0.98,0.09-1.42,0.26c-0.44,0.17-0.82,0.41-1.15,0.73
			s-0.58,0.69-0.76,1.12c-0.19,0.43-0.28,0.91-0.28,1.42c0,0.53,0.08,1.01,0.24,1.45c0.16,0.44,0.39,0.81,0.68,1.13
			c0.29,0.32,0.65,0.57,1.08,0.74c0.43,0.18,0.9,0.26,1.43,0.26c0.47,0,0.93-0.07,1.38-0.21c0.45-0.14,0.86-0.33,1.24-0.58
			c0.38-0.25,0.7-0.55,0.97-0.91C71.55,23.4,71.74,23,71.86,22.56z"/>
		<path d="M91.23,13.27c0.03,0.35,0.06,0.74,0.08,1.16c0.02,0.42,0.04,0.84,0.06,1.27c0.01,0.43,0.03,0.85,0.04,1.26
			c0.01,0.42,0.01,0.8,0.01,1.15c0,0.65-0.01,1.37-0.04,2.17c-0.03,0.8-0.09,1.63-0.18,2.51c-0.09,0.88-0.22,1.76-0.38,2.67
			c-0.17,0.9-0.38,1.77-0.65,2.61c-0.27,0.84-0.6,1.63-0.99,2.38c-0.39,0.74-0.86,1.39-1.4,1.95c-0.54,0.55-1.16,0.99-1.87,1.31
			c-0.71,0.32-1.52,0.48-2.43,0.48c-0.69,0-1.34-0.11-1.96-0.32c-0.62-0.22-1.19-0.52-1.7-0.9c-0.51-0.39-0.96-0.85-1.35-1.39
			c-0.39-0.54-0.69-1.13-0.9-1.78l4.57-1.17c-0.02,0.12-0.03,0.24-0.03,0.37c0,0.13,0,0.27,0,0.4c0,0.31,0.02,0.67,0.07,1.07
			c0.05,0.4,0.15,0.78,0.29,1.13c0.15,0.35,0.36,0.65,0.63,0.9c0.27,0.24,0.63,0.37,1.07,0.37c0.46,0,0.87-0.17,1.22-0.5
			c0.35-0.33,0.66-0.76,0.92-1.29c0.26-0.53,0.47-1.13,0.65-1.79c0.17-0.67,0.31-1.33,0.43-2c0.11-0.67,0.19-1.31,0.24-1.92
			c0.05-0.61,0.08-1.13,0.1-1.55c-0.23,0.53-0.52,1.02-0.86,1.47c-0.34,0.45-0.72,0.84-1.16,1.17c-0.44,0.33-0.92,0.58-1.45,0.76
			c-0.53,0.18-1.11,0.27-1.73,0.27c-0.98,0-1.81-0.22-2.5-0.66c-0.69-0.44-1.24-1.02-1.67-1.74c-0.43-0.72-0.74-1.54-0.93-2.47
			c-0.2-0.92-0.29-1.87-0.29-2.83c0-1.1,0.09-2.09,0.26-2.97c0.18-0.89,0.38-1.65,0.6-2.3c0.25-0.75,0.55-1.42,0.88-2.01l3.91,0.97
			c-0.81,1.44-1.39,2.77-1.74,3.99c-0.35,1.22-0.52,2.41-0.52,3.56c0,0.48,0.06,0.99,0.18,1.53c0.12,0.54,0.32,1.04,0.59,1.49
			c0.27,0.46,0.61,0.83,1.04,1.13c0.42,0.3,0.93,0.45,1.54,0.45c0.53,0,1-0.15,1.4-0.45c0.41-0.3,0.76-0.69,1.07-1.16
			c0.31-0.47,0.57-1,0.79-1.59c0.22-0.58,0.39-1.16,0.53-1.74c0-0.56,0-1.15-0.01-1.78c-0.01-0.63-0.02-1.27-0.04-1.91
			c-0.02-0.64-0.06-1.27-0.11-1.88c-0.05-0.61-0.12-1.17-0.21-1.68L91.23,13.27z"/>
		<path d="M103.84,26.72l0.37-1.54c-0.34,0.3-0.72,0.58-1.14,0.82c-0.42,0.24-0.84,0.45-1.28,0.62c-0.44,0.17-0.88,0.3-1.31,0.4
			c-0.44,0.09-0.83,0.14-1.2,0.14c-0.64,0-1.29-0.09-1.97-0.28c-0.68-0.19-1.29-0.47-1.84-0.84s-1-0.84-1.35-1.4
			c-0.35-0.56-0.53-1.2-0.53-1.94c0-0.96,0.17-1.79,0.5-2.5c0.33-0.7,0.79-1.29,1.36-1.75c0.57-0.46,1.25-0.8,2.02-1.02
			c0.77-0.22,1.61-0.33,2.5-0.33c0.42,0,0.85,0.03,1.29,0.1c0.44,0.07,0.87,0.17,1.29,0.31c0.42,0.14,0.82,0.32,1.2,0.54
			c0.38,0.23,0.72,0.49,1.03,0.79c-0.03-0.53-0.1-1.09-0.21-1.67c-0.11-0.59-0.29-1.12-0.53-1.61c-0.24-0.48-0.56-0.89-0.96-1.2
			c-0.4-0.32-0.91-0.48-1.53-0.48c-0.9,0-1.66,0.23-2.28,0.7c-0.62,0.47-1.05,1.14-1.28,2.02l-3.82-0.4c0.24-0.61,0.57-1.14,1-1.61
			c0.43-0.46,0.92-0.85,1.46-1.17c0.54-0.31,1.12-0.55,1.74-0.71c0.62-0.16,1.24-0.24,1.86-0.24c0.96,0,1.82,0.14,2.58,0.41
			c0.76,0.27,1.43,0.65,2,1.13c0.58,0.48,1.07,1.05,1.47,1.7c0.4,0.65,0.73,1.35,0.98,2.1c0.25,0.75,0.44,1.53,0.56,2.35
			c0.12,0.82,0.18,1.63,0.18,2.44c0,0.72-0.04,1.44-0.12,2.15c-0.08,0.71-0.19,1.42-0.34,2.12L103.84,26.72z M104.62,22.56
			c0.03-0.23,0.05-0.45,0.07-0.66c0.01-0.22,0.03-0.44,0.05-0.66c-0.05-0.46-0.21-0.87-0.48-1.23c-0.27-0.36-0.61-0.66-1-0.91
			s-0.82-0.44-1.28-0.57c-0.46-0.13-0.91-0.19-1.35-0.19c-0.51,0-0.98,0.09-1.42,0.26c-0.44,0.17-0.82,0.41-1.15,0.73
			c-0.32,0.31-0.58,0.69-0.76,1.12c-0.19,0.43-0.28,0.91-0.28,1.42c0,0.53,0.08,1.01,0.24,1.45c0.16,0.44,0.39,0.81,0.68,1.13
			c0.29,0.32,0.65,0.57,1.08,0.74c0.43,0.18,0.9,0.26,1.43,0.26c0.47,0,0.93-0.07,1.38-0.21c0.45-0.14,0.86-0.33,1.24-0.58
			c0.38-0.25,0.7-0.55,0.97-0.91C104.31,23.4,104.51,23,104.62,22.56z"/>
	</g>
	<g>
		<path d="M30.65,14.07c-1.97,0.14-3.87,0.51-5.83,0.35c-1.29-0.09-2.6-0.27-3.89-0.47c-0.43-0.07-0.91-0.14-1.35-0.17
			c-0.53-0.03-1.06-0.02-1.59,0.02l0.27-0.48c1.02-1.84,2.43-3.48,4.16-4.68c1.49-1.05,3.22-1.82,5.02-2.16
			c-0.52,1.02-0.99,2.05-1.4,3.12c-0.37,1.02-0.73,2.08-0.71,3.18c0.02,0.37,0.09,0.77,0.36,1.06c0.03,0.03,0.08,0.04,0.11,0.01
			c0.04-0.03,0.04-0.08,0.02-0.12c-0.38-0.57-0.17-1.34-0.01-1.96c0.71-2.26,1.99-4.34,3.27-6.32c-2.6-0.03-5.15,0.79-7.33,2.17
			c-1.67,1.06-3.09,2.49-4.21,4.11c-0.58-1.09-0.38-2.92-0.12-3.97c0.41-1.73,1.28-3.35,2.48-4.66L22.68,0l-3.83,1.71
			C14.57,3.62,10.5,6.14,7.16,9.47C2.1,14.41-1.07,21.74,0.33,28.85c1.34,7.03,6.75,13.04,13.94,14.22l0.67,0.13l-0.43-0.55
			c-0.49-0.56-0.9-1.18-1.19-1.86c-1.59-3.52,0.26-7.59,3.06-9.93c0.57-0.48,1.18-0.91,1.83-1.28c0.56-0.32,1.45-0.72,2.04-1
			c2.77-1.37,5.63-2.66,7.86-4.9c1.75-1.76,2.47-4.14,2.59-6.57C30.75,16.1,30.77,15.07,30.65,14.07z M27.5,23.12
			c-1,1.1-2.26,1.95-3.54,2.71c-1.94,1.18-4.08,2.12-6.07,3.21c-3.32,1.98-5.98,5.65-5.63,9.66c0.12,1.35,0.64,2.65,1.43,3.74
			C7.22,41.12,2.46,35.03,1.5,28.65c-0.34-2.2-0.24-4.45,0.23-6.62C3.13,15.39,8.04,10.1,13.64,6.54c0.99-0.63,2.01-1.22,3.05-1.78
			c-0.86,1.79-1.28,3.78-1.07,5.77c0.14,1.14,0.56,2.43,1.63,3.06l0.43,0.24c-2.93,0.33-5.7,1.76-7.93,3.66
			c-0.03,0.03-0.04,0.08-0.01,0.12c0.03,0.04,0.08,0.04,0.12,0.01c0.68-0.54,1.43-1.01,2.2-1.43c2.54-1.37,5.54-2.16,8.4-1.52
			c1.42,0.31,2.82,0.61,4.27,0.79c1.55,0.23,3.17,0.12,4.73,0.05C29.75,18.23,29.46,21.07,27.5,23.12z"/>
		<path d="M16.01,21.06c1.13-1.49,2.56-2.24,5.08-2.11c1.73,0.09,2.89-0.28,2.89-0.28s-0.66,1.55-2.52,1.87
			C19.55,20.86,17.59,19.86,16.01,21.06z"/>
		<path d="M30.53,24.69c0,0-0.13,5.34-8.16,7.89c-7.39,2.35-6.36,10.24,0.29,10.24C31.2,42.81,33.46,35.53,30.53,24.69z"/>
	</g>
	<g>
		<path d="M41.14,37.72c-0.28,0-0.53,0.05-0.74,0.15s-0.4,0.25-0.55,0.43c-0.15,0.19-0.27,0.42-0.35,0.69
			c-0.08,0.27-0.12,0.57-0.12,0.91c0,0.45,0.06,0.84,0.19,1.16c0.13,0.32,0.32,0.57,0.58,0.75c0.26,0.17,0.59,0.26,0.98,0.26
			c0.25,0,0.49-0.02,0.72-0.07c0.23-0.05,0.47-0.11,0.72-0.19v0.81c-0.24,0.09-0.47,0.16-0.71,0.2c-0.24,0.04-0.52,0.06-0.83,0.06
			c-0.59,0-1.09-0.12-1.48-0.37c-0.39-0.25-0.68-0.59-0.87-1.04c-0.19-0.45-0.29-0.97-0.29-1.57c0-0.44,0.06-0.84,0.18-1.21
			c0.12-0.37,0.3-0.68,0.53-0.95c0.23-0.27,0.52-0.47,0.86-0.62c0.34-0.14,0.73-0.22,1.18-0.22c0.29,0,0.58,0.03,0.86,0.1
			s0.54,0.16,0.78,0.28l-0.33,0.79c-0.2-0.09-0.41-0.18-0.63-0.25C41.6,37.75,41.37,37.72,41.14,37.72z"/>
		<path d="M45.53,36.99c0.5,0,0.91,0.06,1.24,0.18c0.33,0.12,0.57,0.31,0.73,0.56c0.16,0.25,0.24,0.57,0.24,0.95
			c0,0.29-0.05,0.53-0.16,0.73c-0.11,0.2-0.24,0.37-0.42,0.5c-0.17,0.13-0.36,0.24-0.55,0.32l1.65,2.57h-1.08l-1.4-2.33h-0.93v2.33
			H43.9v-5.8H45.53z M45.47,37.79h-0.61v1.9h0.66c0.44,0,0.76-0.08,0.96-0.25c0.2-0.16,0.3-0.41,0.3-0.73
			c0-0.34-0.11-0.57-0.32-0.71C46.24,37.86,45.91,37.79,45.47,37.79z"/>
		<path d="M52.46,42.8h-3.29v-5.8h3.29v0.8h-2.33v1.58h2.19v0.8h-2.19v1.82h2.33V42.8z"/>
		<path d="M57.72,42.8l-0.57-1.61h-2.22l-0.57,1.61h-1l2.16-5.83h1.06l2.16,5.83H57.72z M56.9,40.37l-0.55-1.59
			c-0.02-0.07-0.05-0.17-0.09-0.29c-0.04-0.13-0.08-0.25-0.12-0.39c-0.04-0.13-0.07-0.24-0.1-0.33c-0.03,0.11-0.06,0.23-0.1,0.36
			c-0.04,0.13-0.08,0.26-0.11,0.38c-0.04,0.12-0.06,0.21-0.08,0.27l-0.56,1.59H56.9z"/>
		<path d="M61.59,42.8h-0.96v-5h-1.7v-0.81h4.35v0.81h-1.7V42.8z"/>
		<path d="M64.42,42.8v-5.8h0.95v5.8H64.42z"/>
		<path d="M71.28,36.99l-2.03,5.8h-1.01l-2.03-5.8h0.98l1.22,3.64c0.04,0.11,0.08,0.23,0.12,0.38c0.04,0.15,0.08,0.3,0.12,0.46
			c0.04,0.15,0.07,0.29,0.09,0.41c0.02-0.12,0.05-0.26,0.09-0.41c0.04-0.15,0.08-0.31,0.12-0.46c0.04-0.15,0.08-0.28,0.12-0.39
			l1.23-3.63H71.28z"/>
		<path d="M75.42,42.8h-3.29v-5.8h3.29v0.8h-2.33v1.58h2.19v0.8h-2.19v1.82h2.33V42.8z"/>
		<path d="M82.29,41.22c0,0.34-0.08,0.64-0.25,0.89c-0.17,0.25-0.41,0.44-0.72,0.57c-0.31,0.13-0.69,0.2-1.12,0.2
			c-0.21,0-0.41-0.01-0.61-0.04c-0.19-0.02-0.37-0.06-0.55-0.11c-0.17-0.05-0.33-0.1-0.47-0.17v-0.9c0.24,0.1,0.5,0.2,0.79,0.28
			c0.29,0.08,0.59,0.12,0.89,0.12c0.25,0,0.45-0.03,0.61-0.1c0.16-0.06,0.28-0.16,0.36-0.28c0.08-0.12,0.12-0.26,0.12-0.42
			c0-0.17-0.05-0.32-0.14-0.44c-0.09-0.12-0.23-0.23-0.42-0.33c-0.19-0.1-0.42-0.21-0.7-0.32c-0.19-0.08-0.37-0.16-0.55-0.26
			c-0.17-0.1-0.33-0.21-0.46-0.35c-0.13-0.13-0.24-0.29-0.32-0.47c-0.08-0.18-0.12-0.4-0.12-0.64c0-0.33,0.08-0.61,0.24-0.84
			c0.16-0.23,0.38-0.41,0.67-0.54c0.29-0.12,0.62-0.19,1.01-0.19c0.3,0,0.59,0.03,0.86,0.1c0.27,0.06,0.53,0.15,0.79,0.27l-0.3,0.77
			c-0.24-0.1-0.47-0.18-0.69-0.23c-0.22-0.06-0.45-0.09-0.69-0.09c-0.2,0-0.37,0.03-0.51,0.09c-0.14,0.06-0.25,0.15-0.32,0.26
			c-0.07,0.11-0.11,0.24-0.11,0.39c0,0.17,0.04,0.31,0.13,0.43C79.8,39,79.93,39.1,80.1,39.2c0.18,0.1,0.4,0.2,0.68,0.32
			c0.32,0.13,0.59,0.27,0.82,0.42c0.22,0.15,0.4,0.32,0.51,0.52C82.23,40.66,82.29,40.91,82.29,41.22z"/>
		<path d="M85.83,42.8h-0.96v-5h-1.7v-0.81h4.35v0.81h-1.7V42.8z"/>
		<path d="M93.13,36.99v3.76c0,0.4-0.09,0.77-0.26,1.09c-0.17,0.32-0.43,0.57-0.77,0.76c-0.34,0.19-0.78,0.28-1.3,0.28
			c-0.74,0-1.31-0.19-1.7-0.59c-0.39-0.39-0.58-0.91-0.58-1.56v-3.74h0.95v3.66c0,0.48,0.11,0.84,0.34,1.07
			c0.23,0.23,0.57,0.35,1.02,0.35c0.31,0,0.57-0.06,0.76-0.17c0.2-0.11,0.34-0.27,0.44-0.48c0.09-0.21,0.14-0.47,0.14-0.77v-3.65
			H93.13z"/>
		<path d="M99,39.84c0,0.65-0.12,1.2-0.37,1.64c-0.24,0.44-0.6,0.77-1.06,0.99c-0.46,0.22-1.02,0.33-1.68,0.33h-1.61v-5.8h1.79
			c0.6,0,1.12,0.11,1.56,0.32s0.77,0.53,1.01,0.96S99,39.22,99,39.84z M98.01,39.87c0-0.48-0.07-0.87-0.22-1.18
			c-0.15-0.31-0.37-0.53-0.66-0.68c-0.29-0.15-0.65-0.22-1.07-0.22h-0.81V42h0.67c0.7,0,1.23-0.18,1.57-0.54
			C97.84,41.11,98.01,40.57,98.01,39.87z"/>
		<path d="M100.08,42.8v-5.8h0.95v5.8H100.08z"/>
		<path d="M107.56,39.89c0,0.45-0.06,0.85-0.17,1.22c-0.11,0.37-0.28,0.68-0.51,0.95c-0.22,0.26-0.51,0.47-0.85,0.61
			c-0.34,0.14-0.74,0.21-1.19,0.21c-0.46,0-0.86-0.07-1.21-0.21c-0.34-0.14-0.62-0.35-0.85-0.61c-0.22-0.27-0.39-0.58-0.5-0.95
			c-0.11-0.37-0.17-0.78-0.17-1.22c0-0.6,0.1-1.12,0.3-1.57s0.5-0.79,0.9-1.04c0.4-0.25,0.91-0.37,1.53-0.37
			c0.6,0,1.1,0.12,1.51,0.37c0.4,0.25,0.7,0.59,0.9,1.04C107.46,38.75,107.56,39.28,107.56,39.89z M103.13,39.89
			c0,0.45,0.06,0.83,0.18,1.16c0.12,0.33,0.31,0.58,0.56,0.75c0.25,0.18,0.58,0.26,0.97,0.26c0.4,0,0.73-0.09,0.98-0.26
			c0.25-0.18,0.44-0.43,0.56-0.75s0.18-0.71,0.18-1.16c0-0.68-0.14-1.21-0.41-1.6c-0.27-0.38-0.7-0.58-1.3-0.58
			c-0.4,0-0.72,0.09-0.98,0.26c-0.25,0.17-0.44,0.42-0.57,0.75C103.19,39.05,103.13,39.43,103.13,39.89z"/>
	</g>
</g>
<g>
</g>
<g>
</g>
<g>
</g>
<g>
</g>
<g>
</g>
<g>
</g>
<g>
</g>
<g>
</g>
<g>
</g>
<g>
</g>
<g>
</g>
<g>
</g>
<g>
</g>
<g>
</g>
<g>
</g>
</svg>
