<?xml version="1.0" encoding="utf-8"?>
<!-- Generator: Adobe Illustrator 25.4.1, SVG Export Plug-In . SVG Version: 6.00 Build 0)  -->
<svg version="1.1" id="图层_1" xmlns="http://www.w3.org/2000/svg" xmlns:xlink="http://www.w3.org/1999/xlink" x="0px" y="0px"
	 viewBox="0 0 300 300" style="enable-background:new 0 0 300 300;" xml:space="preserve">
<style type="text/css">
	.st0{fill:#E53935;}
</style>
<g>
	<g>
		<rect id="p" class="st0" width="12" height="12"/>
	</g>
	<g>
		<rect id="p_00000168809109231485365790000007268089883035694756_" x="12" class="st0" width="12" height="12"/>
	</g>
	<g>
		<rect id="p_00000026129382666944513160000006477273162493929362_" x="24" class="st0" width="12" height="12"/>
	</g>
	<g>
		<rect id="p_00000115511634093124372040000014481200207286393256_" x="36" class="st0" width="12" height="12"/>
	</g>
	<g>
		<rect id="p_00000116211856285985076910000003050491235632741769_" x="48" class="st0" width="12" height="12"/>
	</g>
	<g>
		<rect id="p_00000183958175784564984260000016180537926436029082_" x="60" class="st0" width="12" height="12"/>
	</g>
	<g>
		<rect id="p_00000045620495740235556970000016606334002077850807_" x="72" class="st0" width="12" height="12"/>
	</g>
	<g>
		<rect id="p_00000021089551574578730540000004238667251559398837_" x="120" class="st0" width="12" height="12"/>
	</g>
	<g>
		<rect id="p_00000006695304897673335480000004026379028476406974_" x="156" class="st0" width="12" height="12"/>
	</g>
	<g>
		<rect id="p_00000111888764024408182810000014619649128089916847_" x="168" class="st0" width="12" height="12"/>
	</g>
	<g>
		<rect id="p_00000096742505378522397340000008506795131111085976_" x="180" class="st0" width="12" height="12"/>
	</g>
	<g>
		<rect id="p_00000142859570383389920880000010108881311902674327_" x="216" class="st0" width="12" height="12"/>
	</g>
	<g>
		<rect id="p_00000183222728994259615020000004897698183636750775_" x="228" class="st0" width="12" height="12"/>
	</g>
	<g>
		<rect id="p_00000049943681935925002090000009894767951556410797_" x="240" class="st0" width="12" height="12"/>
	</g>
	<g>
		<rect id="p_00000086664677376521993760000015131420764594403969_" x="252" class="st0" width="12" height="12"/>
	</g>
	<g>
		<rect id="p_00000116958386575937120800000012940359587598702745_" x="264" class="st0" width="12" height="12"/>
	</g>
	<g>
		<rect id="p_00000049932850173719217910000005024321675337046403_" x="276" class="st0" width="12" height="12"/>
	</g>
	<g>
		<rect id="p_00000004506930354669670120000008183036556161864365_" x="288" class="st0" width="12" height="12"/>
	</g>
	<g>
		<rect id="p_00000093165561532276533240000006458637741338406818_" y="12" class="st0" width="12" height="12"/>
	</g>
	<g>
		<rect id="p_00000088119347429169493380000010352806505713153950_" x="72" y="12" class="st0" width="12" height="12"/>
	</g>
	<g>
		<rect id="p_00000094583997807043385850000003887532323689152701_" x="108" y="12" class="st0" width="12" height="12"/>
	</g>
	<g>
		<rect id="p_00000182491296346538616650000006726199520389263267_" x="156" y="12" class="st0" width="12" height="12"/>
	</g>
	<g>
		<rect id="p_00000137096015197973498100000017862058975666681480_" x="180" y="12" class="st0" width="12" height="12"/>
	</g>
	<g>
		<rect id="p_00000114047873299645191480000010487634466982109603_" x="216" y="12" class="st0" width="12" height="12"/>
	</g>
	<g>
		<rect id="p_00000003797508451945286330000000553345008989367966_" x="288" y="12" class="st0" width="12" height="12"/>
	</g>
	<g>
		<rect id="p_00000003806704971522260320000018035695907307114891_" y="24" class="st0" width="12" height="12"/>
	</g>
	<g>
		<rect id="p_00000125567920377554477400000000103455073882996654_" x="24" y="24" class="st0" width="12" height="12"/>
	</g>
	<g>
		<rect id="p_00000072245802909554986390000007959810002090930314_" x="36" y="24" class="st0" width="12" height="12"/>
	</g>
	<g>
		<rect id="p_00000132050760085121486020000010911583850618079631_" x="48" y="24" class="st0" width="12" height="12"/>
	</g>
	<g>
		<rect id="p_00000086688531590379923340000010195211717612474044_" x="72" y="24" class="st0" width="12" height="12"/>
	</g>
	<g>
		<rect id="p_00000004541095840374436330000001327427079882433683_" x="96" y="24" class="st0" width="12" height="12"/>
	</g>
	<g>
		<rect id="p_00000078759037407015672910000006910735040767051158_" x="132" y="24" class="st0" width="12" height="12"/>
	</g>
	<g>
		<rect id="p_00000064311811604245922570000015989464981154726272_" x="168" y="24" class="st0" width="12" height="12"/>
	</g>
	<g>
		<rect id="p_00000088815809276873190940000013375041527280098703_" x="216" y="24" class="st0" width="12" height="12"/>
	</g>
	<g>
		<rect id="p_00000160888844938688135400000016113968933424635520_" x="240" y="24" class="st0" width="12" height="12"/>
	</g>
	<g>
		<rect id="p_00000174599884720724174310000007827855474557513390_" x="252" y="24" class="st0" width="12" height="12"/>
	</g>
	<g>
		<rect id="p_00000179613579784015581450000001987211843983585920_" x="264" y="24" class="st0" width="12" height="12"/>
	</g>
	<g>
		<rect id="p_00000042699529398659770600000012223216824613141147_" x="288" y="24" class="st0" width="12" height="12"/>
	</g>
	<g>
		<rect id="p_00000121243103797256964280000017609672934185342136_" y="36" class="st0" width="12" height="12"/>
	</g>
	<g>
		<rect id="p_00000153688822532513543670000008267302622215523724_" x="24" y="36" class="st0" width="12" height="12"/>
	</g>
	<g>
		<rect id="p_00000168810475546439496890000013694340379314185097_" x="36" y="36" class="st0" width="12" height="12"/>
	</g>
	<g>
		<rect id="p_00000034071424226845218590000004199336589321930913_" x="48" y="36" class="st0" width="12" height="12"/>
	</g>
	<g>
		<rect id="p_00000128452509653831843370000018034320105686025097_" x="72" y="36" class="st0" width="12" height="12"/>
	</g>
	<g>
		<rect id="p_00000093155146390899976440000014990150814208640186_" x="108" y="36" class="st0" width="12" height="12"/>
	</g>
	<g>
		<rect id="p_00000100374431145713998820000017752875144824953273_" x="144" y="36" class="st0" width="12" height="12"/>
	</g>
	<g>
		<rect id="p_00000027606236791815173970000014520383005309685938_" x="168" y="36" class="st0" width="12" height="12"/>
	</g>
	<g>
		<rect id="p_00000076567841633125180930000015795721578707453328_" x="180" y="36" class="st0" width="12" height="12"/>
	</g>
	<g>
		<rect id="p_00000173842480823707198070000015033934917493705861_" x="192" y="36" class="st0" width="12" height="12"/>
	</g>
	<g>
		<rect id="p_00000114788099918429462930000009296774432066274461_" x="216" y="36" class="st0" width="12" height="12"/>
	</g>
	<g>
		<rect id="p_00000078759250293778439540000005942438848551858579_" x="240" y="36" class="st0" width="12" height="12"/>
	</g>
	<g>
		<rect id="p_00000104699067395632557610000010679026114786116746_" x="252" y="36" class="st0" width="12" height="12"/>
	</g>
	<g>
		<rect id="p_00000155840697543467304610000009335401387079379840_" x="264" y="36" class="st0" width="12" height="12"/>
	</g>
	<g>
		<rect id="p_00000021099133860296429660000005286058697440947123_" x="288" y="36" class="st0" width="12" height="12"/>
	</g>
	<g>
		<rect id="p_00000038410393029360712370000004241777241652971141_" y="48" class="st0" width="12" height="12"/>
	</g>
	<g>
		<rect id="p_00000178920517067588251050000007374607161885868442_" x="24" y="48" class="st0" width="12" height="12"/>
	</g>
	<g>
		<rect id="p_00000036944518417595064240000009960678470045561487_" x="36" y="48" class="st0" width="12" height="12"/>
	</g>
	<g>
		<rect id="p_00000125594953988198402200000002418380741297165469_" x="48" y="48" class="st0" width="12" height="12"/>
	</g>
	<g>
		<rect id="p_00000150063596342423835980000009726943307092011709_" x="72" y="48" class="st0" width="12" height="12"/>
	</g>
	<g>
		<rect id="p_00000153702157465242831330000015859948036840307902_" x="108" y="48" class="st0" width="12" height="12"/>
	</g>
	<g>
		<rect id="p_00000069393320159383182700000002767102433277909121_" x="144" y="48" class="st0" width="12" height="12"/>
	</g>
	<g>
		<rect id="p_00000134241240310237835630000002412348225363821226_" x="180" y="48" class="st0" width="12" height="12"/>
	</g>
	<g>
		<rect id="p_00000091720516346023302140000006602198911752726401_" x="216" y="48" class="st0" width="12" height="12"/>
	</g>
	<g>
		<rect id="p_00000008124245448922489380000002676792067500471736_" x="240" y="48" class="st0" width="12" height="12"/>
	</g>
	<g>
		<rect id="p_00000168075322200018582640000011188097244825371057_" x="252" y="48" class="st0" width="12" height="12"/>
	</g>
	<g>
		<rect id="p_00000181787342515024427420000004861359704710027922_" x="264" y="48" class="st0" width="12" height="12"/>
	</g>
	<g>
		<rect id="p_00000043422388936947580990000011040100203633467326_" x="288" y="48" class="st0" width="12" height="12"/>
	</g>
	<g>
		<rect id="p_00000156576441618206131510000004267016113029186743_" y="60" class="st0" width="12" height="12"/>
	</g>
	<g>
		<rect id="p_00000026873982016132604850000008120775000083088768_" x="72" y="60" class="st0" width="12" height="12"/>
	</g>
	<g>
		<rect id="p_00000143584600860446935500000004339164749450828692_" x="120" y="60" class="st0" width="12" height="12"/>
	</g>
	<g>
		<rect id="p_00000058552989624016316330000008349509001221370298_" x="132" y="60" class="st0" width="12" height="12"/>
	</g>
	<g>
		<rect id="p_00000063600353376609124420000004982279751704726677_" x="144" y="60" class="st0" width="12" height="12"/>
	</g>
	<g>
		<rect id="p_00000118376865797078979760000011329237581019031976_" x="156" y="60" class="st0" width="12" height="12"/>
	</g>
	<g>
		<rect id="p_00000068673969001860199100000003714887616489711271_" x="168" y="60" class="st0" width="12" height="12"/>
	</g>
	<g>
		<rect id="p_00000083058776431609477020000010287430645565138564_" x="180" y="60" class="st0" width="12" height="12"/>
	</g>
	<g>
		<rect id="p_00000151540256084413201980000001074681925545886887_" x="192" y="60" class="st0" width="12" height="12"/>
	</g>
	<g>
		<rect id="p_00000020368957243760211480000018347106839277468301_" x="216" y="60" class="st0" width="12" height="12"/>
	</g>
	<g>
		<rect id="p_00000106145082636168219470000001633313912811461823_" x="288" y="60" class="st0" width="12" height="12"/>
	</g>
	<g>
		<rect id="p_00000081623555960810639360000003367313940791582614_" y="72" class="st0" width="12" height="12"/>
	</g>
	<g>
		<rect id="p_00000165208730874363192730000010003088338441340057_" x="12" y="72" class="st0" width="12" height="12"/>
	</g>
	<g>
		<rect id="p_00000085956854953605380320000006670150526807614399_" x="24" y="72" class="st0" width="12" height="12"/>
	</g>
	<g>
		<rect id="p_00000179636437793645628980000007323018209358017154_" x="36" y="72" class="st0" width="12" height="12"/>
	</g>
	<g>
		<rect id="p_00000028290872002878925980000012628954599239159971_" x="48" y="72" class="st0" width="12" height="12"/>
	</g>
	<g>
		<rect id="p_00000092450520686032116890000005193021621685278866_" x="60" y="72" class="st0" width="12" height="12"/>
	</g>
	<g>
		<rect id="p_00000121275102719572037560000005036498434656014471_" x="72" y="72" class="st0" width="12" height="12"/>
	</g>
	<g>
		<rect id="p_00000010306019552595118880000010058730424821786021_" x="96" y="72" class="st0" width="12" height="12"/>
	</g>
	<g>
		<rect id="p_00000004537224700559459240000009037758011696595077_" x="120" y="72" class="st0" width="12" height="12"/>
	</g>
	<g>
		<rect id="p_00000126308308289673660760000004266657128302504375_" x="144" y="72" class="st0" width="12" height="12"/>
	</g>
	<g>
		<rect id="p_00000128451196420976680770000006803258827623623345_" x="168" y="72" class="st0" width="12" height="12"/>
	</g>
	<g>
		<rect id="p_00000048458951284234533340000002714287966764346256_" x="192" y="72" class="st0" width="12" height="12"/>
	</g>
	<g>
		<rect id="p_00000090990915409525046080000003378169367823334016_" x="216" y="72" class="st0" width="12" height="12"/>
	</g>
	<g>
		<rect id="p_00000183238882578267355990000005187597560947156132_" x="228" y="72" class="st0" width="12" height="12"/>
	</g>
	<g>
		<rect id="p_00000002384326518164374640000014979030786230673815_" x="240" y="72" class="st0" width="12" height="12"/>
	</g>
	<g>
		<rect id="p_00000040534024070261955960000002190932130748841915_" x="252" y="72" class="st0" width="12" height="12"/>
	</g>
	<g>
		<rect id="p_00000000926857019831225150000005893595503132418705_" x="264" y="72" class="st0" width="12" height="12"/>
	</g>
	<g>
		<rect id="p_00000060711667300867573290000016811176228198255491_" x="276" y="72" class="st0" width="12" height="12"/>
	</g>
	<g>
		<rect id="p_00000071523036037992144080000001838208943966825911_" x="288" y="72" class="st0" width="12" height="12"/>
	</g>
	<g>
		<rect id="p_00000049930424014614388560000013547508177922062720_" x="96" y="84" class="st0" width="12" height="12"/>
	</g>
	<g>
		<rect id="p_00000048498926224916918140000005863684865748956337_" x="132" y="84" class="st0" width="12" height="12"/>
	</g>
	<g>
		<rect id="p_00000115502324262030692100000016188720802440148645_" x="156" y="84" class="st0" width="12" height="12"/>
	</g>
	<g>
		<rect id="p_00000176761807275687901000000015239470615892534182_" x="168" y="84" class="st0" width="12" height="12"/>
	</g>
	<g>
		<rect id="p_00000037654354940356082440000010360348782743067015_" x="180" y="84" class="st0" width="12" height="12"/>
	</g>
	<g>
		<rect id="p_00000063599542125336816310000014619643498222775433_" y="96" class="st0" width="12" height="12"/>
	</g>
	<g>
		<rect id="p_00000045620189637983623500000018142101303099674524_" x="12" y="96" class="st0" width="12" height="12"/>
	</g>
	<g>
		<rect id="p_00000145766573025492426830000016089268079190549693_" x="24" y="96" class="st0" width="12" height="12"/>
	</g>
	<g>
		<rect id="p_00000067934549558131591500000017310299867806494856_" x="48" y="96" class="st0" width="12" height="12"/>
	</g>
	<g>
		<rect id="p_00000166672874425104556960000010157393320074049717_" x="60" y="96" class="st0" width="12" height="12"/>
	</g>
	<g>
		<rect id="p_00000093861173892369179970000007697849097723852971_" x="72" y="96" class="st0" width="12" height="12"/>
	</g>
	<g>
		<rect id="p_00000110436511236111619230000012871372506052342204_" x="84" y="96" class="st0" width="12" height="12"/>
	</g>
	<g>
		<rect id="p_00000005240580806381802630000005510324337981408675_" x="96" y="96" class="st0" width="12" height="12"/>
	</g>
	<g>
		<rect id="p_00000108283024180847512990000014159393756994303134_" x="144" y="96" class="st0" width="12" height="12"/>
	</g>
	<g>
		<rect id="p_00000093171687511476668680000010088713028905304233_" x="156" y="96" class="st0" width="12" height="12"/>
	</g>
	<g>
		<rect id="p_00000008141484630316311200000014150118586365275831_" x="180" y="96" class="st0" width="12" height="12"/>
	</g>
	<g>
		<rect id="p_00000024714744375802695440000017904560163217627786_" x="192" y="96" class="st0" width="12" height="12"/>
	</g>
	<g>
		<rect id="p_00000030488422566336240930000017437388997714047401_" x="204" y="96" class="st0" width="12" height="12"/>
	</g>
	<g>
		<rect id="p_00000005984597174298610900000006411158579133235878_" x="216" y="96" class="st0" width="12" height="12"/>
	</g>
	<g>
		<rect id="p_00000162343712990206951120000006710694745757199761_" x="264" y="96" class="st0" width="12" height="12"/>
	</g>
	<g>
		<rect id="p_00000138562316526597841040000017548721220754187913_" y="108" class="st0" width="12" height="12"/>
	</g>
	<g>
		<rect id="p_00000042014732655158424950000008522550060841872790_" x="12" y="108" class="st0" width="12" height="12"/>
	</g>
	<g>
		<rect id="p_00000164497510247872965060000002319496682767870648_" x="36" y="108" class="st0" width="12" height="12"/>
	</g>
	<g>
		<rect id="p_00000021817198791467947440000009798022422211917711_" x="60" y="108" class="st0" width="12" height="12"/>
	</g>
	<g>
		<rect id="p_00000047025967854596549670000003732288323797145012_" x="108" y="108" class="st0" width="12" height="12"/>
	</g>
	<g>
		<rect id="p_00000045580007445700646080000002391417491194158770_" x="132" y="108" class="st0" width="12" height="12"/>
	</g>
	<g>
		<rect id="p_00000072965236892156404660000008682656304105939630_" x="144" y="108" class="st0" width="12" height="12"/>
	</g>
	<g>
		<rect id="p_00000160158920161918766860000008066481575563102089_" x="156" y="108" class="st0" width="12" height="12"/>
	</g>
	<g>
		<rect id="p_00000096760718293145745210000013107178439452420512_" x="192" y="108" class="st0" width="12" height="12"/>
	</g>
	<g>
		<rect id="p_00000168832493641639388450000006612294907250786709_" x="204" y="108" class="st0" width="12" height="12"/>
	</g>
	<g>
		<rect id="p_00000012460703020068932590000002612813181892544945_" x="216" y="108" class="st0" width="12" height="12"/>
	</g>
	<g>
		<rect id="p_00000001657174580910030170000016711414568638145165_" x="288" y="108" class="st0" width="12" height="12"/>
	</g>
	<g>
		<rect id="p_00000150817539499413365100000006071226058525238700_" y="120" class="st0" width="12" height="12"/>
	</g>
	<g>
		<rect id="p_00000134225558285566294200000009008816571137084091_" x="12" y="120" class="st0" width="12" height="12"/>
	</g>
	<g>
		<rect id="p_00000166665667399258055130000013255952514060277385_" x="24" y="120" class="st0" width="12" height="12"/>
	</g>
	<g>
		<rect id="p_00000178184771158962790880000012524376270739803327_" x="36" y="120" class="st0" width="12" height="12"/>
	</g>
	<g>
		<rect id="p_00000055671296174033832730000003672122834873675652_" x="48" y="120" class="st0" width="12" height="12"/>
	</g>
	<g>
		<rect id="p_00000040561202788182441450000006688645911154476930_" x="60" y="120" class="st0" width="12" height="12"/>
	</g>
	<g>
		<rect id="p_00000070831805342928119650000009273836283445020577_" x="72" y="120" class="st0" width="12" height="12"/>
	</g>
	<g>
		<rect id="p_00000018217391362888736480000006472954354043047585_" x="84" y="120" class="st0" width="12" height="12"/>
	</g>
	<g>
		<rect id="p_00000145023897850503997080000000890869133597088415_" x="120" y="120" class="st0" width="12" height="12"/>
	</g>
	<g>
		<rect id="p_00000118392286505079044650000006050872308846116239_" x="132" y="120" class="st0" width="12" height="12"/>
	</g>
	<g>
		<rect id="p_00000081611676764132124030000001063496838273312689_" x="144" y="120" class="st0" width="12" height="12"/>
	</g>
	<g>
		<rect id="p_00000160881158477571310020000013405209921006922112_" x="156" y="120" class="st0" width="12" height="12"/>
	</g>
	<g>
		<rect id="p_00000058587338356191117270000014304279266954311073_" x="168" y="120" class="st0" width="12" height="12"/>
	</g>
	<g>
		<rect id="p_00000180345787024099421030000013585718795524574369_" x="204" y="120" class="st0" width="12" height="12"/>
	</g>
	<g>
		<rect id="p_00000145772732210982441580000005882676998284421050_" x="228" y="120" class="st0" width="12" height="12"/>
	</g>
	<g>
		<rect id="p_00000148636088477140932630000012946580406675577478_" x="240" y="120" class="st0" width="12" height="12"/>
	</g>
	<g>
		<rect id="p_00000145749200519464807180000016840277472202490287_" x="264" y="120" class="st0" width="12" height="12"/>
	</g>
	<g>
		<rect id="p_00000110454632980586618310000014896790505204211135_" x="276" y="120" class="st0" width="12" height="12"/>
	</g>
	<g>
		<rect id="p_00000028307423449023610760000002801403226227345828_" x="288" y="120" class="st0" width="12" height="12"/>
	</g>
	<g>
		<rect id="p_00000043426184256985472270000005262184697969838995_" y="132" class="st0" width="12" height="12"/>
	</g>
	<g>
		<rect id="p_00000101094644853196723520000001509159973764413627_" x="12" y="132" class="st0" width="12" height="12"/>
	</g>
	<g>
		<rect id="p_00000016067249460590490820000007611681339195325094_" x="48" y="132" class="st0" width="12" height="12"/>
	</g>
	<g>
		<rect id="p_00000183939159706157922180000011075476172679730819_" x="96" y="132" class="st0" width="12" height="12"/>
	</g>
	<g>
		<rect id="p_00000079462130634054492910000006267972403270272405_" x="108" y="132" class="st0" width="12" height="12"/>
	</g>
	<g>
		<rect id="p_00000008149018411792354770000009606977561267829679_" x="120" y="132" class="st0" width="12" height="12"/>
	</g>
	<g>
		<rect id="p_00000046311474814359733150000006867083977044804271_" x="144" y="132" class="st0" width="12" height="12"/>
	</g>
	<g>
		<rect id="p_00000134224208154211967270000009772710458846723257_" x="156" y="132" class="st0" width="12" height="12"/>
	</g>
	<g>
		<rect id="p_00000160149957806960727080000012960599877392998839_" x="192" y="132" class="st0" width="12" height="12"/>
	</g>
	<g>
		<rect id="p_00000182525436084124212690000012982386946888283045_" x="204" y="132" class="st0" width="12" height="12"/>
	</g>
	<g>
		<rect id="p_00000091005111487634882390000003337974934194625190_" x="216" y="132" class="st0" width="12" height="12"/>
	</g>
	<g>
		<rect id="p_00000065757579077551409870000011553765901682101437_" x="228" y="132" class="st0" width="12" height="12"/>
	</g>
	<g>
		<rect id="p_00000054982707131443342210000004374842355341827725_" x="276" y="132" class="st0" width="12" height="12"/>
	</g>
	<g>
		<rect id="p_00000082342651851347325110000018061390562530692286_" x="12" y="144" class="st0" width="12" height="12"/>
	</g>
	<g>
		<rect id="p_00000051360190495037435090000001818736591757718180_" x="36" y="144" class="st0" width="12" height="12"/>
	</g>
	<g>
		<rect id="p_00000178897646899661534820000005730199514097841833_" x="48" y="144" class="st0" width="12" height="12"/>
	</g>
	<g>
		<rect id="p_00000111912523474621539590000016776259094040747687_" x="60" y="144" class="st0" width="12" height="12"/>
	</g>
	<g>
		<rect id="p_00000165208760316267249250000009643217271542774161_" x="72" y="144" class="st0" width="12" height="12"/>
	</g>
	<g>
		<rect id="p_00000043429993573357510880000010827467995573437326_" x="84" y="144" class="st0" width="12" height="12"/>
	</g>
	<g>
		<rect id="p_00000160895516915284796440000018333658568772104369_" x="120" y="144" class="st0" width="12" height="12"/>
	</g>
	<g>
		<rect id="p_00000036954069939127074380000014565789383921707954_" x="132" y="144" class="st0" width="12" height="12"/>
	</g>
	<g>
		<rect id="p_00000036954272682981067910000003873331710715043741_" x="156" y="144" class="st0" width="12" height="12"/>
	</g>
	<g>
		<rect id="p_00000149369741185798326760000018117116361770266783_" x="168" y="144" class="st0" width="12" height="12"/>
	</g>
	<g>
		<rect id="p_00000003094204018067923000000002737993850346372799_" x="192" y="144" class="st0" width="12" height="12"/>
	</g>
	<g>
		<rect id="p_00000183963703946612898250000005286224598532743808_" x="204" y="144" class="st0" width="12" height="12"/>
	</g>
	<g>
		<rect id="p_00000030481786340375117470000006236520586787243397_" x="216" y="144" class="st0" width="12" height="12"/>
	</g>
	<g>
		<rect id="p_00000071549247202138353100000002939531291999515791_" x="228" y="144" class="st0" width="12" height="12"/>
	</g>
	<g>
		<rect id="p_00000019657763634305152450000017440263412409049266_" x="252" y="144" class="st0" width="12" height="12"/>
	</g>
	<g>
		<rect id="p_00000036964956770099966740000007853410838444136598_" x="276" y="144" class="st0" width="12" height="12"/>
	</g>
	<g>
		<rect id="p_00000043415121110166810770000016053508861166318986_" x="288" y="144" class="st0" width="12" height="12"/>
	</g>
	<g>
		<rect id="p_00000073684819486493177240000005839453465564685207_" x="12" y="156" class="st0" width="12" height="12"/>
	</g>
	<g>
		<rect id="p_00000181774870970968819270000005812092664787898760_" x="24" y="156" class="st0" width="12" height="12"/>
	</g>
	<g>
		<rect id="p_00000009589885307936196800000006940863904442594714_" x="96" y="156" class="st0" width="12" height="12"/>
	</g>
	<g>
		<rect id="p_00000071548937712016841840000011661705271221732027_" x="120" y="156" class="st0" width="12" height="12"/>
	</g>
	<g>
		<rect id="p_00000075875062648855012320000005880259567606730625_" x="132" y="156" class="st0" width="12" height="12"/>
	</g>
	<g>
		<rect id="p_00000001661379282130921660000005383980272944503210_" x="192" y="156" class="st0" width="12" height="12"/>
	</g>
	<g>
		<rect id="p_00000041269863322535249570000018203099576141777300_" x="204" y="156" class="st0" width="12" height="12"/>
	</g>
	<g>
		<rect id="p_00000075849705699804710800000013618781553284403851_" x="216" y="156" class="st0" width="12" height="12"/>
	</g>
	<g>
		<rect id="p_00000029738904997299974300000006682162548042936243_" x="228" y="156" class="st0" width="12" height="12"/>
	</g>
	<g>
		<rect id="p_00000139295594753186097150000014706553292582746270_" x="252" y="156" class="st0" width="12" height="12"/>
	</g>
	<g>
		<rect id="p_00000149357396407396520170000003956124237777600917_" x="288" y="156" class="st0" width="12" height="12"/>
	</g>
	<g>
		<rect id="p_00000003092700995806050170000014498611484665270148_" y="168" class="st0" width="12" height="12"/>
	</g>
	<g>
		<rect id="p_00000102527773119066889200000009757152536276247170_" x="24" y="168" class="st0" width="12" height="12"/>
	</g>
	<g>
		<rect id="p_00000116942124596506404000000017191931670534516886_" x="48" y="168" class="st0" width="12" height="12"/>
	</g>
	<g>
		<rect id="p_00000169518154322700571760000007360624602685355408_" x="60" y="168" class="st0" width="12" height="12"/>
	</g>
	<g>
		<rect id="p_00000023246314096862320520000005269601902638475400_" x="72" y="168" class="st0" width="12" height="12"/>
	</g>
	<g>
		<rect id="p_00000083776673067742413560000001139621103356465052_" x="156" y="168" class="st0" width="12" height="12"/>
	</g>
	<g>
		<rect id="p_00000067204424486344176200000011916785770562335627_" x="192" y="168" class="st0" width="12" height="12"/>
	</g>
	<g>
		<rect id="p_00000034799069826833492510000004690788545350932394_" x="216" y="168" class="st0" width="12" height="12"/>
	</g>
	<g>
		<rect id="p_00000048500677781592445130000002591355431466762163_" x="228" y="168" class="st0" width="12" height="12"/>
	</g>
	<g>
		<rect id="p_00000052081544236748209780000014226578157029048466_" x="264" y="168" class="st0" width="12" height="12"/>
	</g>
	<g>
		<rect id="p_00000145742607379876215900000018117129201581573049_" x="276" y="168" class="st0" width="12" height="12"/>
	</g>
	<g>
		<rect id="p_00000093162485067065979450000007297465294051330947_" x="288" y="168" class="st0" width="12" height="12"/>
	</g>
	<g>
		<rect id="p_00000070803071769694951930000000424159325808580001_" x="12" y="180" class="st0" width="12" height="12"/>
	</g>
	<g>
		<rect id="p_00000053532997214737337400000004736234254648486536_" x="24" y="180" class="st0" width="12" height="12"/>
	</g>
	<g>
		<rect id="p_00000070082983666744824080000015171176151589360805_" x="36" y="180" class="st0" width="12" height="12"/>
	</g>
	<g>
		<rect id="p_00000132064087603271643200000008566258762092713097_" x="84" y="180" class="st0" width="12" height="12"/>
	</g>
	<g>
		<rect id="p_00000049901125628582411030000012885206344971027859_" x="108" y="180" class="st0" width="12" height="12"/>
	</g>
	<g>
		<rect id="p_00000134245271838233404990000002260574852799255427_" x="120" y="180" class="st0" width="12" height="12"/>
	</g>
	<g>
		<rect id="p_00000026123595079676223870000003229049539559900827_" x="132" y="180" class="st0" width="12" height="12"/>
	</g>
	<g>
		<rect id="p_00000146483490505548850270000007212026649032358062_" x="156" y="180" class="st0" width="12" height="12"/>
	</g>
	<g>
		<rect id="p_00000018947490985802470250000002152551219237530045_" x="192" y="180" class="st0" width="12" height="12"/>
	</g>
	<g>
		<rect id="p_00000017517869249146558800000015825927623741835198_" x="240" y="180" class="st0" width="12" height="12"/>
	</g>
	<g>
		<rect id="p_00000029726050813895566410000006351002358807167107_" x="276" y="180" class="st0" width="12" height="12"/>
	</g>
	<g>
		<rect id="p_00000027594993973073720030000012718605266520679847_" y="192" class="st0" width="12" height="12"/>
	</g>
	<g>
		<rect id="p_00000119079256197392456150000006456479056607955108_" x="24" y="192" class="st0" width="12" height="12"/>
	</g>
	<g>
		<rect id="p_00000029008187836717181020000016304242455973108914_" x="48" y="192" class="st0" width="12" height="12"/>
	</g>
	<g>
		<rect id="p_00000016054234213201399180000011652373324157983654_" x="72" y="192" class="st0" width="12" height="12"/>
	</g>
	<g>
		<rect id="p_00000026127893163674627490000000561453054294879915_" x="84" y="192" class="st0" width="12" height="12"/>
	</g>
	<g>
		<rect id="p_00000144295947061051052580000001292965600231171227_" x="108" y="192" class="st0" width="12" height="12"/>
	</g>
	<g>
		<rect id="p_00000083071059915938033610000018255896513662150545_" x="144" y="192" class="st0" width="12" height="12"/>
	</g>
	<g>
		<rect id="p_00000067216955085217932710000011418103536184122500_" x="156" y="192" class="st0" width="12" height="12"/>
	</g>
	<g>
		<rect id="p_00000106870385383459594570000002193327085265407164_" x="180" y="192" class="st0" width="12" height="12"/>
	</g>
	<g>
		<rect id="p_00000018220936078709523040000015069848203639592065_" x="192" y="192" class="st0" width="12" height="12"/>
	</g>
	<g>
		<rect id="p_00000151530154962439244700000001335895647319424177_" x="204" y="192" class="st0" width="12" height="12"/>
	</g>
	<g>
		<rect id="p_00000011021628106809614370000006239328695711292815_" x="216" y="192" class="st0" width="12" height="12"/>
	</g>
	<g>
		<rect id="p_00000114752547359581051710000011385528797832627331_" x="228" y="192" class="st0" width="12" height="12"/>
	</g>
	<g>
		<rect id="p_00000144330184764234105100000017423329279217915783_" x="240" y="192" class="st0" width="12" height="12"/>
	</g>
	<g>
		<rect id="p_00000158713518319156476720000007724477444063626386_" x="252" y="192" class="st0" width="12" height="12"/>
	</g>
	<g>
		<rect id="p_00000005240738998498825950000011105482936892386981_" x="96" y="204" class="st0" width="12" height="12"/>
	</g>
	<g>
		<rect id="p_00000106105677918974167500000008656676986703132580_" x="108" y="204" class="st0" width="12" height="12"/>
	</g>
	<g>
		<rect id="p_00000096749188682125333860000004841744023286664617_" x="120" y="204" class="st0" width="12" height="12"/>
	</g>
	<g>
		<rect id="p_00000136404003092772341780000009943438118069062548_" x="132" y="204" class="st0" width="12" height="12"/>
	</g>
	<g>
		<rect id="p_00000050657809562974787190000001431498404995056539_" x="144" y="204" class="st0" width="12" height="12"/>
	</g>
	<g>
		<rect id="p_00000183943256234258293580000008700734968541052552_" x="180" y="204" class="st0" width="12" height="12"/>
	</g>
	<g>
		<rect id="p_00000075859035007224506260000016963437162030850176_" x="192" y="204" class="st0" width="12" height="12"/>
	</g>
	<g>
		<rect id="p_00000011726518519707482110000001286041085095899536_" x="240" y="204" class="st0" width="12" height="12"/>
	</g>
	<g>
		<rect id="p_00000068655705806825190220000013289767669880114848_" x="252" y="204" class="st0" width="12" height="12"/>
	</g>
	<g>
		<rect id="p_00000047743428964066373820000013617851296021055405_" x="276" y="204" class="st0" width="12" height="12"/>
	</g>
	<g>
		<rect id="p_00000116940450296714086510000006557093019654949774_" x="288" y="204" class="st0" width="12" height="12"/>
	</g>
	<g>
		<rect id="p_00000041270116676379601330000001395679429467945151_" y="216" class="st0" width="12" height="12"/>
	</g>
	<g>
		<rect id="p_00000057130201013864935070000001134631082842827433_" x="12" y="216" class="st0" width="12" height="12"/>
	</g>
	<g>
		<rect id="p_00000035531132705096521140000007062522355435393679_" x="24" y="216" class="st0" width="12" height="12"/>
	</g>
	<g>
		<rect id="p_00000140733946108678678520000008450996718559531433_" x="36" y="216" class="st0" width="12" height="12"/>
	</g>
	<g>
		<rect id="p_00000121970823263723389190000012670390113171225267_" x="48" y="216" class="st0" width="12" height="12"/>
	</g>
	<g>
		<rect id="p_00000134222532187254145670000012733176071423487106_" x="60" y="216" class="st0" width="12" height="12"/>
	</g>
	<g>
		<rect id="p_00000055706010280176512390000018357894418967415702_" x="72" y="216" class="st0" width="12" height="12"/>
	</g>
	<g>
		<rect id="p_00000117675782222034851680000001921971983870620606_" x="96" y="216" class="st0" width="12" height="12"/>
	</g>
	<g>
		<rect id="p_00000086693604646334558400000000099884412273297805_" x="108" y="216" class="st0" width="12" height="12"/>
	</g>
	<g>
		<rect id="p_00000106148688184318984660000000053219720175936946_" x="132" y="216" class="st0" width="12" height="12"/>
	</g>
	<g>
		<rect id="p_00000031187450914053796640000005837839874599611560_" x="144" y="216" class="st0" width="12" height="12"/>
	</g>
	<g>
		<rect id="p_00000006709351484104299620000007599655062478836897_" x="168" y="216" class="st0" width="12" height="12"/>
	</g>
	<g>
		<rect id="p_00000057109669011562928530000014527207127486669187_" x="180" y="216" class="st0" width="12" height="12"/>
	</g>
	<g>
		<rect id="p_00000152943390886273430250000010996750071329488804_" x="192" y="216" class="st0" width="12" height="12"/>
	</g>
	<g>
		<rect id="p_00000170252167946290536220000016972596823942810795_" x="216" y="216" class="st0" width="12" height="12"/>
	</g>
	<g>
		<rect id="p_00000071552282856371646430000000910793277339215001_" x="240" y="216" class="st0" width="12" height="12"/>
	</g>
	<g>
		<rect id="p_00000124133323913051860800000000790833058582248354_" x="252" y="216" class="st0" width="12" height="12"/>
	</g>
	<g>
		<rect id="p_00000016759814118771082250000005584645030812148882_" x="276" y="216" class="st0" width="12" height="12"/>
	</g>
	<g>
		<rect id="p_00000167394451568594497760000011406067966266946220_" x="288" y="216" class="st0" width="12" height="12"/>
	</g>
	<g>
		<rect id="p_00000075874921501535596330000010849365835925924768_" y="228" class="st0" width="12" height="12"/>
	</g>
	<g>
		<rect id="p_00000041258930405049840070000003124166472273428390_" x="72" y="228" class="st0" width="12" height="12"/>
	</g>
	<g>
		<rect id="p_00000067956299438215271310000011115094890583247276_" x="96" y="228" class="st0" width="12" height="12"/>
	</g>
	<g>
		<rect id="p_00000132050042806067185860000005871452683987830927_" x="120" y="228" class="st0" width="12" height="12"/>
	</g>
	<g>
		<rect id="p_00000089560889505466837520000013925504008811658404_" x="144" y="228" class="st0" width="12" height="12"/>
	</g>
	<g>
		<rect id="p_00000070816464281037640070000017435105430101777027_" x="156" y="228" class="st0" width="12" height="12"/>
	</g>
	<g>
		<rect id="p_00000028285874252045804090000006444069480028255113_" x="168" y="228" class="st0" width="12" height="12"/>
	</g>
	<g>
		<rect id="p_00000056401956559213757690000004720212792507700414_" x="180" y="228" class="st0" width="12" height="12"/>
	</g>
	<g>
		<rect id="p_00000021113870359312273640000003031063657784083121_" x="192" y="228" class="st0" width="12" height="12"/>
	</g>
	<g>
		<rect id="p_00000086689645115359928920000005343244710129976992_" x="240" y="228" class="st0" width="12" height="12"/>
	</g>
	<g>
		<rect id="p_00000000198107228584683610000004689849497624526979_" x="252" y="228" class="st0" width="12" height="12"/>
	</g>
	<g>
		<rect id="p_00000097480982961805607600000004068557830628404626_" x="276" y="228" class="st0" width="12" height="12"/>
	</g>
	<g>
		<rect id="p_00000149384004758458362610000002246797196572363907_" y="240" class="st0" width="12" height="12"/>
	</g>
	<g>
		<rect id="p_00000000906371946695823990000015612850618945797311_" x="24" y="240" class="st0" width="12" height="12"/>
	</g>
	<g>
		<rect id="p_00000021081992125141591600000015240745358540322694_" x="36" y="240" class="st0" width="12" height="12"/>
	</g>
	<g>
		<rect id="p_00000054951665570071232500000012375608619385008517_" x="48" y="240" class="st0" width="12" height="12"/>
	</g>
	<g>
		<rect id="p_00000034050470005672911600000001150128590470880947_" x="72" y="240" class="st0" width="12" height="12"/>
	</g>
	<g>
		<rect id="p_00000164474604845641011230000015965962010524613796_" x="96" y="240" class="st0" width="12" height="12"/>
	</g>
	<g>
		<rect id="p_00000013173405797768892840000008496189673064589208_" x="132" y="240" class="st0" width="12" height="12"/>
	</g>
	<g>
		<rect id="p_00000160161739481647975200000014226241858932420029_" x="144" y="240" class="st0" width="12" height="12"/>
	</g>
	<g>
		<rect id="p_00000045582325793259842010000014305271429948032672_" x="156" y="240" class="st0" width="12" height="12"/>
	</g>
	<g>
		<rect id="p_00000150784448630112653350000016607170558727880114_" x="192" y="240" class="st0" width="12" height="12"/>
	</g>
	<g>
		<rect id="p_00000017486406995496670930000003009931493256629397_" x="204" y="240" class="st0" width="12" height="12"/>
	</g>
	<g>
		<rect id="p_00000036964772042048297120000003384749435190669720_" x="216" y="240" class="st0" width="12" height="12"/>
	</g>
	<g>
		<rect id="p_00000136400041449664671560000002620445035046230711_" x="228" y="240" class="st0" width="12" height="12"/>
	</g>
	<g>
		<rect id="p_00000021080979144463117890000001807352079158091156_" x="240" y="240" class="st0" width="12" height="12"/>
	</g>
	<g>
		<rect id="p_00000169548200376642427650000014072613720239647674_" x="252" y="240" class="st0" width="12" height="12"/>
	</g>
	<g>
		<rect id="p_00000037694423832977480820000003734402797195061414_" y="252" class="st0" width="12" height="12"/>
	</g>
	<g>
		<rect id="p_00000174588438558503069260000011745413430877910436_" x="24" y="252" class="st0" width="12" height="12"/>
	</g>
	<g>
		<rect id="p_00000124148636480029930170000007331767600889172621_" x="36" y="252" class="st0" width="12" height="12"/>
	</g>
	<g>
		<rect id="p_00000147913361727477301000000015547619088655505834_" x="48" y="252" class="st0" width="12" height="12"/>
	</g>
	<g>
		<rect id="p_00000183928502009701946720000017536170302990890937_" x="72" y="252" class="st0" width="12" height="12"/>
	</g>
	<g>
		<rect id="p_00000072243598970406598860000014573327918177732226_" x="120" y="252" class="st0" width="12" height="12"/>
	</g>
	<g>
		<rect id="p_00000108298444370046621170000005792264553650267033_" x="132" y="252" class="st0" width="12" height="12"/>
	</g>
	<g>
		<rect id="p_00000171693672160335365630000016144439693064773804_" x="228" y="252" class="st0" width="12" height="12"/>
	</g>
	<g>
		<rect id="p_00000011723551090739777920000016750854522440769431_" x="240" y="252" class="st0" width="12" height="12"/>
	</g>
	<g>
		<rect id="p_00000013182398928701632430000005797513184991933825_" x="252" y="252" class="st0" width="12" height="12"/>
	</g>
	<g>
		<rect id="p_00000163048353994375633720000005007865668899888831_" x="264" y="252" class="st0" width="12" height="12"/>
	</g>
	<g>
		<rect id="p_00000127765194247817371760000007771729306188030632_" y="264" class="st0" width="12" height="12"/>
	</g>
	<g>
		<rect id="p_00000147941463750883050730000016650714220892376738_" x="24" y="264" class="st0" width="12" height="12"/>
	</g>
	<g>
		<rect id="p_00000103957291156269067260000002599348317367084960_" x="36" y="264" class="st0" width="12" height="12"/>
	</g>
	<g>
		<rect id="p_00000047022338625485617040000005285666526955293588_" x="48" y="264" class="st0" width="12" height="12"/>
	</g>
	<g>
		<rect id="p_00000055698909975289571370000006739476267812288182_" x="72" y="264" class="st0" width="12" height="12"/>
	</g>
	<g>
		<rect id="p_00000126321472185537413640000003352599798436813978_" x="96" y="264" class="st0" width="12" height="12"/>
	</g>
	<g>
		<rect id="p_00000096740458627920116920000004127294360790030269_" x="120" y="264" class="st0" width="12" height="12"/>
	</g>
	<g>
		<rect id="p_00000141424943952448462100000001834838521555971250_" x="156" y="264" class="st0" width="12" height="12"/>
	</g>
	<g>
		<rect id="p_00000104687291785064202420000015543456994217853340_" x="192" y="264" class="st0" width="12" height="12"/>
	</g>
	<g>
		<rect id="p_00000150818669802269869040000004863817940262649740_" x="204" y="264" class="st0" width="12" height="12"/>
	</g>
	<g>
		<rect id="p_00000052799341576033718140000011838992150120802197_" x="240" y="264" class="st0" width="12" height="12"/>
	</g>
	<g>
		<rect id="p_00000103981411891176033390000007400037188762412198_" x="288" y="264" class="st0" width="12" height="12"/>
	</g>
	<g>
		<rect id="p_00000181791351169530319270000007839643880228297637_" y="276" class="st0" width="12" height="12"/>
	</g>
	<g>
		<rect id="p_00000139255304227093691910000017012242374404811945_" x="72" y="276" class="st0" width="12" height="12"/>
	</g>
	<g>
		<rect id="p_00000025408628664971688250000007092056733627662992_" x="96" y="276" class="st0" width="12" height="12"/>
	</g>
	<g>
		<rect id="p_00000163069044002157400370000010389858092240745131_" x="108" y="276" class="st0" width="12" height="12"/>
	</g>
	<g>
		<rect id="p_00000151510178655411996360000006787756222589940376_" x="144" y="276" class="st0" width="12" height="12"/>
	</g>
	<g>
		<rect id="p_00000069380634351556820390000013277653656489449641_" x="156" y="276" class="st0" width="12" height="12"/>
	</g>
	<g>
		<rect id="p_00000049915992519182679490000008611167165146342836_" x="168" y="276" class="st0" width="12" height="12"/>
	</g>
	<g>
		<rect id="p_00000054983930641427253290000005634910800718220987_" x="180" y="276" class="st0" width="12" height="12"/>
	</g>
	<g>
		<rect id="p_00000017482657783461776960000000934469804934086274_" x="192" y="276" class="st0" width="12" height="12"/>
	</g>
	<g>
		<rect id="p_00000147205867149289549080000008511535564714391743_" x="204" y="276" class="st0" width="12" height="12"/>
	</g>
	<g>
		<rect id="p_00000031911909461479676190000009898604023462791097_" x="216" y="276" class="st0" width="12" height="12"/>
	</g>
	<g>
		<rect id="p_00000073679310076274800240000005154708358852092050_" x="240" y="276" class="st0" width="12" height="12"/>
	</g>
	<g>
		<rect id="p_00000047032152084227661470000017599117281086127288_" x="252" y="276" class="st0" width="12" height="12"/>
	</g>
	<g>
		<rect id="p_00000018944829831859065920000017040492409625363861_" x="276" y="276" class="st0" width="12" height="12"/>
	</g>
	<g>
		<rect id="p_00000134966428906754658400000006471836658250469306_" y="288" class="st0" width="12" height="12"/>
	</g>
	<g>
		<rect id="p_00000112606332773081478830000008413273835080630172_" x="12" y="288" class="st0" width="12" height="12"/>
	</g>
	<g>
		<rect id="p_00000040553152923414062070000007150279698832047282_" x="24" y="288" class="st0" width="12" height="12"/>
	</g>
	<g>
		<rect id="p_00000018946166802526070260000007703001699774677913_" x="36" y="288" class="st0" width="12" height="12"/>
	</g>
	<g>
		<rect id="p_00000093145470909470418830000007430273253896993920_" x="48" y="288" class="st0" width="12" height="12"/>
	</g>
	<g>
		<rect id="p_00000011021550826320604530000018370560887628766357_" x="60" y="288" class="st0" width="12" height="12"/>
	</g>
	<g>
		<rect id="p_00000049924208239376391540000008079213188205671315_" x="72" y="288" class="st0" width="12" height="12"/>
	</g>
	<g>
		<rect id="p_00000155851216867162754280000000773123119943822735_" x="96" y="288" class="st0" width="12" height="12"/>
	</g>
	<g>
		<rect id="p_00000130609098236217597150000015515079314082865848_" x="108" y="288" class="st0" width="12" height="12"/>
	</g>
	<g>
		<rect id="p_00000096048630948021721150000015265645879664110776_" x="132" y="288" class="st0" width="12" height="12"/>
	</g>
	<g>
		<rect id="p_00000100347049671982480580000017054344332640367266_" x="144" y="288" class="st0" width="12" height="12"/>
	</g>
	<g>
		<rect id="p_00000112613727995359579310000006273787784814317445_" x="156" y="288" class="st0" width="12" height="12"/>
	</g>
	<g>
		<rect id="p_00000006684319100490388380000005282394700590011811_" x="168" y="288" class="st0" width="12" height="12"/>
	</g>
	<g>
		<rect id="p_00000156585318138986140880000012886408759911703737_" x="180" y="288" class="st0" width="12" height="12"/>
	</g>
	<g>
		<rect id="p_00000175314388199017408350000002333931839536331433_" x="192" y="288" class="st0" width="12" height="12"/>
	</g>
	<g>
		<rect id="p_00000015342029118222258030000013686848532450343594_" x="204" y="288" class="st0" width="12" height="12"/>
	</g>
	<g>
		<rect id="p_00000053522410305754804150000000986955911427015818_" x="216" y="288" class="st0" width="12" height="12"/>
	</g>
	<g>
		<rect id="p_00000116193139116907960580000010407150069199951036_" x="228" y="288" class="st0" width="12" height="12"/>
	</g>
	<g>
		<rect id="p_00000136400879919617253760000011350898134114035359_" x="276" y="288" class="st0" width="12" height="12"/>
	</g>
	<g>
		<rect id="p_00000062163141928843238140000010168289433702244031_" x="288" y="288" class="st0" width="12" height="12"/>
	</g>
</g>
</svg>
