<?xml version="1.0" encoding="utf-8"?>

<svg version="1.1" id="图层_1" xmlns="http://www.w3.org/2000/svg" xmlns:xlink="http://www.w3.org/1999/xlink" x="0px" y="0px"
	 viewBox="0 0 271.9 72" style="enable-background:new 0 0 271.9 72;" xml:space="preserve">
<style type="text/css">
	.st0{fill:#262424;}
</style>
<g>
	<g>
		<path class="st0" d="M100.79,52.64c-0.4-2-1.99-3.59-3.99-3.99c-1.96-0.39-4.87-0.13-8.41,2.69c-0.87,7.65-3.93,14.62-8.52,20.21
			c3.73-0.84,11.04-3.1,16.57-8.63C100.82,58.53,101.25,54.94,100.79,52.64z"/>
		<path class="st0" d="M43.37,21.09c2.22,0,4.02-1.8,4.02-4.02h-8.03C39.36,19.3,41.15,21.09,43.37,21.09z"/>
		<path class="st0" d="M58.74,40.24c-1.61-0.03-3.21-0.27-4.74-0.74c-1.53-0.47-2.99-1.18-4.28-2.12c-0.05-0.03-0.12-0.04-0.17,0
			c-1.29,0.94-2.75,1.65-4.28,2.12c-1.53,0.47-3.13,0.71-4.74,0.74c-0.03,0-0.05,0.02-0.06,0.05c-0.02,0.05,0.02,0.09,0.06,0.09
			c1.01,0.31,2.07,0.43,3.12,0.4c0.28,3.08,2.72,6.05,5.98,6.04c3.26,0.01,5.7-2.96,5.98-6.04c1.05,0.02,2.11-0.11,3.12-0.41
			c0.04-0.01,0.07-0.03,0.07-0.07C58.8,40.27,58.77,40.24,58.74,40.24z"/>
		<path class="st0" d="M99.26,21.78c0,0-22.22-21.78-49.63-21.78S0,21.78,0,21.78c0,5.89,5.33,11.24,13.99,15.16
			c-1.04,4.37-1.6,9-1.6,13.8c0,12.14,3.58,18.23,9.46,21.26c0,0,0,0,0,0c0,0-0.01,0-0.01,0c-0.34-1.92-0.52-3.9-0.52-5.92
			c0-17.17,12.67-31.1,28.31-31.1s28.31,13.92,28.31,31.1c0,2.02-0.18,4-0.52,5.92c0.01-0.01,0.02-0.01,0.03-0.01c0,0,0,0.01,0,0.01
			s0.08-0.01,0.2-0.03c4.78-5.3,8.08-12.06,9.19-19.56c0.02-0.54,0.03-1.09,0.03-1.67c0-4.8-0.56-9.43-1.6-13.8
			C93.93,33.02,99.26,27.68,99.26,21.78z M12.89,35.07C7.35,32.9,1.81,28.78,0.48,22.68c1.58,4.07,5.24,6.93,9.21,8.47
			c1.32,0.54,2.71,0.9,4.09,1.24C15.71,32.95,14.79,35.77,12.89,35.07z M26.91,44.65c-2.95,2.77-7.67,1.07-10.49-1.02
			c0,0,0.06-0.13,0.06-0.13c2.58,0.99,5.6,1.98,8.31,0.98c1.76-0.71,2.56-2.94,2.01-4.68c-0.29-0.89-0.91-1.65-1.63-2.25
			c-1.47-1.21-3.28-1.99-5.1-2.5c0,0,0.03-0.14,0.03-0.14c3.12,0.12,6.62,1.31,7.95,4.47C28.69,41.17,28.24,43.29,26.91,44.65z
			 M29.43,32.21c-1.76,0-3.18-1.42-3.18-3.18s1.42-3.18,3.18-3.18s3.18,1.42,3.18,3.18S31.19,32.21,29.43,32.21z M59.26,25.89
			c0.05,0.06-0.02,0.14-0.08,0.11c-0.82-0.24-1.69-0.54-2.52-0.39c-0.08,0.01-0.15,0.01-0.21,0.01c-0.17,0.12-0.35,0.24-0.53,0.35
			c0.51,0.3,0.94,0.69,1.32,1.15c0.05,0.06-0.02,0.14-0.08,0.11c-0.82-0.24-1.69-0.54-2.52-0.39c-0.16,0.02-0.28,0.02-0.4,0
			c-1.42,0.59-2.97,0.92-4.6,0.92c-1.69,0-3.31-0.36-4.77-0.99c-0.23,0-0.46-0.09-0.7-0.07c-0.68,0.05-1.39,0.22-2.06,0.44
			c-0.07,0.02-0.12-0.06-0.08-0.11c0.36-0.43,0.77-0.8,1.25-1.1c-0.2-0.13-0.4-0.26-0.59-0.4c-0.18-0.02-0.36-0.07-0.54-0.06
			c-0.68,0.05-1.39,0.22-2.06,0.44c-0.07,0.02-0.12-0.06-0.08-0.11c0.42-0.5,0.92-0.93,1.5-1.24c-2.35-2.18-3.81-5.29-3.81-8.75
			h23.89c0,3.49-1.49,6.62-3.88,8.81C58.31,24.93,58.83,25.37,59.26,25.89z M66.64,29.03c0-1.76,1.42-3.18,3.18-3.18
			s3.18,1.42,3.18,3.18s-1.42,3.18-3.18,3.18S66.64,30.79,66.64,29.03z M71.91,43.88c-1.02-1.08-1.38-2.75-0.91-4.16
			c0.67-1.89,2.48-3.03,4.2-3.84c0.88-0.4,1.79-0.73,2.73-0.97l0.03,0.14c-2.24,1.39-4.89,2.67-5.71,5.09
			c-0.31,1.18,0.19,2.81,1.41,3.35c2.49,1.01,5.14,0.32,7.88,0.02c0,0,0.06,0.13,0.06,0.13C78.8,44.75,74.43,46.23,71.91,43.88z
			 M85.65,32.39c1.38-0.34,2.77-0.7,4.09-1.24c3.97-1.53,7.63-4.39,9.21-8.47c-1.32,6.1-6.87,10.21-12.41,12.39
			C84.63,35.77,83.71,32.95,85.65,32.39z"/>
	</g>
	<g>
		<g>
			<path class="st0" d="M111.94,48.96c2.09-9.9,4.08-19.73,5.13-29.69c0.03-0.32,0.3-0.55,0.62-0.53c1.88,0.13,3.91,0.29,5.8,0.34
				c0.37,0.01,0.64,0.35,0.57,0.72c-0.54,2.78-1.03,5.38-1.57,8.37l0.26-0.04c1.73-2.7,3.97-6.23,5.73-9
				c0.1-0.16,0.26-0.25,0.45-0.27c2.28-0.19,4.54-0.39,6.81-0.7c0.53-0.07,0.89,0.51,0.57,0.94c-3.09,4.19-6.17,8.39-8.94,12.73
				c-0.09,0.14-0.12,0.31-0.08,0.47c1.16,5.38,2.87,10.2,4.5,15.42c0.12,0.4-0.18,0.8-0.6,0.79c-2.47-0.08-4.92-0.06-7.39,0.02
				c-0.3,0.01-0.57-0.2-0.61-0.5c-0.4-2.91-0.9-6.2-1.32-9.21c-0.09-0.63-0.94-0.7-1.17-0.11c-1.11,2.94-1.12,6.63-1.93,9.71
				c-0.06,0.24-0.26,0.41-0.51,0.44l-5.65,0.84C112.2,49.74,111.85,49.37,111.94,48.96z"/>
			<path class="st0" d="M144.49,49.3c-0.85,0.14-1.62,0.27-2.3,0.38c0.28-2.11,0.51-4.44,0.71-6.55c0.03-0.36-0.25-0.65-0.61-0.65
				h-2.58c-0.27,0-0.51,0.18-0.59,0.45l-1.47,5.3c-0.07,0.24-0.26,0.41-0.5,0.44c-1.9,0.25-4.03,0.48-5.98,0.72
				c-0.44,0.06-0.77-0.35-0.65-0.78c2.86-9.55,5.83-19.18,8.52-28.7c0.07-0.24,0.28-0.42,0.53-0.44c3.46-0.27,7.15-0.57,10.59-1.16
				c0.39-0.07,0.72,0.25,0.69,0.64c-0.79,9.65-1.06,19.17-1.45,29.1c-0.01,0.29-0.24,0.54-0.53,0.59
				C147.4,48.87,146.06,49,144.49,49.3z M140.27,38.22c0.71-0.04,1.75-0.05,2.57-0.12c0.29-0.02,0.51-0.26,0.54-0.55
				c0.35-4.43,0.88-9.2,1.15-13.74l-0.64,0.04C143.19,26.28,140.91,35.61,140.27,38.22z"/>
			<path class="st0" d="M170.74,41.1c-2.4,5.86-8.61,11.65-14.98,9.01c-6.48-3.58-5.1-14.36-3.13-20.03
				c1.82-4.79,4.9-8.77,9.14-10.87c5.51-2.92,11.63-0.93,11.7,5.53c0,0.29-0.22,0.56-0.5,0.61l-4.84,0.92
				c-0.29,0.05-0.57-0.12-0.67-0.4c-3.6-9.63-10.42,9.72-9.75,13.62c-0.38,7.72,7.06,5.14,7.89-0.08c0.06-0.39-0.3-0.71-0.69-0.66
				l-2.96,0.44c-0.41,0.06-0.76-0.3-0.68-0.71l0.57-2.96c0.05-0.26,0.25-0.45,0.51-0.48c3.05-0.38,6.33-0.83,9.33-1.38
				c0.39-0.07,0.74,0.26,0.7,0.66C172.13,36.89,171.59,39.15,170.74,41.1z"/>
			<path class="st0" d="M171.01,49l5.35-29.05c0.05-0.26,0.26-0.45,0.53-0.48l12.18-1.04c0.41-0.03,0.72,0.34,0.61,0.73
				c-0.35,1.28-0.66,2.65-0.92,3.91c-0.05,0.26-0.26,0.45-0.53,0.46c-1.67,0.09-3.7,0.1-5.4,0.1c-0.28,0-0.51,0.2-0.56,0.47
				l-1.25,6.41c-0.07,0.38,0.22,0.71,0.6,0.69c1.47-0.09,3.01-0.1,4.41-0.14c0.36-0.01,0.63,0.31,0.58,0.67
				c-0.16,1.19-0.3,2.33-0.5,3.52c-0.05,0.27-0.27,0.49-0.55,0.5c-1.52,0.08-3.21,0.11-4.82,0.17c-0.27,0.01-0.5,0.21-0.55,0.48
				l-1.21,6.57c-0.07,0.4,0.27,0.75,0.67,0.68l4.67-0.74c0.38-0.06,0.71,0.25,0.67,0.63l-0.32,3.66c-0.02,0.27-0.23,0.49-0.49,0.53
				l-12.5,1.93C171.28,49.74,170.94,49.4,171.01,49z"/>
			<path class="st0" d="M209.3,44.64c-0.02,0.02-0.04,0.05-0.06,0.07c-14.5,16.42-17.84-6.09-10-19.19
				c4.98-8.31,16.41-10.74,15.88-0.28c-0.01,0.26-0.2,0.49-0.45,0.56l-5.16,1.38c-3.52-4.53-7.88,10.48-7.84,13.04
				c-0.12,4.61,4.03,1.57,4.89-0.99c0.11-0.31,0.46-0.46,0.77-0.33l3.65,1.47c0.32,0.13,0.46,0.51,0.32,0.82
				C210.69,42.49,210.02,43.64,209.3,44.64z"/>
			<path class="st0" d="M211.55,48.97c1.86-9.81,3.65-19.68,5.17-29.46c0.04-0.28,0.27-0.48,0.55-0.5l5.62-0.38
				c0.4-0.03,0.72,0.33,0.62,0.72c-0.84,3.51-1.68,7.4-2.38,10.96c-0.08,0.4,0.26,0.75,0.66,0.7l2.97-0.33
				c0.26-0.03,0.48-0.23,0.53-0.49c0.75-3.77,1.17-7.13,2.11-10.88c0.06-0.24,0.27-0.43,0.51-0.47c1.86-0.27,3.64-0.37,5.55-0.54
				c0.41-0.04,0.74,0.34,0.63,0.74c-2.55,9.28-4,18.9-5.45,28.47c-0.04,0.27-0.25,0.47-0.52,0.5l-5.38,0.62
				c-0.4,0.05-0.74-0.31-0.66-0.7c0.75-3.76,1.59-7.79,2.26-11.47c0.07-0.39-0.25-0.73-0.65-0.69l-2.9,0.27
				c-0.27,0.02-0.48,0.22-0.53,0.48c-0.7,3.71-1.45,7.85-2.23,11.58c-0.05,0.23-0.23,0.41-0.47,0.46l-5.3,1.1
				C211.84,49.76,211.47,49.39,211.55,48.97z"/>
			<path class="st0" d="M243.17,49.3c-0.85,0.14-1.62,0.27-2.3,0.38c0.28-2.12,0.52-4.46,0.71-6.58c0.03-0.34-0.24-0.62-0.57-0.62
				h-2.64c-0.26,0-0.48,0.17-0.55,0.42l-1.48,5.35c-0.06,0.22-0.24,0.39-0.47,0.42c-1.92,0.25-4.08,0.48-6.05,0.73
				c-0.41,0.05-0.73-0.33-0.61-0.73c2.86-9.57,5.84-19.22,8.54-28.77c0.07-0.23,0.26-0.39,0.5-0.41c3.49-0.27,7.19-0.58,10.65-1.16
				c0.37-0.06,0.68,0.23,0.65,0.6c-0.79,9.68-1.06,19.21-1.45,29.17c-0.01,0.28-0.23,0.51-0.5,0.55
				C246.1,48.87,244.76,49,243.17,49.3z M238.96,38.22c0.72-0.04,1.77-0.05,2.6-0.12c0.28-0.02,0.48-0.24,0.5-0.52
				c0.35-4.44,0.88-9.22,1.16-13.76l-0.64,0.04C241.88,26.28,239.6,35.61,238.96,38.22z"/>
			<path class="st0" d="M248.72,49.08c1.93-9.92,4-19.79,5.26-29.73c0.04-0.28,0.26-0.49,0.54-0.51c1.94-0.13,3.95-0.25,5.85-0.39
				c0.31-0.02,0.57,0.19,0.62,0.5c0.71,4.25,1.28,8.41,2.04,12.55c0.12,0.64,1.04,0.64,1.16-0.01c0.8-4.19,1.68-8.37,2.59-12.62
				c0.05-0.25,0.26-0.44,0.51-0.47l3.95-0.49c0.41-0.05,0.74,0.32,0.65,0.72c-2.09,9.63-4.1,18.86-5.43,28.38
				c-0.03,0.25-0.21,0.44-0.45,0.49c-1.72,0.33-4.1,0.89-5.88,1.36c-0.36,0.09-0.7-0.16-0.73-0.52c-0.37-4-0.76-7.92-1.26-11.82
				c-0.09-0.67-1.06-0.69-1.18-0.02c-0.68,3.86-1.33,7.74-2.11,11.66c-0.05,0.23-0.22,0.41-0.45,0.47l-4.95,1.15
				C249.02,49.87,248.64,49.5,248.72,49.08z"/>
		</g>
		<g>
			<path class="st0" d="M123.01,57.58c0-0.41-0.09-0.74-0.26-1c-0.18-0.26-0.4-0.48-0.66-0.64c-0.27-0.16-0.56-0.28-0.88-0.34
				c-0.34-0.06-0.66-0.1-0.95-0.1c-0.73,0-1.46,0.05-2.15,0.14c-0.64,0.09-1.27,0.19-1.88,0.3c-0.32,1.94-0.66,3.89-1,5.8
				c-0.34,1.89-0.81,3.8-1.38,5.66c0.77,0.1,1.67,0.08,2.61-0.06c0.54-0.08,1.08-0.2,1.6-0.36c0.52-0.16,1.02-0.35,1.49-0.58
				c0.46-0.23,0.87-0.5,1.22-0.8c0.34-0.3,0.62-0.64,0.82-1c0.2-0.36,0.3-0.76,0.3-1.18c0-0.31-0.04-0.59-0.13-0.84
				c-0.09-0.25-0.2-0.46-0.34-0.64c-0.14-0.18-0.3-0.34-0.46-0.47s-0.32-0.24-0.47-0.31c-0.07-0.03-0.11-0.1-0.11-0.17
				c0-0.07,0.06-0.13,0.13-0.16c0.3-0.1,0.61-0.26,0.9-0.46c0.3-0.21,0.57-0.45,0.8-0.73c0.23-0.28,0.42-0.6,0.58-0.95
				C122.93,58.35,123.01,57.97,123.01,57.58z M119.78,63.58c-0.2,0.21-0.46,0.38-0.76,0.51c-0.29,0.12-0.59,0.21-0.91,0.27
				c-0.3,0.06-0.58,0.1-0.83,0.12c-0.01,0-0.01,0-0.02,0c-0.06,0-0.11-0.02-0.15-0.06c-0.04-0.04-0.06-0.1-0.05-0.15
				c0.05-0.28,0.1-0.52,0.14-0.73l0.12-0.59c0.04-0.22,0.08-0.4,0.12-0.59c0.04-0.2,0.09-0.44,0.14-0.7
				c0.01-0.07,0.07-0.13,0.15-0.14c0.07-0.01,0.13-0.02,0.19-0.02h0.16c0.2,0,0.42,0.02,0.64,0.06c0.23,0.04,0.45,0.11,0.65,0.21
				c0.21,0.1,0.38,0.23,0.51,0.38c0.15,0.16,0.22,0.37,0.22,0.61C120.11,63.08,120,63.35,119.78,63.58z M120.45,59.03
				c-0.15,0.12-0.34,0.24-0.58,0.34c-0.23,0.1-0.49,0.19-0.77,0.27c-0.28,0.08-0.57,0.14-0.85,0.19c-0.01,0-0.02,0-0.04,0
				c-0.05,0-0.1-0.02-0.14-0.05c-0.05-0.04-0.07-0.1-0.06-0.16c0.02-0.14,0.06-0.29,0.1-0.47c0.04-0.17,0.08-0.35,0.12-0.53
				c0.04-0.18,0.07-0.36,0.1-0.52c0.03-0.17,0.06-0.31,0.08-0.43c0.02-0.08,0.1-0.15,0.2-0.15h0.19c0.16,0,0.34,0.01,0.55,0.04
				c0.21,0.03,0.41,0.08,0.61,0.15c0.21,0.08,0.38,0.18,0.51,0.3c0.15,0.14,0.23,0.32,0.23,0.53
				C120.71,58.72,120.62,58.89,120.45,59.03z"/>
			<path class="st0" d="M129.52,65.06c0.47-0.51,0.88-1.1,1.24-1.75c0.35-0.65,0.64-1.38,0.86-2.17c0.21-0.79,0.32-1.63,0.32-2.52
				c0-0.4-0.04-0.8-0.13-1.19c-0.08-0.39-0.22-0.74-0.42-1.05c-0.19-0.3-0.46-0.54-0.79-0.73c-0.33-0.19-0.77-0.28-1.29-0.28
				c-0.61,0-1.21,0.13-1.78,0.39c-0.58,0.27-1.13,0.63-1.64,1.08c-0.51,0.46-0.99,0.99-1.42,1.58c-0.43,0.59-0.79,1.23-1.09,1.89
				c-0.29,0.66-0.53,1.33-0.7,2.01c-0.17,0.67-0.26,1.31-0.26,1.91c0,0.57,0.07,1.07,0.21,1.48c0.13,0.4,0.32,0.73,0.55,0.98
				c0.23,0.25,0.5,0.44,0.81,0.56c0.69,0.28,1.57,0.25,2.5-0.09c0.52-0.19,1.04-0.46,1.54-0.82
				C128.55,66.01,129.05,65.57,129.52,65.06z M126.04,65.09c-0.19,0-0.37-0.05-0.53-0.13c-0.15-0.08-0.28-0.18-0.38-0.3
				c-0.1-0.11-0.18-0.25-0.24-0.4c-0.06-0.15-0.09-0.3-0.09-0.44c0-0.27,0.03-0.6,0.1-0.97c0.06-0.37,0.17-0.75,0.32-1.15
				c0.14-0.38,0.32-0.77,0.53-1.15c0.2-0.38,0.45-0.72,0.73-1.03c0.28-0.31,0.61-0.56,0.96-0.74c0.37-0.19,0.78-0.29,1.21-0.29
				c0.25,0,0.46,0.06,0.61,0.19c0.14,0.11,0.25,0.25,0.32,0.41c0.06,0.14,0.1,0.3,0.12,0.47c0.02,0.16,0.03,0.31,0.03,0.45
				c0,0.47-0.08,1.01-0.24,1.58c-0.16,0.57-0.39,1.12-0.68,1.63c-0.3,0.51-0.68,0.95-1.13,1.31
				C127.2,64.9,126.66,65.09,126.04,65.09z"/>
			<path class="st0" d="M137.76,67.07c0.33-0.03,0.65-0.07,0.96-0.11c0.07-1.66,0.14-3.22,0.2-4.7l0.11-1.99
				c0.04-0.68,0.07-1.32,0.11-1.94c0.04-0.62,0.08-1.19,0.12-1.72c0.04-0.42,0.07-0.78,0.1-1.09c-0.76,0.11-1.55,0.21-2.33,0.28
				c-0.83,0.07-1.66,0.14-2.46,0.19c-0.14,0.47-0.3,0.97-0.49,1.52c-0.2,0.6-0.41,1.22-0.63,1.86l-1.29,3.81
				c-0.46,1.34-0.92,2.7-1.39,4.07l1.93-0.2c0.31-0.03,0.6-0.06,0.84-0.09l0.72-2.27c0.02-0.08,0.1-0.13,0.19-0.13h1.63
				c0.06,0,0.11,0.02,0.15,0.06c0.04,0.04,0.06,0.09,0.05,0.14c-0.03,0.22-0.05,0.48-0.08,0.79c-0.03,0.31-0.07,0.62-0.11,0.93
				l-0.12,0.84l0.75-0.11C137.1,67.16,137.44,67.11,137.76,67.07z M136.6,61.48c-0.02,0.24-0.05,0.46-0.06,0.67
				c-0.02,0.21-0.04,0.39-0.06,0.55c-0.02,0.15-0.03,0.26-0.03,0.32c0,0.08-0.06,0.15-0.15,0.17c-0.06,0.01-0.16,0.02-0.3,0.03
				l-0.82,0.03c-0.14,0.01-0.23,0.01-0.28,0.01c-0.06,0-0.12-0.03-0.16-0.07s-0.05-0.1-0.04-0.15l1.16-4.15l0.43-1.43
				c0.02-0.07,0.1-0.13,0.18-0.13l0.28-0.02c0.06-0.01,0.12,0.02,0.16,0.05c0.04,0.04,0.06,0.09,0.06,0.14l-0.11,1.44
				c-0.08,0.66-0.14,1.26-0.19,1.82L136.6,61.48z"/>
			<path class="st0" d="M148.43,57.5c0-0.28-0.03-0.54-0.11-0.76c-0.07-0.22-0.18-0.41-0.34-0.57c-0.16-0.16-0.38-0.28-0.67-0.37
				c-0.3-0.09-0.68-0.14-1.14-0.14c-0.8,0-1.62,0.05-2.43,0.14c-0.76,0.09-1.48,0.22-2.15,0.4c-0.06,0.44-0.14,0.94-0.24,1.51
				c-0.11,0.59-0.22,1.2-0.34,1.84c-0.12,0.64-0.25,1.28-0.39,1.92c-0.14,0.64-0.26,1.26-0.37,1.86c-0.3,1.32-0.6,2.66-0.91,4.03
				l2.6-0.6c0.09-0.43,0.18-0.85,0.27-1.27l0.04-0.19c0.09-0.44,0.18-0.9,0.29-1.37c0.11-0.47,0.2-0.89,0.27-1.24
				c0.01-0.06,0.07-0.12,0.14-0.14l0.24-0.07c0.06-0.01,0.12-0.01,0.17,0.02c0.05,0.03,0.08,0.08,0.09,0.13
				c0.01,0.11,0.04,0.26,0.09,0.45c0.05,0.19,0.11,0.41,0.19,0.65c0.07,0.24,0.15,0.5,0.24,0.77c0.09,0.27,0.18,0.53,0.26,0.78
				c0.18,0.57,0.39,1.17,0.61,1.81l2.51-0.77c-0.23-0.49-0.46-0.99-0.69-1.48c-0.22-0.47-0.46-0.97-0.72-1.49
				c-0.26-0.52-0.5-1.01-0.72-1.45c-0.04-0.09,0-0.19,0.09-0.23c0.42-0.19,0.81-0.44,1.18-0.74c0.37-0.3,0.7-0.65,0.98-1.01
				c0.28-0.37,0.51-0.76,0.68-1.17C148.35,58.33,148.43,57.91,148.43,57.5z M146.31,59.04c-0.23,0.24-0.51,0.47-0.84,0.69
				c-0.32,0.22-0.67,0.41-1.02,0.57c-0.37,0.17-0.68,0.26-0.94,0.28c-0.01,0-0.01,0-0.02,0c-0.06,0-0.11-0.02-0.15-0.06
				c-0.04-0.04-0.06-0.1-0.05-0.16l0.6-2.63c0.02-0.08,0.1-0.14,0.2-0.14c0.11,0,0.23,0,0.37-0.01c0.37-0.01,0.7-0.01,1.03,0.01
				c0.2,0.01,0.39,0.04,0.56,0.08c0.19,0.05,0.34,0.11,0.45,0.21c0.13,0.11,0.2,0.25,0.2,0.42
				C146.7,58.53,146.57,58.77,146.31,59.04z"/>
			<path class="st0" d="M154.22,64.58c0.48-0.57,0.9-1.17,1.23-1.79c0.33-0.62,0.59-1.25,0.78-1.89c0.18-0.63,0.27-1.23,0.27-1.78
				c0-0.48-0.07-0.94-0.2-1.36c-0.13-0.42-0.34-0.79-0.61-1.1c-0.27-0.31-0.63-0.55-1.07-0.73c-0.44-0.18-0.99-0.27-1.63-0.27
				c-0.56,0-1.12,0.04-1.66,0.11c-0.5,0.07-1,0.14-1.48,0.22c-0.08,0.46-0.17,0.95-0.27,1.47c-0.12,0.58-0.24,1.2-0.36,1.83
				c-0.13,0.64-0.26,1.29-0.39,1.95l-0.39,1.9c-0.31,1.39-0.63,2.81-0.95,4.27c0.1,0.01,0.2,0.02,0.31,0.03
				c0.97,0.09,1.94-0.05,2.8-0.36c0.72-0.26,1.4-0.6,2-1.03C153.19,65.65,153.74,65.14,154.22,64.58z M151.54,64.97
				c-0.29,0.32-0.6,0.57-0.92,0.76c-0.03,0.02-0.07,0.03-0.11,0.03c-0.04,0-0.08-0.01-0.11-0.03c-0.07-0.04-0.1-0.11-0.09-0.18
				c0.13-0.76,0.28-1.49,0.43-2.18c0.15-0.66,0.3-1.3,0.45-1.91c0.15-0.61,0.3-1.21,0.45-1.8c0.15-0.58,0.29-1.21,0.43-1.86
				c0.02-0.08,0.1-0.15,0.2-0.15c0.6,0,1.06,0.14,1.35,0.4c0.29,0.27,0.44,0.63,0.44,1.08c0,0.28-0.04,0.6-0.12,0.98
				c-0.09,0.37-0.2,0.78-0.35,1.19c-0.15,0.42-0.33,0.86-0.54,1.31c-0.21,0.45-0.45,0.88-0.69,1.28
				C152.11,64.29,151.83,64.65,151.54,64.97z"/>
			<path class="st0" d="M168.36,64.14c0.37-0.76,0.61-1.65,0.71-2.65c-0.34,0.05-0.72,0.11-1.14,0.17c-0.54,0.08-1.04,0.14-1.52,0.2
				c-0.52,0.06-1.04,0.12-1.58,0.18l-0.27,1.26l1.73-0.23c0.06-0.01,0.12,0.01,0.16,0.04c0.05,0.04,0.07,0.09,0.07,0.14
				c-0.01,0.34-0.1,0.66-0.25,0.96c-0.15,0.29-0.34,0.54-0.57,0.76c-0.23,0.22-0.49,0.39-0.78,0.51c-0.75,0.31-1.47,0.23-1.92-0.33
				c-0.26-0.33-0.38-0.84-0.38-1.57c0.03-0.73,0.15-1.48,0.38-2.23c0.23-0.75,0.51-1.44,0.84-2.06c0.33-0.63,0.69-1.15,1.08-1.55
				c0.75-0.78,1.46-0.83,1.98-0.31c0.19,0.19,0.33,0.47,0.45,0.85l2.21-0.37c-0.01-0.31-0.06-0.62-0.15-0.91
				c-0.1-0.32-0.26-0.61-0.48-0.85c-0.22-0.24-0.5-0.43-0.84-0.57c-0.34-0.14-0.75-0.21-1.22-0.21c-0.67,0-1.4,0.17-2.17,0.5
				c-0.78,0.33-1.52,0.84-2.21,1.53c-0.69,0.69-1.26,1.56-1.72,2.59c-0.45,1.04-0.68,2.27-0.68,3.66c0,0.71,0.09,1.33,0.26,1.85
				c0.17,0.52,0.4,0.95,0.69,1.29c0.29,0.33,0.63,0.59,1.01,0.75c0.91,0.38,1.93,0.31,3.06-0.15c0.64-0.27,1.25-0.67,1.81-1.22
				C167.46,65.64,167.95,64.95,168.36,64.14z"/>
			<path class="st0" d="M175.32,67.07c0.33-0.03,0.65-0.07,0.96-0.11c0.07-1.66,0.14-3.22,0.2-4.7l0.11-1.99
				c0.04-0.68,0.07-1.32,0.11-1.94c0.04-0.62,0.08-1.19,0.12-1.72c0.04-0.42,0.07-0.78,0.1-1.09c-0.76,0.11-1.55,0.21-2.33,0.28
				c-0.83,0.07-1.66,0.14-2.46,0.19c-0.14,0.47-0.3,0.97-0.49,1.52c-0.2,0.6-0.41,1.22-0.63,1.86l-1.29,3.81
				c-0.46,1.34-0.92,2.7-1.39,4.07l1.93-0.2c0.31-0.03,0.6-0.06,0.84-0.09l0.72-2.27c0.02-0.08,0.1-0.13,0.19-0.13h1.63
				c0.06,0,0.11,0.02,0.15,0.06c0.04,0.04,0.06,0.09,0.05,0.14c-0.03,0.22-0.05,0.48-0.08,0.79c-0.03,0.31-0.07,0.62-0.11,0.93
				l-0.12,0.84l0.75-0.11C174.66,67.16,175.01,67.11,175.32,67.07z M174.16,61.48c-0.02,0.24-0.05,0.46-0.06,0.67
				c-0.02,0.21-0.04,0.39-0.06,0.55c-0.02,0.15-0.03,0.26-0.03,0.32c0,0.08-0.06,0.15-0.15,0.17c-0.06,0.01-0.16,0.02-0.3,0.03
				l-0.82,0.03c-0.14,0.01-0.23,0.01-0.28,0.01c-0.06,0-0.12-0.03-0.16-0.07s-0.05-0.1-0.04-0.15l1.16-4.15l0.43-1.43
				c0.02-0.07,0.1-0.13,0.18-0.13l0.28-0.02c0.06-0.01,0.12,0.02,0.16,0.05c0.04,0.04,0.06,0.09,0.06,0.14l-0.11,1.44
				c-0.08,0.66-0.14,1.26-0.19,1.82L174.16,61.48z"/>
			<path class="st0" d="M188.15,62.87c0.06-0.58,0.13-1.2,0.21-1.86c0.08-0.65,0.17-1.31,0.25-1.98c0.08-0.64,0.18-1.32,0.3-2.02
				c0.1-0.59,0.2-1.16,0.31-1.72c-0.23,0.04-0.45,0.07-0.65,0.1l-0.84,0.12c-0.28,0.04-0.55,0.07-0.83,0.11
				c-0.24,0.03-0.5,0.05-0.78,0.08c-0.11,0.21-0.23,0.44-0.35,0.7c-0.15,0.3-0.3,0.62-0.45,0.96c-0.15,0.34-0.31,0.68-0.46,1.03
				l-0.58,1.37c-0.24,0.56-0.54,1.26-0.9,2.09c-0.03,0.07-0.11,0.11-0.19,0.11h-0.24c-0.06,0-0.12-0.02-0.15-0.06
				c-0.04-0.04-0.06-0.09-0.05-0.14c0.15-0.83,0.27-1.52,0.36-2.07c0.09-0.55,0.16-1.01,0.23-1.36c0.06-0.32,0.11-0.62,0.16-0.92
				l0.02-0.11c0.06-0.33,0.11-0.65,0.15-0.95l0.09-0.6c-0.61,0.05-1.19,0.1-1.73,0.16c-0.57,0.06-1.18,0.09-1.82,0.1
				c-0.14,0.47-0.3,0.98-0.48,1.53c-0.19,0.6-0.4,1.22-0.63,1.86c-0.23,0.64-0.45,1.29-0.68,1.93c-0.23,0.65-0.45,1.28-0.66,1.87
				c-0.47,1.33-0.97,2.69-1.48,4.07l2.66-0.16c0.03-0.07,0.06-0.18,0.11-0.32l0.33-0.99c0.13-0.4,0.27-0.84,0.42-1.31
				c0.15-0.47,0.29-0.92,0.42-1.35c0.13-0.44,0.25-0.82,0.35-1.16c0.12-0.4,0.17-0.6,0.18-0.7c0.01-0.09,0.1-0.15,0.2-0.15h0.28
				c0.06,0,0.11,0.02,0.15,0.06c0.04,0.04,0.06,0.09,0.05,0.14l-0.58,5.93l0.85-0.05c0.28-0.01,0.61-0.03,0.99-0.04
				c0.15-0.43,0.33-0.88,0.52-1.34c0.21-0.49,0.41-0.99,0.62-1.5l0.67-1.62c0.21-0.51,0.4-1,0.58-1.46c0.03-0.07,0.1-0.12,0.19-0.12
				h0.17c0.06,0,0.12,0.02,0.16,0.06c0.04,0.04,0.05,0.09,0.04,0.15c-0.06,0.28-0.12,0.63-0.18,1.02c-0.06,0.4-0.12,0.82-0.18,1.25
				l-0.17,1.29c-0.06,0.43-0.1,0.82-0.13,1.17c-0.03,0.35-0.06,0.65-0.08,0.89c-0.01,0.08-0.01,0.16-0.02,0.22l2.86-0.45
				C187.88,65.53,188.01,64.23,188.15,62.87z"/>
			<path class="st0" d="M196.12,56.74c0.06-0.23,0.12-0.45,0.18-0.66c0.04-0.17,0.09-0.34,0.14-0.5l-5.48,0.41l-2.38,11.39
				l5.62-0.77l0.15-1.52l-2.48,0.34c-0.06,0.01-0.13-0.01-0.18-0.05c-0.05-0.04-0.06-0.1-0.05-0.16l0.64-3.04
				c0.02-0.08,0.1-0.14,0.19-0.15c0.39-0.01,0.74-0.02,1.07-0.03c0.29-0.01,0.57-0.02,0.86-0.03c0.18,0,0.33-0.01,0.44-0.01
				c0.05-0.26,0.09-0.52,0.13-0.77c0.03-0.23,0.07-0.46,0.11-0.7c-0.11,0-0.25,0-0.4,0c-0.28,0-0.56,0.01-0.84,0.02
				c-0.34,0.01-0.7,0.03-1.08,0.05c-0.04,0.01-0.12-0.02-0.16-0.06s-0.06-0.1-0.05-0.15l0.66-2.96c0.02-0.08,0.1-0.14,0.2-0.14h0.7
				c0.27,0,0.53,0,0.79-0.01l0.74-0.02c0.15,0,0.27-0.01,0.37-0.01C196.04,57.07,196.08,56.91,196.12,56.74z"/>
			<path class="st0" d="M205.09,65.49c0.32-0.39,0.63-0.86,0.9-1.38l-1.74-0.62c-0.06,0.14-0.13,0.28-0.22,0.41
				c-0.13,0.2-0.28,0.38-0.44,0.53c-0.16,0.16-0.34,0.3-0.54,0.4c-0.49,0.26-0.92,0.2-1.16-0.13c-0.13-0.17-0.19-0.45-0.19-0.84
				c0-0.25,0.05-0.56,0.15-0.94c0.09-0.37,0.22-0.77,0.37-1.18c0.16-0.42,0.34-0.84,0.53-1.23c0.2-0.4,0.41-0.78,0.63-1.11
				c0.22-0.33,0.45-0.61,0.68-0.83c0.5-0.47,1.05-0.5,1.4,0.02l2.17-0.51c0-0.03,0-0.06,0-0.08v-0.21c0-0.33-0.06-0.63-0.17-0.9
				c-0.11-0.26-0.26-0.49-0.44-0.67c-0.18-0.18-0.39-0.32-0.64-0.42c-0.25-0.1-0.51-0.15-0.78-0.15c-0.93,0-1.79,0.24-2.56,0.71
				c-0.78,0.48-1.47,1.11-2.04,1.89c-0.58,0.79-1.03,1.69-1.35,2.68c-0.32,0.98-0.48,2-0.48,3.02c0,0.59,0.07,1.11,0.21,1.54
				c0.14,0.43,0.32,0.8,0.55,1.09c0.22,0.28,0.48,0.5,0.77,0.64c0.58,0.28,1.32,0.28,2.09,0.01c0.39-0.14,0.79-0.35,1.17-0.64
				C204.35,66.3,204.73,65.93,205.09,65.49z"/>
			<path class="st0" d="M212.88,67.07c0.33-0.03,0.65-0.07,0.96-0.11c0.07-1.66,0.14-3.22,0.2-4.7l0.11-1.99
				c0.04-0.68,0.07-1.32,0.11-1.94c0.04-0.62,0.08-1.19,0.12-1.72c0.04-0.42,0.07-0.78,0.1-1.09c-0.76,0.11-1.55,0.21-2.33,0.28
				c-0.83,0.07-1.66,0.14-2.46,0.19c-0.14,0.47-0.3,0.97-0.49,1.52c-0.2,0.6-0.41,1.22-0.63,1.86l-1.29,3.81
				c-0.46,1.34-0.92,2.7-1.39,4.07l1.93-0.2c0.31-0.03,0.6-0.06,0.84-0.09l0.72-2.27c0.02-0.08,0.1-0.13,0.19-0.13h1.63
				c0.06,0,0.11,0.02,0.15,0.06c0.04,0.04,0.06,0.09,0.05,0.14c-0.03,0.22-0.05,0.48-0.08,0.79c-0.03,0.31-0.07,0.62-0.11,0.93
				l-0.12,0.84l0.75-0.11C212.22,67.16,212.57,67.11,212.88,67.07z M211.73,61.48c-0.02,0.24-0.05,0.46-0.06,0.67
				c-0.02,0.21-0.04,0.39-0.06,0.55c-0.02,0.15-0.03,0.26-0.03,0.32c0,0.08-0.06,0.15-0.15,0.17c-0.06,0.01-0.16,0.02-0.3,0.03
				l-0.82,0.03c-0.14,0.01-0.23,0.01-0.28,0.01c-0.06,0-0.12-0.03-0.16-0.07s-0.05-0.1-0.04-0.15l1.16-4.15l0.43-1.43
				c0.02-0.07,0.1-0.13,0.18-0.13l0.28-0.02c0.06-0.01,0.12,0.02,0.16,0.05c0.04,0.04,0.06,0.09,0.06,0.14l-0.11,1.44
				c-0.08,0.66-0.14,1.26-0.19,1.82L211.73,61.48z"/>
			<path class="st0" d="M222.25,57.25l0.45-1.67l-5.85,0.26c-0.25,1.52-0.51,2.99-0.76,4.41c-0.12,0.62-0.25,1.26-0.38,1.93
				c-0.13,0.67-0.27,1.33-0.41,1.98c-0.15,0.65-0.29,1.27-0.43,1.87c-0.12,0.47-0.23,0.92-0.35,1.32c0.23-0.05,0.48-0.1,0.76-0.15
				c0.42-0.08,0.8-0.14,1.15-0.2c0.36-0.07,0.74-0.13,1.11-0.19l0.84-4.76c0.01-0.09,0.1-0.15,0.2-0.15c0,0,0,0,0.01,0
				c0.4,0.01,0.76,0.02,1.08,0.03c0.32,0.01,0.63,0.02,0.93,0.03c0.2,0,0.37,0.01,0.51,0.01c0.04-0.25,0.09-0.5,0.13-0.74
				c0.04-0.23,0.08-0.46,0.11-0.69c-0.13,0-0.29,0.01-0.47,0.01h-0.88c-0.35,0-0.72,0.01-1.1,0.02c-0.04,0-0.12-0.02-0.16-0.06
				c-0.04-0.04-0.06-0.09-0.05-0.15l0.58-2.95c0.02-0.08,0.1-0.15,0.2-0.15H222.25z"/>
			<g>
				<path class="st0" d="M228.49,53.39c-0.09-0.62-0.12-1.98-0.16-2.56c-0.57,0.53-3.36,1.85-4.18,2.59c0,0.17,0,0.34-0.01,0.5
					c-0.01,0.18-0.01,0.36-0.01,0.53v0.3c0,0.03,0,0.05,0,0.08c0.66-0.22,1.38-0.45,2.13-0.69
					C227.05,53.89,227.8,53.64,228.49,53.39z"/>
				<path class="st0" d="M228.47,56.74c0.06-0.23,0.12-0.45,0.18-0.66c0.04-0.17,0.09-0.34,0.14-0.5l-5.48,0.41l-2.38,11.39
					l5.62-0.77l0.15-1.52l-2.48,0.34c-0.06,0.01-0.13-0.01-0.18-0.05c-0.05-0.04-0.06-0.1-0.05-0.16l0.64-3.04
					c0.02-0.08,0.1-0.14,0.19-0.15c0.39-0.01,0.74-0.02,1.07-0.03c0.29-0.01,0.57-0.02,0.86-0.03c0.18,0,0.33-0.01,0.44-0.01
					c0.05-0.26,0.09-0.52,0.13-0.77c0.03-0.23,0.07-0.46,0.11-0.7c-0.11,0-0.25,0-0.4,0c-0.28,0-0.56,0.01-0.84,0.02
					c-0.34,0.01-0.7,0.03-1.08,0.05c-0.04,0.01-0.12-0.02-0.16-0.06s-0.06-0.1-0.05-0.15l0.66-2.96c0.02-0.08,0.1-0.14,0.2-0.14h0.7
					c0.27,0,0.53,0,0.79-0.01l0.74-0.02c0.15,0,0.27-0.01,0.37-0.01C228.39,57.07,228.43,56.91,228.47,56.74z"/>
			</g>
			<path class="st0" d="M239.93,64.27c0.2-0.69,0.3-1.45,0.3-2.26c0-0.1,0.09-0.18,0.2-0.18c0.05,0,0.15-0.01,0.31-0.02
				c0.17-0.02,0.34-0.04,0.52-0.06l0.43-0.06l-0.16-1.32l-0.34,0.07c-0.17,0.03-0.33,0.06-0.49,0.08c-0.16,0.02-0.28,0.03-0.34,0.03
				c-0.11,0-0.2-0.08-0.2-0.18v-0.41c0-0.02,0-0.04,0-0.06c-0.39,0.02-0.76,0.04-1.11,0.06c-0.36,0.02-0.77,0.03-1.21,0.03
				c0,0.02,0,0.03,0,0.05c-0.01,0.08-0.02,0.16-0.03,0.23c-0.01,0.06-0.02,0.12-0.02,0.19c0,0.08-0.06,0.14-0.14,0.17
				c-0.09,0.03-0.19,0.04-0.29,0.04h-0.19c-0.29,0-0.55-0.05-0.78-0.14c-0.23-0.09-0.42-0.23-0.57-0.4
				c-0.15-0.17-0.26-0.35-0.32-0.55c-0.07-0.19-0.1-0.4-0.1-0.61c0-0.19,0.03-0.39,0.09-0.57c0.06-0.19,0.16-0.37,0.3-0.53
				c0.15-0.17,0.33-0.3,0.54-0.38c0.45-0.18,1.13-0.14,1.53-0.08c0.22,0.04,0.41,0.09,0.56,0.16c0.16,0.07,0.29,0.15,0.4,0.25
				c0.04,0.04,0.09,0.08,0.13,0.11l1.3-1.29c-0.25-0.34-0.58-0.61-1-0.81c-0.46-0.22-0.98-0.33-1.53-0.33
				c-0.64,0-1.26,0.09-1.84,0.26c-0.58,0.17-1.1,0.42-1.54,0.74c-0.44,0.31-0.79,0.7-1.06,1.14c-0.26,0.44-0.39,0.93-0.39,1.45
				c0,0.27,0.07,0.5,0.21,0.7c0.15,0.22,0.32,0.4,0.51,0.56c0.19,0.16,0.43,0.3,0.7,0.42c0.07,0.03,0.12,0.1,0.11,0.18
				c-0.01,0.07-0.07,0.13-0.15,0.15c-0.47,0.11-0.9,0.3-1.28,0.56c-0.38,0.26-0.71,0.57-0.98,0.93c-0.27,0.36-0.48,0.74-0.63,1.15
				c-0.15,0.4-0.22,0.81-0.22,1.19c0,0.36,0.06,0.7,0.19,1.03c0.13,0.33,0.33,0.61,0.61,0.85c0.28,0.24,0.65,0.44,1.09,0.59
				c0.45,0.15,1,0.23,1.64,0.23c1.02,0,1.88-0.14,2.58-0.42c0.69-0.28,1.26-0.67,1.7-1.16C239.42,65.54,239.74,64.95,239.93,64.27z
				 M237.53,63.19c-0.06,0.43-0.18,0.84-0.33,1.22c-0.16,0.39-0.38,0.74-0.67,1.02c-0.31,0.3-0.71,0.46-1.21,0.46
				c-0.48,0-0.87-0.13-1.15-0.38c0,0,0,0,0,0c-0.28-0.25-0.42-0.59-0.42-0.98c0-0.31,0.07-0.61,0.2-0.9
				c0.14-0.29,0.36-0.57,0.66-0.81c0.3-0.24,0.69-0.44,1.15-0.6c0.46-0.15,1.02-0.25,1.68-0.3c0.06-0.01,0.12,0.02,0.16,0.05
				c0.04,0.04,0.06,0.09,0.06,0.14C237.63,62.4,237.59,62.76,237.53,63.19z"/>
			<path class="st0" d="M253.69,57.58c0-0.41-0.09-0.74-0.26-1c-0.18-0.26-0.4-0.48-0.66-0.64c-0.27-0.16-0.56-0.28-0.88-0.34
				c-0.34-0.06-0.66-0.1-0.95-0.1c-0.73,0-1.46,0.05-2.15,0.14c-0.64,0.09-1.27,0.19-1.88,0.3c-0.32,1.94-0.66,3.89-1,5.8
				c-0.34,1.89-0.81,3.8-1.38,5.66c0.77,0.1,1.67,0.08,2.61-0.06c0.54-0.08,1.08-0.2,1.6-0.36c0.52-0.16,1.02-0.35,1.49-0.58
				c0.46-0.23,0.87-0.5,1.22-0.8c0.34-0.3,0.62-0.64,0.82-1c0.2-0.36,0.3-0.76,0.3-1.18c0-0.31-0.04-0.59-0.13-0.84
				c-0.09-0.25-0.2-0.46-0.34-0.64c-0.14-0.18-0.3-0.34-0.46-0.47s-0.32-0.24-0.47-0.31c-0.07-0.03-0.11-0.1-0.11-0.17
				c0-0.07,0.06-0.13,0.13-0.16c0.3-0.1,0.61-0.26,0.9-0.46c0.3-0.21,0.57-0.45,0.8-0.73c0.23-0.28,0.42-0.6,0.58-0.95
				C253.61,58.35,253.69,57.97,253.69,57.58z M250.46,63.58c-0.2,0.21-0.46,0.38-0.76,0.51c-0.29,0.12-0.59,0.21-0.91,0.27
				c-0.3,0.06-0.58,0.1-0.83,0.12c-0.01,0-0.01,0-0.02,0c-0.06,0-0.11-0.02-0.15-0.06c-0.04-0.04-0.06-0.1-0.05-0.15
				c0.05-0.28,0.1-0.52,0.14-0.73l0.12-0.59c0.04-0.22,0.08-0.4,0.12-0.59c0.04-0.2,0.09-0.44,0.14-0.7
				c0.01-0.07,0.07-0.13,0.15-0.14c0.07-0.01,0.13-0.02,0.19-0.02h0.16c0.2,0,0.42,0.02,0.64,0.06c0.23,0.04,0.45,0.11,0.65,0.21
				c0.21,0.1,0.38,0.23,0.51,0.38c0.15,0.16,0.22,0.37,0.22,0.61C250.79,63.08,250.68,63.35,250.46,63.58z M251.13,59.03
				c-0.15,0.12-0.34,0.24-0.58,0.34c-0.23,0.1-0.49,0.19-0.77,0.27c-0.28,0.08-0.57,0.14-0.85,0.19c-0.01,0-0.02,0-0.04,0
				c-0.05,0-0.1-0.02-0.14-0.05c-0.05-0.04-0.07-0.1-0.06-0.16c0.02-0.14,0.06-0.29,0.1-0.47c0.04-0.17,0.08-0.35,0.12-0.53
				c0.04-0.18,0.07-0.36,0.1-0.52c0.03-0.17,0.06-0.31,0.08-0.43c0.02-0.08,0.1-0.15,0.2-0.15h0.19c0.16,0,0.34,0.01,0.55,0.04
				c0.21,0.03,0.41,0.08,0.61,0.15c0.21,0.08,0.38,0.18,0.51,0.3c0.15,0.14,0.23,0.32,0.23,0.53
				C251.39,58.72,251.3,58.89,251.13,59.03z"/>
			<path class="st0" d="M259.19,67.07c0.33-0.03,0.65-0.07,0.96-0.11c0.07-1.66,0.14-3.22,0.2-4.7l0.11-1.99
				c0.04-0.68,0.07-1.32,0.11-1.94c0.04-0.62,0.08-1.19,0.12-1.72c0.04-0.42,0.07-0.78,0.1-1.09c-0.76,0.11-1.55,0.21-2.33,0.28
				c-0.83,0.07-1.66,0.14-2.46,0.19c-0.14,0.47-0.3,0.97-0.49,1.52c-0.2,0.6-0.41,1.22-0.63,1.86l-1.29,3.81
				c-0.46,1.34-0.92,2.7-1.39,4.07l1.93-0.2c0.31-0.03,0.6-0.06,0.84-0.09l0.72-2.27c0.02-0.08,0.1-0.13,0.19-0.13h1.63
				c0.06,0,0.11,0.02,0.15,0.06c0.04,0.04,0.06,0.09,0.05,0.14c-0.03,0.22-0.05,0.48-0.08,0.79c-0.03,0.31-0.07,0.62-0.11,0.93
				l-0.12,0.84l0.75-0.11C258.53,67.16,258.87,67.11,259.19,67.07z M258.03,61.48c-0.02,0.24-0.05,0.46-0.06,0.67
				c-0.02,0.21-0.04,0.39-0.06,0.55c-0.02,0.15-0.03,0.26-0.03,0.32c0,0.08-0.06,0.15-0.15,0.17c-0.06,0.01-0.16,0.02-0.3,0.03
				l-0.82,0.03c-0.14,0.01-0.23,0.01-0.28,0.01c-0.06,0-0.12-0.03-0.16-0.07c-0.04-0.04-0.05-0.1-0.04-0.15l1.16-4.15l0.43-1.43
				c0.02-0.07,0.1-0.13,0.18-0.13l0.28-0.02c0.06-0.01,0.12,0.02,0.16,0.05c0.04,0.04,0.06,0.09,0.06,0.14l-0.11,1.44
				c-0.08,0.66-0.14,1.26-0.19,1.82L258.03,61.48z"/>
			<path class="st0" d="M269.86,57.5c0-0.28-0.03-0.54-0.11-0.76c-0.07-0.22-0.18-0.41-0.34-0.57c-0.16-0.16-0.38-0.28-0.67-0.37
				c-0.3-0.09-0.68-0.14-1.14-0.14c-0.8,0-1.62,0.05-2.43,0.14c-0.76,0.09-1.48,0.22-2.15,0.4c-0.06,0.44-0.14,0.94-0.24,1.51
				c-0.11,0.59-0.22,1.2-0.34,1.84c-0.12,0.64-0.25,1.28-0.39,1.92c-0.14,0.64-0.26,1.26-0.37,1.86c-0.3,1.32-0.6,2.66-0.91,4.03
				l2.6-0.6c0.09-0.43,0.18-0.85,0.27-1.27l0.04-0.19c0.09-0.44,0.18-0.9,0.29-1.37c0.11-0.47,0.2-0.89,0.27-1.24
				c0.01-0.06,0.07-0.12,0.14-0.14l0.24-0.07c0.06-0.01,0.12-0.01,0.17,0.02c0.05,0.03,0.08,0.08,0.09,0.13
				c0.01,0.11,0.04,0.26,0.09,0.45c0.05,0.19,0.11,0.41,0.19,0.65c0.07,0.24,0.15,0.5,0.24,0.77c0.09,0.27,0.18,0.53,0.26,0.78
				c0.18,0.57,0.39,1.17,0.61,1.81l2.51-0.77c-0.23-0.49-0.46-0.99-0.69-1.48c-0.22-0.47-0.46-0.97-0.72-1.49
				c-0.26-0.52-0.5-1.01-0.72-1.45c-0.04-0.09,0-0.19,0.09-0.23c0.42-0.19,0.81-0.44,1.18-0.74c0.37-0.3,0.7-0.65,0.98-1.01
				c0.28-0.37,0.51-0.76,0.68-1.17C269.78,58.33,269.86,57.91,269.86,57.5z M267.74,59.04c-0.23,0.24-0.51,0.47-0.84,0.69
				c-0.32,0.22-0.67,0.41-1.02,0.57c-0.37,0.17-0.68,0.26-0.94,0.28c-0.01,0-0.01,0-0.02,0c-0.06,0-0.11-0.02-0.15-0.06
				c-0.04-0.04-0.06-0.1-0.05-0.16l0.6-2.63c0.02-0.08,0.1-0.14,0.2-0.14c0.11,0,0.23,0,0.37-0.01c0.36-0.01,0.7-0.01,1.03,0.01
				c0.2,0.01,0.39,0.04,0.56,0.08c0.19,0.05,0.34,0.11,0.45,0.21c0.13,0.11,0.2,0.25,0.2,0.42C268.13,58.53,268,58.77,267.74,59.04z
				"/>
		</g>
	</g>
</g>
<g>
</g>
<g>
</g>
<g>
</g>
<g>
</g>
<g>
</g>
<g>
</g>
</svg>
