<?xml version="1.0" encoding="utf-8"?>
<svg version="1.1" id="图层_1" xmlns="http://www.w3.org/2000/svg" xmlns:xlink="http://www.w3.org/1999/xlink" x="0px" y="0px"
	 viewBox="0 0 135.36 137.54" style="enable-background:new 0 0 135.36 137.54;" xml:space="preserve">
<style type="text/css">
	.st0{fill:#E53935;}
</style>
<g>
	<g>
		<path class="st0" d="M10.36,124.18c1.48-7.02,2.9-14,3.64-21.06c0.02-0.23,0.21-0.39,0.44-0.38c1.33,0.09,2.77,0.21,4.12,0.24
			c0.27,0.01,0.45,0.25,0.4,0.51c-0.38,1.97-0.73,3.82-1.11,5.94l0.18-0.03c1.23-1.91,2.82-4.42,4.06-6.38
			c0.07-0.11,0.19-0.18,0.32-0.19c1.61-0.13,3.22-0.27,4.83-0.5c0.38-0.05,0.63,0.36,0.4,0.67c-2.19,2.97-4.38,5.95-6.34,9.03
			c-0.06,0.1-0.08,0.22-0.06,0.34c0.82,3.82,2.03,7.23,3.2,10.93c0.09,0.28-0.13,0.57-0.42,0.56c-1.75-0.06-3.49-0.04-5.24,0.01
			c-0.22,0.01-0.4-0.14-0.43-0.36c-0.29-2.06-0.64-4.4-0.94-6.53c-0.06-0.44-0.67-0.5-0.83-0.08c-0.79,2.09-0.79,4.7-1.37,6.89
			c-0.04,0.17-0.19,0.29-0.36,0.31l-4.01,0.59C10.55,124.74,10.3,124.47,10.36,124.18z"/>
		<path class="st0" d="M33.44,124.42c-0.6,0.1-1.15,0.19-1.63,0.27c0.2-1.5,0.36-3.15,0.5-4.64c0.02-0.25-0.18-0.46-0.43-0.46h-1.83
			c-0.19,0-0.36,0.13-0.42,0.32l-1.04,3.76c-0.05,0.17-0.18,0.29-0.35,0.31c-1.35,0.17-2.86,0.34-4.24,0.51
			c-0.31,0.04-0.55-0.25-0.46-0.55c2.03-6.77,4.13-13.6,6.04-20.35c0.05-0.17,0.2-0.3,0.38-0.31c2.46-0.19,5.07-0.41,7.51-0.82
			c0.28-0.05,0.51,0.17,0.49,0.45c-0.56,6.85-0.75,13.59-1.03,20.64c-0.01,0.21-0.17,0.39-0.37,0.42
			C35.51,124.12,34.56,124.21,33.44,124.42z M30.45,116.56c0.5-0.03,1.24-0.03,1.82-0.08c0.21-0.02,0.36-0.18,0.38-0.39
			c0.25-3.14,0.62-6.53,0.82-9.74l-0.45,0.03C32.53,108.1,30.91,114.71,30.45,116.56z"/>
		<path class="st0" d="M52.06,118.6c-1.7,4.15-6.11,8.26-10.62,6.39c-4.59-2.54-3.62-10.18-2.22-14.2c1.29-3.39,3.47-6.22,6.48-7.71
			c3.91-2.07,8.25-0.66,8.3,3.93c0,0.21-0.15,0.39-0.36,0.43l-3.43,0.65c-0.2,0.04-0.41-0.09-0.48-0.28
			c-2.55-6.83-7.39,6.9-6.92,9.66c-0.27,5.48,5.01,3.65,5.6-0.06c0.04-0.27-0.22-0.51-0.49-0.47l-2.1,0.31
			c-0.29,0.04-0.54-0.21-0.48-0.5l0.4-2.1c0.03-0.18,0.18-0.32,0.36-0.34c2.17-0.27,4.49-0.59,6.62-0.98
			c0.28-0.05,0.52,0.18,0.5,0.47C53.05,115.62,52.66,117.22,52.06,118.6z"/>
		<path class="st0" d="M52.26,124.21l3.8-20.6c0.03-0.18,0.19-0.32,0.37-0.34l8.64-0.74c0.29-0.02,0.51,0.24,0.43,0.52
			c-0.25,0.9-0.47,1.88-0.65,2.78c-0.04,0.19-0.18,0.32-0.37,0.33c-1.19,0.07-2.62,0.07-3.83,0.07c-0.2,0-0.36,0.14-0.4,0.34
			l-0.89,4.55c-0.05,0.27,0.16,0.51,0.43,0.49c1.04-0.06,2.13-0.07,3.13-0.1c0.26-0.01,0.45,0.22,0.41,0.47
			c-0.12,0.84-0.21,1.65-0.35,2.5c-0.03,0.19-0.19,0.34-0.39,0.35c-1.08,0.05-2.28,0.08-3.42,0.12c-0.19,0.01-0.35,0.15-0.39,0.34
			l-0.86,4.66c-0.05,0.28,0.19,0.53,0.47,0.49l3.31-0.52c0.27-0.04,0.5,0.18,0.48,0.45l-0.23,2.59c-0.02,0.19-0.16,0.34-0.35,0.37
			l-8.86,1.37C52.45,124.74,52.21,124.49,52.26,124.21z"/>
		<path class="st0" d="M79.41,121.11c-0.01,0.02-0.03,0.03-0.04,0.05c-10.29,11.65-12.66-4.32-7.09-13.61
			c3.53-5.89,11.64-7.61,11.26-0.2c-0.01,0.18-0.14,0.35-0.32,0.4l-3.66,0.98c-2.49-3.21-5.59,7.43-5.56,9.25
			c-0.09,3.27,2.86,1.11,3.47-0.7c0.07-0.22,0.33-0.32,0.54-0.24l2.59,1.04c0.22,0.09,0.33,0.36,0.23,0.58
			C80.4,119.59,79.92,120.41,79.41,121.11z"/>
		<path class="st0" d="M81.01,124.19c1.32-6.96,2.59-13.95,3.67-20.89c0.03-0.2,0.19-0.34,0.39-0.36l3.98-0.27
			c0.29-0.02,0.51,0.23,0.44,0.51c-0.6,2.49-1.19,5.25-1.69,7.77c-0.06,0.28,0.18,0.53,0.47,0.5l2.1-0.23
			c0.18-0.02,0.34-0.16,0.37-0.35c0.53-2.67,0.83-5.06,1.5-7.71c0.04-0.17,0.19-0.31,0.36-0.33c1.32-0.19,2.58-0.26,3.93-0.38
			c0.29-0.03,0.53,0.24,0.45,0.52c-1.81,6.58-2.84,13.4-3.87,20.19c-0.03,0.19-0.18,0.34-0.37,0.36l-3.81,0.44
			c-0.29,0.03-0.52-0.22-0.47-0.5c0.54-2.67,1.13-5.52,1.6-8.14c0.05-0.28-0.18-0.52-0.46-0.49l-2.05,0.19
			c-0.19,0.02-0.34,0.15-0.38,0.34c-0.49,2.63-1.03,5.57-1.58,8.22c-0.03,0.17-0.16,0.29-0.33,0.33l-3.76,0.78
			C81.22,124.74,80.95,124.49,81.01,124.19z"/>
		<path class="st0" d="M103.43,124.42c-0.6,0.1-1.15,0.19-1.63,0.27c0.2-1.51,0.37-3.17,0.5-4.67c0.02-0.24-0.17-0.44-0.41-0.44
			h-1.87c-0.18,0-0.34,0.12-0.39,0.3l-1.05,3.79c-0.04,0.16-0.17,0.27-0.33,0.3c-1.36,0.18-2.9,0.34-4.29,0.52
			c-0.29,0.04-0.52-0.24-0.43-0.52c2.03-6.79,4.14-13.63,6.06-20.4c0.05-0.16,0.19-0.28,0.36-0.29c2.47-0.19,5.1-0.41,7.56-0.83
			c0.26-0.04,0.48,0.17,0.46,0.43c-0.56,6.86-0.75,13.63-1.03,20.69c-0.01,0.2-0.16,0.36-0.35,0.39
			C105.51,124.11,104.56,124.21,103.43,124.42z M100.44,116.56c0.51-0.03,1.26-0.03,1.84-0.08c0.2-0.02,0.34-0.17,0.36-0.37
			c0.25-3.15,0.62-6.54,0.82-9.76l-0.45,0.03C102.52,108.1,100.9,114.71,100.44,116.56z"/>
		<path class="st0" d="M107.37,124.26c1.37-7.04,2.84-14.04,3.73-21.08c0.03-0.2,0.18-0.35,0.38-0.36c1.37-0.1,2.8-0.18,4.15-0.28
			c0.22-0.02,0.41,0.14,0.44,0.35c0.5,3.01,0.91,5.96,1.45,8.9c0.08,0.46,0.73,0.45,0.82,0c0.57-2.98,1.19-5.94,1.84-8.95
			c0.04-0.18,0.18-0.31,0.36-0.33l2.8-0.34c0.29-0.04,0.52,0.23,0.46,0.51c-1.48,6.83-2.91,13.38-3.85,20.13
			c-0.02,0.18-0.15,0.31-0.32,0.35c-1.22,0.24-2.91,0.63-4.17,0.97c-0.25,0.07-0.5-0.11-0.52-0.37c-0.26-2.84-0.54-5.62-0.89-8.38
			c-0.06-0.48-0.75-0.49-0.83-0.02c-0.48,2.74-0.94,5.49-1.5,8.27c-0.03,0.16-0.16,0.29-0.32,0.33l-3.51,0.82
			C107.58,124.82,107.31,124.56,107.37,124.26z"/>
	</g>
	<path class="st0" d="M135.17,70.59c-0.54-2.69-2.67-4.82-5.35-5.35c-2.63-0.52-6.53-0.17-11.28,3.6
		c-1.17,10.26-5.27,19.6-11.42,27.1c5.01-1.13,14.8-4.16,22.22-11.57C135.21,78.49,135.79,73.67,135.17,70.59z"/>
	<path class="st0" d="M58.17,28.29c2.97,0,5.39-2.41,5.39-5.39H52.78C52.78,25.88,55.19,28.29,58.17,28.29z"/>
	<path class="st0" d="M78.77,53.97c-2.16-0.04-4.3-0.36-6.36-0.99c-2.05-0.63-4.01-1.58-5.74-2.84c-0.06-0.05-0.15-0.05-0.22,0
		c-1.73,1.26-3.69,2.21-5.74,2.84c-2.06,0.62-4.2,0.95-6.36,0.99c-0.04,0-0.07,0.03-0.09,0.06c-0.02,0.06,0.03,0.11,0.09,0.13
		c1.36,0.41,2.77,0.57,4.19,0.54c0.38,4.14,3.65,8.12,8.02,8.1c4.37,0.02,7.64-3.97,8.02-8.1c1.41,0.03,2.82-0.14,4.19-0.55
		c0.05-0.01,0.09-0.04,0.09-0.09C78.86,54.01,78.82,53.97,78.77,53.97z"/>
	<path class="st0" d="M133.12,29.21c0,0-29.8-29.21-66.56-29.21S0,29.21,0,29.21c0,7.9,7.15,15.07,18.76,20.33
		c-1.39,5.86-2.14,12.07-2.14,18.5c0,16.28,4.8,24.44,12.68,28.51c0,0,0,0,0,0c0,0-0.01,0-0.01-0.01c-0.45-2.57-0.7-5.22-0.7-7.94
		c0-23.03,17-41.7,37.96-41.7s37.96,18.67,37.96,41.7c0,2.72-0.24,5.37-0.7,7.94c0.01-0.01,0.03-0.01,0.04-0.02c0,0,0,0.01,0,0.01
		s0.1-0.01,0.27-0.04c6.41-7.11,10.84-16.17,12.32-26.23c0.02-0.73,0.04-1.47,0.04-2.23c0-6.44-0.75-12.65-2.14-18.5
		C125.97,44.28,133.12,37.12,133.12,29.21z M17.29,47.03C9.86,44.12,2.42,38.6,0.65,30.42c2.12,5.46,7.03,9.3,12.35,11.35
		c1.76,0.73,3.63,1.21,5.48,1.66C21.07,44.19,19.83,47.98,17.29,47.03z M36.09,59.88c-3.95,3.71-10.29,1.44-14.07-1.37
		c0,0,0.08-0.17,0.08-0.17c3.46,1.33,7.51,2.65,11.14,1.31c2.36-0.95,3.44-3.94,2.69-6.28c-0.39-1.19-1.22-2.21-2.18-3.02
		c-1.97-1.63-4.4-2.66-6.84-3.35c0,0,0.04-0.18,0.04-0.18c4.18,0.16,8.88,1.76,10.66,6C38.47,55.22,37.87,58.05,36.09,59.88z
		 M39.47,43.2c-2.36,0-4.27-1.91-4.27-4.27c0-2.36,1.91-4.27,4.27-4.27s4.27,1.91,4.27,4.27C43.74,41.29,41.83,43.2,39.47,43.2z
		 M79.47,34.72c0.06,0.07-0.02,0.19-0.11,0.15c-1.09-0.32-2.27-0.73-3.39-0.52c-0.1,0.01-0.2,0.02-0.28,0.02
		c-0.23,0.16-0.47,0.32-0.71,0.47c0.68,0.4,1.26,0.93,1.77,1.54c0.06,0.07-0.02,0.19-0.11,0.15c-1.09-0.32-2.27-0.73-3.39-0.52
		c-0.21,0.03-0.38,0.02-0.53,0c-1.9,0.79-3.98,1.23-6.17,1.23c-2.27,0-4.43-0.48-6.39-1.33c-0.31,0-0.62-0.12-0.94-0.09
		c-0.91,0.06-1.87,0.3-2.76,0.59c-0.09,0.03-0.17-0.08-0.11-0.15c0.48-0.58,1.04-1.08,1.68-1.47c-0.27-0.17-0.54-0.35-0.8-0.54
		c-0.24-0.03-0.48-0.1-0.73-0.08c-0.91,0.06-1.87,0.3-2.76,0.59c-0.09,0.03-0.17-0.08-0.11-0.15c0.56-0.67,1.23-1.24,2.01-1.66
		c-3.15-2.93-5.12-7.1-5.12-11.73h32.04c0,4.68-2,8.88-5.2,11.81C78.2,33.43,78.89,34.02,79.47,34.72z M89.38,38.94
		c0-2.36,1.91-4.27,4.27-4.27c2.36,0,4.27,1.91,4.27,4.27c0,2.36-1.91,4.27-4.27,4.27C91.29,43.2,89.38,41.29,89.38,38.94z
		 M96.43,58.85c-1.37-1.45-1.85-3.69-1.22-5.58c0.9-2.54,3.32-4.07,5.64-5.15c1.18-0.54,2.4-0.98,3.66-1.3l0.04,0.18
		c-3.01,1.86-6.56,3.58-7.66,6.83c-0.42,1.58,0.26,3.77,1.89,4.49c3.34,1.35,6.9,0.42,10.57,0.03c0,0,0.08,0.17,0.08,0.17
		C105.68,60.02,99.82,62,96.43,58.85z M114.86,43.44c1.85-0.45,3.72-0.93,5.48-1.66c5.32-2.06,10.23-5.89,12.35-11.35
		c-1.78,8.18-9.21,13.69-16.64,16.61C113.5,47.98,112.26,44.19,114.86,43.44z"/>
	<g>
		<path class="st0" d="M18.21,130.29c0-0.29-0.06-0.53-0.19-0.71c-0.13-0.19-0.28-0.34-0.47-0.45c-0.19-0.12-0.4-0.2-0.63-0.24
			c-0.24-0.04-0.47-0.07-0.68-0.07c-0.52,0-1.03,0.03-1.52,0.1c-0.45,0.06-0.9,0.13-1.33,0.21c-0.23,1.38-0.46,2.76-0.71,4.11
			c-0.24,1.34-0.57,2.69-0.98,4.02c0.54,0.07,1.19,0.06,1.85-0.04c0.39-0.06,0.77-0.14,1.14-0.25c0.37-0.11,0.72-0.25,1.05-0.41
			c0.33-0.16,0.62-0.35,0.87-0.57c0.24-0.21,0.44-0.45,0.58-0.71c0.14-0.25,0.21-0.54,0.21-0.84c0-0.22-0.03-0.42-0.09-0.6
			c-0.06-0.18-0.14-0.33-0.24-0.45c-0.1-0.13-0.21-0.24-0.32-0.34c-0.12-0.09-0.23-0.17-0.33-0.22c-0.05-0.02-0.08-0.07-0.08-0.12
			c0-0.05,0.04-0.09,0.09-0.11c0.22-0.07,0.43-0.18,0.64-0.33c0.21-0.15,0.4-0.32,0.56-0.52c0.16-0.2,0.3-0.43,0.41-0.68
			C18.16,130.84,18.21,130.57,18.21,130.29z M15.92,134.55c-0.14,0.15-0.33,0.27-0.54,0.36c-0.2,0.09-0.42,0.15-0.64,0.19
			c-0.21,0.04-0.41,0.07-0.59,0.08c-0.01,0-0.01,0-0.02,0c-0.04,0-0.08-0.01-0.1-0.04c-0.03-0.03-0.04-0.07-0.04-0.11
			c0.03-0.2,0.07-0.37,0.1-0.51l0.09-0.42c0.03-0.15,0.06-0.28,0.09-0.42c0.03-0.14,0.06-0.31,0.1-0.5c0.01-0.05,0.05-0.09,0.11-0.1
			c0.05-0.01,0.09-0.02,0.13-0.02h0.11c0.14,0,0.29,0.01,0.46,0.04c0.16,0.03,0.32,0.08,0.46,0.15c0.15,0.07,0.27,0.16,0.36,0.27
			c0.11,0.12,0.16,0.26,0.16,0.43C16.16,134.19,16.08,134.39,15.92,134.55z M16.4,131.32c-0.11,0.09-0.24,0.17-0.41,0.24
			c-0.16,0.07-0.34,0.13-0.54,0.19c-0.2,0.06-0.4,0.1-0.6,0.13c-0.01,0-0.02,0-0.03,0c-0.04,0-0.07-0.01-0.1-0.04
			c-0.03-0.03-0.05-0.07-0.04-0.11c0.02-0.1,0.04-0.21,0.07-0.34c0.03-0.12,0.06-0.25,0.09-0.38c0.03-0.13,0.05-0.25,0.07-0.37
			c0.02-0.12,0.04-0.22,0.06-0.31c0.01-0.06,0.07-0.1,0.14-0.1h0.13c0.11,0,0.24,0.01,0.39,0.03c0.15,0.02,0.29,0.06,0.43,0.11
			c0.15,0.05,0.27,0.12,0.36,0.21c0.11,0.1,0.16,0.23,0.16,0.38C16.58,131.1,16.52,131.22,16.4,131.32z"/>
		<path class="st0" d="M22.83,135.59c0.33-0.36,0.63-0.78,0.88-1.24c0.25-0.46,0.46-0.98,0.61-1.54c0.15-0.56,0.23-1.16,0.23-1.78
			c0-0.28-0.03-0.56-0.09-0.84c-0.06-0.28-0.16-0.53-0.3-0.74c-0.13-0.21-0.32-0.39-0.56-0.52c-0.24-0.13-0.54-0.2-0.91-0.2
			c-0.43,0-0.86,0.09-1.27,0.28c-0.41,0.19-0.8,0.45-1.16,0.77c-0.36,0.32-0.7,0.7-1.01,1.12c-0.3,0.42-0.56,0.87-0.77,1.34
			c-0.21,0.47-0.38,0.95-0.5,1.42c-0.12,0.48-0.18,0.93-0.18,1.36c0,0.41,0.05,0.76,0.15,1.05c0.1,0.28,0.23,0.52,0.39,0.7
			c0.16,0.18,0.36,0.31,0.58,0.4c0.49,0.2,1.12,0.18,1.78-0.06c0.37-0.13,0.74-0.33,1.1-0.58C22.14,136.27,22.5,135.96,22.83,135.59
			z M20.36,135.62c-0.13,0-0.26-0.03-0.37-0.09c-0.11-0.06-0.2-0.13-0.27-0.21c-0.07-0.08-0.13-0.18-0.17-0.28
			c-0.04-0.11-0.06-0.21-0.06-0.31c0-0.19,0.02-0.42,0.07-0.69c0.04-0.26,0.12-0.53,0.23-0.81c0.1-0.27,0.23-0.55,0.37-0.81
			c0.14-0.27,0.32-0.51,0.52-0.73c0.2-0.22,0.43-0.4,0.68-0.53c0.26-0.14,0.55-0.21,0.86-0.21c0.18,0,0.32,0.04,0.44,0.13
			c0.1,0.08,0.18,0.18,0.22,0.29c0.04,0.1,0.07,0.22,0.09,0.34c0.01,0.11,0.02,0.22,0.02,0.32c0,0.34-0.06,0.71-0.17,1.12
			c-0.11,0.41-0.28,0.79-0.48,1.15c-0.21,0.36-0.48,0.68-0.8,0.93C21.19,135.49,20.8,135.62,20.36,135.62z"/>
		<path class="st0" d="M28.67,137.02c0.23-0.02,0.46-0.05,0.68-0.08c0.05-1.17,0.1-2.29,0.14-3.34l0.08-1.41
			c0.03-0.48,0.05-0.94,0.08-1.37c0.03-0.44,0.05-0.84,0.09-1.22c0.03-0.29,0.05-0.55,0.07-0.77c-0.54,0.08-1.1,0.15-1.66,0.2
			c-0.59,0.05-1.17,0.1-1.75,0.13c-0.1,0.33-0.22,0.69-0.35,1.08c-0.14,0.42-0.29,0.86-0.45,1.32l-0.91,2.71
			c-0.33,0.95-0.65,1.91-0.99,2.89l1.37-0.15c0.22-0.02,0.42-0.04,0.6-0.07l0.51-1.61c0.02-0.05,0.07-0.09,0.14-0.09h1.16
			c0.04,0,0.08,0.02,0.11,0.04c0.03,0.03,0.04,0.06,0.04,0.1c-0.02,0.16-0.04,0.34-0.06,0.56c-0.02,0.22-0.05,0.44-0.08,0.66
			l-0.08,0.6l0.53-0.08C28.21,137.09,28.45,137.05,28.67,137.02z M27.85,133.06c-0.02,0.17-0.03,0.33-0.04,0.47
			c-0.01,0.15-0.03,0.28-0.04,0.39c-0.01,0.11-0.02,0.18-0.02,0.23c0,0.06-0.04,0.11-0.11,0.12c-0.04,0.01-0.11,0.02-0.21,0.02
			l-0.58,0.02c-0.1,0-0.16,0.01-0.2,0.01c-0.04,0-0.09-0.02-0.11-0.05c-0.03-0.03-0.04-0.07-0.03-0.11l0.83-2.95l0.31-1.01
			c0.02-0.05,0.07-0.09,0.13-0.09l0.2-0.01c0.04-0.01,0.08,0.01,0.11,0.04c0.03,0.03,0.04,0.06,0.04,0.1l-0.08,1.02
			c-0.05,0.46-0.1,0.89-0.13,1.29L27.85,133.06z"/>
		<path class="st0" d="M36.24,130.23c0-0.2-0.02-0.38-0.08-0.54c-0.05-0.15-0.13-0.29-0.24-0.4c-0.11-0.11-0.27-0.2-0.47-0.26
			c-0.21-0.07-0.48-0.1-0.81-0.1c-0.57,0-1.15,0.03-1.73,0.1c-0.54,0.06-1.05,0.16-1.52,0.28c-0.04,0.31-0.1,0.66-0.17,1.07
			c-0.08,0.42-0.16,0.85-0.24,1.3c-0.09,0.45-0.18,0.91-0.27,1.36c-0.1,0.46-0.19,0.9-0.27,1.32c-0.21,0.93-0.42,1.89-0.65,2.86
			l1.85-0.42c0.06-0.3,0.13-0.6,0.19-0.9l0.03-0.14c0.06-0.31,0.13-0.64,0.21-0.97c0.08-0.34,0.14-0.63,0.19-0.88
			c0.01-0.05,0.05-0.08,0.1-0.1l0.17-0.05c0.04-0.01,0.09-0.01,0.12,0.02c0.04,0.02,0.06,0.06,0.06,0.09
			c0.01,0.08,0.03,0.18,0.06,0.32c0.03,0.13,0.08,0.29,0.13,0.46c0.05,0.17,0.11,0.35,0.17,0.54c0.06,0.19,0.12,0.38,0.19,0.56
			c0.13,0.4,0.27,0.83,0.43,1.28l1.78-0.55c-0.17-0.35-0.33-0.7-0.49-1.05c-0.16-0.33-0.33-0.69-0.51-1.06
			c-0.18-0.37-0.35-0.71-0.51-1.03c-0.03-0.06,0-0.13,0.06-0.16c0.3-0.13,0.58-0.31,0.84-0.53c0.26-0.22,0.5-0.46,0.7-0.72
			c0.2-0.26,0.36-0.54,0.48-0.83C36.18,130.82,36.24,130.53,36.24,130.23z M34.74,131.33c-0.16,0.17-0.36,0.33-0.59,0.49
			c-0.23,0.16-0.47,0.29-0.72,0.41c-0.26,0.12-0.48,0.18-0.67,0.2c0,0-0.01,0-0.01,0c-0.04,0-0.08-0.01-0.11-0.04
			c-0.03-0.03-0.04-0.07-0.03-0.11l0.43-1.87c0.01-0.06,0.07-0.1,0.14-0.1c0.08,0,0.17,0,0.27-0.01c0.26-0.01,0.5-0.01,0.73,0.01
			c0.14,0.01,0.28,0.03,0.4,0.06c0.13,0.03,0.24,0.08,0.32,0.15c0.09,0.08,0.14,0.18,0.14,0.3
			C35.01,130.97,34.92,131.14,34.74,131.33z"/>
		<path class="st0" d="M40.35,135.26c0.34-0.4,0.63-0.83,0.87-1.27c0.23-0.44,0.42-0.89,0.55-1.34c0.13-0.44,0.19-0.87,0.19-1.27
			c0-0.34-0.05-0.67-0.14-0.96c-0.09-0.3-0.24-0.56-0.43-0.78c-0.19-0.22-0.45-0.39-0.76-0.51c-0.31-0.12-0.7-0.19-1.16-0.19
			c-0.4,0-0.79,0.03-1.17,0.08c-0.35,0.05-0.71,0.1-1.05,0.16c-0.05,0.33-0.12,0.68-0.19,1.04c-0.08,0.41-0.17,0.85-0.26,1.3
			c-0.09,0.46-0.18,0.92-0.28,1.38l-0.28,1.34c-0.22,0.99-0.45,1.99-0.68,3.03c0.07,0.01,0.14,0.02,0.22,0.02
			c0.69,0.07,1.37-0.04,1.99-0.26c0.51-0.18,0.99-0.43,1.42-0.73C39.62,136.01,40.01,135.66,40.35,135.26z M38.45,135.53
			c-0.21,0.23-0.43,0.41-0.65,0.54c-0.02,0.01-0.05,0.02-0.08,0.02c-0.03,0-0.05-0.01-0.08-0.02c-0.05-0.03-0.07-0.08-0.06-0.13
			c0.09-0.54,0.2-1.06,0.31-1.54c0.11-0.47,0.21-0.92,0.32-1.35c0.11-0.43,0.21-0.86,0.32-1.28c0.1-0.41,0.21-0.86,0.31-1.32
			c0.01-0.06,0.07-0.1,0.14-0.1c0.43,0,0.75,0.1,0.96,0.28c0.21,0.19,0.31,0.45,0.31,0.77c0,0.2-0.03,0.42-0.09,0.69
			c-0.06,0.27-0.14,0.55-0.25,0.85c-0.11,0.3-0.24,0.61-0.38,0.93c-0.15,0.32-0.32,0.63-0.49,0.91
			C38.85,135.05,38.65,135.31,38.45,135.53z"/>
		<path class="st0" d="M50.37,134.94c0.26-0.54,0.43-1.17,0.5-1.88c-0.24,0.04-0.51,0.08-0.81,0.12c-0.38,0.05-0.74,0.1-1.08,0.14
			c-0.37,0.04-0.74,0.09-1.12,0.13l-0.19,0.9l1.22-0.16c0.04,0,0.09,0.01,0.12,0.03c0.03,0.03,0.05,0.06,0.05,0.1
			c-0.01,0.24-0.07,0.47-0.18,0.68c-0.11,0.2-0.24,0.38-0.4,0.54c-0.16,0.16-0.35,0.28-0.56,0.36c-0.53,0.22-1.05,0.16-1.36-0.24
			c-0.18-0.23-0.27-0.59-0.27-1.11c0.02-0.52,0.11-1.05,0.27-1.58c0.16-0.53,0.36-1.02,0.59-1.46c0.23-0.44,0.49-0.82,0.76-1.1
			c0.53-0.55,1.04-0.59,1.4-0.22c0.13,0.13,0.24,0.33,0.32,0.61l1.57-0.26c-0.01-0.22-0.04-0.44-0.11-0.64
			c-0.07-0.23-0.18-0.43-0.34-0.6c-0.15-0.17-0.35-0.3-0.6-0.4c-0.24-0.1-0.53-0.15-0.86-0.15c-0.47,0-0.99,0.12-1.54,0.35
			c-0.55,0.23-1.08,0.6-1.56,1.08c-0.49,0.49-0.9,1.11-1.22,1.84c-0.32,0.73-0.48,1.61-0.48,2.6c0,0.5,0.06,0.94,0.18,1.32
			c0.12,0.37,0.28,0.67,0.49,0.92c0.2,0.24,0.44,0.42,0.72,0.53c0.64,0.27,1.37,0.22,2.17-0.11c0.46-0.19,0.89-0.48,1.28-0.86
			C49.74,136.01,50.09,135.52,50.37,134.94z"/>
		<path class="st0" d="M55.31,137.02c0.23-0.02,0.46-0.05,0.68-0.08c0.05-1.17,0.1-2.29,0.14-3.34l0.08-1.41
			c0.03-0.48,0.05-0.94,0.08-1.37c0.03-0.44,0.05-0.84,0.09-1.22c0.03-0.29,0.05-0.55,0.07-0.77c-0.54,0.08-1.1,0.15-1.66,0.2
			c-0.59,0.05-1.17,0.1-1.75,0.13c-0.1,0.33-0.22,0.69-0.35,1.08c-0.14,0.42-0.29,0.86-0.45,1.32l-0.91,2.71
			c-0.33,0.95-0.65,1.91-0.99,2.89l1.37-0.15c0.22-0.02,0.42-0.04,0.6-0.07l0.51-1.61c0.02-0.05,0.07-0.09,0.14-0.09h1.16
			c0.04,0,0.08,0.02,0.11,0.04c0.03,0.03,0.04,0.06,0.04,0.1c-0.02,0.16-0.04,0.34-0.06,0.56c-0.02,0.22-0.05,0.44-0.08,0.66
			l-0.08,0.6l0.53-0.08C54.85,137.09,55.09,137.05,55.31,137.02z M54.49,133.06c-0.02,0.17-0.03,0.33-0.04,0.47
			c-0.01,0.15-0.03,0.28-0.04,0.39c-0.01,0.11-0.02,0.18-0.02,0.23c0,0.06-0.04,0.11-0.11,0.12c-0.04,0.01-0.11,0.02-0.21,0.02
			l-0.58,0.02c-0.1,0-0.16,0.01-0.2,0.01c-0.04,0-0.09-0.02-0.11-0.05c-0.03-0.03-0.04-0.07-0.03-0.11l0.83-2.95l0.31-1.01
			c0.02-0.05,0.07-0.09,0.13-0.09l0.2-0.01c0.04-0.01,0.08,0.01,0.11,0.04c0.03,0.03,0.04,0.06,0.04,0.1l-0.08,1.02
			c-0.05,0.46-0.1,0.89-0.13,1.29L54.49,133.06z"/>
		<path class="st0" d="M64.41,134.05c0.04-0.41,0.1-0.85,0.15-1.32c0.06-0.46,0.12-0.93,0.18-1.4c0.06-0.45,0.13-0.93,0.21-1.43
			c0.07-0.42,0.14-0.82,0.22-1.22c-0.16,0.03-0.32,0.05-0.46,0.07l-0.59,0.08c-0.2,0.03-0.39,0.05-0.59,0.08
			c-0.17,0.02-0.36,0.04-0.55,0.05c-0.08,0.15-0.16,0.31-0.25,0.5c-0.1,0.22-0.21,0.44-0.32,0.68c-0.11,0.24-0.22,0.48-0.32,0.73
			l-0.41,0.97c-0.17,0.4-0.38,0.89-0.64,1.49c-0.02,0.05-0.08,0.08-0.13,0.08h-0.17c-0.04,0-0.08-0.02-0.11-0.04
			c-0.03-0.03-0.04-0.07-0.03-0.1c0.11-0.59,0.19-1.07,0.25-1.47c0.06-0.39,0.11-0.71,0.16-0.96c0.04-0.22,0.08-0.44,0.11-0.65
			l0.01-0.07c0.04-0.23,0.08-0.46,0.11-0.67L61.3,129c-0.44,0.04-0.85,0.07-1.23,0.11c-0.41,0.04-0.84,0.07-1.29,0.07
			c-0.1,0.33-0.21,0.7-0.34,1.08c-0.14,0.42-0.29,0.86-0.45,1.32c-0.16,0.45-0.32,0.91-0.48,1.37c-0.16,0.46-0.32,0.91-0.47,1.33
			c-0.33,0.94-0.69,1.91-1.05,2.89l1.89-0.11c0.02-0.05,0.04-0.13,0.08-0.23l0.23-0.7c0.09-0.28,0.19-0.59,0.3-0.93
			c0.11-0.33,0.2-0.65,0.3-0.96c0.09-0.31,0.18-0.58,0.25-0.82c0.09-0.28,0.12-0.43,0.13-0.5c0.01-0.06,0.07-0.11,0.14-0.11h0.2
			c0.04,0,0.08,0.01,0.11,0.04c0.03,0.03,0.04,0.06,0.04,0.1l-0.41,4.21l0.61-0.03c0.2-0.01,0.43-0.02,0.7-0.03
			c0.11-0.3,0.23-0.62,0.37-0.95c0.15-0.35,0.29-0.7,0.44-1.06l0.48-1.15c0.15-0.36,0.29-0.71,0.41-1.04
			c0.02-0.05,0.07-0.09,0.14-0.09h0.12c0.04,0,0.08,0.02,0.11,0.05c0.03,0.03,0.04,0.07,0.03,0.1c-0.04,0.2-0.09,0.44-0.13,0.73
			c-0.04,0.28-0.09,0.58-0.13,0.88l-0.12,0.92c-0.04,0.3-0.07,0.58-0.09,0.83c-0.02,0.25-0.04,0.46-0.05,0.63
			c-0.01,0.06-0.01,0.11-0.01,0.16l2.03-0.32C64.22,135.93,64.31,135.01,64.41,134.05z"/>
		<path class="st0" d="M70.06,129.7c0.04-0.16,0.08-0.32,0.13-0.47c0.03-0.12,0.06-0.24,0.1-0.35l-3.89,0.29l-1.69,8.08l3.99-0.54
			l0.11-1.08l-1.76,0.24c-0.04,0.01-0.09-0.01-0.13-0.04c-0.03-0.03-0.05-0.07-0.04-0.11l0.45-2.16c0.01-0.06,0.07-0.1,0.14-0.1
			c0.27-0.01,0.53-0.02,0.76-0.02c0.2-0.01,0.41-0.01,0.61-0.02c0.13,0,0.23-0.01,0.31-0.01c0.04-0.18,0.07-0.37,0.09-0.54
			c0.02-0.16,0.05-0.33,0.08-0.49c-0.08,0-0.18,0-0.29,0c-0.2,0-0.4,0-0.59,0.01c-0.24,0.01-0.49,0.02-0.77,0.03
			c-0.03,0.01-0.09-0.01-0.12-0.04c-0.03-0.03-0.04-0.07-0.03-0.11l0.47-2.1c0.01-0.06,0.07-0.1,0.14-0.1h0.5
			c0.19,0,0.38,0,0.56-0.01l0.52-0.01c0.1,0,0.19-0.01,0.26-0.01C70.01,129.93,70.03,129.82,70.06,129.7z"/>
		<path class="st0" d="M76.42,135.9c0.23-0.28,0.44-0.61,0.64-0.98l-1.23-0.44c-0.04,0.1-0.09,0.2-0.16,0.29
			c-0.09,0.14-0.2,0.27-0.31,0.38c-0.12,0.12-0.24,0.21-0.38,0.28c-0.35,0.19-0.65,0.15-0.83-0.09c-0.09-0.12-0.14-0.32-0.14-0.6
			c0-0.18,0.03-0.4,0.1-0.67c0.07-0.26,0.15-0.55,0.26-0.84c0.11-0.3,0.24-0.59,0.38-0.87c0.14-0.29,0.29-0.55,0.45-0.79
			c0.16-0.24,0.32-0.44,0.48-0.59c0.36-0.33,0.75-0.36,1,0.01l1.54-0.36c0-0.02,0-0.04,0-0.06v-0.15c0-0.23-0.04-0.45-0.12-0.64
			c-0.08-0.19-0.18-0.35-0.31-0.48c-0.13-0.13-0.28-0.23-0.46-0.3c-0.18-0.07-0.36-0.11-0.55-0.11c-0.66,0-1.27,0.17-1.81,0.5
			c-0.56,0.34-1.04,0.79-1.44,1.34c-0.41,0.56-0.73,1.2-0.95,1.9c-0.23,0.7-0.34,1.42-0.34,2.14c0,0.42,0.05,0.79,0.15,1.09
			c0.1,0.31,0.23,0.57,0.39,0.77c0.15,0.2,0.34,0.35,0.54,0.45c0.41,0.2,0.93,0.2,1.48,0c0.28-0.1,0.56-0.25,0.83-0.45
			C75.9,136.47,76.17,136.21,76.42,135.9z"/>
		<path class="st0" d="M81.95,137.02c0.23-0.02,0.46-0.05,0.68-0.08c0.05-1.17,0.1-2.29,0.14-3.34l0.08-1.41
			c0.03-0.48,0.05-0.94,0.08-1.37c0.03-0.44,0.05-0.84,0.09-1.22c0.03-0.29,0.05-0.55,0.07-0.77c-0.54,0.08-1.1,0.15-1.66,0.2
			c-0.59,0.05-1.17,0.1-1.75,0.13c-0.1,0.33-0.22,0.69-0.35,1.08c-0.14,0.42-0.29,0.86-0.45,1.32l-0.91,2.71
			c-0.33,0.95-0.65,1.91-0.99,2.89l1.37-0.15c0.22-0.02,0.42-0.04,0.6-0.07l0.51-1.61c0.02-0.05,0.07-0.09,0.14-0.09h1.16
			c0.04,0,0.08,0.02,0.11,0.04c0.03,0.03,0.04,0.06,0.04,0.1c-0.02,0.16-0.04,0.34-0.06,0.56c-0.02,0.22-0.05,0.44-0.08,0.66
			l-0.08,0.6l0.53-0.08C81.49,137.09,81.73,137.05,81.95,137.02z M81.13,133.06c-0.02,0.17-0.03,0.33-0.04,0.47
			c-0.01,0.15-0.03,0.28-0.04,0.39c-0.01,0.11-0.02,0.18-0.02,0.23c0,0.06-0.04,0.11-0.11,0.12c-0.04,0.01-0.11,0.02-0.21,0.02
			l-0.58,0.02c-0.1,0-0.16,0.01-0.2,0.01c-0.04,0-0.09-0.02-0.11-0.05c-0.03-0.03-0.04-0.07-0.03-0.11l0.83-2.95l0.31-1.01
			c0.02-0.05,0.07-0.09,0.13-0.09l0.2-0.01c0.04-0.01,0.08,0.01,0.11,0.04c0.03,0.03,0.04,0.06,0.04,0.1l-0.08,1.02
			c-0.05,0.46-0.1,0.89-0.13,1.29L81.13,133.06z"/>
		<path class="st0" d="M88.59,130.06l0.32-1.18l-4.15,0.19c-0.18,1.08-0.36,2.12-0.54,3.13c-0.09,0.44-0.18,0.9-0.27,1.37
			c-0.09,0.47-0.19,0.94-0.29,1.41c-0.1,0.46-0.2,0.9-0.31,1.32c-0.08,0.34-0.17,0.65-0.25,0.93c0.16-0.03,0.34-0.07,0.54-0.1
			c0.29-0.06,0.57-0.1,0.82-0.14c0.26-0.05,0.52-0.09,0.79-0.14l0.6-3.37c0.01-0.06,0.07-0.11,0.14-0.11c0,0,0,0,0,0
			c0.28,0.01,0.54,0.02,0.77,0.02c0.23,0.01,0.44,0.01,0.66,0.02c0.14,0,0.27,0,0.37,0.01c0.03-0.18,0.06-0.35,0.1-0.53
			c0.03-0.16,0.06-0.33,0.08-0.49c-0.09,0-0.2,0-0.33,0h-0.63c-0.25,0-0.51,0-0.78,0.01c-0.03,0-0.08-0.01-0.11-0.04
			c-0.03-0.03-0.04-0.07-0.03-0.1l0.41-2.09c0.01-0.06,0.07-0.1,0.14-0.1H88.59z"/>
		<g>
			<path class="st0" d="M93.02,127.32c-0.06-0.44-0.08-1.41-0.11-1.82c-0.4,0.38-2.38,1.31-2.97,1.83c0,0.12,0,0.24-0.01,0.36
				c0,0.13-0.01,0.25-0.01,0.38v0.21c0,0.02,0,0.04,0,0.06c0.47-0.16,0.98-0.32,1.51-0.49C92,127.68,92.53,127.5,93.02,127.32z"/>
			<path class="st0" d="M93.01,129.7c0.04-0.16,0.08-0.32,0.13-0.47c0.03-0.12,0.06-0.24,0.1-0.35l-3.89,0.29l-1.69,8.08l3.99-0.54
				l0.11-1.08l-1.76,0.24c-0.05,0.01-0.09-0.01-0.13-0.04c-0.03-0.03-0.05-0.07-0.04-0.11l0.45-2.16c0.01-0.06,0.07-0.1,0.14-0.1
				c0.27-0.01,0.53-0.02,0.76-0.02c0.2-0.01,0.41-0.01,0.61-0.02c0.13,0,0.23-0.01,0.31-0.01c0.04-0.18,0.07-0.37,0.09-0.54
				c0.02-0.16,0.05-0.33,0.08-0.49c-0.08,0-0.18,0-0.29,0c-0.2,0-0.4,0-0.59,0.01c-0.24,0.01-0.49,0.02-0.77,0.03
				c-0.03,0.01-0.09-0.01-0.12-0.04c-0.03-0.03-0.04-0.07-0.03-0.11l0.47-2.1c0.01-0.06,0.07-0.1,0.14-0.1h0.5
				c0.19,0,0.38,0,0.56-0.01l0.52-0.01c0.1,0,0.19-0.01,0.26-0.01C92.95,129.93,92.98,129.82,93.01,129.7z"/>
		</g>
		<path class="st0" d="M101.14,135.04c0.14-0.49,0.22-1.03,0.22-1.6c0-0.07,0.06-0.13,0.14-0.13c0.03,0,0.11-0.01,0.22-0.02
			c0.12-0.01,0.24-0.03,0.37-0.05l0.31-0.04l-0.11-0.94l-0.24,0.05c-0.12,0.02-0.24,0.04-0.35,0.06c-0.12,0.01-0.2,0.02-0.24,0.02
			c-0.08,0-0.14-0.06-0.14-0.13v-0.29c0-0.01,0-0.03,0-0.04c-0.28,0.01-0.54,0.03-0.79,0.04c-0.26,0.01-0.55,0.02-0.86,0.02
			c0,0.01,0,0.02,0,0.04c-0.01,0.06-0.01,0.11-0.02,0.16c-0.01,0.04-0.01,0.08-0.01,0.13c0,0.05-0.04,0.1-0.1,0.12
			c-0.07,0.02-0.14,0.03-0.21,0.03h-0.13c-0.21,0-0.39-0.03-0.55-0.1c-0.16-0.07-0.3-0.16-0.41-0.28c-0.11-0.12-0.18-0.25-0.23-0.39
			c-0.05-0.14-0.07-0.28-0.07-0.44c0-0.14,0.02-0.27,0.07-0.41c0.04-0.13,0.12-0.26,0.22-0.38c0.1-0.12,0.23-0.21,0.39-0.27
			c0.32-0.13,0.8-0.1,1.08-0.06c0.16,0.03,0.29,0.06,0.4,0.11c0.11,0.05,0.21,0.11,0.28,0.18c0.03,0.03,0.06,0.05,0.09,0.08
			l0.92-0.91c-0.18-0.24-0.41-0.43-0.71-0.57c-0.33-0.16-0.69-0.24-1.08-0.24c-0.45,0-0.89,0.06-1.3,0.19
			c-0.41,0.12-0.78,0.3-1.09,0.52c-0.31,0.22-0.56,0.49-0.75,0.81c-0.18,0.31-0.28,0.66-0.28,1.03c0,0.19,0.05,0.36,0.15,0.5
			c0.1,0.15,0.22,0.29,0.36,0.39c0.14,0.11,0.3,0.21,0.5,0.3c0.05,0.02,0.08,0.07,0.08,0.13c-0.01,0.05-0.05,0.09-0.1,0.11
			c-0.33,0.08-0.64,0.22-0.91,0.4c-0.27,0.19-0.5,0.41-0.7,0.66c-0.19,0.25-0.34,0.53-0.45,0.81c-0.11,0.29-0.16,0.57-0.16,0.85
			c0,0.25,0.05,0.5,0.14,0.73c0.09,0.23,0.24,0.43,0.43,0.6c0.2,0.17,0.46,0.31,0.78,0.42c0.32,0.11,0.71,0.16,1.16,0.16
			c0.72,0,1.34-0.1,1.83-0.3c0.49-0.2,0.9-0.47,1.2-0.82C100.77,135.94,101,135.52,101.14,135.04z M99.43,134.27
			c-0.05,0.3-0.12,0.59-0.23,0.87c-0.11,0.28-0.27,0.52-0.48,0.72c-0.22,0.21-0.51,0.32-0.86,0.32c-0.34,0-0.61-0.09-0.82-0.27
			c0,0,0,0,0,0c-0.2-0.18-0.3-0.42-0.3-0.7c0-0.22,0.05-0.43,0.14-0.64c0.1-0.21,0.25-0.4,0.47-0.57c0.21-0.17,0.49-0.31,0.82-0.42
			c0.32-0.11,0.72-0.18,1.19-0.21c0.04-0.01,0.08,0.01,0.11,0.04c0.03,0.03,0.04,0.06,0.04,0.1
			C99.5,133.71,99.47,133.97,99.43,134.27z"/>
		<path class="st0" d="M110.89,130.29c0-0.29-0.06-0.53-0.19-0.71c-0.13-0.19-0.28-0.34-0.47-0.45c-0.19-0.12-0.4-0.2-0.63-0.24
			c-0.24-0.04-0.47-0.07-0.68-0.07c-0.52,0-1.03,0.03-1.52,0.1c-0.45,0.06-0.9,0.13-1.33,0.21c-0.23,1.38-0.46,2.76-0.71,4.11
			c-0.24,1.34-0.57,2.69-0.98,4.02c0.54,0.07,1.19,0.06,1.85-0.04c0.39-0.06,0.77-0.14,1.14-0.25c0.37-0.11,0.72-0.25,1.05-0.41
			c0.33-0.16,0.62-0.35,0.87-0.57c0.24-0.21,0.44-0.45,0.58-0.71c0.14-0.25,0.21-0.54,0.21-0.84c0-0.22-0.03-0.42-0.09-0.6
			c-0.06-0.18-0.14-0.33-0.24-0.45c-0.1-0.13-0.21-0.24-0.32-0.34c-0.12-0.09-0.23-0.17-0.33-0.22c-0.05-0.02-0.08-0.07-0.08-0.12
			c0-0.05,0.04-0.09,0.09-0.11c0.22-0.07,0.43-0.18,0.64-0.33c0.21-0.15,0.4-0.32,0.56-0.52c0.16-0.2,0.3-0.43,0.41-0.68
			C110.84,130.84,110.89,130.57,110.89,130.29z M108.6,134.55c-0.14,0.15-0.33,0.27-0.54,0.36c-0.2,0.09-0.42,0.15-0.64,0.19
			c-0.21,0.04-0.41,0.07-0.59,0.08c-0.01,0-0.01,0-0.02,0c-0.04,0-0.08-0.01-0.1-0.04c-0.03-0.03-0.04-0.07-0.04-0.11
			c0.03-0.2,0.07-0.37,0.1-0.51l0.09-0.42c0.03-0.15,0.06-0.28,0.09-0.42c0.03-0.14,0.06-0.31,0.1-0.5c0.01-0.05,0.05-0.09,0.11-0.1
			c0.05-0.01,0.09-0.02,0.13-0.02h0.11c0.14,0,0.29,0.01,0.46,0.04c0.16,0.03,0.32,0.08,0.46,0.15c0.15,0.07,0.27,0.16,0.36,0.27
			c0.11,0.12,0.16,0.26,0.16,0.43C108.84,134.19,108.76,134.39,108.6,134.55z M109.08,131.32c-0.11,0.09-0.24,0.17-0.41,0.24
			c-0.16,0.07-0.34,0.13-0.54,0.19c-0.2,0.06-0.4,0.1-0.6,0.13c-0.01,0-0.02,0-0.03,0c-0.04,0-0.07-0.01-0.1-0.04
			c-0.03-0.03-0.05-0.07-0.04-0.11c0.02-0.1,0.04-0.21,0.07-0.34c0.03-0.12,0.06-0.25,0.09-0.38c0.03-0.13,0.05-0.25,0.07-0.37
			c0.02-0.12,0.04-0.22,0.06-0.31c0.01-0.06,0.07-0.1,0.14-0.1h0.13c0.11,0,0.24,0.01,0.39,0.03c0.15,0.02,0.29,0.06,0.43,0.11
			c0.15,0.05,0.27,0.12,0.36,0.21c0.11,0.1,0.16,0.23,0.16,0.38C109.26,131.1,109.2,131.22,109.08,131.32z"/>
		<path class="st0" d="M114.79,137.02c0.23-0.02,0.46-0.05,0.68-0.08c0.05-1.17,0.1-2.29,0.14-3.34l0.08-1.41
			c0.03-0.48,0.05-0.94,0.08-1.37c0.03-0.44,0.05-0.84,0.09-1.22c0.03-0.29,0.05-0.55,0.07-0.77c-0.54,0.08-1.1,0.15-1.66,0.2
			c-0.59,0.05-1.17,0.1-1.75,0.13c-0.1,0.33-0.22,0.69-0.35,1.08c-0.14,0.42-0.29,0.86-0.45,1.32l-0.91,2.71
			c-0.33,0.95-0.65,1.91-0.99,2.89l1.37-0.15c0.22-0.02,0.42-0.04,0.6-0.07l0.51-1.61c0.02-0.05,0.07-0.09,0.14-0.09h1.16
			c0.04,0,0.08,0.02,0.11,0.04c0.03,0.03,0.04,0.06,0.04,0.1c-0.02,0.16-0.04,0.34-0.06,0.56c-0.02,0.22-0.05,0.44-0.08,0.66
			l-0.08,0.6l0.53-0.08C114.33,137.09,114.57,137.05,114.79,137.02z M113.97,133.06c-0.02,0.17-0.03,0.33-0.04,0.47
			c-0.01,0.15-0.03,0.28-0.04,0.39c-0.01,0.11-0.02,0.18-0.02,0.23c0,0.06-0.04,0.11-0.11,0.12c-0.04,0.01-0.11,0.02-0.21,0.02
			l-0.58,0.02c-0.1,0-0.16,0.01-0.2,0.01c-0.04,0-0.09-0.02-0.11-0.05c-0.03-0.03-0.04-0.07-0.03-0.11l0.83-2.95l0.31-1.01
			c0.02-0.05,0.07-0.09,0.13-0.09l0.2-0.01c0.04-0.01,0.08,0.01,0.11,0.04c0.03,0.03,0.04,0.06,0.04,0.1l-0.08,1.02
			c-0.05,0.46-0.1,0.89-0.13,1.29L113.97,133.06z"/>
		<path class="st0" d="M122.36,130.23c0-0.2-0.02-0.38-0.08-0.54c-0.05-0.15-0.13-0.29-0.24-0.4c-0.11-0.11-0.27-0.2-0.47-0.26
			c-0.21-0.07-0.48-0.1-0.81-0.1c-0.57,0-1.15,0.03-1.73,0.1c-0.54,0.06-1.05,0.16-1.52,0.28c-0.04,0.31-0.1,0.66-0.17,1.07
			c-0.08,0.42-0.16,0.85-0.24,1.3c-0.09,0.45-0.18,0.91-0.27,1.36c-0.1,0.46-0.19,0.9-0.27,1.32c-0.21,0.93-0.42,1.89-0.65,2.86
			l1.85-0.42c0.06-0.3,0.13-0.6,0.19-0.9l0.03-0.14c0.06-0.31,0.13-0.64,0.21-0.97c0.08-0.34,0.14-0.63,0.19-0.88
			c0.01-0.05,0.05-0.08,0.1-0.1l0.17-0.05c0.04-0.01,0.09-0.01,0.12,0.02c0.04,0.02,0.06,0.06,0.06,0.09
			c0.01,0.08,0.03,0.18,0.06,0.32c0.03,0.13,0.08,0.29,0.13,0.46c0.05,0.17,0.11,0.35,0.17,0.54c0.06,0.19,0.12,0.38,0.19,0.56
			c0.13,0.4,0.27,0.83,0.43,1.28l1.78-0.55c-0.17-0.35-0.33-0.7-0.49-1.05c-0.16-0.33-0.33-0.69-0.51-1.06
			c-0.18-0.37-0.35-0.71-0.51-1.03c-0.03-0.06,0-0.13,0.06-0.16c0.3-0.13,0.58-0.31,0.84-0.53c0.26-0.22,0.5-0.46,0.7-0.72
			c0.2-0.26,0.36-0.54,0.48-0.83C122.3,130.82,122.36,130.53,122.36,130.23z M120.86,131.33c-0.16,0.17-0.36,0.33-0.59,0.49
			c-0.23,0.16-0.47,0.29-0.72,0.41c-0.26,0.12-0.48,0.18-0.67,0.2c0,0-0.01,0-0.01,0c-0.04,0-0.08-0.01-0.11-0.04
			c-0.03-0.03-0.04-0.07-0.03-0.11l0.43-1.87c0.01-0.06,0.07-0.1,0.14-0.1c0.08,0,0.17,0,0.27-0.01c0.26-0.01,0.5-0.01,0.73,0.01
			c0.14,0.01,0.28,0.03,0.4,0.06c0.13,0.03,0.24,0.08,0.32,0.15c0.09,0.08,0.14,0.18,0.14,0.3
			C121.13,130.97,121.04,131.14,120.86,131.33z"/>
	</g>
</g>
<g>
</g>
<g>
</g>
<g>
</g>
<g>
</g>
<g>
</g>
<g>
</g>
</svg>
