<?xml version="1.0" encoding="utf-8"?>

<svg version="1.1" id="图层_1" xmlns="http://www.w3.org/2000/svg" xmlns:xlink="http://www.w3.org/1999/xlink" x="0px" y="0px"
	 viewBox="0 0 100.9 72" style="enable-background:new 0 0 100.9 72;" xml:space="preserve">
<style type="text/css">
	.st0{fill:#262424;}
</style>
<path class="st0" d="M100.8,52.6c-0.4-2-2-3.6-4-4c-2-0.4-4.9-0.1-8.4,2.7C87.5,59,84.5,66,79.9,71.5c3.7-0.8,11-3.1,16.6-8.6
	C100.8,58.5,101.2,54.9,100.8,52.6z"/>
<path class="st0" d="M43.4,21.1c2.2,0,4-1.8,4-4h-8C39.4,19.3,41.2,21.1,43.4,21.1z"/>
<path class="st0" d="M58.7,40.2c-1.6,0-3.2-0.3-4.7-0.7c-1.5-0.5-3-1.2-4.3-2.1c0,0-0.1,0-0.2,0c-1.3,0.9-2.8,1.7-4.3,2.1
	c-1.5,0.5-3.1,0.7-4.7,0.7c0,0,0,0-0.1,0c0,0,0,0.1,0.1,0.1c1,0.3,2.1,0.4,3.1,0.4c0.3,3.1,2.7,6,6,6c3.3,0,5.7-3,6-6
	c1,0,2.1-0.1,3.1-0.4C58.8,40.4,58.8,40.3,58.7,40.2C58.8,40.3,58.8,40.2,58.7,40.2z"/>
<path class="st0" d="M99.3,21.8C99.3,21.8,77,0,49.6,0S0,21.8,0,21.8C0,27.7,5.3,33,14,36.9c-1,4.4-1.6,9-1.6,13.8
	C12.4,62.9,16,69,21.8,72l0,0h0c-0.3-1.9-0.5-3.9-0.5-5.9C21.3,48.9,34,35,49.6,35s28.3,13.9,28.3,31.1c0,2-0.2,4-0.5,5.9
	c0,0,0,0,0,0v0c0,0,0.1,0,0.2,0c4.8-5.3,8.1-12.1,9.2-19.6c0-0.5,0-1.1,0-1.7c0-4.8-0.6-9.4-1.6-13.8C93.9,33,99.3,27.7,99.3,21.8z
	 M12.9,35.1C7.3,32.9,1.8,28.8,0.5,22.7c1.6,4.1,5.2,6.9,9.2,8.5c1.3,0.5,2.7,0.9,4.1,1.2C15.7,33,14.8,35.8,12.9,35.1z M26.9,44.7
	c-3,2.8-7.7,1.1-10.5-1l0.1-0.1c2.6,1,5.6,2,8.3,1c1.8-0.7,2.6-2.9,2-4.7c-0.3-0.9-0.9-1.7-1.6-2.2c-1.5-1.2-3.3-2-5.1-2.5l0-0.1
	c3.1,0.1,6.6,1.3,8,4.5C28.7,41.2,28.2,43.3,26.9,44.7z M29.4,32.2c-1.8,0-3.2-1.4-3.2-3.2s1.4-3.2,3.2-3.2s3.2,1.4,3.2,3.2
	S31.2,32.2,29.4,32.2z M59.3,25.9c0,0.1,0,0.1-0.1,0.1c-0.8-0.2-1.7-0.5-2.5-0.4c-0.1,0-0.2,0-0.2,0c-0.2,0.1-0.3,0.2-0.5,0.4
	c0.5,0.3,0.9,0.7,1.3,1.1c0,0.1,0,0.1-0.1,0.1c-0.8-0.2-1.7-0.5-2.5-0.4c-0.2,0-0.3,0-0.4,0c-1.4,0.6-3,0.9-4.6,0.9
	c-1.7,0-3.3-0.4-4.8-1c-0.2,0-0.5-0.1-0.7-0.1c-0.7,0-1.4,0.2-2.1,0.4C42,27.2,42,27.1,42,27c0.4-0.4,0.8-0.8,1.2-1.1
	c-0.2-0.1-0.4-0.3-0.6-0.4c-0.2,0-0.4-0.1-0.5-0.1c-0.7,0-1.4,0.2-2.1,0.4c-0.1,0-0.1-0.1-0.1-0.1c0.4-0.5,0.9-0.9,1.5-1.2
	c-2.3-2.2-3.8-5.3-3.8-8.8h23.9c0,3.5-1.5,6.6-3.9,8.8C58.3,24.9,58.8,25.4,59.3,25.9z M66.6,29c0-1.8,1.4-3.2,3.2-3.2
	S73,27.3,73,29s-1.4,3.2-3.2,3.2S66.6,30.8,66.6,29z M71.9,43.9c-1-1.1-1.4-2.8-0.9-4.2c0.7-1.9,2.5-3,4.2-3.8
	c0.9-0.4,1.8-0.7,2.7-1l0,0.1c-2.2,1.4-4.9,2.7-5.7,5.1c-0.3,1.2,0.2,2.8,1.4,3.3c2.5,1,5.1,0.3,7.9,0l0.1,0.1
	C78.8,44.8,74.4,46.2,71.9,43.9z M85.7,32.4c1.4-0.3,2.8-0.7,4.1-1.2c4-1.5,7.6-4.4,9.2-8.5c-1.3,6.1-6.9,10.2-12.4,12.4
	C84.6,35.8,83.7,33,85.7,32.4z"/>
</svg>
