<?xml version="1.0" encoding="utf-8"?>
<!-- Generator: Adobe Illustrator 25.4.1, SVG Export Plug-In . SVG Version: 6.00 Build 0)  -->
<svg version="1.1" id="图层_1" xmlns="http://www.w3.org/2000/svg" xmlns:xlink="http://www.w3.org/1999/xlink" x="0px" y="0px"
	 viewBox="0 0 359.87 117.58" style="enable-background:new 0 0 359.87 117.58;" xml:space="preserve">
<style type="text/css">
	.st0{fill:#262424;}
</style>
<g>
	<g>
		<path class="st0" d="M98.5,116.64v-15.9h2.61v15.9H98.5z"/>
		<path class="st0" d="M118.57,116.64h-3.21l-7.79-12.7h-0.1c0.03,0.43,0.06,0.88,0.08,1.36c0.03,0.48,0.05,0.97,0.07,1.48
			c0.02,0.51,0.03,1.02,0.05,1.54v8.31h-2.37v-15.9h3.19l7.78,12.61h0.08c-0.01-0.37-0.03-0.79-0.05-1.27
			c-0.02-0.48-0.04-0.97-0.06-1.48c-0.02-0.51-0.03-1.01-0.04-1.49v-8.37h2.38V116.64z"/>
		<path class="st0" d="M132.6,116.64l-1.56-4.42h-6.08l-1.56,4.42h-2.75l5.92-15.97h2.89l5.91,15.97H132.6z M130.37,109.98
			l-1.51-4.35c-0.06-0.19-0.14-0.46-0.25-0.8s-0.22-0.7-0.33-1.05c-0.11-0.36-0.2-0.66-0.27-0.91c-0.07,0.3-0.16,0.63-0.27,1
			c-0.11,0.37-0.21,0.71-0.3,1.03c-0.1,0.32-0.17,0.57-0.22,0.74l-1.52,4.35H130.37z"/>
		<path class="st0" d="M141.98,107.99l3.77-7.26h2.82l-5.29,9.73v6.18h-2.6v-6.08l-5.3-9.82h2.84L141.98,107.99z"/>
		<path class="st0" d="M160.52,116.64l-1.56-4.42h-6.08l-1.56,4.42h-2.75l5.92-15.97h2.89l5.91,15.97H160.52z M158.29,109.98
			l-1.51-4.35c-0.06-0.19-0.14-0.46-0.25-0.8s-0.22-0.7-0.33-1.05c-0.11-0.36-0.2-0.66-0.27-0.91c-0.07,0.3-0.16,0.63-0.27,1
			c-0.11,0.37-0.21,0.71-0.3,1.03c-0.1,0.32-0.17,0.57-0.22,0.74l-1.52,4.35H158.29z"/>
		<path class="st0" d="M177.96,102.72c-0.76,0-1.44,0.14-2.04,0.41s-1.1,0.67-1.52,1.19s-0.73,1.15-0.95,1.88s-0.33,1.56-0.33,2.49
			c0,1.23,0.17,2.29,0.52,3.18c0.35,0.89,0.88,1.57,1.59,2.05c0.71,0.47,1.61,0.71,2.7,0.71c0.67,0,1.33-0.07,1.97-0.2
			c0.64-0.13,1.3-0.31,1.98-0.53v2.22c-0.65,0.25-1.3,0.44-1.96,0.56c-0.66,0.12-1.42,0.17-2.28,0.17c-1.62,0-2.97-0.34-4.04-1.01
			c-1.07-0.67-1.87-1.62-2.39-2.85c-0.53-1.23-0.79-2.66-0.79-4.31c0-1.2,0.17-2.31,0.5-3.31c0.33-1,0.82-1.87,1.46-2.59
			c0.64-0.73,1.43-1.29,2.37-1.69c0.94-0.39,2.01-0.59,3.23-0.59c0.8,0,1.58,0.09,2.36,0.27c0.77,0.18,1.49,0.43,2.15,0.76
			l-0.91,2.15c-0.55-0.26-1.13-0.49-1.73-0.67C179.23,102.82,178.6,102.72,177.96,102.72z"/>
		<path class="st0" d="M189.77,100.73c1.37,0,2.5,0.17,3.4,0.5c0.9,0.33,1.56,0.84,2,1.52s0.66,1.55,0.66,2.6
			c0,0.78-0.15,1.45-0.44,2s-0.67,1.01-1.14,1.37c-0.47,0.36-0.98,0.65-1.51,0.87l4.51,7.04h-2.95l-3.84-6.38h-2.56v6.38h-2.61
			v-15.9H189.77z M189.6,102.91h-1.69v5.2h1.81c1.21,0,2.09-0.22,2.64-0.67c0.55-0.45,0.82-1.11,0.82-1.99
			c0-0.92-0.29-1.57-0.88-1.96C191.72,103.1,190.81,102.91,189.6,102.91z"/>
		<path class="st0" d="M208.53,116.64h-9.01v-15.9h9.01v2.2h-6.4v4.32h5.99v2.19h-5.99v4.99h6.4V116.64z"/>
		<path class="st0" d="M221.82,116.64l-1.56-4.42h-6.08l-1.56,4.42h-2.75l5.92-15.97h2.89l5.91,15.97H221.82z M219.59,109.98
			l-1.51-4.35c-0.06-0.19-0.14-0.46-0.25-0.8s-0.22-0.7-0.33-1.05c-0.11-0.36-0.2-0.66-0.27-0.91c-0.07,0.3-0.16,0.63-0.27,1
			c-0.1,0.37-0.21,0.71-0.3,1.03c-0.1,0.32-0.17,0.57-0.22,0.74l-1.52,4.35H219.59z"/>
		<path class="st0" d="M232.21,116.64h-2.62v-13.69h-4.66v-2.22h11.92v2.22h-4.64V116.64z"/>
		<path class="st0" d="M239.28,116.64v-15.9h2.61v15.9H239.28z"/>
		<path class="st0" d="M257.87,100.73l-5.56,15.9h-2.76l-5.56-15.9h2.68l3.35,9.96c0.1,0.29,0.21,0.64,0.33,1.05
			c0.12,0.41,0.23,0.83,0.34,1.25c0.11,0.42,0.19,0.79,0.25,1.12c0.06-0.33,0.14-0.7,0.25-1.12c0.1-0.42,0.22-0.84,0.33-1.25
			c0.12-0.41,0.23-0.77,0.33-1.07l3.36-9.95H257.87z"/>
		<path class="st0" d="M268.96,116.64h-9.01v-15.9h9.01v2.2h-6.4v4.32h5.99v2.19h-5.99v4.99h6.4V116.64z"/>
		<path class="st0" d="M287.36,112.31c0,0.94-0.23,1.76-0.69,2.44c-0.46,0.68-1.12,1.2-1.98,1.57s-1.88,0.54-3.07,0.54
			c-0.58,0-1.13-0.03-1.66-0.1c-0.53-0.07-1.03-0.16-1.5-0.29s-0.89-0.28-1.28-0.46v-2.46c0.65,0.28,1.37,0.54,2.17,0.77
			s1.61,0.34,2.44,0.34c0.67,0,1.23-0.09,1.68-0.27s0.78-0.43,1-0.76c0.22-0.33,0.33-0.72,0.33-1.16c0-0.47-0.13-0.87-0.38-1.2
			c-0.25-0.33-0.64-0.62-1.15-0.9c-0.51-0.27-1.15-0.56-1.92-0.88c-0.52-0.21-1.02-0.45-1.5-0.72c-0.48-0.27-0.9-0.58-1.27-0.95
			c-0.37-0.36-0.66-0.79-0.88-1.29s-0.32-1.08-0.32-1.76c0-0.9,0.22-1.67,0.65-2.31c0.43-0.64,1.04-1.13,1.83-1.47
			c0.79-0.34,1.71-0.51,2.76-0.51c0.83,0,1.62,0.09,2.35,0.26c0.74,0.17,1.46,0.42,2.17,0.74l-0.83,2.1
			c-0.65-0.27-1.29-0.48-1.9-0.64c-0.61-0.16-1.24-0.24-1.88-0.24c-0.55,0-1.02,0.08-1.4,0.25c-0.38,0.17-0.68,0.4-0.88,0.7
			c-0.2,0.3-0.3,0.66-0.3,1.07c0,0.46,0.11,0.85,0.34,1.17s0.58,0.6,1.07,0.87c0.48,0.26,1.1,0.55,1.87,0.87
			c0.88,0.36,1.62,0.74,2.24,1.14c0.61,0.4,1.08,0.88,1.41,1.43S287.36,111.47,287.36,112.31z"/>
		<path class="st0" d="M295.94,116.64h-2.62v-13.69h-4.66v-2.22h11.92v2.22h-4.64V116.64z"/>
		<path class="st0" d="M315.5,100.73v10.29c0,1.11-0.23,2.1-0.7,2.98c-0.47,0.88-1.17,1.57-2.12,2.08
			c-0.94,0.51-2.13,0.77-3.56,0.77c-2.04,0-3.59-0.54-4.65-1.6c-1.06-1.07-1.59-2.49-1.59-4.27v-10.25h2.61v10.02
			c0,1.33,0.31,2.31,0.94,2.94c0.62,0.63,1.56,0.95,2.79,0.95c0.86,0,1.55-0.15,2.09-0.45c0.54-0.3,0.94-0.74,1.2-1.33
			s0.39-1.29,0.39-2.12v-10.01H315.5z"/>
		<path class="st0" d="M332.47,108.53c0,1.79-0.33,3.29-1,4.49c-0.67,1.2-1.64,2.1-2.91,2.71c-1.27,0.61-2.8,0.91-4.59,0.91h-4.42
			v-15.9h4.9c1.65,0,3.07,0.3,4.26,0.89c1.2,0.59,2.12,1.46,2.77,2.62C332.15,105.4,332.47,106.83,332.47,108.53z M329.75,108.61
			c0-1.31-0.21-2.38-0.62-3.22c-0.41-0.84-1.01-1.47-1.81-1.88c-0.79-0.41-1.77-0.61-2.93-0.61h-2.23v11.55h1.85
			c1.92,0,3.36-0.49,4.31-1.47C329.28,112,329.75,110.55,329.75,108.61z"/>
		<path class="st0" d="M335.89,116.64v-15.9h2.61v15.9H335.89z"/>
		<path class="st0" d="M356.81,108.66c0,1.23-0.15,2.34-0.46,3.34c-0.31,1-0.77,1.87-1.39,2.59s-1.39,1.28-2.32,1.67
			c-0.93,0.39-2.02,0.59-3.26,0.59c-1.27,0-2.37-0.2-3.3-0.59c-0.93-0.39-1.7-0.95-2.32-1.67c-0.61-0.73-1.07-1.59-1.38-2.6
			c-0.3-1.01-0.46-2.12-0.46-3.35c0-1.64,0.27-3.07,0.81-4.29s1.36-2.17,2.47-2.85c1.11-0.68,2.5-1.02,4.19-1.02
			c1.65,0,3.03,0.34,4.12,1.01c1.09,0.67,1.92,1.62,2.46,2.84C356.53,105.56,356.81,107,356.81,108.66z M344.67,108.66
			c0,1.23,0.17,2.29,0.5,3.18c0.33,0.9,0.85,1.58,1.54,2.07s1.58,0.72,2.67,0.72c1.09,0,1.99-0.24,2.68-0.72
			c0.69-0.48,1.2-1.17,1.52-2.07c0.33-0.9,0.49-1.96,0.49-3.18c0-1.86-0.37-3.32-1.12-4.38c-0.74-1.05-1.93-1.58-3.55-1.58
			c-1.09,0-1.98,0.24-2.68,0.72c-0.7,0.48-1.22,1.16-1.55,2.05C344.83,106.36,344.67,107.42,344.67,108.66z"/>
	</g>
	<g>
		<g>
			<path class="st0" d="M83.42,38.31c-5.36,0.39-10.53,1.4-15.88,0.95c-3.52-0.23-7.09-0.74-10.6-1.29
				c-1.18-0.19-2.48-0.38-3.67-0.45c-1.45-0.08-2.89-0.06-4.32,0.06l0.73-1.32c2.78-5.02,6.6-9.46,11.32-12.74
				c4.06-2.86,8.78-4.95,13.68-5.89c-1.43,2.76-2.71,5.58-3.81,8.5c-0.99,2.77-1.98,5.66-1.94,8.66c0.04,1.02,0.25,2.11,0.97,2.89
				c0.08,0.08,0.21,0.1,0.3,0.03c0.1-0.08,0.12-0.22,0.04-0.33c-1.04-1.55-0.45-3.65-0.03-5.34c1.94-6.16,5.42-11.8,8.89-17.21
				c-7.06-0.09-14.01,2.14-19.95,5.91c-4.55,2.88-8.41,6.77-11.47,11.19c-1.57-2.97-1.04-7.95-0.33-10.81
				c1.12-4.7,3.49-9.12,6.74-12.69L61.73,0L51.31,4.65C39.66,9.85,28.57,16.71,19.5,25.77C5.71,39.23-2.91,59.17,0.9,78.53
				c3.65,19.14,18.38,35.51,37.93,38.7l1.82,0.36l-1.18-1.51c-1.32-1.52-2.44-3.22-3.25-5.06c-4.34-9.58,0.71-20.66,8.33-27.01
				c1.55-1.32,3.22-2.48,4.98-3.48c1.52-0.87,3.94-1.95,5.54-2.73c7.54-3.73,15.34-7.23,21.4-13.33c4.75-4.79,6.73-11.26,7.06-17.87
				C83.7,43.83,83.74,41.03,83.42,38.31z M74.86,62.92c-2.73,2.98-6.16,5.29-9.63,7.38c-5.28,3.22-11.1,5.76-16.54,8.75
				c-9.04,5.38-16.28,15.38-15.33,26.28c0.32,3.67,1.74,7.2,3.89,10.18C19.65,111.91,6.68,95.34,4.07,77.97
				C3.16,72,3.43,65.86,4.69,59.96c3.83-18.07,17.2-32.48,32.42-42.16c2.69-1.72,5.46-3.33,8.28-4.85
				c-2.34,4.86-3.48,10.28-2.92,15.71c0.39,3.1,1.52,6.62,4.45,8.34l1.16,0.67c-7.97,0.9-15.51,4.8-21.58,9.96
				c-0.09,0.08-0.1,0.22-0.03,0.31c0.08,0.1,0.23,0.11,0.33,0.03c1.86-1.47,3.89-2.75,5.98-3.89c6.92-3.74,15.07-5.87,22.86-4.14
				c3.85,0.84,7.68,1.65,11.62,2.15c4.21,0.62,8.63,0.33,12.88,0.14C80.96,49.6,80.19,57.35,74.86,62.92z"/>
		</g>
		<g>
			<path class="st0" d="M43.57,57.32c3.09-4.07,6.96-6.1,13.82-5.75c4.7,0.25,7.88-0.77,7.88-0.77s-1.81,4.22-6.85,5.08
				C53.21,56.77,47.88,54.06,43.57,57.32z"/>
		</g>
		<g>
			<path class="st0" d="M83.08,67.19c0,0-0.35,14.53-22.21,21.48c-20.11,6.4-17.31,27.86,0.79,27.86
				C84.91,116.53,91.06,96.71,83.08,67.19z"/>
		</g>
	</g>
	<g>
		<path class="st0" d="M119.03,60.67c-0.15,0.1-0.28,0.18-0.38,0.23l-0.15,0.23c-0.05,0.15-0.05,0.31,0,0.46
			c0.15,0-0.31,0.15-1.38,0.46l-0.54-0.15l-0.61,0.38l0.31,0.99c-0.15,0.61-0.46,1.12-0.92,1.53c-0.2,1.12-0.61,2.37-1.22,3.75
			l0.77,0.46v0.69c0.05,1.63-0.28,4.03-0.99,7.19c-0.71,3.16-1.07,5.51-1.07,7.04l0.23,1.15c-0.05,0.36-0.15,0.69-0.31,0.99
			l0.23,0.08l0.08,0.23c-0.2,0.2-0.51,1.38-0.92,3.52c0.05,0,0.09,0.05,0.11,0.15c0.03,0.1,0.09,0.23,0.19,0.38l-0.08,0.54
			l-0.31,0.15c-0.2,0-0.36,0.03-0.46,0.08l-0.15,0.08l-0.08,0.15c0,0.41-0.03,0.66-0.08,0.76l-0.31,0.08l-0.23-0.23
			c-0.26,0.31-0.49,0.48-0.69,0.54c-0.2-0.31-0.4-0.85-0.57-1.65c-0.18-0.79-0.47-1.39-0.88-1.8l0.23-0.38
			c-0.15-0.15-0.23-0.28-0.23-0.38l0.08-0.15l0.23-0.08c-0.26-0.36-0.38-0.77-0.38-1.22c0-0.41,0.1-0.82,0.31-1.22h0.84
			c0.25-4.18,0.38-7.93,0.38-11.25c0-2.3-0.05-5.02-0.15-8.19c-0.36-0.25-0.69-0.41-0.99-0.46c-0.26-0.05-0.59-0.05-0.99,0
			c-0.56,0.05-0.94,0.08-1.15,0.08l-0.31-0.08c-0.15-0.1-0.31-0.18-0.46-0.23l-0.08,0.31l-0.31-0.15l-0.69,0.31h-0.23l-0.38,0.54
			l-1.38,0.61c0.1,0.2,0.13,0.43,0.08,0.69l-0.38-0.31c-1.43,0.82-2.37,2.14-2.83,3.98l-0.77,0.54l-0.46-0.31l-0.54,0.23l-1.07-0.46
			l-0.23,0.08c-0.15,0.1-0.28,0.23-0.38,0.38l-0.31,0.08l-0.08,0.15l0.08,0.46l-0.23-0.08c-0.1-0.15-0.2-0.28-0.31-0.38l-0.15,0.23
			c-0.1-0.25-0.15-0.51-0.15-0.77c0-0.2,0.04-0.55,0.11-1.03c0.08-0.48,0.11-0.83,0.11-1.03L95.07,70c-0.2-0.15-0.46-0.38-0.77-0.69
			v-0.23c0.1-0.2,0.2-0.36,0.31-0.46c0.1-0.1,0.15-0.33,0.15-0.69L95,67.78l-0.77-0.69v-0.54c0-0.2,0.02-0.52,0.08-0.96
			c0.05-0.43,0.08-0.78,0.08-1.03c0.05,0.1,0.13,0.18,0.23,0.23h0.08l0.38-1l0.61,0.15l1.45-1.53V62.2c-0.1-0.1-0.2-0.18-0.31-0.23
			l-0.08-0.08c0.05-0.15,0.18-0.31,0.38-0.46c0.2-0.15,0.74-0.2,1.61-0.15c0.15-0.36,1.02-1.07,2.6-2.14v-0.61l0.77-0.08
			c0.25-0.41,0.51-0.82,0.77-1.22c0.15-0.25,0.59-0.54,1.3-0.84c0.82-0.71,1.53-1.27,2.14-1.68c0.15-0.1,0.46-0.43,0.92-1
			c0.31-0.31,0.74-0.51,1.3-0.61c-0.26-2.24-0.77-5.59-1.53-10.02l-0.23-0.23l-0.23,0.08l-0.08,0.15v0.23l-0.15,0.08
			c0.1,0.1,0.25,0.15,0.46,0.15l0.08,0.23h-0.23l-0.15,0.08l-0.08,0.23v0.31l-0.61-0.15l-0.38,0.23l-0.23,0.23
			c-0.05,0.36-0.1,0.66-0.15,0.92c-0.31,0.71-0.87,1.73-1.68,3.06l0.38,0.69l-0.69-0.38c-0.31,0.15-0.41,0.56-0.31,1.22l-0.61-0.54
			h-0.23c-0.15,0.15-0.31,0.26-0.46,0.31l-0.23,0.08l-0.15-0.23l-0.08-0.23c0.05,0-0.18,0.15-0.69,0.46
			c-0.15-0.1-0.26-0.25-0.31-0.46c0,0.05,0-0.28,0-1c-0.05-0.1-0.08-0.18-0.08-0.23c-0.92-0.61-1.38-1.99-1.38-4.13
			c0-1.07,0.48-2.14,1.45-3.21c0.92-0.87,1.84-1.71,2.75-2.53c0.51-0.66,1.43-1.58,2.75-2.75c-0.2-0.56-0.49-1.35-0.84-2.37
			c-0.15-0.41-0.8-1.19-1.95-2.33c-1.15-1.15-2-1.93-2.56-2.33c-0.1-1.17-0.33-2.88-0.69-5.13c0.36-0.2,1-0.43,1.91-0.69
			c1.33,0.66,2.5,1.1,3.52,1.3c0.51,0.46,1.15,1.12,1.91,1.99c0.31,0.66,0.77,1.63,1.38,2.91c-0.05,0.61,0.25,1.58,0.92,2.91
			c1.63-2.04,2.73-3.14,3.29-3.29l0.77,0.61c0.71,0.05,1.79,0.43,3.21,1.15c-0.1,0.2-0.15,0.36-0.15,0.46
			c0,0.15,0.05,0.33,0.15,0.54h0.23l0.31,0.23c0.31,0.36,0.79,0.92,1.45,1.68c0.05,0.41,0.18,0.97,0.38,1.68l-0.23,0.69
			c-0.31,0.15-0.82,0.26-1.53,0.31c-0.71,0.05-1.17,0.18-1.38,0.38c-0.36-0.41-0.69-0.59-0.99-0.54l-0.46,0.08l-0.23-0.08
			c-0.1,0.1-0.2,0.23-0.31,0.38l-0.15,0.15h-0.23c-0.05,0-0.05,0.23,0,0.69c-0.36,0.1-0.65,0.37-0.88,0.8
			c-0.23,0.43-0.52,0.68-0.88,0.73v0.31c-0.2,0.15-0.38,0.26-0.54,0.31c-0.15,0-0.28-0.03-0.38-0.08l-0.15,0.15
			c0.05,1.28,0.87,6.02,2.45,14.23c0.15-0.25,0.54-0.66,1.15-1.22h0.31l0.38,0.08c0.82-0.2,1.71,0.56,2.68,2.3
			c0.56,1.28,1.12,2.53,1.68,3.75c-0.05,0.26-0.2,0.49-0.46,0.69C118.72,59.49,118.87,60,119.03,60.67z M96.45,62.2v0.08
			c-0.1,0.1-0.15,0.23-0.15,0.38c-0.05-0.05-0.08-0.13-0.08-0.23v-0.08l0.15-0.15H96.45z M97.67,61.89
			c-0.1-0.05-0.18-0.13-0.23-0.23h-0.15h-0.15v0.23l0.08,0.08C97.42,61.92,97.57,61.89,97.67,61.89z M131.04,55.08
			c0,0.87-0.31,2.02-0.92,3.44l-0.38,0.38l-0.46,0.15c-0.26,0.36-0.61,0.89-1.07,1.61c-0.1,0.36-0.23,0.94-0.38,1.76
			c-0.66,0.72-0.89,1.71-0.69,2.98c-1.12,1.28-1.68,4.87-1.68,10.79c0,0.51,0.03,1.02,0.08,1.53h0.08c0.1-0.05,0.23-0.1,0.38-0.15
			l0.15,0.15c-0.26,1.28-0.38,3.04-0.38,5.28c0,0.41-0.23,1.01-0.69,1.8c-0.46,0.79-0.72,1.31-0.77,1.57l-0.61-0.15l-0.38,0.38
			l-0.23-0.23c-0.1-0.1-0.15-0.23-0.15-0.38h-0.08c-0.51,0.1-0.94,0.15-1.3,0.15c-1.12-1.33-1.76-2.25-1.91-2.75
			c-0.05-0.25-0.08-1.35-0.08-3.29c0-0.25-0.03-0.65-0.08-1.19c-0.05-0.54-0.08-0.96-0.08-1.26c0-1.12,0.25-4.11,0.77-8.95
			c0.05-1.73,0.28-4.29,0.69-7.65l1.15-6.58c0-1.33,0.15-3.32,0.46-5.97c0.31-1.38,1.15-2.24,2.53-2.6l1.61,0.23
			c1.38,1.17,2.45,2.83,3.21,4.97c0.05,0.41,0.18,0.99,0.38,1.76C130.76,53.88,131.04,54.62,131.04,55.08z M148.87,33.35v0.54
			c-0.56,0.56-1.53,1.25-2.91,2.07l-0.92-0.15l-0.61,0.61c-0.66-0.25-1.22-0.38-1.68-0.38c0.2,0-0.2,0.12-1.22,0.34
			c-1.02,0.23-2.68,0.83-4.97,1.8c-0.36,0.1-0.99,0.2-1.91,0.31c-0.1,0.05-0.66,0.43-1.68,1.15c-1.02,0.72-1.56,1.1-1.61,1.15
			c-0.15,0.36-0.43,0.82-0.84,1.38c-0.31,0.15-0.71,0.43-1.22,0.84l-0.77-0.54l-0.69,0.15l-1.68-0.54c-0.36-0.51-0.54-1.1-0.54-1.76
			c0-2.09,0.28-3.62,0.84-4.59c0.41-0.66,1.12-1.38,2.14-2.14c0.87-0.61,1.73-1.22,2.6-1.84c1.02-0.92,2.58-2.24,4.67-3.98
			c0.82-0.41,1.99-1.07,3.52-1.99c1.63-1.12,2.78-1.68,3.44-1.68c0.71,0,1.3,0.28,1.76,0.84c0.56,0.77,0.92,1.17,1.07,1.22
			C147.85,28.91,148.92,31.31,148.87,33.35z M147.57,75.59c0,0.82-0.23,1.53-0.69,2.14c-0.15,0-0.37,0.05-0.65,0.15
			c-0.28,0.1-0.5,0.15-0.65,0.15c-0.71,0-1.35-0.33-1.91-0.99c-0.72-0.87-1.22-1.38-1.53-1.53l-0.31,0.23
			c-0.2,0.41-0.41,0.84-0.61,1.3c-0.41,0.46-1.2,0.97-2.37,1.53c-1.17,0.56-1.94,1.05-2.3,1.45c-0.15,0.2-0.69,1.28-1.61,3.21
			l-1.61-0.31l-0.92,0.23c-0.26-0.25-0.69-0.71-1.3-1.38c-0.77-0.77-1.3-1.35-1.61-1.76c-0.46-0.66-0.74-1.43-0.84-2.3
			c0.05-0.15,0.1-0.31,0.15-0.46c-0.05-0.15-0.1-0.33-0.15-0.54c0.1-0.82,0.28-1.81,0.54-2.98c0.25-0.2,0.61-0.54,1.07-1V72.6V72.3
			l-0.23-0.15c0-1.53,0.87-2.22,2.6-2.07c0.2-1.79,0.54-4.44,0.99-7.96c0.71-5.76,1.12-8.88,1.22-9.34c0.97-4.59,2.4-6.94,4.29-7.04
			l1.22,0.77c0.1,0.46,0.2,1.15,0.31,2.07c-1.02,0.92-1.74,2.35-2.14,4.29c-0.1,1.22-0.28,3.06-0.54,5.51
			c-0.05,0.46-0.31,2.22-0.77,5.28c-0.36,2.19-0.54,3.98-0.54,5.36c0,0.36,0.1,1.05,0.31,2.07c0.15,0.1,0.51,0.28,1.07,0.54
			l0.31-0.08c0.1,0.36,0.54,0.54,1.3,0.54c0.46-0.46,0.92-1.26,1.38-2.41c0.46-1.15,0.97-1.93,1.53-2.33
			c0.2-0.05,0.38-0.08,0.54-0.08c1.27,0,2.37,1.1,3.29,3.29C147.19,72.37,147.57,74.06,147.57,75.59z M169.07,77.35l-1.45,1
			l-0.08,0.08h0.3l-0.08,0.23c-0.36,0.1-0.89,0.33-1.61,0.69c-0.3,0.31-0.76,0.72-1.38,1.22c-0.2,0.1-0.68,0.21-1.42,0.31
			c-0.74,0.1-1.26,0.43-1.57,0.99c-0.1-0.05-0.23-0.08-0.38-0.08l-1.84,0.23c-0.56,0-1.63-0.36-3.21-1.07
			c-1.94-0.87-3.9-2.64-5.89-5.32s-2.98-5.01-2.98-7l0.31-0.31l-0.46-0.76v0.61c-0.2-0.36-0.36-0.74-0.46-1.15
			c0.05-0.1,0.15-0.18,0.31-0.23c-0.41-0.41-0.66-0.91-0.77-1.49c-0.1-0.59-0.2-1.19-0.31-1.8c-0.41-1.53-0.87-3.9-1.38-7.12
			c-0.05-0.82-0.13-2.07-0.23-3.75c-0.15-1.33-0.23-2.19-0.23-2.6c0-1.17-0.05-1.89-0.15-2.14c-0.1-0.25-0.15-0.46-0.15-0.61
			c0-0.25,0.25-1,0.77-2.22c0.2,0,0.48-0.08,0.84-0.23c0.36-0.15,0.66-0.23,0.92-0.23c0.36,0,0.99,0.26,1.91,0.77
			c1.12,0.61,1.76,1.48,1.91,2.6c0.31,1.74,0.51,2.71,0.61,2.91c-0.26,0.87-0.59,1.91-1,3.14l0.23,2.37l-0.15,0.38
			c1.12,5.66,1.81,8.93,2.07,9.79c0.97,3.06,2.65,5.94,5.05,8.65c1.73,2.04,3.49,3.27,5.28,3.67
			C163.9,78.42,166.11,77.91,169.07,77.35z"/>
		<path class="st0" d="M227.8,86.07c-0.41,0.87-1.74,1.58-3.98,2.14c-1.58,0.36-3.19,0.69-4.82,1c-0.76-0.36-1.84-0.54-3.21-0.54
			c-4.03,0-6.21,0.06-6.54,0.19c-0.33,0.13-0.85,0.55-1.57,1.26c-0.36-0.56-1.2-0.84-2.53-0.84c-0.77,0-1.28-0.18-1.53-0.54
			c-2.96,0.2-5.74,0.61-8.34,1.22l-0.54-0.08c-0.41,0-1.02,0.13-1.84,0.38c-0.82,0.25-1.45,0.38-1.91,0.38
			c-0.36,0.41-0.96,0.61-1.8,0.61s-1.39,0.13-1.65,0.38c-0.51-0.21-1.22-0.46-2.14-0.77c-1.02-1.12-2.09-2.45-3.21-3.98
			c0.05-0.31,0.15-0.54,0.31-0.69c-0.15-0.1-0.41-0.46-0.76-1.07l0.08-0.23h0.31c0.25,0.05,0.61-0.13,1.07-0.54
			c0.46-0.41,0.82-0.61,1.07-0.61c0.2,0,0.83,0.12,1.88,0.34c1.04,0.23,1.64,0.4,1.8,0.5l0.69-0.15l0.08,0.15
			c0.15,0,0.56,0.1,1.22,0.31c0.25,0,0.6,0.04,1.03,0.11c0.43,0.08,0.78,0.12,1.03,0.12c0.82,0,2.44-0.12,4.86-0.34
			c2.42-0.23,3.84-0.42,4.25-0.57c-0.1-0.15-0.2-0.77-0.31-1.84l-0.31-0.23c-0.31-0.05-0.59-0.08-0.84-0.08
			c-0.66,0-1.22,0.15-1.68,0.46l-0.46-0.23l-0.46,0.38c-0.41,0-0.76-0.05-1.07-0.15c-0.71,0.2-1.22,0.18-1.53-0.08
			c-0.61-0.41-1.17-1.5-1.68-3.29c-0.46-1.58-0.69-2.83-0.69-3.75c0-0.66,0.1-1.07,0.31-1.22c0.05-0.1,0.08-0.2,0.08-0.31l0.08-0.15
			c0.15,0.05,0.43,0.13,0.84,0.23l0.38-0.23l0.76,0.15l0.15-0.15c0.1-0.05,0.31-0.08,0.61-0.08l0.77,0.61l0.31,0.15h0.23l0.23,0.08
			c0,0.05,0.33,0.31,1,0.76l0.08,0.15c0,0.2,0.1,0.36,0.31,0.46c0.2,0.1,0.64,0.2,1.3,0.31c0.2-0.05,0.54-0.15,1-0.31
			c-0.1-0.25-0.23-0.66-0.38-1.22l0.23-0.23c-0.41-0.61-0.74-1.58-1-2.91l0.08-0.31l0.23-0.15l0.38-0.08
			c-1.68-0.36-2.91-2.3-3.67-5.82l0.23-0.38l-0.23-1.07c-0.2-0.87,0.23-1.61,1.3-2.22l-0.46-0.46c-0.36,0.1-1.21,0.38-2.56,0.84
			c-1.35,0.46-2.18,0.79-2.49,1c-0.31-0.15-0.77-0.36-1.38-0.61l-0.38,0.15l-3.67-3.6c-0.87,0.97-1.79,2.48-2.75,4.52
			c-1.38,2.81-2.17,4.39-2.37,4.74c-2.75,4.59-6.89,11.45-12.4,20.59c-0.15-0.05-0.28-0.08-0.38-0.08l-0.31,0.08l-1.3,0.76
			c-0.97-1.63-1.4-2.88-1.3-3.75c-0.05-0.15-0.08-0.31-0.08-0.46c0-0.25,0.04-0.52,0.12-0.8c0.08-0.28,0.14-0.34,0.19-0.19
			c1.43-1.38,3.09-3.49,4.97-6.35c2.04-3.16,3.62-5.33,4.75-6.5L175.61,71c0.1,0,0.2-0.03,0.31-0.08l0.08-0.08l-0.08-0.15
			c0.1-0.25,0.56-0.94,1.38-2.07c0.66-1.02,1-1.68,1-1.99c0.2-0.05,0.43-0.13,0.69-0.23c0-0.41,0.05-0.79,0.15-1.15
			c1.73-3.47,2.7-5.36,2.91-5.66c0.2-0.31,0.48-0.56,0.84-0.77c0.77-1.89,3.26-6.63,7.5-14.23c-0.21-0.46-0.31-0.84-0.31-1.15
			c0-0.15,0.03-0.31,0.08-0.46c0.76-0.82,2.19-1.22,4.29-1.22l0.31,0.15c0.87,0.05,1.48,0.21,1.84,0.46
			c0.05,0.15,0.28,0.77,0.69,1.84c0.25,0.66,0.36,1.3,0.31,1.91l0.38,0.15c2.35-0.77,4.59-1.15,6.73-1.15c0.25,0,0.68-0.1,1.26-0.31
			c0.59-0.2,1.03-0.31,1.34-0.31c0.2,0.1,0.38,0.23,0.54,0.38c1.63-0.1,2.37-0.15,2.22-0.15c0.15,0,0.48,0.09,1,0.27
			c0.51,0.18,0.84,0.27,0.99,0.27c0.71-2.14,1.07-4.26,1.07-6.35c0-2.5-1.28-3.67-3.83-3.52c-0.46-0.2-0.87-0.28-1.22-0.23
			c-0.51,0.05-0.87,0.08-1.07,0.08c-0.36-0.15-0.71-0.23-1.07-0.23c-2.25,0-3.85,0.61-4.82,1.84l-0.92-0.23
			c-0.26,0.77-1.4,1.58-3.44,2.45h-0.23c-0.51,0.2-1.07,0.59-1.68,1.15h-0.08l-0.15-0.38l-0.84,1.38c-0.31-0.1-0.79-0.23-1.45-0.38
			l-1.22,0.23l-0.38-0.46l-0.46,0.46l-0.15-0.23h-0.23l-0.15,0.08l0.15,0.31c-0.56-0.25-0.99-0.31-1.3-0.15
			c-0.71-0.41-1.63-1.02-2.75-1.84l-0.69,0.38c-0.26-0.25-0.41-0.59-0.46-0.99l-0.23-0.23l-0.46,0.08l-0.38-0.69l-0.69,0.46
			c-0.92-0.1-1.28-0.15-1.07-0.15l-0.23-0.15c-0.2-0.15-0.4-0.34-0.57-0.57s-0.37-0.55-0.57-0.96c-0.21-0.2-0.46-0.31-0.77-0.31
			l-0.23,0.23c-0.2-0.2-0.49-0.51-0.84-0.92l0.15-0.15c-0.36-0.1-0.66-0.23-0.92-0.38l-0.15-0.23c0-0.1,0.08-0.18,0.23-0.23
			c-0.77-0.61-1.38-1.17-1.84-1.68c0.05-0.41-0.26-0.97-0.92-1.68l0.08-0.23c0.1,0,0.2-0.08,0.31-0.23v-0.15l-0.15-0.31
			c-0.21-0.1-0.46-0.23-0.77-0.38c-0.05-0.15-0.05-0.31,0-0.46l0.38-0.61v-0.23l-0.15-0.15l0.15-0.31l-0.08-0.08
			c0.36-0.25,0.65-0.64,0.88-1.15s0.42-0.82,0.57-0.92l0.54,0.08c1.07-0.66,1.81-1.38,2.22-2.14c0.2,0.1,0.48,0.28,0.84,0.54
			l0.38,0.15c0.31,0,0.82-0.25,1.53-0.77l0.23,0.46c0.15-0.05,0.51-0.08,1.07-0.08l0.38-0.15l0.08,0.31l0.38,0.46l0.08,0.46
			c0.2-0.1,0.43-0.33,0.69-0.69l0.23-0.08c0.15,0.05,0.46,0.21,0.92,0.46c0.15,0,0.41,0.1,0.76,0.31l0.23-0.31h0.54h0.38
			c0.61,0,1.33,0.28,2.14,0.84c0.31-0.31,0.59-0.46,0.84-0.46c0.87,0,1.27,0.03,1.22,0.08c0.1,0.46,0.41,0.76,0.92,0.92l0.38-0.15
			c0.61,0.21,1.2,0.26,1.76,0.15h0.15c0.1,0.15,0.25,0.26,0.46,0.31l0.23,0.08l0.38,0.61l1.61,0.08c0.82,0.56,2.01,0.94,3.6,1.15
			c1.99,0.26,3.24,0.46,3.75,0.61l0.38-0.08c1.43,0.26,2.83,0.51,4.21,0.77c2.09,0.41,3.44,0.84,4.06,1.3l0.31-0.15l0.15-0.15
			c0.15-0.05,0.33-0.08,0.54-0.08c0.51,0,1.04,0.13,1.61,0.38h0.54c0.25,0.05,0.64,0.18,1.15,0.38c2.04,0.92,3.8,2.5,5.28,4.74v0.23
			c0,0.1-0.05,0.38-0.15,0.84c-0.1,0.46-0.15,0.86-0.15,1.19c0,0.33-0.23,0.8-0.69,1.42c-0.36,1.58-0.54,2.25-0.54,1.99
			c0,0.31,0.08,0.59,0.23,0.84c-0.46,0.46-1.22,1.99-2.29,4.59c-0.46,0.05-1.02,0.29-1.68,0.73c-0.66,0.43-1.15,0.7-1.45,0.8
			c-0.82,0.05-1.99,0.26-3.52,0.61c-0.61,1.17-1.76,1.76-3.44,1.76c-0.1,0-2.27-0.15-6.5-0.46c-1.12-0.1-2.3,0.05-3.52,0.46
			c-1.02,0.36-2.07,0.71-3.14,1.07c-0.41,0.15-0.99,0.46-1.76,0.92c-0.41-0.15-1.02-0.41-1.84-0.77c0-0.51-0.08-0.84-0.23-1
			c-0.2-0.05-0.41-0.05-0.61,0h-0.15c-0.87,0.51-2.17,2.04-3.9,4.59c0.2-0.05,0.48-0.08,0.84-0.08c0.41,0,0.97,0.11,1.68,0.34
			c0.71,0.23,1.27,0.34,1.68,0.34c0.66,0,1.63-0.17,2.91-0.5c1.27-0.33,2.17-0.55,2.68-0.65c0.15,0,2.47-0.33,6.96-0.99
			c2.8-0.41,5.13-0.61,6.96-0.61c0.15-0.1,0.28-0.15,0.38-0.15c0.15,0,0.41,0.05,0.77,0.15c0.36,0.1,0.64,0.15,0.84,0.15
			c0.31,0,0.59-0.08,0.84-0.23l0.38,0.15l0.61,0.08c0.15,0,0.38-0.05,0.69-0.15c0.46,0.31,1.35,0.59,2.68,0.84
			c1.12,0.26,1.94,0.66,2.45,1.22v0.92l-0.46,0.31l-0.38,1c-2.3,0.77-3.57,1.15-3.83,1.15c-0.66,0-1.65-0.1-2.95-0.31
			c-1.3-0.2-2.28-0.31-2.95-0.31c-3.32,0-5.2,0.36-5.66,1.07l0.46,1.38c-0.82,0.26-1.4,0.74-1.76,1.45
			c-0.36,0.71-0.71,1.43-1.07,2.14c0.56,0.46,1.39,0.71,2.49,0.77c1.1,0.05,1.85,0.15,2.26,0.31c0.2-0.05,0.38-0.15,0.54-0.31
			c-0.05-0.2-0.08-0.41-0.08-0.61c0-1.79,1.84-3.19,5.51-4.21c0.41,0.31,0.66,0.82,0.76,1.53c0.1,1.02,0.18,1.61,0.23,1.76
			c0.15,0.31,1.12,1.15,2.91,2.53c-0.05,0.82-0.36,1.68-0.92,2.6c-0.51,0.36-1.28,0.76-2.3,1.22c-0.97,0.05-2.37,0.2-4.21,0.46
			L209.89,71c0.05,0.1,0.13,0.23,0.23,0.38c0,0.92,0.25,1.53,0.77,1.84l-1,1.45l0.31,0.31c-0.1,0,0.43,0,1.61,0
			c0.36,0,1.02,0.23,1.99,0.69c0.61,0.15,1.26,0.31,1.95,0.46s1.08,0.64,1.19,1.45c-0.1,0.05-0.23,0.1-0.38,0.15
			c-0.26,0.46-0.36,0.94-0.31,1.45c-1.28,0.36-3.16,0.94-5.66,1.76l-0.84,1.3l0.08,0.38c-0.21,0.46-0.31,0.77-0.31,0.92
			c0,0.82,1.02,1.22,3.06,1.22l0.31,0.23c0.31,0.1,0.61,0.1,0.92,0c0.36-0.05,0.92,0.05,1.68,0.31l0.38-0.23
			c0.56-0.05,1.56-0.23,2.98-0.54c1.22-0.31,2.37-0.46,3.44-0.46h0.54c0.36,0.15,1.12,0.26,2.3,0.31c0.97,0.05,1.73,0.31,2.3,0.77
			l-0.31,0.54L227.8,86.07z"/>
		<path class="st0" d="M296.47,74.21c-0.46,0.1-0.91,0.23-1.34,0.38s-0.7,0.46-0.8,0.92c-0.1,0-0.26,0-0.46,0
			c-0.2-0.05-0.43-0.13-0.69-0.23l-0.31,0.08c-0.31,0.36-1.84,0.54-4.59,0.54c-1.12,0-1.76,0.15-1.91,0.46l-0.69-0.54
			c-0.46,0.1-1.17,0.23-2.14,0.38c-0.36-0.05-0.87-0.18-1.53-0.38c-0.15,0.15-0.36,0.31-0.61,0.46c-0.2,0-0.46-0.08-0.76-0.23
			c-0.36,0.15-0.84,0.38-1.45,0.69l-0.38-0.08c-0.2-0.15-0.54-0.38-1-0.69l-0.23,0.31l-0.08-0.31h-0.15l-0.08,0.15v0.23l-0.84-0.15
			c-0.61,0-1.38,0.31-2.3,0.92l-0.08-0.15h-0.15l-0.15,0.15v0.23l-0.08-0.31l-0.15-0.08h-0.15l-0.15,0.31
			c-0.15-0.15-0.28-0.28-0.38-0.38c-0.56,0.1-1.3,0.38-2.22,0.84c0-0.15-0.03-0.36-0.08-0.61h-0.08c-0.82,0.61-2.48,1.1-4.97,1.45
			c-2.65,0.36-4.31,0.76-4.97,1.22c-2.86,1.84-4.34,2.81-4.44,2.91c-0.76,0.77-1.53,1.53-2.29,2.3c-0.92,0.77-1.84,1.35-2.75,1.76
			c-0.51,0.61-1,0.92-1.45,0.92c-0.51,0-1.1-0.18-1.76-0.54l-0.61,0.15l-1.38-0.84c-0.46,0.2-0.82,0.31-1.07,0.31
			c-0.15,0-0.46-0.13-0.92-0.38h-0.23c-0.05,0.1-0.1,0.2-0.15,0.31h-0.15c-1.63-1.07-3.14-1.81-4.51-2.22l-0.46,0.46
			c-0.41-0.51-1.2-0.84-2.37-1c-0.66-0.1-1.5-0.46-2.53-1.07c-1.38-0.77-2.22-1.22-2.53-1.38c-0.66-0.56-1.3-1.1-1.91-1.61
			c-0.41-0.36-0.82-1.17-1.22-2.45c0.15-2.45,1.79-4,4.9-4.67c0.31,0.21,0.79,0.33,1.45,0.38c0.66,0.05,1.15,0.15,1.45,0.31
			c0.05-0.05,0.15-0.13,0.31-0.23l0.08,0.23l0.69-0.31l1.07,0.38c2.09-0.61,4.08-0.71,5.97-0.31c1.63-0.51,3.47-0.76,5.51-0.76
			l1.15,0.23l0.69-0.23l0.84,0.23c0.1-0.25,0.23-0.54,0.38-0.84l0.15,0.15c0.41,0.05,0.94,0.2,1.61,0.46
			c0.05-0.2,0.08-0.46,0.08-0.77l1.15,0.38l1.91-0.61l0.46,0.38v-0.23h0.15l0.15,0.08h0.23c0.05-0.05,0.1-0.13,0.15-0.23l0.15-0.08
			c0.1,0.05,0.54,0.18,1.3,0.38l-0.08-0.23c0-0.05,0.08-0.08,0.23-0.08l0.23,0.08l0.61-0.38c0.1,0.2,0.23,0.31,0.38,0.31l0.23-0.08
			c0.15,0,0.38,0,0.69,0c0.1-2.19,0.15-6.76,0.15-13.7c0-0.46-0.11-1.12-0.34-1.99c-0.23-0.87-0.37-1.48-0.42-1.84
			c-0.51-0.71-0.89-1.07-1.15-1.07c-0.05,0-0.1,0.03-0.15,0.08c-0.41-0.31-1.96-0.94-4.67-1.91c-2.71-0.97-4.34-1.45-4.9-1.45
			l-0.61-0.92h-0.46c-0.66-0.46-1.43-0.94-2.3-1.45c-0.1-0.1-0.15-0.31-0.15-0.61c-0.21-0.1-0.49-0.33-0.84-0.69
			c-0.36-0.05-0.72-0.08-1.07-0.08c-0.26-0.31-0.79-1.02-1.61-2.14l0.15-0.15c-0.36-0.15-0.77-0.59-1.22-1.3
			c-0.46-0.71-0.92-1.12-1.38-1.22c-0.2-0.82-0.54-1.99-0.99-3.52c0.1-2.04,0.82-3.54,2.14-4.51l0.08-0.31l0.15-0.08h0.23l0.31,0.15
			c0.31-0.41,0.84-0.82,1.61-1.22l0.23,0.31l0.23,0.08c0.71-0.1,1.12-0.15,1.22-0.15c0.31,0,1.38,0.36,3.21,1.07
			c1.68,0.66,3.09,0.92,4.21,0.76h0.15c0.1,0.26,0.28,0.56,0.54,0.92l0.54-0.23l0.84,0.61l0.15-0.23h0.15
			c0.46,0,0.84,0.18,1.15,0.54c0.05,0.2,0.28,0.51,0.69,0.92c0.05-0.15,0.18-0.25,0.38-0.31c0.46,0,0.84,0.05,1.15,0.15l0.38-0.08
			l0.23,0.31l0.38-0.08l0.08,0.08l1-0.08l0.54,0.69c0.05-0.15,0.15-0.33,0.31-0.54l0.46-0.08c0.2,0.2,0.89,0.31,2.07,0.31
			c0.15,0,0.56,0.08,1.22,0.23c0.51,0.1,0.94,0.1,1.3,0c0.2,0.21,0.48,0.31,0.84,0.31c0.31,0,0.77-0.05,1.38-0.15
			c0.61-0.1,1.1-0.15,1.45-0.15c0.31,0,0.79,0.03,1.45,0.08c0.66,0,1.17,0,1.53,0c0.71,0,1.55-0.28,2.52-0.84
			c1.28-0.77,2.09-1.2,2.45-1.3c0.41,0.15,0.79,0.23,1.15,0.23c0.1,0,0.28,0,0.54,0c0.2-0.05,0.36-0.08,0.46-0.08
			c0.77,0,1.79,0.49,3.06,1.45c0.05,0.41,0.36,1.1,0.92,2.07v0.23c-0.2,0.2-0.31,0.38-0.31,0.54c0.05,0.1,0.15,0.18,0.31,0.23
			c-0.15,0.1-0.31,0.41-0.46,0.92c-0.36,0.46-0.89,1.17-1.61,2.14c-0.05,0.31-0.08,0.54-0.08,0.69c-0.77,0.05-1.71,0.43-2.83,1.15
			c-0.87,0.61-1.73,1.2-2.6,1.76c-2.19,0.1-4.16,1.22-5.89,3.37l-0.23,2.14c0.05,0.1,0.15,0.29,0.31,0.57
			c0.15,0.28,0.23,0.55,0.23,0.8c0-0.15-0.15,0.23-0.46,1.15l-0.31-0.08l-0.15-0.15h-0.15l-0.15,0.23c0,0.66-0.46,1.49-1.38,2.49
			c-0.92,1-1.35,2-1.3,3.02v0.38l0.23,0.46c-0.41,1.38-0.61,2.68-0.61,3.9c0,3.57,0.23,5.89,0.69,6.96
			c0.56-0.15,1.02-0.18,1.38-0.08l1.15-0.61l0.31,0.15l0.23-0.15c0.1,0,0.28-0.05,0.54-0.15c0.2-0.46,0.69-0.66,1.45-0.61
			c0,0.2-0.08,0.51-0.23,0.92c0.61-0.2,1.9-0.38,3.86-0.54c1.96-0.15,3.28-0.18,3.94-0.08c0.25-0.15,0.69-0.41,1.3-0.76v-0.61
			l-0.54,0.38l-0.38-0.31l0.46-0.38l0.69,0.23l1.76-0.54l-0.08-0.46l0.99,0.08l0.38-0.38c4.85,0.41,8.29,1.63,10.33,3.67
			C295.94,72.3,296.12,73.4,296.47,74.21z M280.78,68.93c-0.76-0.05-0.99-0.08-0.69-0.08h-0.31c-0.1,0-0.26,0.03-0.46,0.08
			l-0.31,0.31l0.23-0.38c0-0.05,0.06-0.12,0.19-0.19c0.13-0.08,0.42-0.12,0.88-0.12c0.05,0,0.15,0.03,0.31,0.08L280.78,68.93z
			 M291.35,68.78l-0.08-0.08l-0.77-0.15l-0.08,0.15l0.61,0.69l0.08-0.31C291.17,68.98,291.24,68.88,291.35,68.78z"/>
		<path class="st0" d="M359.87,41.53l-0.38,1.45l-1.07,0.84l-0.38-0.15l-0.69,0.46c-0.31-0.15-0.99-0.23-2.07-0.23
			c-0.36,0-0.59-0.03-0.69-0.08c-0.36,0-0.61,0.03-0.76,0.08c-0.41,0.2-2.22,2.19-5.43,5.97c-0.36,0.46-1.16,1.01-2.41,1.65
			c-1.25,0.64-1.98,1.11-2.18,1.42c0.15,0.26,0.23,0.56,0.23,0.92c-1.07,1.17-2.22,1.81-3.44,1.91l-0.76,0.84v0.46
			c0,1.53,0.18,2.65,0.54,3.37l-0.23,0.23l-0.08,0.38c0,0.15,0.02,0.38,0.08,0.69c0.05,0.31,0.08,0.51,0.08,0.61l0.23,0.15
			c0.36,0.2,0.92,0.28,1.68,0.23c3.11-0.1,5.08-0.13,5.89-0.08l0.31-0.38l0.69,0.15l2.07-0.15c0.87-0.05,1.91,0.17,3.14,0.65
			c1.22,0.49,2.07,1.08,2.53,1.8l0.61-0.08l-0.08,0.08c-0.2,0-0.38,0-0.54,0c-0.15,0.1-0.27,0.22-0.34,0.34
			c-0.08,0.13-0.12,0.27-0.12,0.42l-0.15,0.23c0.46,0.1,0.89,0.36,1.3,0.77c-1.22,0.05-2.17,0.33-2.83,0.84
			c-0.15,0-0.42-0.04-0.8-0.12c-0.38-0.08-0.68-0.12-0.88-0.12c-0.05,0-0.61,0.15-1.68,0.46l-1.84-0.23c-0.15,0-0.36,0.04-0.61,0.11
			c-0.26,0.08-0.43,0.12-0.54,0.12l-0.23-0.23h-1.99c-2.04,0-3.5,0.28-4.36,0.84c1.48,0.26,2.12,1.12,1.91,2.6
			c4.69,1.63,7.68,3.57,8.95,5.82l-0.23,1.22c-0.51,0.41-1.22,1.1-2.14,2.07l-1.61,2.22c-0.31,0.26-0.69,0.64-1.15,1.15
			c-0.2,0.31-0.36,0.66-0.46,1.07l-0.15-0.23c-0.2,0.31-0.59,0.71-1.15,1.22c-0.36,0.76-1.03,1.73-2.03,2.91
			c-0.99,1.17-1.67,2.04-2.03,2.6c-0.36,0.71-0.71,1.45-1.07,2.22c-0.36,0.77-0.82,1.33-1.38,1.68c-1.28-1.22-2.02-2.25-2.22-3.06
			l0.15-0.38c-0.21-1.02-0.49-2.35-0.84-3.98l0.92-4.13l0.08,1.53l0.15,0.15l0.46,0.15l0.69,1l0.08-0.31
			c-0.26-0.31-0.38-0.54-0.38-0.69l1.3,1.07v-0.31h0.08c0.05,0,0.15,0.03,0.31,0.08c0.1-0.05,0.23-0.18,0.38-0.38l-0.38-0.15
			l0.15-0.61c0-0.05,0.33-0.36,0.99-0.92c0.05-0.1,0.08-0.36,0.08-0.76l0.15-0.08c0.15,0.05,0.31,0.15,0.46,0.31
			c1.17-2.04,2.01-4.23,2.53-6.58c-1.28-1.02-2.75-2.09-4.44-3.21c-0.51,0.1-1.22,0.33-2.14,0.69c-0.05,0.1-0.13,0.2-0.23,0.31
			h-0.08c-0.41,0.36-1.05,0.89-1.91,1.61c-0.26,0.51-0.7,1.06-1.34,1.65c-0.64,0.59-1.54,1.44-2.72,2.56
			c-1.28,1.38-3.21,3.44-5.82,6.2c-0.05,0.05-0.66,0.84-1.84,2.37c-0.71,0.97-1.45,1.58-2.22,1.84c-0.15-0.05-0.33-0.14-0.54-0.27
			c-0.2-0.13-0.49-0.61-0.84-1.45c-0.36-0.84-0.54-1.39-0.54-1.65c0-1.63,0.15-2.73,0.46-3.29l0.38-0.31l0.92,0.69
			c1.17-0.71,2.55-1.89,4.13-3.52c1.84-1.89,3.14-3.14,3.9-3.75l-0.61-0.38l0.23-0.08c0.15,0.05,0.28,0.1,0.38,0.15
			c0.31-0.15,1.17-1.08,2.6-2.79c1.43-1.71,2.32-2.69,2.68-2.95v-0.61c0.25-0.15,0.66-0.38,1.22-0.69l0.08-0.38
			c-1.17,0.36-4.03,0.97-8.57,1.84c-3.57,0.71-6.35,1.48-8.34,2.3c-0.46-0.25-1.1-0.61-1.91-1.07c-0.26-0.77-0.38-1.4-0.38-1.91
			c0-0.46,0.15-0.84,0.46-1.15c-0.15-0.2-0.38-0.56-0.69-1.07c0.05-0.05,0.15-0.1,0.31-0.15l-0.69-0.23
			c-0.46,0.36-1.12,1.28-1.99,2.75c-0.61,0.92-1.48,2.27-2.6,4.06c-2.96,5.31-5.97,9.95-9.03,13.93c-0.56,0.71-1.35,1.07-2.37,1.07
			c-1.28-1.89-1.91-3.72-1.91-5.51c0-0.51,0.15-0.87,0.46-1.07c0.25-0.05,0.46-0.08,0.61-0.08c0.36,0,0.71,0.1,1.07,0.31
			c0.56-0.31,1.12-0.82,1.68-1.53c0.41-0.61,0.84-1.22,1.3-1.84c1.63-1.89,3.95-4.85,6.96-8.88c0.36-0.61,0.94-1.5,1.76-2.68
			c0.51-0.56,1.2-1.43,2.07-2.6c0.31-0.61,0.82-1.45,1.53-2.53c1.07-1.38,2.73-3.83,4.97-7.35c0.77-1.02,1.84-2.63,3.21-4.82
			c-0.15-0.71-0.51-1.35-1.07-1.91c-0.2-0.05-0.38-0.08-0.54-0.08c-0.26,0-0.79,0.31-1.61,0.92c-0.61,0.1-2.25,0.64-4.9,1.61
			c-0.26-0.2-0.54-0.36-0.84-0.46c-0.97-0.15-2.55-0.58-4.75-1.3c-0.31-0.15-0.59-0.23-0.84-0.23c-0.26,0-0.49,0.1-0.69,0.31
			c-0.36-0.87-0.74-1.2-1.15-1c-0.66-0.46-1.28-0.61-1.84-0.46c-0.56-0.77-1.45-1.35-2.68-1.76l-0.08-0.15
			c-0.51-0.1-1.2-0.55-2.07-1.34c-0.87-0.79-1.33-1.19-1.38-1.19l0.08-0.23c-0.05,0-0.23-0.23-0.54-0.69
			c-0.05-0.25-0.08-0.41-0.08-0.46c0.31-0.61,0.64-1.2,1-1.76c0.2-0.25,0.76-0.51,1.68-0.77c0.36-0.15,0.97-0.33,1.84-0.54
			c0.41,0,1.02-0.03,1.84-0.08c0.97,0.15,2.3,0.46,3.98,0.92l0.61-0.15l0.69,0.23l0.61-0.23c0.51,0.2,2.04,0.31,4.59,0.31
			c2.91,0,7.93-0.38,15.08-1.15c6.63-0.77,11.56-1.07,14.77-0.92c0.36-0.51,0.82-1.38,1.38-2.6c1.43,0.56,3.65,1.33,6.66,2.3
			c1.07,0.21,2.42,0.56,4.06,1.07C358.18,39.85,358.9,40.57,359.87,41.53z M342.27,34.26c-0.26,0-0.49,0.03-0.69,0.08l-0.23,0.23
			c-0.21,0.51-0.43,1.28-0.69,2.29l-0.15,0.15c-0.31,0-0.47,0.05-0.5,0.15c-0.03,0.1-0.04,0.33-0.04,0.69l-0.23-0.08
			c-0.2-0.05-0.36-0.15-0.46-0.31c-0.1,0-0.26-0.02-0.46-0.08c-0.15,0.15-0.31,0.28-0.46,0.38l-0.31,0.08l-2.68-0.61
			c-0.21,0.1-0.54,0.28-1,0.54l-0.69-0.61c-0.72-0.05-1.63-0.28-2.75-0.69l-0.46,0.15c-1.28-0.97-2.02-1.53-2.22-1.68
			c-0.71-0.41-1.58-0.66-2.6-0.76l-0.08-0.38c-0.1-0.1-0.2-0.2-0.31-0.31l-0.08-0.15v-0.23l0.08-0.15v-0.15h-0.15
			c-0.51-0.15-0.94-0.56-1.3-1.22c-0.36-0.66-0.59-1.04-0.69-1.15c-0.1-0.1-0.51-0.23-1.22-0.38l-0.15-0.15
			c0.05-0.05,0.1-0.1,0.15-0.15h0.08h-0.15l-0.84-0.31c-0.1-0.36-0.23-0.79-0.38-1.3c-0.31-0.1-0.72-0.36-1.22-0.77l0.46-0.08
			l0.15-0.08c-0.51-0.41-0.84-0.89-1-1.45c-0.15-0.56-0.31-1.12-0.46-1.68l0.15-0.92l-0.15-0.38l-0.08-0.46
			c0-0.1,0.03-0.33,0.08-0.69l0.84-0.84v-0.46c0.31-0.1,0.76-0.33,1.38-0.69l0.61,0.31l0.15-0.15c0.2,0,0.54-0.05,1-0.15l0.54,0.46
			l0.31-0.31c0.36-0.05,0.94-0.15,1.76-0.31c0.25,0.21,0.84,0.41,1.76,0.61c0.2-0.05,0.43-0.1,0.69-0.15
			c0.2,0.46,0.64,0.69,1.3,0.69c0.15,0,0.38-0.04,0.69-0.12s0.54-0.11,0.69-0.11h0.46l0.38,0.15c0.2,0.21,0.56,0.54,1.07,1
			l0.46,0.15l0.08,0.31c0.1,0.15,0.25,0.28,0.46,0.38c0.1-0.05,0.23-0.08,0.38-0.08c0.31,0,0.59,0.18,0.84,0.54
			c0.41,0.56,0.64,0.84,0.69,0.84c0.66,0.26,1.38,0.78,2.14,1.57c0.77,0.79,1.35,1.24,1.76,1.34h-0.15l-0.08,0.15v0.31
			c0,0.15,0.19,0.47,0.57,0.96c0.38,0.49,0.57,0.91,0.57,1.26l0.38,0.38c0,0.15,0.2,0.47,0.61,0.96c0.41,0.49,0.61,0.85,0.61,1.11
			c0,0.1-0.08,0.28-0.23,0.54c0.05,0.31,0.15,0.79,0.31,1.45C341.78,33.93,342.01,34.11,342.27,34.26z M334.38,62.96
			c-0.05-0.2-0.23-0.77-0.54-1.68c-0.31-0.77-0.41-1.27-0.31-1.53c-0.41-0.31-1-0.84-1.76-1.61c-0.26,0-0.73,0.06-1.42,0.19
			c-0.69,0.13-1.21,0.19-1.57,0.19c-0.61-0.61-1.53-1.56-2.75-2.83c-0.61,0.26-1.56,1.25-2.83,2.99c-1.07,1.12-2.5,3.06-4.29,5.82
			c1.07,0.51,1.94,0.84,2.6,1l1-0.15v0.46C327.78,65.79,331.73,64.85,334.38,62.96z M344.49,43.07h-3.37l-0.23,0.31
			c-0.66,0-1.61,0-2.83,0l-0.31,0.46l-0.54-0.31c-0.26,0.2-1.15,0.42-2.68,0.65c-1.53,0.23-2.58,0.34-3.14,0.34
			c-0.56,0-0.95,0.33-1.15,0.99h-0.15c-0.15,0-0.26-0.05-0.31-0.15l-0.08,0.08c-1.22,0.2-2.5,0.84-3.83,1.91
			c0.2,0.1,1.35,0.43,3.44,1c1.48,0.36,2.47,0.97,2.98,1.84c-0.05,0.36-0.15,0.92-0.31,1.68c1.07-0.1,2.12-0.18,3.14-0.23
			c1.38-0.2,2.25-0.64,2.6-1.3c3.16-0.92,5.05-2.19,5.66-3.83c0-0.05,0.08-0.69,0.23-1.91C343.75,43.83,344.03,43.32,344.49,43.07z"
			/>
	</g>
</g>
<g>
</g>
<g>
</g>
<g>
</g>
<g>
</g>
<g>
</g>
<g>
</g>
</svg>
