<?xml version="1.0" encoding="utf-8"?>
<!-- Generator: Adobe Illustrator 25.4.1, SVG Export Plug-In . SVG Version: 6.00 Build 0)  -->
<svg version="1.1" id="图层_1" xmlns="http://www.w3.org/2000/svg" xmlns:xlink="http://www.w3.org/1999/xlink" x="0px" y="0px"
	 viewBox="0 0 57.6 78.39" style="enable-background:new 0 0 57.6 78.39;" xml:space="preserve">
<g>
	<g>
		<path d="M55.61,25.54c-3.57,0.26-7.02,0.93-10.59,0.63c-2.35-0.16-4.72-0.49-7.06-0.86c-0.79-0.13-1.65-0.25-2.45-0.3
			c-0.96-0.06-1.92-0.04-2.88,0.04l0.49-0.88c1.85-3.34,4.4-6.31,7.54-8.49c2.71-1.9,5.85-3.3,9.12-3.93
			c-0.95,1.84-1.81,3.72-2.54,5.66c-0.66,1.85-1.32,3.77-1.3,5.77c0.03,0.68,0.17,1.41,0.65,1.93c0.05,0.06,0.14,0.07,0.2,0.02
			c0.07-0.05,0.08-0.15,0.03-0.22c-0.7-1.03-0.3-2.43-0.02-3.56c1.3-4.1,3.61-7.87,5.92-11.47c-4.71-0.06-9.34,1.43-13.3,3.94
			c-3.03,1.92-5.61,4.51-7.64,7.46c-1.05-1.98-0.69-5.3-0.22-7.21c0.75-3.13,2.33-6.08,4.49-8.46L41.15,0l-6.95,3.1
			C26.44,6.56,19.05,11.14,13,17.18C3.81,26.16-1.94,39.45,0.6,52.35c2.43,12.76,12.25,23.67,25.29,25.8l1.21,0.24l-0.78-1.01
			c-0.88-1.02-1.63-2.15-2.16-3.38c-2.89-6.38,0.47-13.77,5.55-18.01c1.03-0.88,2.15-1.65,3.32-2.32c1.01-0.58,2.63-1.3,3.69-1.82
			c5.02-2.49,10.22-4.82,14.27-8.89c3.17-3.19,4.49-7.51,4.7-11.91C55.8,29.22,55.83,27.35,55.61,25.54z M49.91,41.95
			c-1.82,1.99-4.11,3.53-6.42,4.92c-3.52,2.15-7.4,3.84-11.03,5.83c-6.02,3.59-10.86,10.25-10.22,17.52c0.21,2.45,1.16,4.8,2.6,6.79
			C13.1,74.61,4.45,63.56,2.72,51.98C2.11,48,2.29,43.91,3.13,39.97C5.68,27.92,14.6,18.32,24.74,11.86
			c1.79-1.15,3.64-2.22,5.52-3.23c-1.56,3.24-2.32,6.86-1.95,10.48c0.26,2.06,1.01,4.41,2.97,5.56l0.77,0.44
			c-5.31,0.6-10.34,3.2-14.38,6.64c-0.06,0.05-0.07,0.15-0.02,0.21c0.05,0.07,0.15,0.08,0.22,0.02c1.24-0.98,2.6-1.83,3.99-2.59
			c4.61-2.49,10.05-3.91,15.24-2.76c2.57,0.56,5.12,1.1,7.75,1.43c2.81,0.42,5.75,0.22,8.58,0.09
			C53.98,33.07,53.46,38.24,49.91,41.95z"/>
		<path d="M29.05,38.21c2.06-2.71,4.64-4.07,9.21-3.83c3.14,0.16,5.25-0.52,5.25-0.52s-1.2,2.81-4.57,3.39
			C35.47,37.85,31.92,36.04,29.05,38.21z"/>
		<path d="M55.39,44.79c0,0-0.23,9.69-14.81,14.32c-13.41,4.27-11.54,18.57,0.53,18.57C56.61,77.69,60.71,64.47,55.39,44.79z"/>
	</g>
</g>
<g>
</g>
<g>
</g>
<g>
</g>
<g>
</g>
<g>
</g>
<g>
</g>
<g>
</g>
<g>
</g>
<g>
</g>
<g>
</g>
<g>
</g>
<g>
</g>
<g>
</g>
<g>
</g>
<g>
</g>
</svg>
