<svg id="图层_1" data-name="图层 1" xmlns="http://www.w3.org/2000/svg" viewBox="0 0 280.15 141.73"><defs><style>.cls-1{fill:#ff6633;}</style></defs><path class="cls-1" d="M297,371.31l-1.72,48.61-6.78.14-1.37-48.15Z" transform="translate(-167.59 -324.81)"/><path class="cls-1" d="M312.18,387.83l-.33,6.11a17.53,17.53,0,0,1,2.13-3.07,12.58,12.58,0,0,1,2.75-2.42,11.29,11.29,0,0,1,3.33-1.46,9.65,9.65,0,0,1,3.81-.2,13.09,13.09,0,0,1,5.4,1.94,11.69,11.69,0,0,1,3.58,3.76,16.82,16.82,0,0,1,2,5.31,33.77,33.77,0,0,1,.61,6.58,27.85,27.85,0,0,1-.34,4.16,41,41,0,0,1-.91,4.35c-.38,1.44-.81,2.86-1.29,4.25s-1,2.68-1.46,3.89l-8.29-.84a4,4,0,0,0,.43-.8c.25-.52.54-1.21.88-2.08s.69-1.9,1.05-3.08.72-2.44,1-3.81.6-2.8.81-4.31a33,33,0,0,0,.32-4.55,20.63,20.63,0,0,0-.44-4.47,9.37,9.37,0,0,0-1.36-3.29,6,6,0,0,0-2.36-2,7.94,7.94,0,0,0-3.5-.71,5.38,5.38,0,0,0-3.15,1,9.77,9.77,0,0,0-2.42,2.46,16.88,16.88,0,0,0-1.78,3.41,35.2,35.2,0,0,0-1.24,3.81l-.87,18.1-6.25.54L303,388.57Z" transform="translate(-167.59 -324.81)"/><path class="cls-1" d="M363.33,419.59l.84-3.53a16.14,16.14,0,0,1-2.6,1.88,19.92,19.92,0,0,1-2.94,1.43,20.53,20.53,0,0,1-3,.91,13.43,13.43,0,0,1-2.74.32,17.21,17.21,0,0,1-4.5-.64A14.18,14.18,0,0,1,344.2,418a10.56,10.56,0,0,1-3.09-3.19,8.06,8.06,0,0,1-1.21-4.43,13.24,13.24,0,0,1,1.14-5.7,11.06,11.06,0,0,1,3.11-4,12.86,12.86,0,0,1,4.61-2.33,20.53,20.53,0,0,1,5.71-.76,18.72,18.72,0,0,1,2.95.24,18.47,18.47,0,0,1,3,.7,13.87,13.87,0,0,1,2.75,1.24,11.71,11.71,0,0,1,2.35,1.82,28.82,28.82,0,0,0-.48-3.83,14.86,14.86,0,0,0-1.21-3.68,8.07,8.07,0,0,0-2.2-2.75,5.43,5.43,0,0,0-3.49-1.09,8.53,8.53,0,0,0-5.23,1.59,8.14,8.14,0,0,0-2.93,4.62l-8.73-.91a11.39,11.39,0,0,1,2.28-3.67,14,14,0,0,1,3.34-2.67,16,16,0,0,1,4-1.63,16.73,16.73,0,0,1,4.26-.56,17.47,17.47,0,0,1,5.9.94,15.21,15.21,0,0,1,4.58,2.59,15.85,15.85,0,0,1,3.36,3.88,24.52,24.52,0,0,1,2.25,4.8,30,30,0,0,1,1.27,5.37,39,39,0,0,1,.4,5.59,47.11,47.11,0,0,1-.26,4.92c-.18,1.62-.44,3.24-.78,4.85Zm1.78-9.5c.07-.52.12-1,.15-1.51l.12-1.51a5.43,5.43,0,0,0-1.11-2.81,8.57,8.57,0,0,0-2.28-2.08,10.78,10.78,0,0,0-2.92-1.29,11.59,11.59,0,0,0-3.09-.44,9,9,0,0,0-3.26.59,7.75,7.75,0,0,0-2.62,1.66,8,8,0,0,0-1.74,2.55,8.07,8.07,0,0,0-.64,3.26,9.7,9.7,0,0,0,.55,3.31,7.67,7.67,0,0,0,1.57,2.58,7,7,0,0,0,2.46,1.7,8.59,8.59,0,0,0,3.28.6,10.88,10.88,0,0,0,3.15-.47,10.41,10.41,0,0,0,2.84-1.33,9,9,0,0,0,2.22-2.08A8,8,0,0,0,365.11,410.09Z" transform="translate(-167.59 -324.81)"/><path class="cls-1" d="M409.4,388.83c.07.81.13,1.69.18,2.66s.1,1.93.14,2.9.06,1.94.08,2.89,0,1.83,0,2.63c0,1.48,0,3.13-.1,5s-.2,3.73-.4,5.74-.49,4-.87,6.09a48,48,0,0,1-1.5,6,34.17,34.17,0,0,1-2.26,5.44,19.08,19.08,0,0,1-3.19,4.44,13.6,13.6,0,0,1-4.28,3,13.46,13.46,0,0,1-5.56,1.09,13.62,13.62,0,0,1-4.48-.73,14.22,14.22,0,0,1-7-5.24,15,15,0,0,1-2.07-4.06l10.44-2.69a5.76,5.76,0,0,0-.07.86v.92a21,21,0,0,0,.17,2.45,10,10,0,0,0,.67,2.59,5.63,5.63,0,0,0,1.45,2,3.52,3.52,0,0,0,2.45.84,4,4,0,0,0,2.79-1.14,10.15,10.15,0,0,0,2.09-3,20.94,20.94,0,0,0,1.48-4.1c.39-1.52.72-3.05,1-4.58s.44-3,.55-4.4.19-2.58.23-3.54a16.62,16.62,0,0,1-2,3.35,13.41,13.41,0,0,1-2.65,2.67,11.79,11.79,0,0,1-3.31,1.75,12.27,12.27,0,0,1-4,.62,10.32,10.32,0,0,1-5.71-1.51,11.72,11.72,0,0,1-3.81-4,18.57,18.57,0,0,1-2.13-5.64,30.93,30.93,0,0,1-.67-6.46,35.18,35.18,0,0,1,.6-6.8,38.42,38.42,0,0,1,1.38-5.26,26.85,26.85,0,0,1,2-4.6l8.93,2.22a42.74,42.74,0,0,0-4,9.12,29.75,29.75,0,0,0-1.19,8.14,15.72,15.72,0,0,0,.42,3.49,11.68,11.68,0,0,0,1.35,3.41,8.22,8.22,0,0,0,2.36,2.58,5.89,5.89,0,0,0,3.53,1,5.21,5.21,0,0,0,3.2-1,9.78,9.78,0,0,0,2.45-2.65,17.81,17.81,0,0,0,1.8-3.63,34,34,0,0,0,1.21-4c0-1.28,0-2.64,0-4.08s0-2.9-.08-4.37-.13-2.9-.25-4.3-.29-2.68-.49-3.84Z" transform="translate(-167.59 -324.81)"/><path class="cls-1" d="M438.24,419.59l.84-3.53a16.14,16.14,0,0,1-2.6,1.88,19.92,19.92,0,0,1-2.94,1.43,20.91,20.91,0,0,1-3,.91,13.43,13.43,0,0,1-2.74.32,17.09,17.09,0,0,1-4.5-.64,14.35,14.35,0,0,1-4.2-1.92,10.8,10.8,0,0,1-3.09-3.19,8.14,8.14,0,0,1-1.2-4.43,13.24,13.24,0,0,1,1.14-5.7,11,11,0,0,1,3.1-4,12.91,12.91,0,0,1,4.62-2.33,20.53,20.53,0,0,1,5.71-.76,19.89,19.89,0,0,1,5.91.94,13.87,13.87,0,0,1,2.75,1.24,11.71,11.71,0,0,1,2.35,1.82,28.91,28.91,0,0,0-.49-3.83,14.46,14.46,0,0,0-1.21-3.68,8,8,0,0,0-2.2-2.75,5.41,5.41,0,0,0-3.49-1.09,8.48,8.48,0,0,0-5.22,1.59,8.2,8.2,0,0,0-2.94,4.62l-8.72-.91a11.22,11.22,0,0,1,2.28-3.67,13.82,13.82,0,0,1,3.34-2.67,16,16,0,0,1,4-1.63,16.73,16.73,0,0,1,4.26-.56,17.41,17.41,0,0,1,5.89.94,15.15,15.15,0,0,1,4.59,2.59,15.6,15.6,0,0,1,3.35,3.88,23.42,23.42,0,0,1,2.25,4.8,29.22,29.22,0,0,1,1.28,5.37,39,39,0,0,1,.4,5.59,44.52,44.52,0,0,1-.27,4.92c-.18,1.62-.43,3.24-.77,4.85Zm1.78-9.5c.07-.52.12-1,.15-1.51s.07-1,.12-1.51a5.43,5.43,0,0,0-1.11-2.81,8.89,8.89,0,0,0-2.28-2.08,10.78,10.78,0,0,0-2.92-1.29,11.7,11.7,0,0,0-3.09-.44,9,9,0,0,0-3.26.59A7.65,7.65,0,0,0,425,402.7a7.81,7.81,0,0,0-1.74,2.55,8.07,8.07,0,0,0-.64,3.26,9.46,9.46,0,0,0,.55,3.31,7.82,7.82,0,0,0,1.56,2.58,7,7,0,0,0,2.47,1.7,8.54,8.54,0,0,0,3.27.6,10.89,10.89,0,0,0,3.16-.47,10.41,10.41,0,0,0,2.84-1.33,8.75,8.75,0,0,0,2.21-2.08A7.8,7.8,0,0,0,440,410.09Z" transform="translate(-167.59 -324.81)"/><path class="cls-1" d="M299.77,447.38l-2.63.14a5.47,5.47,0,0,0-.24-1.5,4.14,4.14,0,0,0-.66-1.31,3.45,3.45,0,0,0-1.09-.92,3,3,0,0,0-1.5-.35,3.52,3.52,0,0,0-1.34.24,3.36,3.36,0,0,0-1,.66,3.83,3.83,0,0,0-.77,1,6.18,6.18,0,0,0-.51,1.18,7.08,7.08,0,0,0-.29,1.29,9.54,9.54,0,0,0-.09,1.29,10.24,10.24,0,0,0,.08,1.34,8.31,8.31,0,0,0,.25,1.32,6.3,6.3,0,0,0,.49,1.2,3.81,3.81,0,0,0,.75,1,3.56,3.56,0,0,0,1.05.67,3.78,3.78,0,0,0,1.41.24,3.26,3.26,0,0,0,1.48-.31,2.93,2.93,0,0,0,1.05-.82,3.62,3.62,0,0,0,.65-1.21,5.8,5.8,0,0,0,.26-1.47l2.58.13a6.27,6.27,0,0,1-2.3,3.28,6.16,6.16,0,0,1-1.77.9,6.47,6.47,0,0,1-2,.32,6.83,6.83,0,0,1-2.62-.49,5.76,5.76,0,0,1-2-1.37,5.94,5.94,0,0,1-1.24-2.08,7.68,7.68,0,0,1-.43-2.63,7.14,7.14,0,0,1,.45-2.56,6.33,6.33,0,0,1,1.29-2,5.83,5.83,0,0,1,2-1.34,6.39,6.39,0,0,1,2.54-.49,7,7,0,0,1,2.11.32,6.34,6.34,0,0,1,1.83.94,5.93,5.93,0,0,1,1.41,1.5A6,6,0,0,1,299.77,447.38Z" transform="translate(-167.59 -324.81)"/><path class="cls-1" d="M311.79,447.15a2.4,2.4,0,0,1-.31,1.24,3.55,3.55,0,0,1-.82,1,5.74,5.74,0,0,1-1.19.7,9.43,9.43,0,0,1-1.39.46l3.71,4.05-2.58.78-2.74-4.54c-.4,0-.78.05-1.13.05l-1,0c-.32,0-.64,0-1-.08l0,4.36-2.12,0c0-1.93,0-3.88,0-5.85s-.08-3.93-.11-5.86c.39-.08.8-.15,1.24-.2s.87-.08,1.31-.11l1.33-.06,1.26,0a8.62,8.62,0,0,1,1.33.11,6.87,6.87,0,0,1,1.28.33A5.83,5.83,0,0,1,310,444a4,4,0,0,1,.93.8,3.46,3.46,0,0,1,.85,2.32Zm-6.8-3.29h-.84c-.29,0-.57,0-.85.07l.13,6c.26,0,.52.05.79.06h.8a6.71,6.71,0,0,0,1.1-.09,5.75,5.75,0,0,0,1.05-.25,4.45,4.45,0,0,0,.91-.42,3.52,3.52,0,0,0,.73-.58,2.44,2.44,0,0,0,.48-.76,2.27,2.27,0,0,0,.18-.91,2.83,2.83,0,0,0-.19-1,2.69,2.69,0,0,0-.52-.8,3,3,0,0,0-.76-.6,5.54,5.54,0,0,0-.93-.4,6.72,6.72,0,0,0-1-.23A7.41,7.41,0,0,0,305,443.86Z" transform="translate(-167.59 -324.81)"/><path class="cls-1" d="M320.57,451.13l-.81-.08-.88-.05-.88,0h-1.56l-.73,0v2.6c0,.25,0,.51,0,.77.3,0,.65,0,1-.08s.79-.08,1.21-.14l1.29-.18c.44-.08.86-.16,1.27-.26a10.71,10.71,0,0,0,1.16-.33,6.51,6.51,0,0,0,.94-.39l0,2H313.4l.29-11.85,9.23-.15-.16,2.28a3.52,3.52,0,0,0-.89-.41,10.48,10.48,0,0,0-1.18-.33c-.42-.09-.87-.17-1.33-.24s-.93-.12-1.38-.17-.86-.08-1.26-.1l-1-.06v6.19h.09l1.17,0,1.24-.05,1.22-.08,1.17-.1Z" transform="translate(-167.59 -324.81)"/><path class="cls-1" d="M330.07,442.78a4.52,4.52,0,0,1,3.44,1.44,6.38,6.38,0,0,1,1,1.54,9.4,9.4,0,0,1,.66,1.82,11.49,11.49,0,0,1,.35,1.93,17.26,17.26,0,0,1,.11,1.85,11.29,11.29,0,0,1-.1,1.46c-.07.47-.14.89-.22,1.26s-.19.83-.31,1.21l-2.5-.45a12,12,0,0,0,.45-1.29c.14-.48.27-1,.38-1.48-.67-.07-1.33-.1-2-.12s-1.32,0-2,0h-1.53l-1.54.06c.11.47.24.94.39,1.4s.32.95.51,1.44l-2.61.47a5.84,5.84,0,0,1-.33-.88,10.19,10.19,0,0,1-.22-1A8.32,8.32,0,0,1,324,452c0-.67,0-1.37.08-2.09a16.37,16.37,0,0,1,.32-2.1,10.21,10.21,0,0,1,.66-1.93,5.51,5.51,0,0,1,1.11-1.61,4.93,4.93,0,0,1,1.64-1.08A6,6,0,0,1,330.07,442.78Zm-4.1,5.86c0,.45,0,.89,0,1.32s.09.84.16,1.26c.55,0,1.1,0,1.65,0h3.66c.68,0,1.35,0,2-.09a10.63,10.63,0,0,0,.15-1.72,11,11,0,0,0-.08-1.24,8.49,8.49,0,0,0-.28-1.31,7.8,7.8,0,0,0-.49-1.24,4.16,4.16,0,0,0-.74-1,3.45,3.45,0,0,0-1-.72,3,3,0,0,0-1.29-.27,3.11,3.11,0,0,0-1.21.22,3.33,3.33,0,0,0-1,.58,4,4,0,0,0-.73.86,5.1,5.1,0,0,0-.51,1.05,7.35,7.35,0,0,0-.3,1.14A7.52,7.52,0,0,0,326,448.64Z" transform="translate(-167.59 -324.81)"/><path class="cls-1" d="M347,443.16l-.1,1.61a4.77,4.77,0,0,0-1-.23c-.38-.06-.76-.11-1.15-.14l-1.14-.06c-.38,0-.71,0-1,0h-.22l.48,10.75h-2.53l.3-10.67c-.41,0-.83.08-1.25.14s-.84.13-1.23.21-.76.19-1.09.3a3.66,3.66,0,0,0-.84.4l-.15-2.22Z" transform="translate(-167.59 -324.81)"/><path class="cls-1" d="M350.46,443.08,350,455l-1.67,0L348,443.23Z" transform="translate(-167.59 -324.81)"/><path class="cls-1" d="M363.93,443.35c-.34,1.19-.71,2.31-1.09,3.35s-.77,2-1.15,2.87-.74,1.65-1.08,2.34-.65,1.28-.92,1.76-.47.85-.63,1.1l-.24.38-1.74.12a33.59,33.59,0,0,1-2-3.29c-.28-.51-.58-1.08-.89-1.7s-.61-1.29-.91-2-.59-1.46-.87-2.26-.55-1.61-.79-2.47l2.85-.58c.1.84.23,1.62.39,2.36s.34,1.42.55,2.07.42,1.27.66,1.86.47,1.14.72,1.68l.74,1.58c.25.52.49,1,.71,1.53a22.69,22.69,0,0,0,1.3-2.92c.35-1,.66-1.92.91-2.86s.45-1.86.62-2.75.32-1.75.44-2.55Z" transform="translate(-167.59 -324.81)"/><path class="cls-1" d="M372.22,451.13l-.82-.08-.87-.05-.88,0h-1.56l-.74,0v1.82c0,.27,0,.53,0,.78s0,.51,0,.77c.3,0,.65,0,1-.08s.79-.08,1.21-.14l1.29-.18c.44-.08.86-.16,1.27-.26a10.71,10.71,0,0,0,1.16-.33,6.51,6.51,0,0,0,.94-.39l0,2h-9.26l.29-11.85,9.23-.15-.16,2.28a3.52,3.52,0,0,0-.89-.41,10.48,10.48,0,0,0-1.18-.33c-.42-.09-.87-.17-1.33-.24s-.93-.12-1.38-.17-.87-.08-1.26-.1l-1-.06v6.19h.1l1.17,0,1.24-.05,1.22-.08,1.17-.1Z" transform="translate(-167.59 -324.81)"/><path class="cls-1" d="M386.34,455.61a6.6,6.6,0,0,1-1.81-.24,5.12,5.12,0,0,1-2.75-1.91,6,6,0,0,1-.87-1.67l2.85-.15a3.33,3.33,0,0,0,.86,2.31,3.08,3.08,0,0,0,2.26.79,5.51,5.51,0,0,0,1.14-.11,3.28,3.28,0,0,0,1-.39,2.31,2.31,0,0,0,.73-.73,2.08,2.08,0,0,0,.29-1.13,1.66,1.66,0,0,0-.19-.8,1.63,1.63,0,0,0-.48-.56,2.51,2.51,0,0,0-.69-.36,5.34,5.34,0,0,0-.81-.21,5.93,5.93,0,0,0-.83-.12l-.75-.08c-.38,0-.77-.07-1.18-.13a9.68,9.68,0,0,1-1.19-.25,6.13,6.13,0,0,1-1.13-.43,3.47,3.47,0,0,1-.94-.64,2.91,2.91,0,0,1-.64-.93,3.08,3.08,0,0,1-.24-1.26,3.31,3.31,0,0,1,.23-1.25,3.14,3.14,0,0,1,.63-1,5.19,5.19,0,0,1,.92-.75,6,6,0,0,1,1.12-.52,8.1,8.1,0,0,1,1.2-.3,8.39,8.39,0,0,1,1.2-.09,10.62,10.62,0,0,1,1.23.07,8.39,8.39,0,0,1,1.29.25,6.81,6.81,0,0,1,1.24.45,4.59,4.59,0,0,1,1.08.68,3.45,3.45,0,0,1,.8.94,3.1,3.1,0,0,1,.42,1.23l-2.75.56a3.18,3.18,0,0,0,0-.62,2.34,2.34,0,0,0-1.11-2.11,3.84,3.84,0,0,0-1.14-.46,6.14,6.14,0,0,0-1.29-.14,4.56,4.56,0,0,0-1.16.15,3.71,3.71,0,0,0-1,.46,2.47,2.47,0,0,0-.74.77,2,2,0,0,0-.28,1.09,1.25,1.25,0,0,0,.23.74,2.13,2.13,0,0,0,.61.54,4,4,0,0,0,.84.37c.32.1.63.18.95.25s.61.11.9.14.53.07.72.08c.36,0,.72.09,1.11.16a9.53,9.53,0,0,1,1.14.29,6.72,6.72,0,0,1,1.07.45,3.49,3.49,0,0,1,.89.66,2.85,2.85,0,0,1,.61.91,2.92,2.92,0,0,1,.23,1.18,2.86,2.86,0,0,1-.28,1.27,3.41,3.41,0,0,1-.75,1,4.56,4.56,0,0,1-1.07.72,6.13,6.13,0,0,1-1.25.49,8.59,8.59,0,0,1-1.3.27A8.86,8.86,0,0,1,386.34,455.61Z" transform="translate(-167.59 -324.81)"/><path class="cls-1" d="M403.75,443.16l-.1,1.61a4.77,4.77,0,0,0-1-.23c-.37-.06-.75-.11-1.14-.14l-1.15-.06c-.37,0-.71,0-1,0h-.22l.48,10.75h-2.53l.3-10.67c-.41,0-.83.08-1.25.14s-.84.13-1.23.21-.76.19-1.09.3a3.57,3.57,0,0,0-.83.4l-.16-2.22Z" transform="translate(-167.59 -324.81)"/><path class="cls-1" d="M410,455.64a5.85,5.85,0,0,1-1.78-.25,5.07,5.07,0,0,1-1.44-.7,5.41,5.41,0,0,1-1.11-1.08,6,6,0,0,1-.77-1.35,8.13,8.13,0,0,1-.46-1.57,9.6,9.6,0,0,1-.15-1.7c0-.46,0-1,.07-1.5a13.41,13.41,0,0,1,.25-1.63,12.76,12.76,0,0,1,.43-1.56,5.71,5.71,0,0,1,.67-1.33l2.67.6a7.35,7.35,0,0,0-.54.93,11.26,11.26,0,0,0-.49,1.11c-.15.39-.29.8-.41,1.21s-.23.83-.32,1.24-.16.81-.21,1.2a8.6,8.6,0,0,0-.08,1.08,6.1,6.1,0,0,0,.24,1.74,3.94,3.94,0,0,0,.73,1.41,3.21,3.21,0,0,0,1.23.94,4.2,4.2,0,0,0,1.77.35,3,3,0,0,0,1.19-.22,3.33,3.33,0,0,0,1-.58,4.11,4.11,0,0,0,.73-.87,5.85,5.85,0,0,0,.5-1,6.27,6.27,0,0,0,.3-1.15,6.43,6.43,0,0,0,.1-1.14,7.55,7.55,0,0,0-.08-1,10.51,10.51,0,0,0-.22-1.15c-.1-.4-.21-.81-.34-1.22s-.27-.81-.42-1.18a11.32,11.32,0,0,0-.49-1,4.91,4.91,0,0,0-.53-.79l2.77-.64a8.89,8.89,0,0,1,.59,1.41,11.4,11.4,0,0,1,.38,1.53c.1.52.17,1,.22,1.57s.07,1,.07,1.53a9.32,9.32,0,0,1-.37,2.62,6.2,6.2,0,0,1-1.11,2.17,5.21,5.21,0,0,1-1.88,1.48A6,6,0,0,1,410,455.64Z" transform="translate(-167.59 -324.81)"/><path class="cls-1" d="M428.6,449.06a5.74,5.74,0,0,1-.25,1.73,6,6,0,0,1-.7,1.52,6.5,6.5,0,0,1-1.07,1.27,6.82,6.82,0,0,1-1.36,1,7.41,7.41,0,0,1-1.58.62,7.1,7.1,0,0,1-1.72.21h-1c-.39,0-.79,0-1.2,0s-.81-.06-1.19-.11a6.41,6.41,0,0,1-1-.19v-.09c0-.68,0-1.36,0-2s0-1.36,0-2l.09-3.76q0-1.86.09-3.75c.76-.12,1.53-.21,2.31-.26s1.55-.08,2.32-.08a6.2,6.2,0,0,1,1.62.21,6.8,6.8,0,0,1,1.47.61,6.51,6.51,0,0,1,1.26.95,6.15,6.15,0,0,1,1,1.22,6.27,6.27,0,0,1,.64,1.45A5.82,5.82,0,0,1,428.6,449.06Zm-2.27-.19a7.9,7.9,0,0,0-.28-2.18,4,4,0,0,0-.88-1.58,3.73,3.73,0,0,0-1.5-1,6.39,6.39,0,0,0-2.17-.33h-.72c-.24,0-.49,0-.73,0l-.56,10.58a5.84,5.84,0,0,0,1.25.14l1.24,0a3.68,3.68,0,0,0,1.35-.25,4,4,0,0,0,1.09-.67,4.79,4.79,0,0,0,.84-1,6.72,6.72,0,0,0,.6-1.2,7.22,7.22,0,0,0,.35-1.31A7.31,7.31,0,0,0,426.33,448.87Z" transform="translate(-167.59 -324.81)"/><path class="cls-1" d="M432.65,443.08,432.23,455l-1.67,0-.34-11.82Z" transform="translate(-167.59 -324.81)"/><path class="cls-1" d="M447.29,449.09a6.51,6.51,0,0,1-.24,1.79,6.09,6.09,0,0,1-.68,1.56,6.2,6.2,0,0,1-1,1.29,6.37,6.37,0,0,1-1.35,1,6.79,6.79,0,0,1-1.59.61,6.92,6.92,0,0,1-1.77.22,7.18,7.18,0,0,1-2.62-.46,5.89,5.89,0,0,1-3.43-3.32,7.06,7.06,0,0,1-.48-2.65,6.41,6.41,0,0,1,.23-1.77,6.23,6.23,0,0,1,1.66-2.84,6.28,6.28,0,0,1,1.32-1,6.94,6.94,0,0,1,1.57-.62,7.17,7.17,0,0,1,1.75-.22,7.39,7.39,0,0,1,1.77.21,6.47,6.47,0,0,1,1.59.61,6.18,6.18,0,0,1,2.4,2.25,6.39,6.39,0,0,1,.67,1.56A6.53,6.53,0,0,1,447.29,449.09Zm-2.27,0a7.5,7.5,0,0,0-.11-1.32,6.49,6.49,0,0,0-.92-2.47,4.46,4.46,0,0,0-.83-.95,4,4,0,0,0-1.1-.65,3.88,3.88,0,0,0-1.36-.23,3.7,3.7,0,0,0-1.36.24,3.58,3.58,0,0,0-1.08.65,4.51,4.51,0,0,0-.84.95,6.16,6.16,0,0,0-.58,1.18,6.28,6.28,0,0,0-.34,1.29,7.39,7.39,0,0,0-.11,1.31,10.51,10.51,0,0,0,.09,1.37,6.86,6.86,0,0,0,.32,1.3,5.71,5.71,0,0,0,.55,1.17,3.86,3.86,0,0,0,.82.93,3.54,3.54,0,0,0,1.11.62,4,4,0,0,0,1.42.23,4.05,4.05,0,0,0,1.39-.23,3.63,3.63,0,0,0,1.1-.63,4.2,4.2,0,0,0,.83-1,6,6,0,0,0,.57-1.16,8.08,8.08,0,0,0,.32-1.31A7.57,7.57,0,0,0,445,449.09Z" transform="translate(-167.59 -324.81)"/><path class="cls-1" d="M268.14,371c-6.47.48-12.7,1.69-19.14,1.15-4.25-.28-8.55-.89-12.78-1.55-1.42-.23-3-.46-4.42-.55a36.18,36.18,0,0,0-5.21.08l.89-1.59a45.62,45.62,0,0,1,13.64-15.36,42.81,42.81,0,0,1,16.48-7.09A96.89,96.89,0,0,0,253,356.31c-1.2,3.34-2.39,6.82-2.34,10.43a5.4,5.4,0,0,0,1.16,3.49.29.29,0,0,0,.37,0,.3.3,0,0,0,.05-.4c-1.26-1.86-.55-4.39,0-6.44,2.34-7.42,6.54-14.22,10.72-20.74a44.12,44.12,0,0,0-24.05,7.13,48.55,48.55,0,0,0-13.83,13.49c-1.89-3.57-1.25-9.58-.39-13a35,35,0,0,1,8.12-15.3L242,324.81l-12.56,5.6C215.39,336.67,202,345,191.09,355.88c-16.62,16.22-27,40.25-22.41,63.59,4.4,23.07,22.16,42.79,45.72,46.64l2.2.43-1.42-1.82a24.38,24.38,0,0,1-3.91-6.1c-5.23-11.55.85-24.9,10-32.57a39.71,39.71,0,0,1,6-4.2c1.83-1.05,4.75-2.35,6.68-3.29,9.08-4.5,18.49-8.72,25.8-16.07,5.73-5.77,8.12-13.57,8.5-21.54A57.21,57.21,0,0,0,268.14,371Zm-10.32,29.67a51,51,0,0,1-11.6,8.9c-6.37,3.88-13.38,6.94-19.93,10.54-10.9,6.49-19.63,18.54-18.48,31.69a24.82,24.82,0,0,0,4.7,12.27c-21.24-4.35-36.87-24.32-40-45.25a60.32,60.32,0,0,1,.75-21.72c4.62-21.78,20.73-39.15,39.07-50.82q4.89-3.11,10-5.84a35.35,35.35,0,0,0-3.52,18.94c.46,3.73,1.82,8,5.36,10.05l1.4.8c-9.61,1.09-18.7,5.79-26,12a.27.27,0,0,0,0,.37.28.28,0,0,0,.4,0,49.71,49.71,0,0,1,7.21-4.68c8.33-4.51,18.16-7.07,27.56-5,4.65,1,9.25,2,14,2.59,5.08.75,10.41.4,15.52.16C265.18,384.6,264.25,393.94,257.82,400.65Z" transform="translate(-167.59 -324.81)"/><path class="cls-1" d="M220.11,393.9c3.72-4.91,8.38-7.36,16.65-6.93a29,29,0,0,0,9.5-.93,11.32,11.32,0,0,1-8.26,6.12C231.72,393.24,225.3,390,220.11,393.9Z" transform="translate(-167.59 -324.81)"/><path class="cls-1" d="M267.74,405.8s-.43,17.51-26.77,25.89c-24.25,7.72-20.86,33.58.95,33.58C269.94,465.27,277.35,441.38,267.74,405.8Z" transform="translate(-167.59 -324.81)"/></svg>