<svg id="图层_1" data-name="图层 1" xmlns="http://www.w3.org/2000/svg" viewBox="0 0 36 67.29"><defs><style>.cls-1{fill:#262424;}</style></defs><path class="cls-1" d="M4.41,34.45,4.07,44,2.74,44l-.27-9.47Z" transform="translate(0 15.65)"/><path class="cls-1" d="M7.39,37.7l-.07,1.2a4,4,0,0,1,.42-.6,2.45,2.45,0,0,1,.54-.48,2.51,2.51,0,0,1,.65-.28,1.88,1.88,0,0,1,.75,0,2.61,2.61,0,0,1,1.07.38,2.25,2.25,0,0,1,.7.74,3.3,3.3,0,0,1,.39,1A7.5,7.5,0,0,1,12,41a6,6,0,0,1-.06.82c-.05.28-.11.57-.18.85s-.16.56-.25.84-.19.52-.29.76l-1.63-.16a.68.68,0,0,0,.08-.16c.05-.1.11-.24.18-.41s.13-.37.2-.6.14-.49.21-.75.11-.56.16-.85a6.8,6.8,0,0,0,.06-.9,3.91,3.91,0,0,0-.09-.88,1.69,1.69,0,0,0-.26-.64,1.2,1.2,0,0,0-.47-.4,1.47,1.47,0,0,0-.69-.14,1.1,1.1,0,0,0-.62.18,1.83,1.83,0,0,0-.47.49,2.83,2.83,0,0,0-.35.67,7.32,7.32,0,0,0-.25.75L7.06,44l-1.23.1-.25-6.24Z" transform="translate(0 15.65)"/><path class="cls-1" d="M17.44,44l.17-.7a3.68,3.68,0,0,1-.51.37,4.48,4.48,0,0,1-.58.29,4.83,4.83,0,0,1-.59.17,2.22,2.22,0,0,1-.54.07,3.41,3.41,0,0,1-.88-.13,2.62,2.62,0,0,1-.83-.38,2,2,0,0,1-.61-.62,1.57,1.57,0,0,1-.23-.87A2.62,2.62,0,0,1,13.06,41a2.15,2.15,0,0,1,.61-.78,2.52,2.52,0,0,1,.91-.46,4,4,0,0,1,1.12-.15,3.9,3.9,0,0,1,.58,0,2.89,2.89,0,0,1,.58.14,2.61,2.61,0,0,1,.54.24,2.09,2.09,0,0,1,.47.36,7.58,7.58,0,0,0-.1-.76,2.77,2.77,0,0,0-.24-.72,1.43,1.43,0,0,0-.43-.54,1.1,1.1,0,0,0-.69-.22,1.65,1.65,0,0,0-1,.32,1.62,1.62,0,0,0-.58.91l-1.72-.18a2.36,2.36,0,0,1,.45-.73A3,3,0,0,1,14.2,38a3,3,0,0,1,.78-.32,3.46,3.46,0,0,1,.84-.11,3.25,3.25,0,0,1,1.16.19,3,3,0,0,1,.9.5,3.06,3.06,0,0,1,.66.77A4.26,4.26,0,0,1,19,40,5.28,5.28,0,0,1,19.23,41a6.71,6.71,0,0,1,.08,1.1c0,.32,0,.64,0,1s-.09.64-.15,1Zm.35-1.87a1.53,1.53,0,0,0,0-.3l0-.29a1.24,1.24,0,0,0-.22-.56,1.58,1.58,0,0,0-.45-.4,2.09,2.09,0,0,0-.57-.26,2.18,2.18,0,0,0-.61-.08,1.69,1.69,0,0,0-.64.11,1.65,1.65,0,0,0-.52.33,1.58,1.58,0,0,0-.34.5,1.66,1.66,0,0,0-.13.64,1.93,1.93,0,0,0,.11.65,1.62,1.62,0,0,0,.31.51,1.32,1.32,0,0,0,.49.33,1.62,1.62,0,0,0,.64.12,2.16,2.16,0,0,0,.62-.09A2.2,2.2,0,0,0,17.1,43a1.87,1.87,0,0,0,.43-.41A1.5,1.5,0,0,0,17.79,42.08Z" transform="translate(0 15.65)"/><path class="cls-1" d="M26.5,37.9c0,.16,0,.33,0,.52l0,.57c0,.19,0,.38,0,.57s0,.36,0,.52,0,.61,0,1,0,.74-.08,1.13-.1.8-.17,1.2a10.71,10.71,0,0,1-.3,1.18,7.75,7.75,0,0,1-.44,1.07,4,4,0,0,1-.63.87,2.77,2.77,0,0,1-.84.59A2.68,2.68,0,0,1,23,47.3a2.91,2.91,0,0,1-.89-.14,3.1,3.1,0,0,1-.76-.41,2.82,2.82,0,0,1-1-1.42l2.05-.53a.91.91,0,0,0,0,.17v.18a4.4,4.4,0,0,0,0,.48,1.74,1.74,0,0,0,.13.51,1.15,1.15,0,0,0,.28.4.73.73,0,0,0,.49.17.76.76,0,0,0,.54-.23,2,2,0,0,0,.42-.58,5,5,0,0,0,.29-.8c.07-.3.14-.6.19-.9s.09-.59.11-.87,0-.51,0-.7a3.07,3.07,0,0,1-.38.66,2.62,2.62,0,0,1-.52.53,2.38,2.38,0,0,1-.65.34,2.45,2.45,0,0,1-.78.12A2,2,0,0,1,21.46,44a2.4,2.4,0,0,1-.74-.78,3.37,3.37,0,0,1-.42-1.11,6,6,0,0,1-.14-1.27,6.81,6.81,0,0,1,.12-1.34,8,8,0,0,1,.27-1,5.52,5.52,0,0,1,.4-.91l1.76.44a8.19,8.19,0,0,0-.79,1.79,6.06,6.06,0,0,0-.23,1.6,3.48,3.48,0,0,0,.08.69,2.3,2.3,0,0,0,.27.67,1.72,1.72,0,0,0,.46.51,1.19,1.19,0,0,0,.69.2,1.1,1.1,0,0,0,.64-.2,2.06,2.06,0,0,0,.48-.53,3.61,3.61,0,0,0,.35-.71,5.81,5.81,0,0,0,.24-.78c0-.25,0-.52,0-.8s0-.57,0-.86,0-.57-.05-.85-.06-.52-.1-.75Z" transform="translate(0 15.65)"/><path class="cls-1" d="M32.17,44l.17-.7a3.68,3.68,0,0,1-.51.37,4.48,4.48,0,0,1-.58.29,4.83,4.83,0,0,1-.59.17,2.22,2.22,0,0,1-.54.07,3.41,3.41,0,0,1-.88-.13,2.62,2.62,0,0,1-.83-.38A2,2,0,0,1,27.8,43a1.57,1.57,0,0,1-.23-.87A2.62,2.62,0,0,1,27.79,41a2.15,2.15,0,0,1,.61-.78,2.52,2.52,0,0,1,.91-.46,4,4,0,0,1,1.12-.15,3.9,3.9,0,0,1,.58,0,2.89,2.89,0,0,1,.58.14,2.61,2.61,0,0,1,.54.24,2.09,2.09,0,0,1,.47.36,7.58,7.58,0,0,0-.1-.76,2.77,2.77,0,0,0-.24-.72,1.54,1.54,0,0,0-.43-.54,1.1,1.1,0,0,0-.69-.22,1.65,1.65,0,0,0-1,.32,1.62,1.62,0,0,0-.58.91l-1.72-.18a2.36,2.36,0,0,1,.45-.73,3,3,0,0,1,.66-.52,3,3,0,0,1,.78-.32,3.46,3.46,0,0,1,.84-.11,3.25,3.25,0,0,1,1.16.19,3,3,0,0,1,.9.5,3.06,3.06,0,0,1,.66.77,4.26,4.26,0,0,1,.44.94A5.28,5.28,0,0,1,34,41a6.71,6.71,0,0,1,.08,1.1c0,.32,0,.64,0,1s-.09.64-.15,1Zm.35-1.87a1.53,1.53,0,0,0,0-.3l0-.29a1.24,1.24,0,0,0-.22-.56,1.58,1.58,0,0,0-.45-.4,2.09,2.09,0,0,0-.57-.26,2.18,2.18,0,0,0-.61-.08,1.69,1.69,0,0,0-.64.11,1.65,1.65,0,0,0-.52.33,1.58,1.58,0,0,0-.34.5,1.66,1.66,0,0,0-.13.64,1.93,1.93,0,0,0,.11.65,1.62,1.62,0,0,0,.31.51,1.37,1.37,0,0,0,.48.33,1.71,1.71,0,0,0,.65.12,2.16,2.16,0,0,0,.62-.09,2.2,2.2,0,0,0,.56-.26,1.87,1.87,0,0,0,.43-.41A1.5,1.5,0,0,0,32.52,42.08Z" transform="translate(0 15.65)"/><path class="cls-1" d="M4.94,50l-.51,0a1,1,0,0,0,0-.3.75.75,0,0,0-.13-.25A.6.6,0,0,0,4,49.32a.6.6,0,0,0-.3-.07.68.68,0,0,0-.26,0,1.07,1.07,0,0,0-.21.13l-.15.19a1.73,1.73,0,0,0-.1.24,1.84,1.84,0,0,0,0,.25,1.1,1.1,0,0,0,0,.25,2.44,2.44,0,0,0,0,.27,2.21,2.21,0,0,0,0,.25,1.33,1.33,0,0,0,.1.24.7.7,0,0,0,.15.19.9.9,0,0,0,.2.14.82.82,0,0,0,.28,0A.65.65,0,0,0,4,51.42a.56.56,0,0,0,.21-.16A.7.7,0,0,0,4.37,51a1.25,1.25,0,0,0,0-.29l.51,0a1.82,1.82,0,0,1-.18.37,1.24,1.24,0,0,1-.28.28,1.35,1.35,0,0,1-.34.17,1.34,1.34,0,0,1-.4.06,1.46,1.46,0,0,1-.52-.09,1.19,1.19,0,0,1-.38-.27,1.22,1.22,0,0,1-.25-.41,1.46,1.46,0,0,1-.08-.52,1.35,1.35,0,0,1,.09-.5,1.09,1.09,0,0,1,.25-.4,1.36,1.36,0,0,1,.39-.27,1.35,1.35,0,0,1,.5-.09,1.4,1.4,0,0,1,.41.06,1,1,0,0,1,.36.19,1.28,1.28,0,0,1,.28.29A1.11,1.11,0,0,1,4.94,50Z" transform="translate(0 15.65)"/><path class="cls-1" d="M7.31,50a.48.48,0,0,1-.06.24,1,1,0,0,1-.16.19,1.38,1.38,0,0,1-.24.14l-.27.09.73.79-.51.16-.54-.9H5.85l-.19,0v.86H5.24c0-.38,0-.77,0-1.16s0-.77,0-1.15l.24,0,.26,0h.51a1.14,1.14,0,0,1,.26,0,1,1,0,0,1,.25.06l.23.11a.93.93,0,0,1,.18.16.82.82,0,0,1,.12.2A.71.71,0,0,1,7.31,50ZM6,49.33H5.81l-.17,0,0,1.18H6l.21,0,.21-.05.18-.08a.53.53,0,0,0,.14-.12.71.71,0,0,0,.1-.14.57.57,0,0,0,0-.18.46.46,0,0,0,0-.21.39.39,0,0,0-.1-.16.58.58,0,0,0-.15-.11l-.18-.08-.2,0Z" transform="translate(0 15.65)"/><path class="cls-1" d="M9,50.76l-.16,0H8.08v.67l.21,0,.23,0,.26,0,.25,0,.23-.07a.75.75,0,0,0,.18-.08v.41H7.62l.06-2.33,1.82,0,0,.44-.18-.08-.23-.06-.26,0-.27,0-.25,0h-.2v1.21h.73l.23,0Z" transform="translate(0 15.65)"/><path class="cls-1" d="M10.9,49.12a.94.94,0,0,1,.39.07,1,1,0,0,1,.29.21,1.21,1.21,0,0,1,.2.3,1.74,1.74,0,0,1,.13.36,1.69,1.69,0,0,1,.07.38c0,.13,0,.25,0,.36a1.37,1.37,0,0,1,0,.29,1.64,1.64,0,0,1,0,.25l-.06.24-.49-.09c0-.08.06-.16.09-.26s0-.19.07-.29l-.39,0h-1a2.68,2.68,0,0,0,.07.27c0,.1.06.19.1.29l-.51.09a.85.85,0,0,1-.06-.17,1.08,1.08,0,0,1,0-.21,2.13,2.13,0,0,1,0-.27c0-.13,0-.27,0-.41a2.7,2.7,0,0,1,.06-.41,1.63,1.63,0,0,1,.13-.39,1.16,1.16,0,0,1,.22-.31.89.89,0,0,1,.32-.21A1.06,1.06,0,0,1,10.9,49.12Zm-.8,1.15a2.17,2.17,0,0,0,0,.26,1.07,1.07,0,0,0,0,.25h1l.4,0a2,2,0,0,0,0-.34,1.94,1.94,0,0,0,0-.24,2,2,0,0,0-.05-.26,1.33,1.33,0,0,0-.1-.24,1.1,1.1,0,0,0-.14-.21.66.66,0,0,0-.2-.14.55.55,0,0,0-.26-.05.59.59,0,0,0-.23,0,.86.86,0,0,0-.19.11.8.8,0,0,0-.15.17,2,2,0,0,0-.1.21,1.74,1.74,0,0,0-.05.22A.93.93,0,0,0,10.1,50.27Z" transform="translate(0 15.65)"/><path class="cls-1" d="M14.24,49.19l0,.32-.19,0-.23,0-.22,0h-.24l.09,2.11h-.5L13,49.44l-.25,0-.24,0-.21.05a.79.79,0,0,0-.16.08l0-.43Z" transform="translate(0 15.65)"/><path class="cls-1" d="M14.91,49.18l-.08,2.34H14.5l-.06-2.32Z" transform="translate(0 15.65)"/><path class="cls-1" d="M17.56,49.23q-.11.35-.21.66c-.08.2-.15.39-.23.56s-.14.33-.21.46l-.18.35-.13.21,0,.08-.35,0a7.19,7.19,0,0,1-.39-.64c-.06-.1-.11-.22-.17-.34a2.32,2.32,0,0,1-.18-.39l-.18-.44-.15-.49.56-.12a3.29,3.29,0,0,0,.08.47c0,.14.06.28.1.41l.13.36q.07.18.15.33a2.92,2.92,0,0,0,.14.31c.05.1.1.2.14.3a4.8,4.8,0,0,0,.26-.57,4.43,4.43,0,0,0,.17-.56c.05-.19.09-.37.13-.54s.06-.35.08-.51Z" transform="translate(0 15.65)"/><path class="cls-1" d="M19.19,50.76l-.16,0h-.8v.36a.76.76,0,0,0,0,.15v.16l.2,0,.24,0,.25,0,.25,0,.23-.07.19-.08v.41H17.78l.06-2.33,1.81,0,0,.44a.91.91,0,0,0-.17-.08l-.23-.06-.27,0-.27,0-.25,0h-.2v1.21H19l.23,0Z" transform="translate(0 15.65)"/><path class="cls-1" d="M22,51.64a1.36,1.36,0,0,1-.36,0,1,1,0,0,1-.3-.14,1,1,0,0,1-.24-.23,1.29,1.29,0,0,1-.17-.33l.56,0a.66.66,0,0,0,.17.45.58.58,0,0,0,.44.16l.23,0a.7.7,0,0,0,.2-.08.38.38,0,0,0,.14-.14A.41.41,0,0,0,22.7,51a.24.24,0,0,0,0-.15.24.24,0,0,0-.09-.11.37.37,0,0,0-.14-.07l-.16-.05-.16,0H22l-.23,0-.23-.05-.23-.08a.83.83,0,0,1-.18-.13.59.59,0,0,1-.13-.18.62.62,0,0,1,0-.25.69.69,0,0,1,0-.25.59.59,0,0,1,.13-.19.65.65,0,0,1,.18-.15l.22-.1a.86.86,0,0,1,.23-.06l.24,0,.24,0a1,1,0,0,1,.25,0l.25.09a.77.77,0,0,1,.21.14.69.69,0,0,1,.16.18.62.62,0,0,1,.08.24l-.54.11a.6.6,0,0,0-.05-.37.41.41,0,0,0-.16-.16.85.85,0,0,0-.22-.09,1.15,1.15,0,0,0-.26,0l-.23,0a.72.72,0,0,0-.2.09.4.4,0,0,0-.14.15.37.37,0,0,0-.06.21.25.25,0,0,0,.05.15.43.43,0,0,0,.12.11l.16.07.19.05.18,0h.14l.22,0,.22.06.21.09a.59.59,0,0,1,.18.13.57.57,0,0,1,.12.18.73.73,0,0,1,0,.23.51.51,0,0,1-.06.25.52.52,0,0,1-.14.19.77.77,0,0,1-.21.14,1.09,1.09,0,0,1-.25.1l-.25,0Z" transform="translate(0 15.65)"/><path class="cls-1" d="M25.39,49.19l0,.32-.19,0-.22,0-.23,0h-.24l.09,2.11h-.49l.05-2.09-.24,0-.24,0-.22.05a1.19,1.19,0,0,0-.16.08l0-.43Z" transform="translate(0 15.65)"/><path class="cls-1" d="M26.63,51.65a1.23,1.23,0,0,1-.35,0,1.3,1.3,0,0,1-.29-.14,1,1,0,0,1-.21-.21,1.17,1.17,0,0,1-.15-.27,1.58,1.58,0,0,1-.09-.31,1.84,1.84,0,0,1,0-.33c0-.09,0-.19,0-.3s0-.21.05-.32.05-.2.08-.3a1.69,1.69,0,0,1,.13-.27l.53.12-.11.19-.09.21a2.25,2.25,0,0,0-.08.24,2.17,2.17,0,0,0-.07.24c0,.09,0,.16,0,.24a1.62,1.62,0,0,0,0,.21A1.29,1.29,0,0,0,26,51a.89.89,0,0,0,.15.27.65.65,0,0,0,.24.19.91.91,0,0,0,.35.07.59.59,0,0,0,.23,0,.52.52,0,0,0,.19-.11,1.15,1.15,0,0,0,.14-.17.81.81,0,0,0,.1-.21.79.79,0,0,0,.06-.22,1.79,1.79,0,0,0,0-.23,1.34,1.34,0,0,0,0-.19c0-.07,0-.15-.05-.23s0-.15-.07-.24a2.09,2.09,0,0,0-.08-.23l-.09-.2a1.11,1.11,0,0,0-.11-.16l.55-.12a2.18,2.18,0,0,1,.11.27,2.81,2.81,0,0,1,.08.31c0,.1,0,.2,0,.3s0,.21,0,.3a1.72,1.72,0,0,1-.07.52,1.35,1.35,0,0,1-.22.43,1,1,0,0,1-.37.29A1.17,1.17,0,0,1,26.63,51.65Z" transform="translate(0 15.65)"/><path class="cls-1" d="M30.28,50.35a1.21,1.21,0,0,1-.05.34,1,1,0,0,1-.14.3,1.27,1.27,0,0,1-.21.25,1.31,1.31,0,0,1-.27.19,1.43,1.43,0,0,1-.31.12,1.27,1.27,0,0,1-.34,0h-.44l-.23,0-.19,0h0v-.4c0-.14,0-.27,0-.41s0-.49,0-.73,0-.5,0-.74a3.44,3.44,0,0,1,.45,0l.46,0a1.17,1.17,0,0,1,.32,0,1.39,1.39,0,0,1,.28.12,1,1,0,0,1,.25.19,1.16,1.16,0,0,1,.2.24,1.39,1.39,0,0,1,.12.28A1.19,1.19,0,0,1,30.28,50.35Zm-.45,0a1.73,1.73,0,0,0,0-.42.73.73,0,0,0-.18-.31.59.59,0,0,0-.29-.19,1.11,1.11,0,0,0-.43-.07H28.6l-.11,2.08a1,1,0,0,0,.24,0H29a.75.75,0,0,0,.26,0,.71.71,0,0,0,.22-.13,1.08,1.08,0,0,0,.16-.2,1,1,0,0,0,.12-.23,2.5,2.5,0,0,0,.07-.26A2.28,2.28,0,0,0,29.83,50.31Z" transform="translate(0 15.65)"/><path class="cls-1" d="M31.07,49.18,31,51.52h-.33l-.06-2.32Z" transform="translate(0 15.65)"/><path class="cls-1" d="M34,50.36a1.34,1.34,0,0,1,0,.35,1.73,1.73,0,0,1-.14.31,1,1,0,0,1-.2.25,1,1,0,0,1-.27.19,1.66,1.66,0,0,1-.31.12,1.34,1.34,0,0,1-.35,0,1.36,1.36,0,0,1-.51-.09,1.13,1.13,0,0,1-.41-.25,1.23,1.23,0,0,1-.27-.4,1.46,1.46,0,0,1-.09-.52,1.34,1.34,0,0,1,0-.35,1.69,1.69,0,0,1,.13-.31,1.57,1.57,0,0,1,.2-.25,1.24,1.24,0,0,1,.26-.19,1.66,1.66,0,0,1,.31-.12,1.27,1.27,0,0,1,.34,0,1.34,1.34,0,0,1,.35,0,1,1,0,0,1,.31.11,1.85,1.85,0,0,1,.27.19,1,1,0,0,1,.2.26,1.07,1.07,0,0,1,.18.66Zm-.44,0a2.28,2.28,0,0,0,0-.26,2.5,2.5,0,0,0-.07-.26,1.27,1.27,0,0,0-.12-.23.69.69,0,0,0-.16-.18.57.57,0,0,0-.21-.13.75.75,0,0,0-.54,0,.57.57,0,0,0-.21.13.63.63,0,0,0-.17.19,1.23,1.23,0,0,0-.11.23,1.82,1.82,0,0,0-.07.25,2.28,2.28,0,0,0,0,.26,2.45,2.45,0,0,0,0,.27,1,1,0,0,0,.06.25.82.82,0,0,0,.11.23,1,1,0,0,0,.16.19.78.78,0,0,0,.22.12.79.79,0,0,0,.28,0,.77.77,0,0,0,.27,0,.71.71,0,0,0,.22-.13.93.93,0,0,0,.16-.18,1.63,1.63,0,0,0,.11-.23,2,2,0,0,0,.07-.26A2.28,2.28,0,0,0,33.51,50.36Z" transform="translate(0 15.65)"/><path class="cls-1" d="M34.76.31a40.94,40.94,0,0,1-6.62.4C26.67.61,25.19.4,23.72.17,23.23.1,22.69,0,22.2,0a12,12,0,0,0-1.8,0l.3-.55a15.6,15.6,0,0,1,4.72-5.3,14.81,14.81,0,0,1,5.7-2.46,33,33,0,0,0-1.59,3.54,10.25,10.25,0,0,0-.81,3.61,1.85,1.85,0,0,0,.4,1.2.09.09,0,0,0,.13,0,.1.1,0,0,0,0-.14,2.85,2.85,0,0,1,0-2.22A30.5,30.5,0,0,1,33-9.46,15.27,15.27,0,0,0,24.64-7a16.8,16.8,0,0,0-4.77,4.66c-.66-1.23-.44-3.31-.14-4.5a12.05,12.05,0,0,1,2.8-5.29l3.19-3.52-4.34,1.94A44.05,44.05,0,0,0,8.13-4.91C2.38.7-1.21,9,.38,17.07S8,31.87,16.18,33.2l.76.15-.49-.63a8.41,8.41,0,0,1-1.35-2.11c-1.81-4,.29-8.61,3.47-11.26a13.5,13.5,0,0,1,2.07-1.45c.64-.36,1.65-.81,2.31-1.14,3.14-1.55,6.39-3,8.92-5.55a11.09,11.09,0,0,0,2.94-7.45A20.92,20.92,0,0,0,34.76.31ZM31.19,10.57a17.54,17.54,0,0,1-4,3.08c-2.2,1.34-4.62,2.4-6.89,3.64-3.76,2.24-6.79,6.41-6.39,11a8.61,8.61,0,0,0,1.63,4.24C8.19,31,2.78,24.08,1.7,16.84A20.79,20.79,0,0,1,2,9.34C3.55,1.81,9.12-4.2,15.47-8.23c1.12-.72,2.27-1.39,3.45-2A12.12,12.12,0,0,0,17.7-3.7,4.49,4.49,0,0,0,19.55-.23L20,.05a17.08,17.08,0,0,0-9,4.15.09.09,0,0,0,0,.13.1.1,0,0,0,.14,0,17.15,17.15,0,0,1,2.49-1.62A14,14,0,0,1,23.19,1c1.6.35,3.2.68,4.84.89A28.23,28.23,0,0,0,33.39,2C33.74,5,33.41,8.25,31.19,10.57Z" transform="translate(0 15.65)"/><path class="cls-1" d="M18.15,8.24c1.29-1.7,2.9-2.55,5.76-2.4a10.13,10.13,0,0,0,3.28-.32,3.91,3.91,0,0,1-2.85,2.12C22.17,8,20,6.88,18.15,8.24Z" transform="translate(0 15.65)"/><path class="cls-1" d="M34.62,12.35s-.15,6-9.25,9C17,24,18.15,32.91,25.7,32.91,35.38,32.91,37.94,24.65,34.62,12.35Z" transform="translate(0 15.65)"/></svg>