<svg id="图层_1" data-name="图层 1" xmlns="http://www.w3.org/2000/svg" viewBox="0 0 71.16 36"><defs><style>.cls-1{fill:#ffffff;}</style></defs><path class="cls-1" d="M15.3,11.81l-.43,12.35-1.73,0L12.79,12Z" transform="translate(17.58)"/><path class="cls-1" d="M19.15,16l-.09,1.55a5.4,5.4,0,0,1,.54-.78,3.1,3.1,0,0,1,.7-.61,2.84,2.84,0,0,1,.85-.38,2.59,2.59,0,0,1,1,0,3.39,3.39,0,0,1,1.37.5,3.06,3.06,0,0,1,.91,1,4.5,4.5,0,0,1,.5,1.35,8.71,8.71,0,0,1,.15,1.67A6.6,6.6,0,0,1,25,21.27a8.27,8.27,0,0,1-.23,1.1,9.65,9.65,0,0,1-.33,1.08c-.12.35-.24.68-.37,1l-2.1-.21A1.37,1.37,0,0,0,22,24c.06-.13.13-.3.22-.53s.17-.48.27-.78.18-.62.26-1,.15-.72.21-1.1a8.89,8.89,0,0,0,.08-1.15A5.51,5.51,0,0,0,23,18.36a2.34,2.34,0,0,0-.35-.83A1.37,1.37,0,0,0,22,17a2,2,0,0,0-.89-.18,1.4,1.4,0,0,0-.8.24,2.29,2.29,0,0,0-.61.63,3.68,3.68,0,0,0-.45.86,9.16,9.16,0,0,0-.32,1l-.22,4.6-1.59.13-.33-8.07Z" transform="translate(17.58)"/><path class="cls-1" d="M32.14,24.07l.21-.89a4.65,4.65,0,0,1-.66.48A5.6,5.6,0,0,1,31,24a4.5,4.5,0,0,1-.77.23,3.57,3.57,0,0,1-.69.08,4.3,4.3,0,0,1-1.15-.16,3.54,3.54,0,0,1-1.06-.49,2.66,2.66,0,0,1-.79-.81,2.09,2.09,0,0,1-.3-1.12,3.26,3.26,0,0,1,.29-1.45,2.75,2.75,0,0,1,.79-1,3.23,3.23,0,0,1,1.17-.59,5.19,5.19,0,0,1,1.45-.19,4.93,4.93,0,0,1,.75.06,5.11,5.11,0,0,1,.75.18,3.64,3.64,0,0,1,.7.31,3.41,3.41,0,0,1,.6.46,7.22,7.22,0,0,0-.13-1,3.39,3.39,0,0,0-.31-.93,1.83,1.83,0,0,0-.55-.7,1.37,1.37,0,0,0-.89-.28,2.16,2.16,0,0,0-1.33.4,2.06,2.06,0,0,0-.74,1.18L26.52,18A2.91,2.91,0,0,1,27.1,17a3.45,3.45,0,0,1,.85-.67A3.92,3.92,0,0,1,29,16,4.45,4.45,0,0,1,30,15.81a4.37,4.37,0,0,1,1.5.24,3.77,3.77,0,0,1,1.16.66,4,4,0,0,1,.86,1,6.47,6.47,0,0,1,.57,1.22,8.55,8.55,0,0,1,.32,1.37,9.59,9.59,0,0,1,.1,1.42,10.19,10.19,0,0,1-.07,1.24c0,.42-.11.83-.19,1.24Zm.45-2.41c0-.13,0-.26,0-.38l0-.39a1.42,1.42,0,0,0-.28-.71,2.27,2.27,0,0,0-.58-.53,3.28,3.28,0,0,0-.74-.33,3.13,3.13,0,0,0-.79-.11,2.31,2.31,0,0,0-.83.15,1.93,1.93,0,0,0-.66.43,1.79,1.79,0,0,0-.44.64,2.05,2.05,0,0,0-.17.83,2.47,2.47,0,0,0,.14.84,2.2,2.2,0,0,0,.4.66,1.76,1.76,0,0,0,.63.43,2.19,2.19,0,0,0,.83.15,2.72,2.72,0,0,0,.8-.12,2.64,2.64,0,0,0,.72-.34,2.14,2.14,0,0,0,.56-.52A2,2,0,0,0,32.59,21.66Z" transform="translate(17.58)"/><path class="cls-1" d="M43.84,16.26c0,.21,0,.43,0,.68l0,.73c0,.25,0,.5,0,.74s0,.46,0,.67c0,.37,0,.79,0,1.26s-.06.94-.11,1.45-.12,1-.22,1.55a12.51,12.51,0,0,1-.38,1.52,8.5,8.5,0,0,1-.57,1.38,5,5,0,0,1-.81,1.13,3.75,3.75,0,0,1-1.09.76,3.48,3.48,0,0,1-1.41.28,3.59,3.59,0,0,1-1.14-.19,3.63,3.63,0,0,1-1-.53,3.49,3.49,0,0,1-.78-.8,3.87,3.87,0,0,1-.53-1l2.65-.69a1.62,1.62,0,0,0,0,.22v.24a4.8,4.8,0,0,0,0,.62,2.47,2.47,0,0,0,.17.66,1.46,1.46,0,0,0,.37.52.88.88,0,0,0,.62.21,1,1,0,0,0,.71-.29A2.57,2.57,0,0,0,41,26.6a5.5,5.5,0,0,0,.37-1c.1-.39.19-.78.25-1.17s.11-.76.14-1.11,0-.66.06-.9a4,4,0,0,1-.5.85,3.32,3.32,0,0,1-.67.68,2.81,2.81,0,0,1-.84.44,3,3,0,0,1-1,.16,2.68,2.68,0,0,1-1.45-.38,3.09,3.09,0,0,1-1-1,4.85,4.85,0,0,1-.55-1.44A8.07,8.07,0,0,1,35.65,20a8.35,8.35,0,0,1,.16-1.73A9.72,9.72,0,0,1,36.16,17a5.73,5.73,0,0,1,.51-1.17l2.27.56a10.41,10.41,0,0,0-1,2.32,7.27,7.27,0,0,0-.31,2.07,4,4,0,0,0,.11.88,2.77,2.77,0,0,0,.34.87,2.37,2.37,0,0,0,.6.66,1.56,1.56,0,0,0,.9.26,1.35,1.35,0,0,0,.81-.26,2.39,2.39,0,0,0,.62-.68,4.16,4.16,0,0,0,.46-.92,7.79,7.79,0,0,0,.31-1c0-.32,0-.67,0-1s0-.74,0-1.11,0-.74-.06-1.1a8.46,8.46,0,0,0-.13-1Z" transform="translate(17.58)"/><path class="cls-1" d="M51.17,24.07l.21-.89a4.65,4.65,0,0,1-.66.48A5.17,5.17,0,0,1,50,24a4.4,4.4,0,0,1-.76.23,3.67,3.67,0,0,1-.7.08,4.18,4.18,0,0,1-1.14-.16,3.43,3.43,0,0,1-1.06-.49,2.66,2.66,0,0,1-.79-.81,2.09,2.09,0,0,1-.31-1.12,3.41,3.41,0,0,1,.29-1.45,3,3,0,0,1,.79-1,3.36,3.36,0,0,1,1.18-.59,5.12,5.12,0,0,1,1.44-.19,5,5,0,0,1,.76.06,5.11,5.11,0,0,1,.75.18,3.55,3.55,0,0,1,.69.31,2.8,2.8,0,0,1,.6.46,9.15,9.15,0,0,0-.12-1,3.77,3.77,0,0,0-.31-.93,1.85,1.85,0,0,0-.56-.7,1.35,1.35,0,0,0-.88-.28,2,2,0,0,0-2.08,1.58L45.55,18a2.75,2.75,0,0,1,.58-.94,3.59,3.59,0,0,1,.84-.67A4.14,4.14,0,0,1,48,16a4.52,4.52,0,0,1,2.57.1,3.82,3.82,0,0,1,1.17.66,4,4,0,0,1,.85,1,5.9,5.9,0,0,1,.57,1.22,7.61,7.61,0,0,1,.33,1.37,9.59,9.59,0,0,1,.1,1.42,10.19,10.19,0,0,1-.07,1.24c0,.42-.11.83-.19,1.24Zm.45-2.41c0-.13,0-.26,0-.38s0-.26,0-.39a1.43,1.43,0,0,0-.29-.71,2.11,2.11,0,0,0-.58-.53,2.92,2.92,0,0,0-.74-.33,3.06,3.06,0,0,0-.78-.11,2.27,2.27,0,0,0-.83.15,1.84,1.84,0,0,0-.66.43,2,2,0,0,0-.45.64,2,2,0,0,0-.16.83,2.47,2.47,0,0,0,.14.84,2.2,2.2,0,0,0,.4.66,1.82,1.82,0,0,0,.62.43,2.24,2.24,0,0,0,.84.15,2.72,2.72,0,0,0,.8-.12,2.64,2.64,0,0,0,.72-.34,2.31,2.31,0,0,0,.56-.52A2,2,0,0,0,51.62,21.66Z" transform="translate(17.58)"/><path class="cls-1" d="M16,31.13l-.66,0a2.32,2.32,0,0,0-.06-.38,1,1,0,0,0-.17-.33.92.92,0,0,0-.28-.24.79.79,0,0,0-.38-.09.9.9,0,0,0-.34.06,1,1,0,0,0-.26.17,1,1,0,0,0-.2.25,2.08,2.08,0,0,0-.13.3,1.65,1.65,0,0,0-.07.32,1.83,1.83,0,0,0,0,.33,2,2,0,0,0,0,.34,1.61,1.61,0,0,0,.06.33,1.66,1.66,0,0,0,.12.31,1,1,0,0,0,.19.25,1,1,0,0,0,.27.17,1,1,0,0,0,.36.06.79.79,0,0,0,.38-.08.75.75,0,0,0,.26-.21.81.81,0,0,0,.17-.3,1.59,1.59,0,0,0,.06-.38l.66,0a1.58,1.58,0,0,1-.23.47,1.54,1.54,0,0,1-.36.36,1.42,1.42,0,0,1-.44.23,1.82,1.82,0,0,1-.52.08,1.56,1.56,0,0,1-.66-.13,1.27,1.27,0,0,1-.5-.34,1.51,1.51,0,0,1-.32-.53,2,2,0,0,1-.11-.67,1.75,1.75,0,0,1,.12-.65,1.62,1.62,0,0,1,.32-.52,1.52,1.52,0,0,1,.51-.34,1.66,1.66,0,0,1,.64-.12A1.61,1.61,0,0,1,15,30a1.26,1.26,0,0,1,.46.24,1.45,1.45,0,0,1,.36.38A1.48,1.48,0,0,1,16,31.13Z" transform="translate(17.58)"/><path class="cls-1" d="M19.05,31.08a.65.65,0,0,1-.08.31.79.79,0,0,1-.21.24,1.49,1.49,0,0,1-.3.18,2.42,2.42,0,0,1-.35.12l.94,1-.66.19L17.7,32h-.53l-.25,0V33.1h-.54c0-.49,0-1,0-1.48s0-1,0-1.49l.32-.05.33,0,.34,0h.32l.34,0a1.16,1.16,0,0,1,.32.08,2.75,2.75,0,0,1,.3.14,1.14,1.14,0,0,1,.23.2.92.92,0,0,1,.16.27A.88.88,0,0,1,19.05,31.08Zm-1.73-.84h-.21l-.22,0,0,1.52.19,0h.21l.28,0a2,2,0,0,0,.26-.06,1.75,1.75,0,0,0,.24-.11.65.65,0,0,0,.18-.15.76.76,0,0,0,.12-.19.59.59,0,0,0,.05-.23.76.76,0,0,0-.05-.27.86.86,0,0,0-.13-.2.75.75,0,0,0-.2-.15.94.94,0,0,0-.23-.1,1.22,1.22,0,0,0-.26-.06Z" transform="translate(17.58)"/><path class="cls-1" d="M21.28,32.09l-.21,0-.22,0H20v.66a1.34,1.34,0,0,0,0,.2l.26,0,.31,0,.33,0,.32-.07.29-.08.24-.1v.52H19.46l.07-3,2.34,0,0,.58a.75.75,0,0,0-.22-.11l-.3-.08L21,30.36l-.35,0-.32,0-.26,0v1.58h.64l.31,0,.3,0Z" transform="translate(17.58)"/><path class="cls-1" d="M23.69,30a1.13,1.13,0,0,1,.87.37,1.36,1.36,0,0,1,.27.39,2.51,2.51,0,0,1,.16.46,2.21,2.21,0,0,1,.09.49,4.09,4.09,0,0,1,0,.47,2.34,2.34,0,0,1,0,.38,2.24,2.24,0,0,1,0,.31,2.33,2.33,0,0,1-.08.31L24.32,33a2.55,2.55,0,0,0,.11-.33c0-.12.07-.25.1-.38l-.51,0H22.74c0,.12.06.24.1.36A3.3,3.3,0,0,0,23,33l-.66.12a1.23,1.23,0,0,1-.09-.23c0-.07,0-.16-.06-.26s0-.22,0-.36a4.88,4.88,0,0,1,0-.53,3.08,3.08,0,0,1,.08-.53,2.58,2.58,0,0,1,.17-.49,1.3,1.3,0,0,1,.28-.41,1.13,1.13,0,0,1,.42-.27A1.46,1.46,0,0,1,23.69,30Zm-1,1.49c0,.12,0,.23,0,.34s0,.21,0,.32h1.35l.52,0a3.49,3.49,0,0,0,0-.44,1.67,1.67,0,0,0,0-.31,1.86,1.86,0,0,0-.07-.34,1.66,1.66,0,0,0-.12-.31,1.31,1.31,0,0,0-.19-.27,1,1,0,0,0-.26-.18.81.81,0,0,0-.33-.07.73.73,0,0,0-.3.06.92.92,0,0,0-.25.15.79.79,0,0,0-.18.22,1.26,1.26,0,0,0-.13.26c0,.1-.06.19-.08.29S22.65,31.36,22.65,31.45Z" transform="translate(17.58)"/><path class="cls-1" d="M28,30.06l0,.41-.24-.06-.29,0-.3,0h-.31L27,33.09h-.64l.08-2.71-.32,0a2.84,2.84,0,0,0-.31.06l-.28.07-.21.1,0-.56Z" transform="translate(17.58)"/><path class="cls-1" d="M28.87,30l-.11,3h-.42l-.09-3Z" transform="translate(17.58)"/><path class="cls-1" d="M32.29,30.11c-.09.3-.18.59-.28.85s-.19.51-.29.73-.19.42-.27.6l-.23.44-.17.28-.06.1-.44,0q-.26-.37-.51-.84c-.07-.13-.15-.27-.22-.43s-.16-.33-.24-.51-.15-.37-.22-.57-.14-.41-.2-.63l.73-.15a4.77,4.77,0,0,0,.09.6c.05.19.09.36.14.53s.11.32.17.47.12.29.19.43l.18.4a3.39,3.39,0,0,1,.18.39,6.74,6.74,0,0,0,.33-.74,7.63,7.63,0,0,0,.23-.73,6.36,6.36,0,0,0,.16-.7c.05-.23.08-.44.11-.65Z" transform="translate(17.58)"/><path class="cls-1" d="M34.4,32.09l-.21,0-.22,0h-.81v.66a1.34,1.34,0,0,0,0,.2l.26,0,.31,0,.32,0,.33-.07.29-.08.24-.1v.52H32.57l.08-3L35,30l0,.58a.9.9,0,0,0-.22-.11l-.3-.08-.34-.06-.35,0-.32,0-.26,0v1.58h.64l.31,0,.29,0Z" transform="translate(17.58)"/><path class="cls-1" d="M38,33.22a1.76,1.76,0,0,1-.46-.06,1.21,1.21,0,0,1-.38-.18,1.3,1.3,0,0,1-.32-.3,1.58,1.58,0,0,1-.22-.43l.73,0a.81.81,0,0,0,.22.58.74.74,0,0,0,.57.2,1.43,1.43,0,0,0,.29,0,.73.73,0,0,0,.26-.09.55.55,0,0,0,.18-.19.52.52,0,0,0,.08-.29.42.42,0,0,0,0-.2.41.41,0,0,0-.12-.14.51.51,0,0,0-.18-.09,1.17,1.17,0,0,0-.2-.06l-.21,0-.2,0-.29,0-.31-.07a1.33,1.33,0,0,1-.28-.1,1,1,0,0,1-.24-.17.63.63,0,0,1-.16-.23.66.66,0,0,1-.07-.32.79.79,0,0,1,.06-.32,1.07,1.07,0,0,1,.16-.25.88.88,0,0,1,.24-.19,1,1,0,0,1,.28-.13,1.57,1.57,0,0,1,.31-.08,1.53,1.53,0,0,1,.3,0l.31,0,.33.07a1.35,1.35,0,0,1,.32.11,1.24,1.24,0,0,1,.27.17.91.91,0,0,1,.2.24.82.82,0,0,1,.11.31l-.7.15a.86.86,0,0,0,0-.16.61.61,0,0,0-.07-.32.63.63,0,0,0-.21-.22.83.83,0,0,0-.29-.11,1.15,1.15,0,0,0-.33,0,1,1,0,0,0-.29,0,.77.77,0,0,0-.26.12.58.58,0,0,0-.19.19.51.51,0,0,0-.07.28.33.33,0,0,0,.06.19.64.64,0,0,0,.15.13l.22.1.24.06.23,0,.18,0,.28,0,.29.07a1.31,1.31,0,0,1,.27.12.94.94,0,0,1,.23.16.83.83,0,0,1,.15.23.8.8,0,0,1,0,.63,1.1,1.1,0,0,1-.19.25,1.27,1.27,0,0,1-.27.18,1.75,1.75,0,0,1-.32.12,1.94,1.94,0,0,1-.33.07A1.67,1.67,0,0,1,38,33.22Z" transform="translate(17.58)"/><path class="cls-1" d="M42.41,30.06l0,.41-.25-.06-.29,0-.29,0h-.31l.12,2.73h-.64l.07-2.71-.31,0a2.44,2.44,0,0,0-.31.06l-.28.07a1,1,0,0,0-.21.1l0-.56Z" transform="translate(17.58)"/><path class="cls-1" d="M44,33.23a1.63,1.63,0,0,1-.45-.06,1.16,1.16,0,0,1-.37-.18,1.79,1.79,0,0,1-.28-.27,1.48,1.48,0,0,1-.19-.35,2.34,2.34,0,0,1-.12-.4,3,3,0,0,1,0-.43c0-.11,0-.24,0-.38a2.9,2.9,0,0,1,.06-.41c0-.14.07-.27.11-.4a2.15,2.15,0,0,1,.17-.34l.68.16a2.32,2.32,0,0,0-.14.23l-.12.28c0,.1-.07.21-.1.31s-.06.21-.09.32,0,.2,0,.3,0,.19,0,.28a1.61,1.61,0,0,0,.06.44,1,1,0,0,0,.19.36.83.83,0,0,0,.31.24,1.25,1.25,0,0,0,.45.08.94.94,0,0,0,.3,0,1.28,1.28,0,0,0,.25-.15,1,1,0,0,0,.18-.22,1.13,1.13,0,0,0,.13-.27A1.37,1.37,0,0,0,45,32a1.43,1.43,0,0,0,0-.29c0-.07,0-.15,0-.25A1.67,1.67,0,0,0,45,31.2c0-.1-.05-.2-.08-.31l-.11-.3-.12-.26a1.15,1.15,0,0,0-.14-.2l.71-.17c.05.12.1.24.14.36a2.79,2.79,0,0,1,.1.39,2.76,2.76,0,0,1,.06.4c0,.13,0,.26,0,.39a2.34,2.34,0,0,1-.09.66,1.55,1.55,0,0,1-.28.56,1.47,1.47,0,0,1-.48.37A1.45,1.45,0,0,1,44,33.23Z" transform="translate(17.58)"/><path class="cls-1" d="M48.72,31.56a1.31,1.31,0,0,1-.07.44,1.39,1.39,0,0,1-.45.71,1.61,1.61,0,0,1-.34.24,2,2,0,0,1-.4.16,1.65,1.65,0,0,1-.44,0h-.57a1.53,1.53,0,0,1-.3,0l-.25,0v0c0-.17,0-.35,0-.52s0-.34,0-.52,0-.63,0-.95l0-.95a5.41,5.41,0,0,1,.58-.07l.59,0a1.4,1.4,0,0,1,.41.06,1.37,1.37,0,0,1,.38.15,2.43,2.43,0,0,1,.32.24,1.89,1.89,0,0,1,.25.31,1.73,1.73,0,0,1,.16.37A1.4,1.4,0,0,1,48.72,31.56Zm-.58,0a1.84,1.84,0,0,0-.07-.55,1,1,0,0,0-.22-.4,1,1,0,0,0-.39-.25,1.73,1.73,0,0,0-.55-.08h-.37l-.14,2.69a1.73,1.73,0,0,0,.32,0H47a.8.8,0,0,0,.34-.07,1.17,1.17,0,0,0,.28-.17,1,1,0,0,0,.21-.25,2.1,2.1,0,0,0,.15-.3,1.89,1.89,0,0,0,.09-.34A1.84,1.84,0,0,0,48.14,31.51Z" transform="translate(17.58)"/><path class="cls-1" d="M49.75,30l-.11,3h-.42l-.09-3Z" transform="translate(17.58)"/><path class="cls-1" d="M53.46,31.57a1.63,1.63,0,0,1-.06.45,1.31,1.31,0,0,1-.17.4,1.64,1.64,0,0,1-.26.33,2.16,2.16,0,0,1-.35.24,1.76,1.76,0,0,1-.4.16,2.22,2.22,0,0,1-.45.05,1.85,1.85,0,0,1-.67-.12,1.46,1.46,0,0,1-.52-.32,1.7,1.7,0,0,1-.35-.52,1.78,1.78,0,0,1-.12-.67,1.63,1.63,0,0,1,.06-.45,1.76,1.76,0,0,1,.16-.4,1.65,1.65,0,0,1,.26-.32,1.42,1.42,0,0,1,.34-.25,1.64,1.64,0,0,1,.84-.21,1.64,1.64,0,0,1,.45,0,1.74,1.74,0,0,1,.4.15,1.72,1.72,0,0,1,.35.25,1.35,1.35,0,0,1,.26.32,1.55,1.55,0,0,1,.17.4A1.7,1.7,0,0,1,53.46,31.57Zm-.57,0a1.92,1.92,0,0,0-.12-.67,1.55,1.55,0,0,0-.14-.29.88.88,0,0,0-.22-.25.92.92,0,0,0-.27-.16,1,1,0,0,0-.35-.06.9.9,0,0,0-.34.06.88.88,0,0,0-.28.17,1,1,0,0,0-.21.24,1.4,1.4,0,0,0-.15.3,1.59,1.59,0,0,0-.09.33,1.83,1.83,0,0,0,0,.33,2.11,2.11,0,0,0,0,.35,2,2,0,0,0,.08.33,1.55,1.55,0,0,0,.14.29,1.21,1.21,0,0,0,.21.24.85.85,0,0,0,.28.16,1,1,0,0,0,.36.06,1,1,0,0,0,.35-.06,1.08,1.08,0,0,0,.28-.16,1.21,1.21,0,0,0,.21-.24,1.68,1.68,0,0,0,.15-.3,2,2,0,0,0,.08-.33A2,2,0,0,0,52.89,31.57Z" transform="translate(17.58)"/><path class="cls-1" d="M8,11.73A30.49,30.49,0,0,1,3.1,12C2,12,.93,11.79-.15,11.63a10.38,10.38,0,0,0-1.12-.14,8.3,8.3,0,0,0-1.32,0l.22-.41A11.59,11.59,0,0,1,1.1,7.2,11,11,0,0,1,5.28,5.4,27.45,27.45,0,0,0,4.12,8a7.57,7.57,0,0,0-.6,2.65,1.43,1.43,0,0,0,.3.89.07.07,0,0,0,.09,0,.07.07,0,0,0,0-.1,2,2,0,0,1,0-1.64A22.33,22.33,0,0,1,6.64,4.54,11.23,11.23,0,0,0,.53,6.35,12.46,12.46,0,0,0-3,9.78a5.36,5.36,0,0,1-.1-3.31A8.84,8.84,0,0,1-1,2.58L1.32,0-1.87,1.42a32.36,32.36,0,0,0-9.74,6.47C-15.83,12-18.47,18.12-17.3,24s5.63,10.87,11.61,11.85l.56.11-.36-.46a6.22,6.22,0,0,1-1-1.55c-1.32-2.93.22-6.33,2.55-8.27a10,10,0,0,1,1.53-1.07c.47-.27,1.21-.6,1.7-.84C1.59,22.67,4,21.6,5.84,19.73A8.18,8.18,0,0,0,8,14.26,14.24,14.24,0,0,0,8,11.73ZM5.34,19.26a12.31,12.31,0,0,1-2.95,2.26C.78,22.51-1,23.29-2.67,24.2c-2.77,1.65-5,4.71-4.69,8.05a6.33,6.33,0,0,0,1.19,3.12c-5.39-1.11-9.36-6.18-10.16-11.5a15.23,15.23,0,0,1,.19-5.51C-15,12.82-10.88,8.41-6.22,5.45c.83-.53,1.68-1,2.54-1.48a8.85,8.85,0,0,0-.89,4.81,3.29,3.29,0,0,0,1.36,2.55l.35.2a12.61,12.61,0,0,0-6.6,3.05.07.07,0,0,0,0,.1.08.08,0,0,0,.1,0A12.21,12.21,0,0,1-7.54,13.5a10.24,10.24,0,0,1,7-1.27c1.18.26,2.35.51,3.56.66a20.74,20.74,0,0,0,3.94,0C7.21,15.19,7,17.56,5.34,19.26Z" transform="translate(17.58)"/><path class="cls-1" d="M-4.24,17.55A4.41,4.41,0,0,1,0,15.79a7.47,7.47,0,0,0,2.41-.24A2.88,2.88,0,0,1,.3,17.11C-1.29,17.38-2.92,16.55-4.24,17.55Z" transform="translate(17.58)"/><path class="cls-1" d="M7.86,20.57S7.75,25,1.06,27.15c-6.16,2-5.3,8.53.24,8.53C8.42,35.68,10.3,29.61,7.86,20.57Z" transform="translate(17.58)"/></svg>