<svg id="图层_1" data-name="图层 1" xmlns="http://www.w3.org/2000/svg" viewBox="0 0 26.45 36"><defs><style>.cls-1{fill:#000000;}</style></defs><path class="cls-1" d="M30.31,11.73a30.49,30.49,0,0,1-4.86.29c-1.08-.07-2.17-.23-3.24-.39a10.89,10.89,0,0,0-1.13-.14,8.31,8.31,0,0,0-1.32,0L20,11.1a11.67,11.67,0,0,1,3.46-3.9,11,11,0,0,1,4.19-1.8A25.2,25.2,0,0,0,26.47,8a7.56,7.56,0,0,0-.59,2.65,1.36,1.36,0,0,0,.29.89s.07,0,.09,0a.07.07,0,0,0,0-.1,2.08,2.08,0,0,1,0-1.64A22.71,22.71,0,0,1,29,4.54a11.25,11.25,0,0,0-6.11,1.81,12.33,12.33,0,0,0-3.51,3.43,5.36,5.36,0,0,1-.1-3.31,8.94,8.94,0,0,1,2.06-3.89L23.67,0,20.48,1.42a32.49,32.49,0,0,0-9.74,6.47C6.52,12,3.88,18.12,5.05,24s5.63,10.87,11.61,11.85l.56.11-.36-.46a6.19,6.19,0,0,1-1-1.55c-1.33-2.93.22-6.33,2.55-8.27a9.46,9.46,0,0,1,1.52-1.07c.47-.27,1.21-.6,1.7-.84,2.31-1.14,4.7-2.21,6.55-4.08a8.13,8.13,0,0,0,2.16-5.47A14.24,14.24,0,0,0,30.31,11.73Zm-2.62,7.53a12.45,12.45,0,0,1-2.94,2.26c-1.62,1-3.4,1.77-5.07,2.68-2.76,1.65-5,4.71-4.69,8.05a6.33,6.33,0,0,0,1.19,3.12C10.79,34.26,6.82,29.19,6,23.87a15.23,15.23,0,0,1,.19-5.51c1.17-5.54,5.27-9.95,9.93-12.91.82-.53,1.67-1,2.53-1.48a9,9,0,0,0-.89,4.81,3.32,3.32,0,0,0,1.36,2.55l.36.2a12.68,12.68,0,0,0-6.61,3.05.08.08,0,0,0,0,.1.08.08,0,0,0,.1,0,12.21,12.21,0,0,1,1.83-1.19,10.24,10.24,0,0,1,7-1.27c1.18.26,2.35.51,3.56.66a20.74,20.74,0,0,0,3.94,0C29.56,15.19,29.33,17.56,27.69,19.26Z" transform="translate(-4.77)"/><path class="cls-1" d="M18.11,17.55a4.41,4.41,0,0,1,4.23-1.76,7.57,7.57,0,0,0,2.42-.24,2.91,2.91,0,0,1-2.1,1.56C21.06,17.38,19.43,16.55,18.11,17.55Z" transform="translate(-4.77)"/><path class="cls-1" d="M30.21,20.57s-.11,4.45-6.8,6.58c-6.16,2-5.3,8.53.24,8.53C30.77,35.68,32.65,29.61,30.21,20.57Z" transform="translate(-4.77)"/></svg>