<?xml version="1.0" encoding="utf-8"?>
<!-- Generator: Adobe Illustrator 25.4.1, SVG Export Plug-In . SVG Version: 6.00 Build 0)  -->
<svg version="1.1" id="图层_1" xmlns="http://www.w3.org/2000/svg" xmlns:xlink="http://www.w3.org/1999/xlink" x="0px" y="0px"
	 viewBox="0 0 57.6 108" style="enable-background:new 0 0 57.6 108;" xml:space="preserve">
<g>
	<g>
		<path d="M7.05,80.16l-0.54,15.3L4.38,95.5L3.95,80.35L7.05,80.16z"/>
		<path d="M11.82,85.36l-0.11,1.92c0.19-0.34,0.41-0.67,0.67-0.97s0.55-0.55,0.87-0.76s0.67-0.36,1.05-0.46s0.78-0.12,1.2-0.06
			c0.67,0.1,1.24,0.3,1.7,0.61c0.46,0.31,0.84,0.7,1.12,1.18c0.29,0.48,0.49,1.04,0.62,1.67s0.19,1.32,0.19,2.07
			c0,0.42-0.04,0.85-0.11,1.31s-0.17,0.91-0.29,1.37c-0.12,0.45-0.26,0.9-0.41,1.34c-0.15,0.44-0.3,0.84-0.46,1.23l-2.61-0.26
			c0.01-0.01,0.06-0.09,0.14-0.25s0.17-0.38,0.27-0.65c0.11-0.27,0.22-0.6,0.33-0.97c0.12-0.37,0.23-0.77,0.33-1.2
			s0.19-0.88,0.25-1.36s0.1-0.95,0.1-1.43c0-0.53-0.05-1-0.14-1.4c-0.09-0.41-0.23-0.75-0.43-1.04c-0.19-0.28-0.44-0.5-0.74-0.64
			c-0.3-0.15-0.67-0.22-1.1-0.22c-0.37,0-0.7,0.1-0.99,0.3c-0.29,0.2-0.54,0.46-0.76,0.78s-0.4,0.67-0.56,1.07
			c-0.16,0.4-0.29,0.8-0.39,1.2l-0.27,5.69L9.33,95.6l-0.41-9.99L11.82,85.36z"/>
		<path d="M27.91,95.35l0.26-1.11c-0.25,0.22-0.52,0.42-0.82,0.59c-0.3,0.18-0.61,0.33-0.92,0.45c-0.32,0.12-0.63,0.22-0.95,0.29
			c-0.31,0.07-0.6,0.1-0.86,0.1c-0.46,0-0.93-0.07-1.42-0.2s-0.93-0.33-1.32-0.6s-0.72-0.6-0.97-1s-0.38-0.87-0.38-1.39
			c0-0.69,0.12-1.29,0.36-1.8s0.57-0.93,0.98-1.26s0.9-0.58,1.45-0.73s1.15-0.24,1.8-0.24c0.3,0,0.61,0.02,0.93,0.07
			s0.63,0.12,0.93,0.22c0.3,0.1,0.59,0.23,0.87,0.39c0.27,0.16,0.52,0.35,0.74,0.57c-0.02-0.38-0.07-0.78-0.15-1.2
			s-0.21-0.81-0.38-1.16c-0.17-0.35-0.4-0.64-0.69-0.87s-0.65-0.34-1.1-0.34c-0.65,0-1.2,0.17-1.64,0.5
			c-0.45,0.33-0.76,0.82-0.92,1.45l-2.75-0.29c0.17-0.44,0.41-0.82,0.72-1.16c0.31-0.33,0.66-0.61,1.05-0.84
			c0.39-0.23,0.81-0.4,1.25-0.51c0.44-0.12,0.89-0.17,1.34-0.17c0.69,0,1.31,0.1,1.85,0.3c0.55,0.2,1.03,0.47,1.44,0.81
			c0.42,0.34,0.77,0.75,1.06,1.22c0.29,0.47,0.52,0.97,0.71,1.51c0.18,0.54,0.32,1.1,0.4,1.69c0.08,0.59,0.13,1.17,0.13,1.76
			c0,0.52-0.03,1.04-0.08,1.55c-0.06,0.51-0.14,1.02-0.24,1.53L27.91,95.35z M28.47,92.36c0.02-0.16,0.04-0.32,0.05-0.48
			c0.01-0.15,0.02-0.31,0.04-0.48c-0.04-0.33-0.15-0.62-0.35-0.88c-0.2-0.26-0.44-0.48-0.72-0.65c-0.28-0.18-0.59-0.32-0.92-0.41
			c-0.33-0.09-0.65-0.14-0.97-0.14c-0.37,0-0.71,0.06-1.02,0.18c-0.32,0.12-0.59,0.3-0.82,0.52c-0.23,0.23-0.42,0.49-0.55,0.8
			c-0.13,0.31-0.2,0.65-0.2,1.02c0,0.38,0.06,0.73,0.17,1.04c0.12,0.31,0.28,0.58,0.49,0.81c0.21,0.23,0.47,0.41,0.78,0.53
			c0.31,0.13,0.65,0.19,1.03,0.19c0.34,0,0.67-0.05,0.99-0.15s0.62-0.24,0.89-0.42c0.27-0.18,0.5-0.4,0.7-0.65
			C28.25,92.97,28.39,92.68,28.47,92.36z"/>
		<path d="M42.4,85.68c0.02,0.25,0.04,0.53,0.06,0.83s0.03,0.61,0.04,0.91c0.01,0.31,0.02,0.61,0.03,0.91s0.01,0.58,0.01,0.83
			c0,0.46-0.01,0.98-0.03,1.56c-0.02,0.57-0.06,1.18-0.13,1.81c-0.06,0.63-0.16,1.27-0.27,1.92c-0.12,0.65-0.28,1.27-0.47,1.88
			c-0.19,0.61-0.43,1.18-0.71,1.71c-0.28,0.54-0.62,1-1,1.4c-0.39,0.4-0.84,0.71-1.35,0.94s-1.09,0.34-1.75,0.34
			c-0.49,0-0.96-0.08-1.41-0.23c-0.45-0.16-0.86-0.37-1.23-0.65s-0.69-0.61-0.97-1c-0.28-0.39-0.49-0.81-0.65-1.28l3.29-0.85
			c-0.01,0.08-0.02,0.17-0.02,0.27c0,0.09,0,0.19,0,0.29c0,0.23,0.02,0.48,0.05,0.77c0.04,0.29,0.11,0.56,0.21,0.81
			c0.11,0.25,0.26,0.47,0.45,0.64c0.2,0.18,0.45,0.26,0.77,0.26c0.33,0,0.62-0.12,0.88-0.36c0.25-0.24,0.47-0.55,0.66-0.93
			s0.34-0.81,0.46-1.29s0.23-0.96,0.31-1.44s0.14-0.94,0.17-1.38c0.03-0.44,0.06-0.81,0.07-1.11c-0.17,0.38-0.37,0.73-0.62,1.06
			c-0.24,0.32-0.52,0.6-0.83,0.84s-0.66,0.42-1.04,0.55c-0.38,0.13-0.8,0.2-1.25,0.2c-0.7,0-1.3-0.16-1.8-0.48
			c-0.49-0.32-0.89-0.73-1.2-1.25s-0.53-1.11-0.67-1.77c-0.14-0.67-0.21-1.34-0.21-2.03c0-0.79,0.06-1.5,0.19-2.14
			c0.13-0.64,0.27-1.19,0.43-1.65c0.18-0.54,0.39-1.02,0.63-1.45l2.81,0.7c-0.58,1.04-1,1.99-1.25,2.87
			c-0.25,0.88-0.37,1.73-0.37,2.56c0,0.35,0.04,0.71,0.13,1.1s0.23,0.74,0.42,1.07s0.44,0.6,0.74,0.81c0.3,0.21,0.67,0.32,1.11,0.32
			c0.38,0,0.72-0.11,1.01-0.32c0.29-0.21,0.55-0.49,0.77-0.83c0.22-0.34,0.41-0.72,0.57-1.14c0.15-0.42,0.28-0.84,0.38-1.25
			c0-0.4,0-0.83-0.01-1.28c0-0.45-0.01-0.91-0.03-1.37c-0.01-0.46-0.04-0.91-0.08-1.35c-0.04-0.44-0.09-0.84-0.15-1.21L42.4,85.68z"
			/>
		<path d="M51.48,95.35l0.26-1.11c-0.25,0.22-0.52,0.42-0.82,0.59c-0.3,0.18-0.61,0.33-0.92,0.45c-0.32,0.12-0.63,0.22-0.95,0.29
			c-0.31,0.07-0.6,0.1-0.86,0.1c-0.46,0-0.93-0.07-1.42-0.2c-0.49-0.13-0.93-0.33-1.32-0.6s-0.72-0.6-0.97-1S44.1,93,44.1,92.48
			c0-0.69,0.12-1.29,0.36-1.8s0.57-0.93,0.98-1.26s0.9-0.58,1.45-0.73c0.56-0.16,1.15-0.24,1.8-0.24c0.3,0,0.61,0.02,0.93,0.07
			s0.63,0.12,0.93,0.22s0.59,0.23,0.87,0.39c0.27,0.16,0.52,0.35,0.74,0.57c-0.02-0.38-0.07-0.78-0.15-1.2s-0.21-0.81-0.38-1.16
			c-0.17-0.35-0.4-0.64-0.69-0.87c-0.29-0.23-0.65-0.34-1.1-0.34c-0.65,0-1.2,0.17-1.64,0.5c-0.45,0.33-0.76,0.82-0.92,1.45
			l-2.75-0.29c0.17-0.44,0.41-0.82,0.72-1.16c0.31-0.33,0.66-0.61,1.05-0.84c0.39-0.23,0.81-0.4,1.25-0.51
			c0.44-0.12,0.89-0.17,1.34-0.17c0.69,0,1.31,0.1,1.85,0.3c0.55,0.2,1.03,0.47,1.44,0.81c0.42,0.34,0.77,0.75,1.06,1.22
			s0.52,0.97,0.71,1.51c0.18,0.54,0.32,1.1,0.4,1.69c0.08,0.59,0.13,1.17,0.13,1.76c0,0.52-0.03,1.04-0.08,1.55
			c-0.06,0.51-0.14,1.02-0.24,1.53L51.48,95.35z M52.04,92.36c0.02-0.16,0.04-0.32,0.05-0.48c0.01-0.15,0.02-0.31,0.04-0.48
			c-0.04-0.33-0.15-0.62-0.35-0.88c-0.2-0.26-0.44-0.48-0.72-0.65c-0.28-0.18-0.59-0.32-0.92-0.41c-0.33-0.09-0.65-0.14-0.97-0.14
			c-0.37,0-0.71,0.06-1.02,0.18c-0.32,0.12-0.59,0.3-0.82,0.52c-0.23,0.23-0.42,0.49-0.55,0.8c-0.13,0.31-0.2,0.65-0.2,1.02
			c0,0.38,0.06,0.73,0.17,1.04c0.12,0.31,0.28,0.58,0.49,0.81c0.21,0.23,0.47,0.41,0.78,0.53c0.31,0.13,0.65,0.19,1.03,0.19
			c0.34,0,0.67-0.05,0.99-0.15c0.32-0.1,0.62-0.24,0.89-0.42s0.5-0.4,0.7-0.65C51.81,92.97,51.95,92.68,52.04,92.36z"/>
	</g>
	<g>
		<path d="M55.61,25.54c-3.57,0.26-7.02,0.93-10.59,0.63c-2.35-0.16-4.72-0.49-7.06-0.86c-0.79-0.13-1.65-0.25-2.45-0.3
			c-0.96-0.06-1.92-0.04-2.88,0.04l0.49-0.88c1.85-3.34,4.4-6.31,7.54-8.49c2.71-1.9,5.85-3.3,9.12-3.93
			c-0.95,1.84-1.81,3.72-2.54,5.66c-0.66,1.85-1.32,3.77-1.3,5.77c0.03,0.68,0.17,1.41,0.65,1.93c0.05,0.06,0.14,0.07,0.2,0.02
			c0.07-0.05,0.08-0.15,0.03-0.22c-0.7-1.03-0.3-2.43-0.02-3.56c1.3-4.1,3.61-7.87,5.92-11.47c-4.71-0.06-9.34,1.43-13.3,3.94
			c-3.03,1.92-5.61,4.51-7.64,7.46c-1.05-1.98-0.69-5.3-0.22-7.21c0.75-3.13,2.33-6.08,4.49-8.46L41.15,0L34.2,3.1
			C26.44,6.56,19.05,11.14,13,17.18C3.81,26.16-1.94,39.45,0.6,52.35c2.43,12.76,12.25,23.67,25.29,25.8l1.21,0.24l-0.78-1.01
			c-0.88-1.02-1.63-2.15-2.16-3.38c-2.89-6.38,0.47-13.77,5.55-18.01c1.03-0.88,2.15-1.65,3.32-2.32c1.01-0.58,2.63-1.3,3.69-1.82
			c5.02-2.49,10.22-4.82,14.27-8.89c3.17-3.19,4.49-7.51,4.7-11.91C55.8,29.22,55.83,27.35,55.61,25.54z M49.91,41.95
			c-1.82,1.99-4.11,3.53-6.42,4.92c-3.52,2.15-7.4,3.84-11.03,5.83c-6.02,3.59-10.86,10.25-10.22,17.52c0.21,2.45,1.16,4.8,2.6,6.79
			C13.1,74.61,4.45,63.56,2.72,51.98C2.11,48,2.29,43.91,3.13,39.97C5.68,27.92,14.6,18.32,24.74,11.86
			c1.79-1.15,3.64-2.22,5.52-3.23c-1.56,3.24-2.32,6.86-1.95,10.48c0.26,2.06,1.01,4.41,2.97,5.56l0.77,0.44
			c-5.31,0.6-10.34,3.2-14.38,6.64c-0.06,0.05-0.07,0.15-0.02,0.21c0.05,0.07,0.15,0.08,0.22,0.02c1.24-0.98,2.6-1.83,3.99-2.59
			c4.61-2.49,10.05-3.91,15.24-2.76c2.57,0.56,5.12,1.1,7.75,1.43c2.81,0.42,5.75,0.22,8.58,0.09
			C53.98,33.07,53.46,38.24,49.91,41.95z"/>
		<path d="M29.05,38.21c2.06-2.71,4.64-4.07,9.21-3.83c3.14,0.16,5.25-0.52,5.25-0.52s-1.2,2.81-4.57,3.39
			C35.47,37.85,31.92,36.04,29.05,38.21z"/>
		<path d="M55.39,44.79c0,0-0.23,9.69-14.81,14.32c-13.41,4.27-11.54,18.57,0.53,18.57C56.61,77.69,60.71,64.47,55.39,44.79z"/>
	</g>
	<g>
		<path d="M6.36,104.29c-0.2,0-0.38,0.04-0.53,0.11c-0.16,0.07-0.29,0.18-0.4,0.31c-0.11,0.14-0.19,0.3-0.25,0.49
			c-0.06,0.19-0.09,0.41-0.09,0.65c0,0.32,0.05,0.6,0.14,0.84c0.09,0.23,0.23,0.41,0.42,0.54c0.19,0.12,0.42,0.19,0.71,0.19
			c0.18,0,0.35-0.02,0.52-0.05c0.17-0.03,0.34-0.08,0.52-0.14v0.58c-0.17,0.07-0.34,0.12-0.51,0.15C6.7,107.98,6.5,108,6.27,108
			c-0.43,0-0.78-0.09-1.06-0.27s-0.49-0.43-0.63-0.75c-0.14-0.32-0.21-0.7-0.21-1.13c0-0.32,0.04-0.61,0.13-0.87
			s0.22-0.49,0.38-0.68c0.17-0.19,0.38-0.34,0.62-0.44c0.25-0.1,0.53-0.16,0.85-0.16c0.21,0,0.42,0.02,0.62,0.07s0.39,0.11,0.56,0.2
			l-0.24,0.57c-0.14-0.07-0.3-0.13-0.45-0.18C6.69,104.31,6.53,104.29,6.36,104.29z"/>
		<path d="M9.52,103.77c0.36,0,0.66,0.04,0.89,0.13c0.24,0.09,0.41,0.22,0.53,0.4s0.17,0.41,0.17,0.68c0,0.21-0.04,0.38-0.11,0.53
			c-0.08,0.14-0.18,0.26-0.3,0.36s-0.26,0.17-0.4,0.23l1.18,1.85h-0.77l-1.01-1.67H9.03v1.67H8.34v-4.18H9.52z M9.47,104.34H9.03
			v1.37H9.5c0.32,0,0.55-0.06,0.69-0.18c0.14-0.12,0.22-0.29,0.22-0.52c0-0.24-0.08-0.41-0.23-0.51
			C10.03,104.39,9.79,104.34,9.47,104.34z"/>
		<path d="M14.5,107.94h-2.37v-4.18h2.37v0.58h-1.68v1.13h1.57v0.57h-1.57v1.31h1.68V107.94z"/>
		<path d="M18.28,107.94l-0.41-1.16h-1.6l-0.41,1.16h-0.72l1.55-4.19h0.76l1.55,4.19H18.28z M17.7,106.19l-0.4-1.14
			c-0.01-0.05-0.04-0.12-0.07-0.21c-0.03-0.09-0.06-0.18-0.09-0.28c-0.03-0.09-0.05-0.17-0.07-0.24c-0.02,0.08-0.04,0.17-0.07,0.26
			c-0.03,0.1-0.05,0.19-0.08,0.27c-0.03,0.08-0.04,0.15-0.06,0.19l-0.4,1.14L17.7,106.19L17.7,106.19z"/>
		<path d="M21.07,107.94h-0.69v-3.59h-1.22v-0.58h3.13v0.58h-1.22C21.07,104.35,21.07,107.94,21.07,107.94z"/>
		<path d="M23.1,107.94v-4.18h0.69v4.18H23.1z"/>
		<path d="M28.04,103.77l-1.46,4.18h-0.73l-1.46-4.18h0.7l0.88,2.62c0.03,0.08,0.06,0.17,0.09,0.28s0.06,0.22,0.09,0.33
			s0.05,0.21,0.06,0.29c0.01-0.09,0.04-0.18,0.06-0.29c0.03-0.11,0.06-0.22,0.09-0.33s0.06-0.2,0.09-0.28l0.88-2.61h0.71V103.77z"/>
		<path d="M31.01,107.94h-2.37v-4.18h2.37v0.58h-1.68v1.13h1.57v0.57h-1.57v1.31h1.68C31.01,107.35,31.01,107.94,31.01,107.94z"/>
		<path d="M35.96,106.81c0,0.25-0.06,0.46-0.18,0.64s-0.29,0.32-0.52,0.41c-0.23,0.09-0.49,0.14-0.81,0.14
			c-0.15,0-0.3-0.01-0.44-0.03s-0.27-0.04-0.39-0.08c-0.12-0.03-0.23-0.07-0.34-0.12v-0.65c0.17,0.07,0.36,0.14,0.57,0.2
			s0.42,0.09,0.64,0.09c0.18,0,0.32-0.02,0.44-0.07s0.2-0.11,0.26-0.2s0.09-0.19,0.09-0.3c0-0.12-0.03-0.23-0.1-0.31
			c-0.07-0.09-0.17-0.16-0.3-0.24c-0.13-0.07-0.3-0.15-0.5-0.23c-0.14-0.06-0.27-0.12-0.39-0.19s-0.24-0.15-0.33-0.25
			c-0.1-0.1-0.17-0.21-0.23-0.34s-0.09-0.28-0.09-0.46c0-0.24,0.06-0.44,0.17-0.61c0.11-0.17,0.27-0.3,0.48-0.39
			s0.45-0.13,0.72-0.13c0.22,0,0.42,0.02,0.62,0.07c0.19,0.05,0.38,0.11,0.57,0.19l-0.22,0.55c-0.17-0.07-0.34-0.13-0.5-0.17
			s-0.33-0.06-0.49-0.06c-0.14,0-0.27,0.02-0.37,0.07c-0.1,0.04-0.18,0.11-0.23,0.18c-0.05,0.08-0.08,0.17-0.08,0.28
			c0,0.12,0.03,0.22,0.09,0.31c0.06,0.08,0.15,0.16,0.28,0.23c0.13,0.07,0.29,0.14,0.49,0.23c0.23,0.1,0.43,0.2,0.59,0.3
			c0.16,0.1,0.28,0.23,0.37,0.38C35.92,106.4,35.96,106.59,35.96,106.81z"/>
		<path d="M38.51,107.94h-0.69v-3.59H36.6v-0.58h3.13v0.58h-1.22V107.94z"/>
		<path d="M43.76,103.77v2.7c0,0.29-0.06,0.55-0.18,0.78c-0.12,0.23-0.31,0.41-0.56,0.55c-0.25,0.13-0.56,0.2-0.93,0.2
			c-0.53,0-0.94-0.14-1.22-0.42c-0.28-0.28-0.42-0.65-0.42-1.12v-2.69h0.69v2.63c0,0.35,0.08,0.61,0.25,0.77
			c0.16,0.17,0.41,0.25,0.73,0.25c0.22,0,0.41-0.04,0.55-0.12s0.25-0.19,0.31-0.35c0.07-0.15,0.1-0.34,0.1-0.56v-2.63h0.68V103.77z"
			/>
		<path d="M47.98,105.81c0,0.47-0.09,0.86-0.26,1.18s-0.43,0.55-0.76,0.71c-0.33,0.16-0.74,0.24-1.21,0.24h-1.16v-4.18h1.29
			c0.43,0,0.81,0.08,1.12,0.23c0.31,0.16,0.56,0.38,0.73,0.69C47.9,104.99,47.98,105.37,47.98,105.81z M47.27,105.83
			c0-0.34-0.05-0.62-0.16-0.85c-0.11-0.22-0.27-0.38-0.47-0.49c-0.21-0.11-0.47-0.16-0.77-0.16h-0.59v3.03h0.49
			c0.5,0,0.88-0.13,1.13-0.39C47.14,106.73,47.27,106.34,47.27,105.83z"/>
		<path d="M48.76,107.94v-4.18h0.69v4.18H48.76z"/>
		<path d="M54.14,105.85c0,0.32-0.04,0.61-0.12,0.88c-0.08,0.26-0.2,0.49-0.36,0.68s-0.36,0.34-0.61,0.44
			c-0.24,0.1-0.53,0.15-0.86,0.15s-0.62-0.05-0.87-0.15s-0.45-0.25-0.61-0.44s-0.28-0.42-0.36-0.68s-0.12-0.56-0.12-0.88
			c0-0.43,0.07-0.81,0.21-1.13s0.36-0.57,0.65-0.75s0.66-0.27,1.1-0.27c0.43,0,0.79,0.09,1.08,0.27s0.5,0.43,0.65,0.75
			C54.07,105.03,54.14,105.41,54.14,105.85z M50.95,105.85c0,0.32,0.04,0.6,0.13,0.84s0.22,0.42,0.4,0.54
			c0.18,0.13,0.42,0.19,0.7,0.19c0.29,0,0.52-0.06,0.7-0.19c0.18-0.13,0.31-0.31,0.4-0.54c0.09-0.24,0.13-0.51,0.13-0.84
			c0-0.49-0.1-0.87-0.29-1.15c-0.19-0.28-0.51-0.42-0.93-0.42c-0.29,0-0.52,0.06-0.7,0.19c-0.18,0.13-0.32,0.3-0.41,0.54
			C50.99,105.24,50.95,105.52,50.95,105.85z"/>
	</g>
</g>
</svg>
